<?xml version="1.0" encoding="iso-8859-1"?>
<!-- Generator: Adobe Illustrator 19.0.0, SVG Export Plug-In . SVG Version: 6.00 Build 0)  -->
<svg version="1.1" id="Capa_1" xmlns="http://www.w3.org/2000/svg" xmlns:xlink="http://www.w3.org/1999/xlink" x="0px" y="0px"
	 viewBox="0 0 468.293 468.293" style="enable-background:new 0 0 468.293 468.293;" xml:space="preserve">
<path style="fill:#FCD462;" d="M418.431,391.347H0v-306.4c0-15.658,12.693-28.351,28.351-28.351h147.166
	c8.051,0,15.722,3.423,21.1,9.415l30.733,34.244c5.378,5.992,13.049,9.415,21.1,9.415h141.629c15.658,0,28.351,12.693,28.351,28.351
	V391.347z"/>
<rect x="76.775" y="141.549" style="fill:#EBF0F3;" width="314.755" height="103.555"/>
<path style="fill:#F6C358;" d="M401.013,411.697H22.694c-14.906,0-25.76-14.133-21.913-28.534l44.586-191.902
	c2.651-9.924,11.641-16.828,21.913-16.828h378.319c14.906,0,25.76,14.133,21.913,28.534l-44.586,191.902
	C420.275,404.793,411.285,411.697,401.013,411.697z"/>
<g>
	<rect x="282.455" y="207.953" style="fill:#DC8744;" width="33.954" height="33.954"/>
	<rect x="316.004" y="174.436" style="fill:#DC8744;" width="33.954" height="33.954"/>
	<rect x="316.441" y="241.889" style="fill:#DC8744;" width="33.954" height="33.954"/>
	<rect x="282.455" y="275.868" style="fill:#DC8744;" width="33.954" height="33.954"/>
	<rect x="316.441" y="309.822" style="fill:#DC8744;" width="33.954" height="33.954"/>
	<rect x="282.455" y="343.789" style="fill:#DC8744;" width="33.954" height="33.954"/>
	<rect x="316.441" y="377.743" style="fill:#DC8744;" width="33.954" height="33.954"/>
</g>
<g>
</g>
<g>
</g>
<g>
</g>
<g>
</g>
<g>
</g>
<g>
</g>
<g>
</g>
<g>
</g>
<g>
</g>
<g>
</g>
<g>
</g>
<g>
</g>
<g>
</g>
<g>
</g>
<g>
</g>
</svg>
