<?xml version="1.0" encoding="iso-8859-1"?>
<!-- Generator: Adobe Illustrator 19.0.0, SVG Export Plug-In . SVG Version: 6.00 Build 0)  -->
<svg version="1.1" id="Capa_1" xmlns="http://www.w3.org/2000/svg" xmlns:xlink="http://www.w3.org/1999/xlink" x="0px" y="0px"
	 viewBox="0 0 468.12 468.12" style="enable-background:new 0 0 468.12 468.12;" xml:space="preserve">
<polygon style="fill:#E1E6E9;" points="57.266,2.034 0,59.298 0,466.086 314.203,466.086 314.203,2.034 "/>
<polygon style="fill:#EBF0F3;" points="57.266,59.298 57.266,2.034 0.001,59.298 "/>
<g>
	<rect x="39.544" y="119.035" style="fill:#D5D6DB;" width="235.12" height="15.466"/>
	<rect x="39.544" y="187.705" style="fill:#D5D6DB;" width="207.11" height="15.466"/>
	<rect x="39.544" y="256.369" style="fill:#D5D6DB;" width="178.931" height="15.466"/>
	<rect x="39.544" y="325.033" style="fill:#D5D6DB;" width="143.922" height="15.466"/>
	<rect x="39.544" y="393.716" style="fill:#D5D6DB;" width="177.627" height="15.466"/>
</g>
<path style="fill:#E56353;" d="M393.423,182.316l-66.64-39.582l69.844-117.588c9.749-16.414,30.958-21.816,47.372-12.067
	l7.201,4.277c16.414,9.749,21.816,30.959,12.067,47.372L393.423,182.316z"/>
<g>
	<path style="fill:#D15241;" d="M379.072,146.812l-14.246-8.461c-4.924-2.925-5.381-9.879-0.883-13.424l8.5-6.696l42.678-71.852
		c3.387-5.703,10.756-7.58,16.459-4.193v0c5.703,3.387,7.58,10.756,4.193,16.459l-42.678,71.852l-1.814,10.667
		C390.322,146.811,383.996,149.737,379.072,146.812z"/>
	<path style="fill:#D15241;" d="M334.606,144.74l53.312,31.666l-94.215,158.617c-1.761,2.965-5.592,3.941-8.557,2.18l-42.576-25.288
		c-2.965-1.761-3.941-5.592-2.18-8.557L334.606,144.74z"/>
</g>
<path style="fill:#FCD462;" d="M274.528,374.773l-57.357,32.422l-3.588,1.98l0.062-4.083l0.989-65.896
	c20.295-1.176,33.351-24.069,33.351-24.069l31.74,18.872C279.725,333.998,265.866,356.396,274.528,374.773z"/>
<g>
	<polygon style="fill:#64798A;" points="241.054,366.976 217.171,407.194 213.583,409.174 213.645,405.091 237.528,364.873 	"/>
	<ellipse style="fill:#64798A;" cx="239.3" cy="365.935" rx="6.119" ry="6.119"/>
</g>
<g>
</g>
<g>
</g>
<g>
</g>
<g>
</g>
<g>
</g>
<g>
</g>
<g>
</g>
<g>
</g>
<g>
</g>
<g>
</g>
<g>
</g>
<g>
</g>
<g>
</g>
<g>
</g>
<g>
</g>
</svg>
