<?xml version="1.0" encoding="iso-8859-1"?>
<!-- Generator: Adobe Illustrator 19.0.0, SVG Export Plug-In . SVG Version: 6.00 Build 0)  -->
<svg version="1.1" id="Capa_1" xmlns="http://www.w3.org/2000/svg" xmlns:xlink="http://www.w3.org/1999/xlink" x="0px" y="0px"
	 viewBox="0 0 468.293 468.293" style="enable-background:new 0 0 468.293 468.293;" xml:space="preserve">
<path style="fill:#E1E6E9;" d="M145.612,0L65.561,80.051v375.754c0,6.897,5.591,12.488,12.488,12.488h312.195
	c6.897,0,12.488-5.591,12.488-12.488V12.488C402.732,5.591,397.141,0,390.244,0H145.612z"/>
<polygon style="fill:#EBF0F3;" points="145.613,80.051 145.613,0 65.562,80.051 "/>
<path style="fill:#64798A;" d="M288.114,308.481H115.512c-6.897,0-12.488-5.591-12.488-12.488V189.846
	c0-6.897,5.591-12.488,12.488-12.488h172.602c6.897,0,12.488,5.591,12.488,12.488v106.146
	C300.602,302.89,295.011,308.481,288.114,308.481z"/>
<path style="fill:#1C75A1;" d="M357.244,292.529l-56.642-16.848v-65.524l56.642-16.848c4.003-1.191,8.024,1.808,8.024,5.985v87.249
	C365.268,290.721,361.247,293.72,357.244,292.529z"/>
<rect x="189.328" y="230.462" style="fill:#E56353;" width="24.976" height="24.976"/>
<rect x="233.035" y="230.462" style="fill:#27A2DB;" width="24.976" height="24.976"/>
<rect x="145.62" y="230.462" style="fill:#FCD462;" width="24.976" height="24.976"/>
<path style="fill:#1C75A1;" d="M279.306,158.288h-46.273v-30.815h46.273c8.509,0,15.407,6.898,15.407,15.407v0
	C294.713,151.39,287.815,158.288,279.306,158.288z"/>
<path style="fill:#27A2DB;" d="M201.889,177.358h-12.488v-21.991c0-10.329,8.402-18.732,18.732-18.732h24.902v12.488h-24.902
	c-3.445,0-6.244,2.802-6.244,6.244V177.358z"/>
<g>
	<rect x="180.511" y="61.321" style="fill:#D5D6DB;" width="187.317" height="18.732"/>
	<rect x="103.024" y="355.902" style="fill:#D5D6DB;" width="262.244" height="18.732"/>
	<rect x="103.024" y="412.098" style="fill:#D5D6DB;" width="262.244" height="18.732"/>
</g>
<g>
</g>
<g>
</g>
<g>
</g>
<g>
</g>
<g>
</g>
<g>
</g>
<g>
</g>
<g>
</g>
<g>
</g>
<g>
</g>
<g>
</g>
<g>
</g>
<g>
</g>
<g>
</g>
<g>
</g>
</svg>
