<?xml version="1.0" encoding="iso-8859-1"?>
<!-- Generator: Adobe Illustrator 19.0.0, SVG Export Plug-In . SVG Version: 6.00 Build 0)  -->
<svg version="1.1" id="Capa_1" xmlns="http://www.w3.org/2000/svg" xmlns:xlink="http://www.w3.org/1999/xlink" x="0px" y="0px"
	 viewBox="0 0 468.293 468.293" style="enable-background:new 0 0 468.293 468.293;" xml:space="preserve">
<path style="fill:#FCD462;" d="M434.001,380.308H34.292V102.926c0-7.572,6.138-13.71,13.71-13.71h62.543
	c3.29,0,6.471,1.183,8.961,3.334l29.307,25.309c2.49,2.15,5.671,3.334,8.961,3.334h262.518c7.572,0,13.71,6.138,13.71,13.71V380.308
	z"/>
<path style="fill:#E1E6E9;" d="M420.756,224.821L127.031,346.485L52.315,166.106c-2.639-6.372,0.387-13.677,6.758-16.316
	L329.725,37.684c6.372-2.639,13.677,0.387,16.316,6.758L420.756,224.821z"/>
<path style="fill:#EBF0F3;" d="M94.903,164.629l219.982-91.121c6.372-2.639,13.677,0.387,16.316,6.759l53.728,129.718
	L141.873,310.663L88.145,180.944C85.506,174.573,88.531,167.268,94.903,164.629z"/>
<path style="fill:#F6C358;" d="M412.869,431.563H55.424c-6.638,0-12.322-4.755-13.494-11.288L0.219,201.54
	c-1.508-8.406,4.953-16.131,13.494-16.131h440.866c8.541,0,15.002,7.725,13.494,16.131l-41.711,218.735
	C425.19,426.808,419.506,431.563,412.869,431.563z"/>
<path style="fill:#27A2DB;" d="M234.146,301.646c-37.138,0-68.687,23.926-80.075,57.205c-4.611,13.475,5.945,27.408,20.187,27.408
	h119.776c14.242,0,24.798-13.933,20.187-27.408C302.834,325.572,271.284,301.646,234.146,301.646z"/>
<circle style="fill:#2D93BA;" cx="234.146" cy="268.856" r="38.144"/>
<g>
</g>
<g>
</g>
<g>
</g>
<g>
</g>
<g>
</g>
<g>
</g>
<g>
</g>
<g>
</g>
<g>
</g>
<g>
</g>
<g>
</g>
<g>
</g>
<g>
</g>
<g>
</g>
<g>
</g>
</svg>
