<?xml version="1.0" encoding="iso-8859-1"?>
<!-- Generator: Adobe Illustrator 19.0.0, SVG Export Plug-In . SVG Version: 6.00 Build 0)  -->
<svg version="1.1" id="Capa_1" xmlns="http://www.w3.org/2000/svg" xmlns:xlink="http://www.w3.org/1999/xlink" x="0px" y="0px"
	 viewBox="0 0 468.293 468.293" style="enable-background:new 0 0 468.293 468.293;" xml:space="preserve">
<path style="fill:#FCD462;" d="M468.293,354.605H0v-86.24l77.798-130.231c4.376-8.027,12.787-13.022,21.929-13.022h268.839
	c9.142,0,17.553,4.995,21.929,13.021l77.798,130.221V354.605z"/>
<polygon style="fill:#F6C358;" points="37.463,349.041 37.463,302.669 106.835,162.576 361.457,162.576 430.829,302.658 
	430.829,349.041 "/>
<path style="fill:#DC8744;" d="M352.899,280.894l-19.006,41.715c-2.633,7.508-9.721,12.534-17.677,12.534H152.076
	c-7.956,0-15.044-5.026-17.677-12.534l-19.006-41.715c-2.633-7.508-9.721-12.534-17.677-12.534H0v152.297
	c0,24.139,19.568,43.707,43.707,43.707h380.878c24.139,0,43.707-19.568,43.707-43.707V268.361h-97.717
	C362.62,268.361,355.532,273.387,352.899,280.894z"/>
<path style="fill:#64798A;" d="M309.02,98.089h-38.254v99.002c0,3.448-2.795,6.244-6.244,6.244H203.77
	c-3.448,0-6.244-2.796-6.244-6.244V98.089h-38.254c-5.433,0-8.274-6.458-4.603-10.463l74.874-81.673c2.475-2.699,6.73-2.699,9.205,0
	l74.874,81.673C317.294,91.63,314.453,98.089,309.02,98.089z"/>
<g>
</g>
<g>
</g>
<g>
</g>
<g>
</g>
<g>
</g>
<g>
</g>
<g>
</g>
<g>
</g>
<g>
</g>
<g>
</g>
<g>
</g>
<g>
</g>
<g>
</g>
<g>
</g>
<g>
</g>
</svg>
