<?xml version="1.0" encoding="iso-8859-1"?>
<!-- Generator: Adobe Illustrator 19.0.0, SVG Export Plug-In . SVG Version: 6.00 Build 0)  -->
<svg version="1.1" id="Capa_1" xmlns="http://www.w3.org/2000/svg" xmlns:xlink="http://www.w3.org/1999/xlink" x="0px" y="0px"
	 viewBox="0 0 468.293 468.293" style="enable-background:new 0 0 468.293 468.293;" xml:space="preserve">
<path style="fill:#E1E6E9;" d="M353.846,18.732v430.829c0,10.345-8.386,18.732-18.732,18.732H27.726
	c-10.345,0-18.732-8.386-18.732-18.732V86.041h86.104V0h240.016C345.459,0,353.846,8.386,353.846,18.732z"/>
<polygon style="fill:#EBF0F3;" points="95.098,0 95.098,86.041 8.994,86.041 "/>
<path style="fill:#3EA69B;" d="M349.009,333.584c4.374,14.524,15.593,32.253,31.843,48.504
	c28.474,28.474,61.527,41.585,73.827,29.284c12.3-12.3-0.811-45.353-29.285-73.827c-16.251-16.251-33.979-27.469-48.504-31.843
	L349.009,333.584z"/>
<ellipse style="fill:#44C4A1;" cx="278.391" cy="235.105" rx="124.878" ry="124.878"/>
<ellipse transform="matrix(-0.9999 -0.0135 0.0135 -0.9999 553.5798 473.9088)" style="fill:#EBF0F3;" cx="278.391" cy="235.085" rx="103.037" ry="103.012"/>
<path style="fill:#27A2DB;" d="M274.553,308.041v-12.844c-16.08-1.647-30.512-8.033-43.285-19.187l12.844-15.306
	c9.851,8.562,19.988,13.674,30.441,15.306v-34.135c-13.259-3.164-22.967-7.317-29.124-12.486
	c-6.157-5.155-9.235-12.815-9.235-22.967c0-10.137,3.537-18.442,10.639-24.885c7.102-6.458,16.337-9.98,27.72-10.567v-8.792h11.254
	v8.978c12.901,0.931,25.1,5.341,36.598,13.187l-11.44,16.194c-7.746-5.513-16.123-8.92-25.157-10.209v33.075h0.53
	c13.488,3.164,23.396,7.46,29.725,12.844c6.343,5.398,9.507,13.23,9.507,23.496c0,10.266-3.637,18.614-10.911,25.072
	c-7.274,6.443-16.881,9.966-28.852,10.553v12.672H274.553z M262.139,194.468c-2.993,2.635-4.482,5.928-4.482,9.851
	c0,3.938,1.174,7.03,3.522,9.321c2.334,2.291,6.801,4.496,13.373,6.601V189.8C269.269,190.272,265.131,191.833,262.139,194.468z
	 M299.18,271.615c3.279-2.692,4.926-6.1,4.926-10.209c0-4.095-1.289-7.36-3.866-9.765c-2.592-2.391-7.403-4.653-14.433-6.773v31.672
	C291.434,275.954,295.887,274.321,299.18,271.615z"/>
<g>
	<rect x="52.049" y="335.11" style="fill:#D5D6DB;" width="111.092" height="18.732"/>
	<rect x="52.049" y="267.801" style="fill:#D5D6DB;" width="67.384" height="18.732"/>
	<rect x="52.049" y="200.485" style="fill:#D5D6DB;" width="67.384" height="18.732"/>
	<rect x="52.049" y="133.164" style="fill:#D5D6DB;" width="92.36" height="18.732"/>
	<rect x="52.049" y="402.438" style="fill:#D5D6DB;" width="258.747" height="18.732"/>
	<rect x="138.153" y="67.309" style="fill:#D5D6DB;" width="172.644" height="18.732"/>
</g>
<g>
</g>
<g>
</g>
<g>
</g>
<g>
</g>
<g>
</g>
<g>
</g>
<g>
</g>
<g>
</g>
<g>
</g>
<g>
</g>
<g>
</g>
<g>
</g>
<g>
</g>
<g>
</g>
<g>
</g>
</svg>
