<?xml version="1.0" encoding="iso-8859-1"?>
<!-- Generator: Adobe Illustrator 19.0.0, SVG Export Plug-In . SVG Version: 6.00 Build 0)  -->
<svg version="1.1" id="Capa_1" xmlns="http://www.w3.org/2000/svg" xmlns:xlink="http://www.w3.org/1999/xlink" x="0px" y="0px"
	 viewBox="0 0 468.293 468.293" style="enable-background:new 0 0 468.293 468.293;" xml:space="preserve">
<polygon style="fill:#E1E6E9;" points="141.133,0 71.805,69.327 71.805,468.293 396.488,468.293 396.488,0 "/>
<polygon style="fill:#EBF0F3;" points="141.131,69.326 141.13,0 71.805,69.325 "/>
<g>
	<rect x="122.068" y="106.471" style="fill:#D5D6DB;" width="62.439" height="62.439"/>
	<rect x="122.068" y="193.886" style="fill:#D5D6DB;" width="62.439" height="62.439"/>
	<rect x="122.068" y="281.3" style="fill:#D5D6DB;" width="62.439" height="62.439"/>
	<rect x="122.068" y="368.702" style="fill:#D5D6DB;" width="62.439" height="62.439"/>
	<rect x="215.727" y="156.422" style="fill:#D5D6DB;" width="130.479" height="12.488"/>
	<rect x="215.727" y="125.203" style="fill:#D5D6DB;" width="93.015" height="12.488"/>
	<rect x="215.727" y="243.837" style="fill:#D5D6DB;" width="130.479" height="12.488"/>
	<rect x="215.727" y="212.617" style="fill:#D5D6DB;" width="93.015" height="12.488"/>
	<rect x="215.727" y="331.239" style="fill:#D5D6DB;" width="130.479" height="12.488"/>
	<rect x="215.727" y="300.02" style="fill:#D5D6DB;" width="93.015" height="12.488"/>
	<rect x="215.727" y="418.654" style="fill:#D5D6DB;" width="130.479" height="12.488"/>
	<rect x="215.727" y="387.434" style="fill:#D5D6DB;" width="93.015" height="12.488"/>
</g>
<g>
</g>
<g>
</g>
<g>
</g>
<g>
</g>
<g>
</g>
<g>
</g>
<g>
</g>
<g>
</g>
<g>
</g>
<g>
</g>
<g>
</g>
<g>
</g>
<g>
</g>
<g>
</g>
<g>
</g>
</svg>
