<?xml version="1.0" encoding="iso-8859-1"?>
<!-- Generator: Adobe Illustrator 19.0.0, SVG Export Plug-In . SVG Version: 6.00 Build 0)  -->
<svg version="1.1" id="Capa_1" xmlns="http://www.w3.org/2000/svg" xmlns:xlink="http://www.w3.org/1999/xlink" x="0px" y="0px"
	 viewBox="0 0 468.301 468.301" style="enable-background:new 0 0 468.301 468.301;" xml:space="preserve">
<path style="fill:#E1E6E9;" d="M402.738,12.492v443.317c0,6.868-5.62,12.488-12.488,12.488H78.055
	c-6.868,0-12.488-5.62-12.488-12.488V66.377l66.31-66.373h258.373C397.119,0.004,402.738,5.624,402.738,12.492z"/>
<path style="fill:#E56353;" d="M310.11,106.636l0-39.575c-30.648,0.189-89.484,21.496-106.246,102.44
	c-2.171,10.481-5.553,19.729-10.051,27.482c-10.565,18.221-31.464,42-71.02,51.823l9.568,38.373
	c52.98-13.165,81.264-45.524,95.663-70.353c3.513-6.056,6.525-12.629,9.046-19.637h48.395V157.64h-37.183
	C265.798,110.913,301.829,106.922,310.11,106.636z"/>
<polygon style="fill:#D5D6DB;" points="131.883,0 131.883,66.373 65.573,66.373 "/>
<path style="fill:#64798A;" d="M390.246,468.301H78.051c-6.897,0-12.488-5.591-12.488-12.488V354.239h337.171v101.574
	C402.733,462.71,397.142,468.301,390.246,468.301z"/>
<g>
	<path style="fill:#EBF0F3;" d="M158.618,388.301c-3.118,0-5.674,0.635-7.669,1.906c-2.002,1.271-2.999,3.192-2.999,5.77
		c0,2.571,0.997,4.536,2.999,5.895c1.995,1.367,6.243,2.83,12.751,4.403c6.501,1.574,11.407,3.783,14.709,6.627
		c3.295,2.844,4.943,7.041,4.943,12.574c0,5.541-2.083,10.033-6.265,13.483c-4.174,3.45-9.649,5.171-16.431,5.171
		c-9.922,0-18.728-3.413-26.412-10.254l6.716-8.082c6.413,5.57,13.069,8.356,19.969,8.356c3.45,0,6.191-0.746,8.215-2.224
		c2.032-1.485,3.044-3.45,3.044-5.903c0-2.453-0.953-4.359-2.859-5.718c-1.906-1.367-5.194-2.601-9.848-3.723
		c-4.662-1.123-8.208-2.15-10.624-3.088c-2.423-0.938-4.573-2.165-6.45-3.679c-3.753-2.844-5.622-7.196-5.622-13.069
		c0-5.873,2.128-10.395,6.398-13.572c4.263-3.177,9.545-4.765,15.84-4.765c4.056,0,8.082,0.665,12.072,1.995
		c3.997,1.33,7.447,3.206,10.35,5.63l-5.718,8.082c-1.877-1.699-4.418-3.088-7.624-4.182
		C164.898,388.848,161.736,388.301,158.618,388.301z"/>
	<path style="fill:#EBF0F3;" d="M216.399,425.617l14.163-45.664h9.619l14.163,45.664l15.98-45.664h11.525l-22.149,63.454h-10.624
		l-13.342-43.485h-0.724l-13.35,43.485h-10.616l-22.156-63.454h11.532L216.399,425.617z"/>
	<path style="fill:#EBF0F3;" d="M302.46,389.934v17.435h28.14v9.892h-28.14v26.146h-10.712v-63.454h42.303l-0.089,9.981H302.46z"/>
</g>
<g>
</g>
<g>
</g>
<g>
</g>
<g>
</g>
<g>
</g>
<g>
</g>
<g>
</g>
<g>
</g>
<g>
</g>
<g>
</g>
<g>
</g>
<g>
</g>
<g>
</g>
<g>
</g>
<g>
</g>
</svg>
