<?xml version="1.0" encoding="iso-8859-1"?>
<!-- Generator: Adobe Illustrator 19.0.0, SVG Export Plug-In . SVG Version: 6.00 Build 0)  -->
<svg version="1.1" id="Capa_1" xmlns="http://www.w3.org/2000/svg" xmlns:xlink="http://www.w3.org/1999/xlink" x="0px" y="0px"
	 viewBox="0 0 468.293 468.293" style="enable-background:new 0 0 468.293 468.293;" xml:space="preserve">
<path style="fill:#E1E6E9;" d="M310.944,0H78.049c-6.897,0-12.488,5.591-12.488,12.488v443.317c0,6.897,5.591,12.488,12.488,12.488
	h312.195c6.897,0,12.488-5.591,12.488-12.488V91.788L310.944,0z"/>
<polygon style="fill:#EBF0F3;" points="310.943,91.788 402.732,91.788 310.944,0 "/>
<g>
	<path style="fill:#1C75A1;" d="M185.817,140.371c-1.326-3.884-5.537-5.97-9.423-4.649c-0.731,0.247-18.004,6.171-32.253,16.853
		c-8.905,6.681-16.514,14.909-21.271,20.557l-11.514-10.938c-2.977-2.831-7.686-2.715-10.512,0.269
		c-2.826,2.977-2.705,7.683,0.271,10.51l17.404,16.536c1.389,1.319,3.223,2.045,5.121,2.045c0.227,0,0.455-0.01,0.687-0.031
		c2.134-0.198,4.08-1.309,5.338-3.047c0.102-0.14,10.353-14.222,23.401-24.003c12.298-9.225,27.95-14.617,28.105-14.67
		C185.057,148.478,187.138,144.255,185.817,140.371z"/>
	<path style="fill:#1C75A1;" d="M185.817,218.105c-1.326-3.884-5.537-5.97-9.423-4.649c-0.731,0.247-18.004,6.171-32.253,16.853
		c-8.905,6.681-16.514,14.909-21.271,20.557l-11.514-10.938c-2.977-2.831-7.686-2.715-10.512,0.269
		c-2.826,2.977-2.705,7.683,0.271,10.51l17.404,16.536c1.389,1.319,3.223,2.045,5.121,2.045c0.227,0,0.455-0.01,0.687-0.031
		c2.134-0.198,4.08-1.309,5.338-3.047c0.102-0.14,10.353-14.222,23.401-24.003c12.298-9.225,27.95-14.617,28.105-14.67
		C185.057,226.212,187.138,221.989,185.817,218.105z"/>
	<path style="fill:#1C75A1;" d="M185.817,295.84c-1.326-3.884-5.537-5.97-9.423-4.649c-0.731,0.247-18.004,6.171-32.253,16.853
		c-8.905,6.681-16.514,14.909-21.271,20.557l-11.514-10.938c-2.977-2.831-7.686-2.715-10.512,0.269
		c-2.826,2.977-2.705,7.683,0.271,10.51l17.404,16.535c1.389,1.319,3.223,2.045,5.121,2.045c0.227,0,0.455-0.01,0.687-0.031
		c2.134-0.198,4.08-1.309,5.338-3.047c0.102-0.14,10.353-14.222,23.401-24.003c12.298-9.225,27.95-14.617,28.105-14.67
		C185.057,303.946,187.138,299.724,185.817,295.84z"/>
	<path style="fill:#1C75A1;" d="M185.817,373.574c-1.326-3.884-5.537-5.97-9.423-4.649c-0.731,0.247-18.004,6.171-32.253,16.853
		c-8.905,6.681-16.514,14.909-21.271,20.557l-11.514-10.938c-2.977-2.831-7.686-2.715-10.512,0.269
		c-2.826,2.977-2.705,7.683,0.271,10.51l17.404,16.536c1.389,1.319,3.223,2.045,5.121,2.045c0.227,0,0.455-0.01,0.687-0.031
		c2.134-0.198,4.08-1.309,5.338-3.047c0.102-0.14,10.353-14.222,23.401-24.003c12.298-9.225,27.95-14.617,28.105-14.67
		C185.057,381.681,187.138,377.458,185.817,373.574z"/>
</g>
<g>
	<rect x="213.398" y="130.66" style="fill:#27A2DB;" width="156.098" height="15.61"/>
	<rect x="213.398" y="208.39" style="fill:#27A2DB;" width="156.098" height="15.61"/>
	<rect x="213.398" y="363.863" style="fill:#27A2DB;" width="156.098" height="15.61"/>
	<rect x="213.398" y="286.158" style="fill:#27A2DB;" width="156.098" height="15.61"/>
</g>
<g>
</g>
<g>
</g>
<g>
</g>
<g>
</g>
<g>
</g>
<g>
</g>
<g>
</g>
<g>
</g>
<g>
</g>
<g>
</g>
<g>
</g>
<g>
</g>
<g>
</g>
<g>
</g>
<g>
</g>
</svg>
