<?xml version="1.0" encoding="iso-8859-1"?>
<!-- Generator: Adobe Illustrator 19.0.0, SVG Export Plug-In . SVG Version: 6.00 Build 0)  -->
<svg version="1.1" id="Capa_1" xmlns="http://www.w3.org/2000/svg" xmlns:xlink="http://www.w3.org/1999/xlink" x="0px" y="0px"
	 viewBox="0 0 468.293 468.293" style="enable-background:new 0 0 468.293 468.293;" xml:space="preserve">
<path style="fill:#E1E6E9;" d="M352.519,12.488v443.317c0,6.897-5.591,12.488-12.488,12.488H27.837
	c-6.897,0-12.488-5.591-12.488-12.488V87.538h87.539V0h237.144C346.928,0,352.519,5.591,352.519,12.488z"/>
<polygon style="fill:#EBF0F3;" points="102.888,0 102.888,87.538 15.349,87.538 "/>
<path style="fill:#E56353;" d="M353.042,108.331c-2.539,0-5.078,1.098-6.82,3.296c-10.186,12.845-34.212,32.697-87.416,38.32
	c-3.197,0.338-5.666,2.987-5.666,6.202v97.264h99.902V108.331z"/>
<path style="fill:#44C4A1;" d="M452.944,253.413v-97.264c0-3.215-2.469-5.864-5.666-6.202c-53.205-5.623-77.231-25.475-87.417-38.32
	c-1.742-2.198-4.281-3.296-6.82-3.296v145.082H452.944z"/>
<path style="fill:#E56353;" d="M353.042,253.413v145.084c1.446,0,2.893-0.535,4.02-1.602l62.931-59.63
	c21.036-19.931,32.951-47.636,32.951-76.614v-7.238H353.042z"/>
<path style="fill:#44C4A1;" d="M253.139,253.413v7.238c0,28.979,11.915,56.683,32.951,76.614l62.931,59.63
	c1.127,1.067,2.574,1.602,4.02,1.602V253.413H253.139z"/>
<g>
	<rect x="43.177" y="143.641" style="fill:#D5D6DB;" width="137.366" height="15.61"/>
	<rect x="43.177" y="226.341" style="fill:#D5D6DB;" width="137.366" height="15.61"/>
	<rect x="43.177" y="309.042" style="fill:#D5D6DB;" width="187.317" height="15.61"/>
	<rect x="43.177" y="391.742" style="fill:#D5D6DB;" width="232.898" height="15.61"/>
	<rect x="146.532" y="60.94" style="fill:#D5D6DB;" width="162.341" height="15.61"/>
</g>
<g>
</g>
<g>
</g>
<g>
</g>
<g>
</g>
<g>
</g>
<g>
</g>
<g>
</g>
<g>
</g>
<g>
</g>
<g>
</g>
<g>
</g>
<g>
</g>
<g>
</g>
<g>
</g>
<g>
</g>
</svg>
