<?xml version="1.0" encoding="iso-8859-1"?>
<!-- Generator: Adobe Illustrator 19.0.0, SVG Export Plug-In . SVG Version: 6.00 Build 0)  -->
<svg version="1.1" id="Capa_1" xmlns="http://www.w3.org/2000/svg" xmlns:xlink="http://www.w3.org/1999/xlink" x="0px" y="0px"
	 viewBox="0 0 481.037 481.037" style="enable-background:new 0 0 481.037 481.037;" xml:space="preserve">
<path style="fill:#64798A;" d="M250.186,435.297V356.2h-19.34v79.098H99.067c-5.341,0-9.67,4.329-9.67,9.67l0,0
	c0,5.341,4.329,9.67,9.67,9.67h282.904c5.341,0,9.67-4.329,9.67-9.67l0,0c0-5.341-4.329-9.67-9.67-9.67H250.186z"/>
<path style="fill:#FCD462;" d="M194.166,35.493V12.178c0-3.207-2.6-5.806-5.806-5.806H82.398c-3.207,0-5.806,2.6-5.806,5.806v23.315
	H35.676c-7.121,0-12.893,5.773-12.893,12.893v293.082h435.471V48.386c0-7.121-5.773-12.893-12.893-12.893H194.166z"/>
<path style="fill:#F6C358;" d="M458.254,362.645H22.783L0.055,114.062c-0.691-7.553,5.255-14.067,12.84-14.067h455.248
	c7.584,0,13.53,6.514,12.84,14.067L458.254,362.645z"/>
<path style="fill:#E56353;" d="M266.509,474.665H214.53c-3.448,0-6.244-2.796-6.244-6.244v-51.979c0-3.448,2.796-6.244,6.244-6.244
	h51.979c3.448,0,6.244,2.796,6.244,6.244v51.979C272.753,471.869,269.957,474.665,266.509,474.665z"/>
<path style="fill:#64798A;" d="M236.918,138.523l-83.915,64.928c-4.436,3.432-2.009,10.536,3.6,10.536h10.704v107.174
	c0,3.249,2.634,5.883,5.883,5.883h134.656c3.249,0,5.883-2.634,5.883-5.883V213.986h10.705c5.609,0,8.036-7.103,3.6-10.536
	l-83.915-64.928C241.999,136.883,239.038,136.883,236.918,138.523z"/>
<rect x="211.11" y="260.124" style="fill:#D5D6DB;" width="58.83" height="66.916"/>
<g>
</g>
<g>
</g>
<g>
</g>
<g>
</g>
<g>
</g>
<g>
</g>
<g>
</g>
<g>
</g>
<g>
</g>
<g>
</g>
<g>
</g>
<g>
</g>
<g>
</g>
<g>
</g>
<g>
</g>
</svg>
