<?xml version="1.0" encoding="iso-8859-1"?>
<!-- Generator: Adobe Illustrator 19.0.0, SVG Export Plug-In . SVG Version: 6.00 Build 0)  -->
<svg version="1.1" id="Capa_1" xmlns="http://www.w3.org/2000/svg" xmlns:xlink="http://www.w3.org/1999/xlink" x="0px" y="0px"
	 viewBox="0 0 468.293 468.293" style="enable-background:new 0 0 468.293 468.293;" xml:space="preserve">
<path style="fill:#E1E6E9;" d="M111.122,0.001L68.334,42.458v173.056h331.624V15.905c0-8.784-7.184-15.904-16.046-15.904H111.122z"
	/>
<path style="fill:#2D93BA;" d="M413.331,401.159H54.962c-11.816,0-21.395-9.494-21.395-21.206V105.604
	c0-11.712,9.579-21.206,21.395-21.206h61.01c6.395,0,12.455,2.836,16.519,7.73l22.381,26.952c4.064,4.894,10.124,7.73,16.519,7.73
	h241.938c11.816,0,21.395,9.494,21.395,21.206v231.937C434.726,391.664,425.147,401.159,413.331,401.159z"/>
<polygon style="fill:#EBF0F3;" points="111.122,42.457 111.123,0 68.334,42.458 "/>
<g>
	<rect x="170.103" y="36.951" style="fill:#D5D6DB;" width="192.556" height="15.903"/>
	<rect x="170.103" y="74.059" style="fill:#D5D6DB;" width="192.556" height="15.903"/>
	<path style="fill:#D5D6DB;" d="M290.309,383.828H177.984v-55.17c0-26.141,21.267-47.408,47.408-47.408h17.506
		c26.143,0,47.41,21.267,47.41,47.408V383.828z M199.38,362.433h69.534v-33.775c0-14.344-11.669-26.013-26.015-26.013h-17.506
		c-14.344,0-26.013,11.669-26.013,26.013V362.433z"/>
</g>
<path style="fill:#64798A;" d="M292.95,468.293H175.343c-6.897,0-12.488-5.591-12.488-12.488v-87.906
	c0-6.897,5.591-12.488,12.488-12.488H292.95c6.897,0,12.488,5.591,12.488,12.488v87.906
	C305.438,462.702,299.847,468.293,292.95,468.293z"/>
<path style="fill:#FFFFFF;" d="M244.844,417.049c0-5.908-4.789-10.698-10.698-10.698s-10.698,4.79-10.698,10.698
	c0,3.055,1.296,5.794,3.35,7.743l-3.35,25.564h21.395l-3.35-25.564C243.548,422.843,244.844,420.104,244.844,417.049z"/>
<g>
</g>
<g>
</g>
<g>
</g>
<g>
</g>
<g>
</g>
<g>
</g>
<g>
</g>
<g>
</g>
<g>
</g>
<g>
</g>
<g>
</g>
<g>
</g>
<g>
</g>
<g>
</g>
<g>
</g>
</svg>
