<?xml version="1.0" encoding="iso-8859-1"?>
<!-- Generator: Adobe Illustrator 19.0.0, SVG Export Plug-In . SVG Version: 6.00 Build 0)  -->
<svg version="1.1" id="Capa_1" xmlns="http://www.w3.org/2000/svg" xmlns:xlink="http://www.w3.org/1999/xlink" x="0px" y="0px"
	 viewBox="0 0 468.052 468.052" style="enable-background:new 0 0 468.052 468.052;" xml:space="preserve">
<rect x="328.501" y="301.752" transform="matrix(-0.7071 0.7071 -0.7071 -0.7071 816.8063 298.4021)" style="fill:#27A2DB;" width="36.202" height="33.23"/>
<rect x="373.752" y="310.772" transform="matrix(-0.7071 0.7071 -0.7071 -0.7071 951.0023 353.946)" style="fill:#FCD462;" width="56.888" height="126.321"/>
<path style="fill:#E1E6E9;" d="M73.94,21.636L0,95.575v333.85c0,9.384,7.607,16.991,16.991,16.991h283.187
	c9.384,0,16.991-7.607,16.991-16.991V38.627c0-9.384-7.607-16.991-16.991-16.991H73.94z"/>
<polygon style="fill:#EBF0F3;" points="73.94,95.575 73.94,21.636 0,95.575 "/>
<circle style="fill:#64798A;" cx="255.886" cy="227.626" r="127.213"/>
<circle style="fill:#EBF0F3;" cx="255.886" cy="227.626" r="111.697"/>
<g>
	<path style="fill:#2D93BA;" d="M338.19,348.641l38.71-38.71c2.438-2.438,6.392-2.438,8.83,0l0.272,0.272
		c2.438,2.438,2.438,6.392,0,8.83l-38.71,38.71c-2.438,2.438-6.392,2.438-8.83,0l-0.272-0.272
		C335.751,355.033,335.751,351.08,338.19,348.641z"/>
	<path style="fill:#2D93BA;" d="M418.411,428.863l38.71-38.71c2.438-2.438,6.392-2.438,8.83,0l0.272,0.272
		c2.438,2.438,2.438,6.392,0,8.83l-38.71,38.71c-2.438,2.438-6.392,2.438-8.83,0l-0.272-0.272
		C415.973,435.255,415.973,431.302,418.411,428.863z"/>
</g>
<g>
	<path style="fill:#D5D6DB;" d="M202.284,250.814l-8.703,19.774h-15.665l38.303-86.923h15.665l38.303,86.923h-15.675l-8.703-19.774
		H202.284z M239.838,237.264l-15.787-35.813l-15.797,35.813H239.838z"/>
	<path style="fill:#D5D6DB;" d="M333.85,270.588h-12.68v-8.829c-5.475,6.552-12.811,9.826-22.01,9.826
		c-6.881,0-12.579-1.948-17.092-5.844c-4.523-3.896-6.78-9.098-6.78-15.61c0-6.507,2.398-11.374,7.215-14.608
		c4.807-3.233,11.314-4.852,19.521-4.852h18.023v-2.484c0-8.789-4.888-13.181-14.663-13.181c-6.143,0-12.528,2.236-19.157,6.714
		l-6.213-8.708c8.035-6.38,17.153-9.573,27.353-9.573c7.792,0,14.157,1.968,19.086,5.905c4.938,3.942,7.397,10.135,7.397,18.59
		V270.588z M319.925,245.967v-5.596H304.26c-10.029,0-15.048,3.152-15.048,9.452c0,3.233,1.245,5.697,3.734,7.397
		c2.479,1.7,5.94,2.55,10.383,2.55c4.432,0,8.308-1.245,11.627-3.729C318.266,253.551,319.925,250.197,319.925,245.967z"/>
</g>
<g>
</g>
<g>
</g>
<g>
</g>
<g>
</g>
<g>
</g>
<g>
</g>
<g>
</g>
<g>
</g>
<g>
</g>
<g>
</g>
<g>
</g>
<g>
</g>
<g>
</g>
<g>
</g>
<g>
</g>
</svg>
