<?xml version="1.0" encoding="iso-8859-1"?>
<!-- Generator: Adobe Illustrator 19.0.0, SVG Export Plug-In . SVG Version: 6.00 Build 0)  -->
<svg version="1.1" id="Capa_1" xmlns="http://www.w3.org/2000/svg" xmlns:xlink="http://www.w3.org/1999/xlink" x="0px" y="0px"
	 viewBox="0 0 468.293 468.293" style="enable-background:new 0 0 468.293 468.293;" xml:space="preserve">
<path style="fill:#E1E6E9;" d="M139.082,0L62.439,76.643v379.162c0,6.897,5.591,12.488,12.488,12.488h318.439
	c6.897,0,12.488-5.591,12.488-12.488V12.488C405.854,5.591,400.263,0,393.366,0C393.366,0,139.082,0,139.082,0z"/>
<polygon style="fill:#EBF0F3;" points="139.082,76.643 139.082,0 62.439,76.643 "/>
<path style="fill:#FCD462;" d="M154.674,237.229c-43.891,43.891-43.891,115.053,0,158.944l79.472-79.472L154.674,237.229z"/>
<path style="fill:#E56353;" d="M313.618,237.229l-79.472,79.472l-79.472,79.472c43.891,43.891,115.053,43.891,158.943,0
	C357.51,352.282,357.51,281.12,313.618,237.229z"/>
<path style="fill:#27A2DB;" d="M154.674,203.512l79.472,79.472l79.472-79.472C269.727,159.621,198.565,159.621,154.674,203.512z"/>
<g>
	<rect x="178.825" y="47.685" style="fill:#D5D6DB;" width="187.317" height="18.732"/>
	<rect x="102.169" y="112.659" style="fill:#D5D6DB;" width="263.93" height="18.732"/>
</g>
<g>
</g>
<g>
</g>
<g>
</g>
<g>
</g>
<g>
</g>
<g>
</g>
<g>
</g>
<g>
</g>
<g>
</g>
<g>
</g>
<g>
</g>
<g>
</g>
<g>
</g>
<g>
</g>
<g>
</g>
</svg>
