<?xml version="1.0" encoding="iso-8859-1"?>
<!-- Generator: Adobe Illustrator 19.0.0, SVG Export Plug-In . SVG Version: 6.00 Build 0)  -->
<svg version="1.1" id="Capa_1" xmlns="http://www.w3.org/2000/svg" xmlns:xlink="http://www.w3.org/1999/xlink" x="0px" y="0px"
	 viewBox="0 0 468.293 468.293" style="enable-background:new 0 0 468.293 468.293;" xml:space="preserve">
<path style="fill:#E1E6E9;" d="M328.596,0H74.927C68.03,0,62.439,5.591,62.439,12.488v443.317c0,6.897,5.591,12.488,12.488,12.488
	h318.439c6.897,0,12.488-5.591,12.488-12.488V77.258L328.596,0z"/>
<polygon style="fill:#EBF0F3;" points="328.596,77.258 405.854,77.258 328.596,0 "/>
<path style="fill:#E56353;" d="M128.092,167.527l-22.389-22.389c-2.438-2.438-2.438-6.392,0-8.83l22.389-22.389
	c2.438-2.438,6.392-2.438,8.83,0l22.389,22.389c2.438,2.438,2.438,6.392,0,8.83l-22.389,22.389
	C134.484,169.966,130.531,169.966,128.092,167.527z"/>
<path style="fill:#27A2DB;" d="M128.09,255.564l-22.389-22.391c-2.438-2.438-2.438-6.392,0-8.83l22.39-22.39
	c2.438-2.438,6.392-2.438,8.83,0l22.389,22.391c2.438,2.438,2.438,6.392,0,8.83l-22.39,22.39
	C134.482,258.003,130.529,258.003,128.09,255.564z"/>
<path style="fill:#44C4A1;" d="M128.09,343.599l-22.388-22.39c-2.438-2.438-2.438-6.392,0-8.83l22.39-22.39
	c2.438-2.438,6.392-2.438,8.83,0l22.388,22.39c2.438,2.438,2.438,6.392,0,8.83l-22.39,22.39
	C134.482,346.038,130.528,346.038,128.09,343.599z"/>
<path style="fill:#FCD462;" d="M128.092,431.633l-22.389-22.387c-2.439-2.438-2.439-6.392,0-8.831l22.389-22.388
	c2.438-2.438,6.392-2.438,8.83,0l22.389,22.387c2.439,2.438,2.439,6.392,0,8.831l-22.389,22.388
	C134.484,434.071,130.531,434.071,128.092,431.633z"/>
<g>
	<rect x="179.699" y="132.92" style="fill:#D5D6DB;" width="187.317" height="15.61"/>
	<rect x="103.899" y="61.646" style="fill:#D5D6DB;" width="187.317" height="15.61"/>
	<rect x="179.699" y="220.953" style="fill:#D5D6DB;" width="187.317" height="15.61"/>
	<rect x="179.699" y="308.992" style="fill:#D5D6DB;" width="187.317" height="15.61"/>
	<rect x="179.699" y="397.05" style="fill:#D5D6DB;" width="187.317" height="15.61"/>
</g>
<g>
</g>
<g>
</g>
<g>
</g>
<g>
</g>
<g>
</g>
<g>
</g>
<g>
</g>
<g>
</g>
<g>
</g>
<g>
</g>
<g>
</g>
<g>
</g>
<g>
</g>
<g>
</g>
<g>
</g>
</svg>
