<?xml version="1.0" encoding="iso-8859-1"?>
<!-- Generator: Adobe Illustrator 19.0.0, SVG Export Plug-In . SVG Version: 6.00 Build 0)  -->
<svg version="1.1" id="Capa_1" xmlns="http://www.w3.org/2000/svg" xmlns:xlink="http://www.w3.org/1999/xlink" x="0px" y="0px"
	 viewBox="0 0 468.293 468.293" style="enable-background:new 0 0 468.293 468.293;" xml:space="preserve">
<path style="fill:#E1E6E9;" d="M131.642,0L59.317,72.325v383.48c0,6.897,5.591,12.488,12.488,12.488h324.683
	c6.897,0,12.488-5.591,12.488-12.488V12.488C408.976,5.591,403.385,0,396.488,0H131.642z"/>
<polygon style="fill:#EBF0F3;" points="131.643,72.325 131.644,0 59.317,72.325 "/>
<path style="fill:#64798A;" d="M234.146,331.649c-48.057,0-87.154-39.097-87.154-87.154v-48.806H321.3v48.806
	C321.3,292.552,282.204,331.649,234.146,331.649z M160.937,209.633v34.862c0,40.368,32.843,73.209,73.209,73.209
	s73.209-32.841,73.209-73.209v-34.862H160.937z"/>
<path style="fill:#D5D6DB;" d="M293.412,160.827c0-32.731-26.534-59.265-59.265-59.265h-0.001c-32.73,0-59.264,26.534-59.264,59.265
	v41.834h118.529V160.827z"/>
<g>
	<path style="fill:#64798A;" d="M174.882,202.661v41.834c0,32.731,26.533,59.264,59.264,59.264h0.001
		c32.73,0,59.265-26.534,59.265-59.264v-41.834H174.882z"/>
	<rect x="218.537" y="325.732" style="fill:#64798A;" width="31.22" height="80.927"/>
	<path style="fill:#64798A;" d="M280.825,417.191h0.636v-4.293c0-6.897-5.591-12.488-12.488-12.488H199.32
		c-6.896,0-12.488,5.591-12.488,12.488v4.293h0.636c-6.896,0-12.488,5.591-12.488,12.488v9.376h118.332v-9.376
		C293.313,422.783,287.721,417.191,280.825,417.191z"/>
</g>
<g>
</g>
<g>
</g>
<g>
</g>
<g>
</g>
<g>
</g>
<g>
</g>
<g>
</g>
<g>
</g>
<g>
</g>
<g>
</g>
<g>
</g>
<g>
</g>
<g>
</g>
<g>
</g>
<g>
</g>
</svg>
