<?xml version="1.0" encoding="iso-8859-1"?>
<!-- Generator: Adobe Illustrator 19.0.0, SVG Export Plug-In . SVG Version: 6.00 Build 0)  -->
<svg version="1.1" id="Capa_1" xmlns="http://www.w3.org/2000/svg" xmlns:xlink="http://www.w3.org/1999/xlink" x="0px" y="0px"
	 viewBox="0 0 468.293 468.293" style="enable-background:new 0 0 468.293 468.293;" xml:space="preserve">
<path style="fill:#E1E6E9;" d="M390.244,468.293H78.049c-10.345,0-18.732-8.386-18.732-18.732V18.732
	C59.317,8.386,67.704,0,78.049,0h312.195c10.345,0,18.732,8.386,18.732,18.732v430.829
	C408.976,459.906,400.589,468.293,390.244,468.293z"/>
<path style="fill:#27A2DB;" d="M238.933,112.583c0,14.36-4.191,27.77-11.399,39.056c-0.503,0.782-1.005,1.565-1.565,2.291
	c-13.075,18.886-34.922,31.29-59.674,31.29c-24.809,0-46.656-12.404-59.731-31.29c-0.558-0.726-1.061-1.509-1.563-2.291
	c-7.208-11.286-11.343-24.697-11.343-39.056c0-40.174,32.462-72.637,72.637-72.637C206.413,39.946,238.933,72.409,238.933,112.583z"
	/>
<path style="fill:#FCD462;" d="M225.97,153.931c-13.075,18.886-34.922,31.29-59.674,31.29c-24.809,0-46.656-12.404-59.731-31.29
	c10.951-21.903,33.581-36.878,59.731-36.878C192.389,117.053,215.018,132.028,225.97,153.931z"/>
<circle style="fill:#F6C358;" cx="166.275" cy="92.385" r="24.651"/>
<g>
	<rect x="263.012" y="105.016" style="fill:#D5D6DB;" width="111.622" height="15.135"/>
	<rect x="263.012" y="65.686" style="fill:#D5D6DB;" width="111.622" height="15.135"/>
	<rect x="263.012" y="144.365" style="fill:#D5D6DB;" width="111.622" height="15.135"/>
	<rect x="93.659" y="221.534" style="fill:#D5D6DB;" width="280.976" height="15.135"/>
	<rect x="93.659" y="269.456" style="fill:#D5D6DB;" width="280.976" height="15.135"/>
	<rect x="93.659" y="317.378" style="fill:#D5D6DB;" width="280.976" height="15.135"/>
	<rect x="93.659" y="365.268" style="fill:#D5D6DB;" width="280.976" height="15.135"/>
	<rect x="93.659" y="413.221" style="fill:#D5D6DB;" width="280.976" height="15.135"/>
</g>
<g>
</g>
<g>
</g>
<g>
</g>
<g>
</g>
<g>
</g>
<g>
</g>
<g>
</g>
<g>
</g>
<g>
</g>
<g>
</g>
<g>
</g>
<g>
</g>
<g>
</g>
<g>
</g>
<g>
</g>
</svg>
