<?xml version="1.0" encoding="iso-8859-1"?>
<!-- Generator: Adobe Illustrator 19.0.0, SVG Export Plug-In . SVG Version: 6.00 Build 0)  -->
<svg version="1.1" id="Capa_1" xmlns="http://www.w3.org/2000/svg" xmlns:xlink="http://www.w3.org/1999/xlink" x="0px" y="0px"
	 viewBox="0 0 468.305 468.305" style="enable-background:new 0 0 468.305 468.305;" xml:space="preserve">
<g>
	<path style="fill:#1C75A1;" d="M80.402,193.687c0,0,6.974,1.877,3.978,11.63l-15.604-0.001L80.402,193.687z"/>
	<path style="fill:#1C75A1;" d="M274.094,0c0,0,6.975,1.877,3.978,11.629h-15.607L274.094,0z"/>
</g>
<rect x="80.404" y="11.626" style="fill:#E1E6E9;" width="319.126" height="456.679"/>
<g>
	<polygon style="fill:#27A2DB;" points="274.094,0 68.776,205.317 68.776,89.598 158.436,0 	"/>
	<path style="fill:#27A2DB;" d="M335.788,417.391H144.136c-6.897,0-12.488-5.591-12.488-12.488V213.251
		c0-6.897,5.591-12.488,12.488-12.488h191.652c6.897,0,12.488,5.591,12.488,12.488v191.652
		C348.276,411.8,342.685,417.391,335.788,417.391z"/>
</g>
<g>
	<path style="fill:#EBF0F3;" d="M198.21,285.36c4.064,3.395,6.096,8.628,6.096,15.699c0,7.071-2.073,12.247-6.225,15.533
		c-4.146,3.286-10.507,4.927-19.077,4.927h-10.357v17.12h-9.855v-58.376h20.042C187.689,280.263,194.145,281.962,198.21,285.36z
		 M191.237,309.453c1.978-2.09,2.963-5.152,2.963-9.189c0-4.034-1.251-6.888-3.758-8.56c-2.508-1.668-6.429-2.504-11.778-2.504
		h-10.018v23.382h11.438C185.541,312.583,189.259,311.539,191.237,309.453z"/>
	<path style="fill:#EBF0F3;" d="M233.577,287.946c-2.868,0-5.219,0.584-7.054,1.753c-1.842,1.172-2.759,2.939-2.759,5.304
		c0,2.368,0.917,4.176,2.759,5.427c1.835,1.254,5.743,2.606,11.73,4.051c5.981,1.451,10.493,3.483,13.531,6.096
		c3.031,2.62,4.547,6.473,4.547,11.567s-1.917,9.229-5.763,12.403c-3.84,3.174-8.876,4.761-15.115,4.761
		c-9.127,0-17.228-3.147-24.297-9.437l6.178-7.435c5.899,5.124,12.023,7.683,18.37,7.683c3.174,0,5.695-0.68,7.557-2.046
		c1.869-1.363,2.8-3.174,2.8-5.427c0-2.256-0.877-4.01-2.63-5.264c-1.753-1.251-4.778-2.392-9.059-3.422
		c-4.288-1.03-7.551-1.978-9.773-2.841c-2.229-0.863-4.207-1.988-5.933-3.381c-3.452-2.617-5.172-6.626-5.172-12.026
		c0-5.4,1.957-9.562,5.886-12.485c3.921-2.922,8.781-4.384,14.571-4.384c3.731,0,7.435,0.612,11.105,1.835
		c3.677,1.227,6.851,2.953,9.522,5.179l-5.26,7.432c-1.726-1.556-4.064-2.837-7.014-3.84
		C239.354,288.449,236.445,287.946,233.577,287.946z"/>
	<path style="fill:#EBF0F3;" d="M312.699,287.905c5.627,5.094,8.434,12.179,8.434,21.255c0,9.073-2.725,16.257-8.183,21.544
		c-5.457,5.291-13.81,7.935-25.051,7.935h-19.376v-58.376h20.042C299.032,280.263,307.078,282.812,312.699,287.905z
		 M311.197,309.409c0-13.361-7.653-20.042-22.964-20.042h-9.855v40.003h10.942c7.068,0,12.485-1.682,16.243-5.053
		C309.321,320.949,311.197,315.981,311.197,309.409z"/>
</g>
<g>
</g>
<g>
</g>
<g>
</g>
<g>
</g>
<g>
</g>
<g>
</g>
<g>
</g>
<g>
</g>
<g>
</g>
<g>
</g>
<g>
</g>
<g>
</g>
<g>
</g>
<g>
</g>
<g>
</g>
</svg>
