<?xml version="1.0" encoding="iso-8859-1"?>
<!-- Generator: Adobe Illustrator 19.0.0, SVG Export Plug-In . SVG Version: 6.00 Build 0)  -->
<svg version="1.1" id="Capa_1" xmlns="http://www.w3.org/2000/svg" xmlns:xlink="http://www.w3.org/1999/xlink" x="0px" y="0px"
	 viewBox="0 0 468.293 468.293" style="enable-background:new 0 0 468.293 468.293;" xml:space="preserve">
<path style="fill:#E1E6E9;" d="M151.276,0L62.439,88.837v366.968c0,6.897,5.591,12.488,12.488,12.488h318.439
	c6.897,0,12.488-5.591,12.488-12.488V12.488C405.854,5.591,400.263,0,393.366,0H151.276z"/>
<polygon style="fill:#EBF0F3;" points="151.276,88.837 151.276,0 62.439,88.837 "/>
<path style="fill:#44C4A1;" d="M234.146,346.537c0,0-74.927-108.54-74.927-149.854s33.613-74.927,74.927-74.927
	s74.927,33.613,74.927,74.927S234.146,346.537,234.146,346.537z"/>
<circle style="fill:#EBF0F3;" cx="234.146" cy="196.683" r="40.585"/>
<g>
	<rect x="184.882" y="57.619" style="fill:#D5D6DB;" width="187.317" height="18.732"/>
	<rect x="96.069" y="391.93" style="fill:#D5D6DB;" width="276.168" height="18.732"/>
</g>
<g>
</g>
<g>
</g>
<g>
</g>
<g>
</g>
<g>
</g>
<g>
</g>
<g>
</g>
<g>
</g>
<g>
</g>
<g>
</g>
<g>
</g>
<g>
</g>
<g>
</g>
<g>
</g>
<g>
</g>
</svg>
