<?xml version="1.0" encoding="iso-8859-1"?>
<!-- Generator: Adobe Illustrator 19.0.0, SVG Export Plug-In . SVG Version: 6.00 Build 0)  -->
<svg version="1.1" id="Capa_1" xmlns="http://www.w3.org/2000/svg" xmlns:xlink="http://www.w3.org/1999/xlink" x="0px" y="0px"
	 viewBox="0 0 468.293 468.293" style="enable-background:new 0 0 468.293 468.293;" xml:space="preserve">
<path style="fill:#E1E6E9;" d="M0,418.341V49.951C0,22.364,22.364,0,49.951,0h368.39c27.587,0,49.951,22.364,49.951,49.951v368.39
	c0,27.587-22.364,49.951-49.951,49.951H49.951C22.364,468.293,0,445.929,0,418.341z"/>
<path style="fill:#27A2DB;" d="M441.533,53.486V414.74c0,6.155-2.074,11.774-5.62,16.324c-4.817,6.355-12.51,10.436-21.14,10.436
	H53.519c-8.095,0-15.387-3.612-20.271-9.299c-4.014-4.75-6.489-10.838-6.489-17.461V53.486c0-14.718,11.975-26.76,26.76-26.76
	h361.254C429.558,26.726,441.533,38.767,441.533,53.486z"/>
<path style="fill:#DC8744;" d="M435.913,431.064c-4.817,6.355-12.51,10.436-21.14,10.436H53.519c-8.095,0-15.387-3.612-20.271-9.299
	l116.038-165.928c7.652-10.942,23.855-10.943,31.508-0.001l44.187,63.173l61.322-114.729c7.241-13.548,26.663-13.551,33.908-0.004
	L435.913,431.064z"/>
<circle style="fill:#FCD462;" cx="173.143" cy="126.039" r="46.829"/>
<g>
	<path style="fill:#E1E6E9;" d="M370.084,101.738c-0.946,0-1.851,0.148-2.761,0.278c0.15-1.233,0.251-2.481,0.251-3.754
		c0-17.041-13.815-30.856-30.856-30.856c-7.963,0-15.197,3.042-20.671,7.994c-3.586-1.922-7.681-3.017-12.034-3.017
		c-14.096,0-25.524,11.427-25.524,25.524c0,2.026,0.261,3.988,0.707,5.878c-6.439,3.164-10.91,9.725-10.91,17.384
		c0,10.732,8.7,19.431,19.431,19.431h82.366c10.732,0,19.431-8.699,19.431-19.431S380.815,101.738,370.084,101.738z"/>
	<path style="fill:#E1E6E9;" d="M82.404,215.519c0.628,0,1.23,0.098,1.834,0.185c-0.1-0.819-0.167-1.648-0.167-2.493
		c0-11.319,9.176-20.495,20.495-20.495c5.289,0,10.094,2.02,13.729,5.309c2.382-1.276,5.102-2.004,7.993-2.004
		c9.363,0,16.953,7.59,16.953,16.953c0,1.346-0.173,2.649-0.47,3.904c4.277,2.102,7.246,6.459,7.246,11.547
		c0,7.128-5.778,12.906-12.906,12.906H82.404c-7.128,0-12.906-5.778-12.906-12.906S75.276,215.519,82.404,215.519z"/>
</g>
<g>
</g>
<g>
</g>
<g>
</g>
<g>
</g>
<g>
</g>
<g>
</g>
<g>
</g>
<g>
</g>
<g>
</g>
<g>
</g>
<g>
</g>
<g>
</g>
<g>
</g>
<g>
</g>
<g>
</g>
</svg>
