<?xml version="1.0" encoding="iso-8859-1"?>
<!-- Generator: Adobe Illustrator 19.0.0, SVG Export Plug-In . SVG Version: 6.00 Build 0)  -->
<svg version="1.1" id="Capa_1" xmlns="http://www.w3.org/2000/svg" xmlns:xlink="http://www.w3.org/1999/xlink" x="0px" y="0px"
	 viewBox="0 0 468.293 468.293" style="enable-background:new 0 0 468.293 468.293;" xml:space="preserve">
<path style="fill:#E1E6E9;" d="M0,389.523V78.769c0-10.345,8.386-18.732,18.732-18.732h430.829c10.345,0,18.732,8.386,18.732,18.732
	v310.754c0,10.345-8.386,18.732-18.732,18.732H18.732C8.386,408.255,0,399.869,0,389.523z"/>
<rect x="30.021" y="90.056" style="fill:#27A2DB;" width="408.226" height="288.156"/>
<path style="fill:#F6C358;" d="M325.127,261.81l-41.989,58.245c-7.188,9.971-22.033,9.971-29.221,0L177.55,214.121
	c-7.188-9.971-22.033-9.971-29.221,0L30.021,378.233h211.176h54.661h142.418L354.348,261.81
	C347.16,251.838,332.316,251.838,325.127,261.81z"/>
<circle style="fill:#FCD462;" cx="263.605" cy="172.332" r="42.028"/>
<g>
	<path style="fill:#E1E6E9;" d="M143.403,135.889c-0.732,0-1.446,0.066-2.152,0.161c0.161-1.078,0.271-2.171,0.271-3.293
		c0-12.255-9.935-22.19-22.19-22.19c-7.886,0-14.793,4.126-18.729,10.325c-2.958-1.46-6.275-2.302-9.797-2.302
		c-10.653,0-19.544,7.51-21.689,17.523c-7.642,1.23-13.486,7.837-13.486,15.826c0,8.864,7.186,16.05,16.05,16.05h71.723
		c8.864,0,16.049-7.186,16.049-16.05C159.452,143.075,152.267,135.889,143.403,135.889z"/>
	<path style="fill:#E1E6E9;" d="M400.329,191.825c-0.563,0-1.112,0.051-1.655,0.124c0.124-0.828,0.208-1.669,0.208-2.531
		c0-9.422-7.638-17.06-17.059-17.06c-6.063,0-11.373,3.172-14.399,7.937c-2.274-1.123-4.824-1.77-7.532-1.77
		c-8.19,0-15.026,5.774-16.674,13.472c-5.875,0.946-10.368,6.025-10.368,12.167c0,6.815,5.525,12.339,12.339,12.339h55.14
		c6.814,0,12.339-5.524,12.339-12.339C412.667,197.349,407.143,191.825,400.329,191.825z"/>
</g>
<g>
</g>
<g>
</g>
<g>
</g>
<g>
</g>
<g>
</g>
<g>
</g>
<g>
</g>
<g>
</g>
<g>
</g>
<g>
</g>
<g>
</g>
<g>
</g>
<g>
</g>
<g>
</g>
<g>
</g>
</svg>
