<?xml version="1.0" encoding="iso-8859-1"?>
<!-- Generator: Adobe Illustrator 19.0.0, SVG Export Plug-In . SVG Version: 6.00 Build 0)  -->
<svg version="1.1" id="Capa_1" xmlns="http://www.w3.org/2000/svg" xmlns:xlink="http://www.w3.org/1999/xlink" x="0px" y="0px"
	 viewBox="0 0 468.293 468.293" style="enable-background:new 0 0 468.293 468.293;" xml:space="preserve">
<path style="fill:#FCD462;" d="M374.634,338.69H15.61C6.989,338.69,0,331.701,0,323.08V28.184c0-8.621,6.989-15.61,15.61-15.61
	h79.899c4.119,0,8.071,1.628,10.995,4.529l38.065,37.771c2.924,2.901,6.876,4.529,10.995,4.529h219.071
	c8.621,0,15.61,6.989,15.61,15.61V323.08C390.244,331.701,383.255,338.69,374.634,338.69z"/>
<path style="fill:#EBF0F3;" d="M327.285,224.424H62.959c-10.345,0-18.732-8.386-18.732-18.732v-87.415
	c0-10.345,8.386-18.732,18.732-18.732h264.325c10.345,0,18.732,8.386,18.732,18.732v87.415
	C346.016,216.037,337.63,224.424,327.285,224.424z"/>
<g>
	<path style="fill:#64798A;" d="M312.417,167.47l-9.507-5.49l9.51-5.491c4.147-2.394,5.567-7.696,3.173-11.842
		c-2.394-4.146-7.695-5.567-11.841-3.173l-9.519,5.496v-10.991c0-4.788-3.881-8.669-8.669-8.669s-8.669,3.881-8.669,8.669v10.979
		l-9.57-5.527c-4.15-2.397-9.452-0.977-11.842,3.173c-2.389,4.149-0.962,9.455,3.189,11.852l9.564,5.523l-9.529,5.501
		c-4.146,2.394-5.567,7.695-3.173,11.842c2.394,4.146,7.696,5.567,11.842,3.173l9.52-5.496v10.993c0,4.788,3.881,8.669,8.669,8.669
		s8.669-3.881,8.669-8.669v-11l9.531,5.504c4.151,2.397,9.452,0.977,11.842-3.173C317.995,175.173,316.567,169.867,312.417,167.47z"
		/>
	<path style="fill:#64798A;" d="M221.995,167.47l-9.507-5.49l9.51-5.491c4.146-2.394,5.567-7.696,3.173-11.842
		c-2.394-4.146-7.695-5.567-11.841-3.173l-9.519,5.496v-10.991c0-4.788-3.881-8.669-8.669-8.669c-4.788,0-8.669,3.881-8.669,8.669
		v10.979l-9.57-5.527c-4.15-2.397-9.452-0.977-11.842,3.173c-2.389,4.149-0.962,9.455,3.189,11.852l9.564,5.523l-9.529,5.501
		c-4.146,2.394-5.567,7.695-3.173,11.842c2.394,4.146,7.696,5.567,11.842,3.173l9.52-5.496v10.993c0,4.788,3.881,8.669,8.669,8.669
		c4.788,0,8.669-3.881,8.669-8.669v-11l9.531,5.504c4.151,2.397,9.452,0.977,11.842-3.173
		C227.573,175.173,226.145,169.867,221.995,167.47z"/>
	<path style="fill:#64798A;" d="M131.573,167.47l-9.507-5.49l9.51-5.491c4.146-2.394,5.567-7.696,3.173-11.842
		c-2.394-4.146-7.695-5.567-11.841-3.173l-9.519,5.496v-10.991c0-4.788-3.881-8.669-8.669-8.669s-8.669,3.881-8.669,8.669v10.979
		l-9.57-5.527c-4.15-2.397-9.452-0.977-11.842,3.173c-2.389,4.149-0.962,9.455,3.189,11.852l9.564,5.523l-9.529,5.501
		c-4.146,2.394-5.567,7.695-3.173,11.842c2.394,4.146,7.696,5.567,11.842,3.173l9.52-5.496v10.993c0,4.788,3.881,8.669,8.669,8.669
		s8.669-3.881,8.669-8.669v-11l9.531,5.504c4.151,2.397,9.452,0.977,11.842-3.173C137.151,175.173,135.723,169.867,131.573,167.47z"
		/>
</g>
<path style="fill:#44C4A1;" d="M443.317,455.718H337.171c-13.794,0-24.976-11.182-24.976-24.976v-88.849
	c0-3.448,2.796-6.244,6.244-6.244h143.61c3.448,0,6.244,2.796,6.244,6.244v88.849C468.293,444.536,457.111,455.718,443.317,455.718z
	"/>
<path style="fill:#D5D6DB;" d="M406.411,253.065h-32.335c-24.636,0-44.607,19.971-44.607,44.606v37.978h23.929v-37.975
	c0-11.404,9.278-20.682,20.676-20.682h32.338c11.398,0,20.676,9.278,20.676,20.682v37.975h23.929v-37.978
	C451.018,273.035,431.046,253.065,406.411,253.065z"/>
<path style="fill:#3A556A;" d="M405.2,402.844c0-8.26-6.696-14.956-14.956-14.956c-8.26,0-14.956,6.697-14.956,14.956
	c0,5.954,3.505,11.052,8.54,13.459l-1.353,25.094h15.537l-1.352-25.094C401.696,413.895,405.2,408.798,405.2,402.844z"/>
<g>
</g>
<g>
</g>
<g>
</g>
<g>
</g>
<g>
</g>
<g>
</g>
<g>
</g>
<g>
</g>
<g>
</g>
<g>
</g>
<g>
</g>
<g>
</g>
<g>
</g>
<g>
</g>
<g>
</g>
</svg>
