<?xml version="1.0" encoding="iso-8859-1"?>
<!-- Generator: Adobe Illustrator 19.0.0, SVG Export Plug-In . SVG Version: 6.00 Build 0)  -->
<svg version="1.1" id="Capa_1" xmlns="http://www.w3.org/2000/svg" xmlns:xlink="http://www.w3.org/1999/xlink" x="0px" y="0px"
	 viewBox="0 0 468.293 468.293" style="enable-background:new 0 0 468.293 468.293;" xml:space="preserve">
<path style="fill:#E1E6E9;" d="M434.171,468.293H85.534c-24.068,0-43.58-19.511-43.58-43.58V0h290.528
	c24.07,0,43.582,19.513,43.582,43.582v341.371L434.171,468.293z"/>
<g>
	<path style="fill:#44C4A1;" d="M456.98,384.953h-80.915v39.76c0,24.068,19.511,43.58,43.58,43.58h0
		c24.068,0,43.58-19.511,43.58-43.58v-33.516C463.224,387.749,460.428,384.953,456.98,384.953z"/>
	<path style="fill:#44C4A1;" d="M48.649,0L48.649,0C24.58,0,5.069,19.511,5.069,43.58v33.516c0,3.448,2.795,6.244,6.244,6.244
		h271.684c3.448,0,6.244-2.795,6.244-6.244V43.58C289.24,19.511,308.752,0,332.82,0h0"/>
</g>
<path style="fill:#64798A;" d="M342.848,139.639l-10.884,15.03c-1.332,1.84-3.389,3.028-5.652,3.221
	c-10.956,0.934-44.576,5.215-55.771,23.043c0,0,19.249-3.032,32.247-2.892c5.924,0.064,9.665,6.367,6.873,11.592l-7.016,13.131
	c-1.259,2.357-3.605,3.917-6.269,4.132c-15.377,1.239-67.791,6.567-74.144,22.02c0,0,35.179-5.8,54.408-3.561
	c5.659,0.659,8.587,7.139,5.568,11.97l-9.243,14.79c-1.479,2.366-4.057,3.775-6.846,3.696c-14.929-0.422-63.232-0.134-75.781,20.447
	c0,0,32.784-5.58,51.663-3.935c6.452,0.562,9.473,8.311,5.106,13.093c-12.35,13.525-41.573,35.476-91.934,18.258
	c0,0-30.429,56.258-53.285,89.08c-1.468,2.108-3.862,3.302-6.431,3.302h-5.846l76.521-151.897
	c6.193-12.293,14.299-23.524,24.014-33.275h0c0,0,69.77-73.631,145.183-83.692C342.23,126.272,346.931,134.001,342.848,139.639z"/>
<g>
</g>
<g>
</g>
<g>
</g>
<g>
</g>
<g>
</g>
<g>
</g>
<g>
</g>
<g>
</g>
<g>
</g>
<g>
</g>
<g>
</g>
<g>
</g>
<g>
</g>
<g>
</g>
<g>
</g>
</svg>
