<?xml version="1.0" encoding="iso-8859-1"?>
<!-- Generator: Adobe Illustrator 19.0.0, SVG Export Plug-In . SVG Version: 6.00 Build 0)  -->
<svg version="1.1" id="Capa_1" xmlns="http://www.w3.org/2000/svg" xmlns:xlink="http://www.w3.org/1999/xlink" x="0px" y="0px"
	 viewBox="0 0 468.293 468.293" style="enable-background:new 0 0 468.293 468.293;" xml:space="preserve">
<path style="fill:#E1E6E9;" d="M418.243,6.112c-27.605,0-50.05,22.383-50.05,50.05V412.42c0,27.47-22.269,49.739-49.739,49.739
	H61.674V55.851c0-27.47,22.269-49.739,49.739-49.739H418.243z"/>
<g>
	<path style="fill:#D5D6DB;" d="M468.293,56.162v49.988h-100.1V56.162c0-27.667,22.445-50.05,50.05-50.05
		c13.802,0,26.299,5.596,35.377,14.674C462.697,29.801,468.293,42.298,468.293,56.162z"/>
	<path style="fill:#D5D6DB;" d="M311.671,462.181H50.023C22.396,462.181,0,439.785,0,412.158v-50.023h267.645v0.004v49.988
		c0,27.667,22.445,50.05,50.05,50.05"/>
	<rect x="183.714" y="193.186" style="fill:#D5D6DB;" width="149.854" height="12.488"/>
	<rect x="96.3" y="255.625" style="fill:#D5D6DB;" width="237.268" height="12.488"/>
	<rect x="183.714" y="318.064" style="fill:#D5D6DB;" width="149.854" height="12.488"/>
	<rect x="96.3" y="130.747" style="fill:#D5D6DB;" width="237.268" height="12.488"/>
</g>
<g>
</g>
<g>
</g>
<g>
</g>
<g>
</g>
<g>
</g>
<g>
</g>
<g>
</g>
<g>
</g>
<g>
</g>
<g>
</g>
<g>
</g>
<g>
</g>
<g>
</g>
<g>
</g>
<g>
</g>
</svg>
