<?xml version="1.0" encoding="iso-8859-1"?>
<!-- Generator: Adobe Illustrator 19.0.0, SVG Export Plug-In . SVG Version: 6.00 Build 0)  -->
<svg version="1.1" id="Capa_1" xmlns="http://www.w3.org/2000/svg" xmlns:xlink="http://www.w3.org/1999/xlink" x="0px" y="0px"
	 viewBox="0 0 468.293 468.293" style="enable-background:new 0 0 468.293 468.293;" xml:space="preserve">
<path style="fill:#DC8744;" d="M439.047,468.293H29.245c-9.84,0-17.817-7.977-17.817-17.818V201.419L234.146,83.256l222.719,118.163
	v249.056C456.865,460.315,448.888,468.293,439.047,468.293z"/>
<path style="fill:#E1E6E9;" d="M128.525,0L46.82,81.706v319.921h374.652V18.985C421.472,8.5,412.972,0,402.487,0H128.525z"/>
<path style="fill:#FCD462;" d="M439.047,468.293H29.245c-9.84,0-17.817-7.977-17.817-17.818V201.419L234.146,338.02l222.719-136.601
	v249.056C456.865,460.315,448.888,468.293,439.047,468.293z"/>
<path style="fill:#F6C358;" d="M234.146,338.02v130.272h204.901c9.84,0,17.817-7.977,17.817-17.818V201.419L234.146,338.02z"/>
<g>
	<polygon style="fill:#D5D6DB;" points="128.525,81.706 128.525,0 46.82,81.706 	"/>
	<rect x="107.582" y="108.244" style="fill:#D5D6DB;" width="253.134" height="15.822"/>
	<rect x="208.79" y="53.198" style="fill:#D5D6DB;" width="151.92" height="15.822"/>
	<rect x="107.582" y="163.266" style="fill:#D5D6DB;" width="253.134" height="15.822"/>
	<rect x="107.582" y="218.281" style="fill:#D5D6DB;" width="253.134" height="15.822"/>
</g>
<g>
</g>
<g>
</g>
<g>
</g>
<g>
</g>
<g>
</g>
<g>
</g>
<g>
</g>
<g>
</g>
<g>
</g>
<g>
</g>
<g>
</g>
<g>
</g>
<g>
</g>
<g>
</g>
<g>
</g>
</svg>
