<?xml version="1.0" encoding="iso-8859-1"?>
<!-- Generator: Adobe Illustrator 19.0.0, SVG Export Plug-In . SVG Version: 6.00 Build 0)  -->
<svg version="1.1" id="Capa_1" xmlns="http://www.w3.org/2000/svg" xmlns:xlink="http://www.w3.org/1999/xlink" x="0px" y="0px"
	 viewBox="0 0 468.293 468.293" style="enable-background:new 0 0 468.293 468.293;" xml:space="preserve">
<path style="fill:#44C4A1;" d="M113.831,468.293h-95.08c-10.345,0-18.732-8.386-18.732-18.732V29.194
	c0-10.345,8.386-18.732,18.732-18.732h95.08c10.345,0,18.732,8.386,18.732,18.732v420.367
	C132.563,459.906,124.176,468.293,113.831,468.293z"/>
<path style="fill:#EBF0F3;" d="M108.457,38.968v147.116c0,3.371-2.697,6.104-6.025,6.104H24.111V45.073
	c0-3.371,2.697-6.104,6.025-6.104H108.457z"/>
<path style="fill:#E1E6E9;" d="M24.125,216.72v8.193c0,3.448,2.795,6.244,6.244,6.244h71.858c3.448,0,6.244-2.796,6.244-6.244
	v-8.193c0-3.448-2.795-6.244-6.244-6.244H30.369C26.92,210.476,24.125,213.271,24.125,216.72z"/>
<ellipse style="fill:#EBF0F3;" cx="66.31" cy="397.05" rx="42.171" ry="42.733"/>
<g>
	<path style="fill:#D5D6DB;" d="M92.858,363.882c5.891,7.348,9.432,16.707,9.432,26.912c0,23.6-18.882,42.731-42.173,42.731
		c-10.071,0-19.309-3.588-26.561-9.557c7.732,9.645,19.521,15.818,32.741,15.818c23.291,0,42.173-19.132,42.173-42.731
		C108.47,383.66,102.378,371.717,92.858,363.882z"/>
	<polygon style="fill:#D5D6DB;" points="108.457,38.968 108.457,46.538 24.111,80.112 24.111,62.409 83.032,38.968 	"/>
	<polygon style="fill:#D5D6DB;" points="108.457,69.551 108.457,87.254 24.111,120.828 24.111,103.126 	"/>
	<polygon style="fill:#D5D6DB;" points="108.457,110.267 108.457,128.031 24.111,161.545 24.111,143.842 	"/>
	<polygon style="fill:#D5D6DB;" points="108.457,150.984 108.457,168.748 49.535,192.189 24.111,192.189 24.111,184.558 	"/>
</g>
<path style="fill:#FCD462;" d="M246.374,468.293h-95.08c-10.345,0-18.732-8.386-18.732-18.732V29.194
	c0-10.345,8.386-18.732,18.732-18.732h95.08c10.345,0,18.732,8.386,18.732,18.732v420.367
	C265.106,459.906,256.72,468.293,246.374,468.293z"/>
<path style="fill:#EBF0F3;" d="M241,38.968v147.116c0,3.371-2.697,6.104-6.025,6.104h-78.321V45.073
	c0-3.371,2.697-6.104,6.025-6.104H241z"/>
<path style="fill:#E1E6E9;" d="M156.668,216.72v8.193c0,3.448,2.796,6.244,6.244,6.244h71.858c3.448,0,6.244-2.796,6.244-6.244
	v-8.193c0-3.448-2.795-6.244-6.244-6.244h-71.858C159.464,210.476,156.668,213.271,156.668,216.72z"/>
<ellipse style="fill:#EBF0F3;" cx="198.868" cy="397.05" rx="42.171" ry="42.733"/>
<g>
	<path style="fill:#D5D6DB;" d="M225.402,363.882c5.891,7.348,9.432,16.707,9.432,26.912c0,23.6-18.882,42.731-42.173,42.731
		c-10.071,0-19.309-3.588-26.561-9.557c7.732,9.645,19.521,15.818,32.741,15.818c23.291,0,42.173-19.132,42.173-42.731
		C241.014,383.66,234.922,371.717,225.402,363.882z"/>
	<polygon style="fill:#D5D6DB;" points="241,38.968 241,46.538 156.654,80.112 156.654,62.409 215.576,38.968 	"/>
	<polygon style="fill:#D5D6DB;" points="241,69.551 241,87.254 156.654,120.828 156.654,103.126 	"/>
	<polygon style="fill:#D5D6DB;" points="241,110.267 241,128.031 156.654,161.545 156.654,143.842 	"/>
	<polygon style="fill:#D5D6DB;" points="241,150.984 241,168.748 182.079,192.189 156.654,192.189 156.654,184.558 	"/>
</g>
<path style="fill:#E56353;" d="M452.792,451.167l-93.636,16.729c-10.188,1.82-19.903-5.073-21.7-15.395L265.498,39.007
	c-1.796-10.323,5.006-20.167,15.194-21.987l93.636-16.729c10.188-1.82,19.903,5.073,21.7,15.395l71.958,413.493
	C469.782,439.503,462.98,449.347,452.792,451.167z"/>
<path style="fill:#EBF0F3;" d="M373.214,25.282l25.213,144.881c0.578,3.32-1.61,6.486-4.887,7.072l-77.131,13.78L291.195,46.134
	c-0.578-3.32,1.61-6.486,4.887-7.072L373.214,25.282z"/>
<path style="fill:#E1E6E9;" d="M320.64,215.253l1.376,7.906c0.599,3.441,3.837,5.739,7.233,5.132l70.766-12.643
	c3.396-0.607,5.664-3.888,5.065-7.329l-1.376-7.906c-0.599-3.441-3.837-5.739-7.233-5.132l-70.766,12.643
	C322.309,208.53,320.041,211.812,320.64,215.253z"/>
<ellipse style="fill:#EBF0F3;" cx="393.054" cy="385.374" rx="42.171" ry="42.733"/>
<g>
	<path style="fill:#D5D6DB;" d="M413.536,348.004c7.06,6.2,12.152,14.794,13.901,24.844c4.045,23.241-11.271,45.404-34.209,49.502
		c-9.918,1.772-19.631-0.136-27.795-4.738c9.268,8.138,21.935,12.143,34.954,9.817c22.938-4.098,38.253-26.261,34.209-49.502
		C432.3,364.735,424.254,354.045,413.536,348.004z"/>
	<polygon style="fill:#D5D6DB;" points="373.214,25.282 374.511,32.737 297.2,80.641 294.166,63.207 348.175,29.756 	"/>
	<polygon style="fill:#D5D6DB;" points="378.455,55.401 381.489,72.834 304.178,120.739 301.144,103.305 	"/>
	<polygon style="fill:#D5D6DB;" points="385.433,95.498 388.477,112.992 311.156,160.837 308.122,143.403 	"/>
	<polygon style="fill:#D5D6DB;" points="392.411,135.596 395.455,153.091 341.446,186.542 316.408,191.015 315.1,183.501 	"/>
</g>
<g>
</g>
<g>
</g>
<g>
</g>
<g>
</g>
<g>
</g>
<g>
</g>
<g>
</g>
<g>
</g>
<g>
</g>
<g>
</g>
<g>
</g>
<g>
</g>
<g>
</g>
<g>
</g>
<g>
</g>
</svg>
