<?xml version="1.0" encoding="iso-8859-1"?>
<!-- Generator: Adobe Illustrator 19.0.0, SVG Export Plug-In . SVG Version: 6.00 Build 0)  -->
<svg version="1.1" id="Capa_1" xmlns="http://www.w3.org/2000/svg" xmlns:xlink="http://www.w3.org/1999/xlink" x="0px" y="0px"
	 viewBox="0 0 468.293 468.293" style="enable-background:new 0 0 468.293 468.293;" xml:space="preserve">
<path style="fill:#F6C358;" d="M69.649,451.786H18.732C8.386,451.786,0,443.4,0,433.055V35.215C0,24.87,8.386,16.483,18.732,16.483
	h50.917V451.786z"/>
<rect x="69.651" y="16.485" style="fill:#FCD462;" width="300.769" height="435.325"/>
<g>
	<circle style="fill:#64798A;" cx="34.841" cy="87.728" r="17.414"/>
	<circle style="fill:#64798A;" cx="104.504" cy="87.728" r="17.414"/>
</g>
<path style="fill:#D5D6DB;" d="M97.532,94.7H41.794c-3.849,0-6.97-3.12-6.97-6.97v0c0-3.849,3.12-6.97,6.97-6.97h55.738
	c3.849,0,6.97,3.12,6.97,6.97v0C104.501,91.579,101.381,94.7,97.532,94.7z"/>
<g>
	<circle style="fill:#64798A;" cx="34.841" cy="160.956" r="17.414"/>
	<circle style="fill:#64798A;" cx="104.504" cy="160.956" r="17.414"/>
</g>
<path style="fill:#D5D6DB;" d="M97.532,167.902H41.794c-3.849,0-6.97-3.12-6.97-6.97v0c0-3.849,3.12-6.97,6.97-6.97h55.738
	c3.849,0,6.97,3.12,6.97,6.97v0C104.501,164.782,101.381,167.902,97.532,167.902z"/>
<g>
	<circle style="fill:#64798A;" cx="34.841" cy="234.135" r="17.414"/>
	<circle style="fill:#64798A;" cx="104.504" cy="234.135" r="17.414"/>
</g>
<path style="fill:#D5D6DB;" d="M97.532,241.104H41.794c-3.849,0-6.97-3.12-6.97-6.97l0,0c0-3.849,3.12-6.97,6.97-6.97h55.738
	c3.849,0,6.97,3.12,6.97,6.97l0,0C104.501,237.984,101.381,241.104,97.532,241.104z"/>
<g>
	<circle style="fill:#64798A;" cx="34.841" cy="307.338" r="17.414"/>
	<circle style="fill:#64798A;" cx="104.504" cy="307.338" r="17.414"/>
</g>
<path style="fill:#D5D6DB;" d="M97.532,314.307H41.794c-3.849,0-6.97-3.12-6.97-6.969v0c0-3.849,3.12-6.97,6.97-6.97h55.738
	c3.849,0,6.97,3.12,6.97,6.97v0C104.501,311.186,101.381,314.307,97.532,314.307z"/>
<g>
	<circle style="fill:#64798A;" cx="34.841" cy="380.554" r="17.414"/>
	<circle style="fill:#64798A;" cx="104.504" cy="380.554" r="17.414"/>
</g>
<path style="fill:#D5D6DB;" d="M97.532,387.509H41.794c-3.849,0-6.97-3.12-6.97-6.97v0c0-3.849,3.12-6.97,6.97-6.97h55.738
	c3.849,0,6.97,3.12,6.97,6.97v0C104.501,384.388,101.381,387.509,97.532,387.509z"/>
<path style="fill:#27A2DB;" d="M326.545,178.344H165.791c-6.897,0-12.488-5.591-12.488-12.488V82.806
	c0-6.897,5.591-12.488,12.488-12.488h160.754c6.897,0,12.488,5.591,12.488,12.488v83.051
	C339.032,172.754,333.441,178.344,326.545,178.344z"/>
<g>
	<rect x="153.288" y="216.714" style="fill:#F6C358;" width="185.731" height="17.414"/>
	<rect x="153.288" y="263.456" style="fill:#F6C358;" width="185.731" height="17.414"/>
</g>
<rect x="401.726" y="104.074" style="fill:#44C4A1;" width="66.541" height="262.993"/>
<path style="fill:#D5D6DB;" d="M468.293,367.058l-14.542,20.16l-13.136,18.165c-2.772,3.833-8.483,3.83-11.251-0.006l-13.102-18.159
	l-14.543-20.159L468.293,367.058z"/>
<path style="fill:#3A556A;" d="M453.751,387.217l-13.136,18.165c-2.772,3.833-8.483,3.83-11.251-0.006l-13.102-18.159
	L453.751,387.217z"/>
<path style="fill:#E56353;" d="M468.271,104.044l-66.553,0l0-32.846c0-6.897,5.591-12.488,12.488-12.488l41.578,0
	c6.897,0,12.488,5.591,12.488,12.488L468.271,104.044z"/>
<rect x="401.726" y="104.074" style="fill:#E1E6E9;" width="66.547" height="11.108"/>
<rect x="422.088" y="115.157" style="fill:#3EA69B;" width="25.85" height="251.879"/>
<g>
</g>
<g>
</g>
<g>
</g>
<g>
</g>
<g>
</g>
<g>
</g>
<g>
</g>
<g>
</g>
<g>
</g>
<g>
</g>
<g>
</g>
<g>
</g>
<g>
</g>
<g>
</g>
<g>
</g>
</svg>
