<?xml version="1.0" encoding="iso-8859-1"?>
<!-- Generator: Adobe Illustrator 19.0.0, SVG Export Plug-In . SVG Version: 6.00 Build 0)  -->
<svg version="1.1" id="Capa_1" xmlns="http://www.w3.org/2000/svg" xmlns:xlink="http://www.w3.org/1999/xlink" x="0px" y="0px"
	 viewBox="0 0 468.293 468.293" style="enable-background:new 0 0 468.293 468.293;" xml:space="preserve">
<path style="fill:#3EA69B;" d="M375.645,468.293H92.648c-6.897,0-12.488-5.591-12.488-12.488V73.648
	c0-6.897,5.591-12.488,12.488-12.488h282.997c6.897,0,12.488,5.591,12.488,12.488v382.157
	C388.133,462.702,382.542,468.293,375.645,468.293z"/>
<rect x="99.753" y="79.572" style="fill:#EBF0F3;" width="268.8" height="370.326"/>
<path style="fill:#27A2DB;" d="M269.143,43.361V12.72c0-7.026-5.696-12.72-12.72-12.72H211.87c-7.025,0-12.72,5.694-12.72,12.72
	v30.641c-32.292,8.438-54.953,35.912-54.953,58.946h179.898C324.095,79.274,301.434,51.799,269.143,43.361z"/>
<circle style="fill:#E1E6E9;" cx="234.146" cy="29.29" r="17.489"/>
<path style="fill:#E56353;" d="M307.217,176.816l-120.486,33.275c-3.706,1.024-6.273,4.396-6.273,8.24v94.253
	c-3.237-1.085-6.69-1.697-10.292-1.697c-17.895,0-32.402,14.507-32.402,32.402c0,17.895,14.507,32.401,32.402,32.401
	s32.401-14.506,32.401-32.401v-99.301c0-3.849,2.573-7.224,6.285-8.244l76.267-20.951c5.442-1.495,10.814,2.6,10.814,8.244v59.624
	c-3.237-1.085-6.69-1.697-10.292-1.697c-17.895,0-32.402,14.507-32.402,32.402c0,17.895,14.507,32.401,32.402,32.401
	c17.895,0,32.401-14.506,32.401-32.401v-128.31C318.042,179.409,312.662,175.312,307.217,176.816z"/>
<g>
</g>
<g>
</g>
<g>
</g>
<g>
</g>
<g>
</g>
<g>
</g>
<g>
</g>
<g>
</g>
<g>
</g>
<g>
</g>
<g>
</g>
<g>
</g>
<g>
</g>
<g>
</g>
<g>
</g>
</svg>
