<?xml version="1.0" encoding="iso-8859-1"?>
<!-- Generator: Adobe Illustrator 19.0.0, SVG Export Plug-In . SVG Version: 6.00 Build 0)  -->
<svg version="1.1" id="Capa_1" xmlns="http://www.w3.org/2000/svg" xmlns:xlink="http://www.w3.org/1999/xlink" x="0px" y="0px"
	 viewBox="0 0 468.293 468.293" style="enable-background:new 0 0 468.293 468.293;" xml:space="preserve">
<path style="fill:#64798A;" d="M468.293,301.113H0V32.625C0,22.28,8.386,13.893,18.732,13.893h430.829
	c10.345,0,18.732,8.386,18.732,18.732V301.113z"/>
<path style="fill:#E1E6E9;" d="M468.293,301.113H0v64.906c0,10.345,8.386,18.732,18.732,18.732h430.829
	c10.345,0,18.732-8.387,18.732-18.732V301.113z"/>
<g>
	<circle style="fill:#D5D6DB;" cx="234.146" cy="342.915" r="28.098"/>
	<path style="fill:#D5D6DB;" d="M307.297,432.194h-0.127c-6.314,0-11.432-5.118-11.432-11.432V384.75H172.554v36.012
		c0,6.314-5.118,11.432-11.432,11.432h-0.126c-5.531,0-10.657,3.779-11.545,9.238c-1.132,6.956,4.208,12.968,10.95,12.968h147.489
		c6.744,0,12.083-6.012,10.951-12.968C317.953,435.973,312.827,432.194,307.297,432.194z"/>
</g>
<path style="fill:#E1E6E9;" d="M315.296,66.714v181.573c0,6.897-5.591,12.488-12.488,12.488H165.442
	c-6.897,0-12.488-5.591-12.488-12.488V93.626l39.399-39.399h110.454C309.705,54.226,315.296,59.817,315.296,66.714z"/>
<g>
	<polygon style="fill:#D5D6DB;" points="192.354,54.226 192.354,93.626 152.955,93.626 	"/>
	<rect x="219.292" y="81.14" style="fill:#D5D6DB;" width="71.031" height="12.488"/>
	<rect x="177.932" y="127.888" style="fill:#D5D6DB;" width="112.39" height="12.488"/>
	<rect x="177.932" y="174.629" style="fill:#D5D6DB;" width="112.39" height="12.488"/>
	<rect x="177.932" y="221.378" style="fill:#D5D6DB;" width="112.39" height="12.488"/>
</g>
<g>
</g>
<g>
</g>
<g>
</g>
<g>
</g>
<g>
</g>
<g>
</g>
<g>
</g>
<g>
</g>
<g>
</g>
<g>
</g>
<g>
</g>
<g>
</g>
<g>
</g>
<g>
</g>
<g>
</g>
</svg>
