<?xml version="1.0" encoding="iso-8859-1"?>
<!-- Generator: Adobe Illustrator 19.0.0, SVG Export Plug-In . SVG Version: 6.00 Build 0)  -->
<svg version="1.1" id="Capa_1" xmlns="http://www.w3.org/2000/svg" xmlns:xlink="http://www.w3.org/1999/xlink" x="0px" y="0px"
	 viewBox="0 0 468.293 468.293" style="enable-background:new 0 0 468.293 468.293;" xml:space="preserve">
<path style="fill:#E1E6E9;" d="M148.59,0L59.317,89.273v366.532c0,6.897,5.591,12.488,12.488,12.488h324.683
	c6.897,0,12.488-5.591,12.488-12.488V12.488C408.976,5.591,403.385,0,396.488,0C396.488,0,148.59,0,148.59,0z"/>
<polygon style="fill:#D5D6DB;" points="148.59,89.272 148.59,0 59.317,89.272 "/>
<path style="fill:#FCD462;" d="M396.488,468.293H71.805c-6.897,0-12.488-5.591-12.488-12.488V334.439h349.659v121.366
	C408.976,462.702,403.385,468.293,396.488,468.293z"/>
<g>
	<path style="fill:#64798A;" d="M130.536,436.676h-11.922v-70.62h18.59l21.32,44.35l21.312-44.35h18.491v70.62h-11.922v-55.162
		l-24.65,48.995h-6.668l-24.551-48.995V436.676z"/>
	<path style="fill:#64798A;" d="M217.928,366.056h11.922v34.451l32.329-34.451h15.153l-28.391,30.915l28.794,39.704h-14.142
		l-23.441-30.915l-10.302,11.116v19.799h-11.922V366.056z"/>
	<path style="fill:#64798A;" d="M321.288,436.676h-13.336l-28.391-70.62h13.336l21.723,52.737l21.723-52.737h13.336L321.288,436.676
		z"/>
</g>
<polygon style="fill:#EBF0F3;" points="338.495,259.067 129.815,259.067 144.295,224.373 154.799,199.274 167.122,169.803 
	177.569,144.705 189.892,115.234 200.397,90.136 219.59,44.141 248.719,44.141 267.913,90.136 278.417,115.234 290.74,144.705 
	301.188,169.803 313.511,199.274 324.015,224.373 "/>
<g>
	<path style="fill:#DC8744;" d="M121.756,259.074h224.78c6.897,0,12.488,5.591,12.488,12.488v6.249
		c0,6.897-5.591,12.488-12.488,12.488h-224.78c-6.897,0-12.488-5.591-12.488-12.488v-6.249
		C109.268,264.665,114.859,259.074,121.756,259.074z"/>
	<polygon style="fill:#DC8744;" points="324.015,224.373 144.295,224.373 154.799,199.274 313.511,199.274 	"/>
	<polygon style="fill:#DC8744;" points="301.188,169.803 167.122,169.803 177.569,144.705 290.74,144.705 	"/>
	<polygon style="fill:#DC8744;" points="278.417,115.234 189.892,115.234 200.397,90.136 267.913,90.136 	"/>
</g>
<g>
</g>
<g>
</g>
<g>
</g>
<g>
</g>
<g>
</g>
<g>
</g>
<g>
</g>
<g>
</g>
<g>
</g>
<g>
</g>
<g>
</g>
<g>
</g>
<g>
</g>
<g>
</g>
<g>
</g>
</svg>
