<?xml version="1.0" encoding="iso-8859-1"?>
<!-- Generator: Adobe Illustrator 19.0.0, SVG Export Plug-In . SVG Version: 6.00 Build 0)  -->
<svg version="1.1" id="Capa_1" xmlns="http://www.w3.org/2000/svg" xmlns:xlink="http://www.w3.org/1999/xlink" x="0px" y="0px"
	 viewBox="0 0 468.293 468.293" style="enable-background:new 0 0 468.293 468.293;" xml:space="preserve">
<path style="fill:#E1E6E9;" d="M138.924,0L59.318,79.607v369.954c0,10.345,8.386,18.732,18.732,18.732h312.195
	c10.345,0,18.732-8.386,18.732-18.732V18.732C408.976,8.387,400.59,0,390.244,0C390.244,0,138.924,0,138.924,0z"/>
<polygon style="fill:#EBF0F3;" points="138.924,79.607 138.925,0 59.317,79.607 "/>
<path style="fill:#F6C358;" d="M360.367,151.673v124.878c0,2.997-1.061,5.745-2.809,7.867c-2.31,2.81-5.806,4.62-9.678,4.62H120.414
	c-3.872,0-7.368-1.811-9.678-4.62c-1.748-2.123-2.809-4.87-2.809-7.867V151.673c0-2.997,1.061-5.744,2.809-7.93
	c2.31-2.747,5.806-4.558,9.678-4.558h227.465c3.872,0,7.368,1.811,9.678,4.558C359.306,145.929,360.367,148.676,360.367,151.673z"/>
<path style="fill:#FCD462;" d="M357.557,284.418c-2.31,2.81-5.806,4.62-9.678,4.62H120.414c-3.872,0-7.368-1.811-9.678-4.62
	l110.08-85.854c7.431-5.807,19.231-5.807,26.662,0L357.557,284.418z"/>
<path style="fill:#E5AE4E;" d="M357.557,144.04l-110.08,91.511c-7.431,6.118-19.231,6.118-26.662,0l-110.08-91.511
	c2.31-2.926,5.806-4.855,9.678-4.855h227.465C351.751,139.185,355.247,141.114,357.557,144.04z"/>
<g>
	<rect x="180.293" y="64" style="fill:#D5D6DB;" width="187.317" height="15.61"/>
	<rect x="89.556" y="348.597" style="fill:#D5D6DB;" width="289.155" height="15.61"/>
	<rect x="89.556" y="411.036" style="fill:#D5D6DB;" width="289.155" height="15.61"/>
</g>
<path style="fill:#FCD462;" d="M357.557,143.744l-110.08,85.916c-7.431,5.744-19.231,5.744-26.662,0l-110.08-85.916
	c2.31-2.747,5.806-4.558,9.678-4.558h227.465C351.751,139.185,355.247,140.996,357.557,143.744z"/>
<g>
</g>
<g>
</g>
<g>
</g>
<g>
</g>
<g>
</g>
<g>
</g>
<g>
</g>
<g>
</g>
<g>
</g>
<g>
</g>
<g>
</g>
<g>
</g>
<g>
</g>
<g>
</g>
<g>
</g>
</svg>
