<?xml version="1.0" encoding="iso-8859-1"?>
<!-- Generator: Adobe Illustrator 19.0.0, SVG Export Plug-In . SVG Version: 6.00 Build 0)  -->
<svg version="1.1" id="Capa_1" xmlns="http://www.w3.org/2000/svg" xmlns:xlink="http://www.w3.org/1999/xlink" x="0px" y="0px"
	 viewBox="0 0 468.293 468.293" style="enable-background:new 0 0 468.293 468.293;" xml:space="preserve">
<path style="fill:#E1E6E9;" d="M328.521,403.015H58.33c-6.897,0-12.488-5.591-12.488-12.488V12.488C45.842,5.591,51.433,0,58.33,0
	h270.191c6.897,0,12.488,5.591,12.488,12.488v378.04C341.008,397.424,335.417,403.015,328.521,403.015z"/>
<g>
	<rect x="79.897" y="52.505" style="fill:#D5D6DB;" width="227.028" height="14.192"/>
	<rect x="79.897" y="109.268" style="fill:#D5D6DB;" width="34.554" height="14.192"/>
	<rect x="144.066" y="109.268" style="fill:#D5D6DB;" width="34.554" height="14.192"/>
	<rect x="208.234" y="109.268" style="fill:#D5D6DB;" width="34.554" height="14.192"/>
	<rect x="272.421" y="109.268" style="fill:#D5D6DB;" width="34.554" height="14.192"/>
	<rect x="79.897" y="166.025" style="fill:#D5D6DB;" width="227.028" height="14.192"/>
	<rect x="79.897" y="222.782" style="fill:#D5D6DB;" width="34.554" height="14.192"/>
	<rect x="144.066" y="222.782" style="fill:#D5D6DB;" width="34.554" height="14.192"/>
	<rect x="208.234" y="222.782" style="fill:#D5D6DB;" width="34.554" height="14.192"/>
	<rect x="272.421" y="222.782" style="fill:#D5D6DB;" width="34.554" height="14.192"/>
	<rect x="79.897" y="279.539" style="fill:#D5D6DB;" width="227.028" height="14.192"/>
	<rect x="79.897" y="336.297" style="fill:#D5D6DB;" width="34.554" height="14.192"/>
	<rect x="144.066" y="336.297" style="fill:#D5D6DB;" width="34.554" height="14.192"/>
	<rect x="208.234" y="336.297" style="fill:#D5D6DB;" width="34.554" height="14.192"/>
	<rect x="272.421" y="336.297" style="fill:#D5D6DB;" width="34.554" height="14.192"/>
</g>
<path style="fill:#27A2DB;" d="M417.357,430.348l-69.434-53.845l-17.262,17.262l53.845,69.434c4.859,6.26,14.107,6.841,19.71,1.237
	l14.378-14.378C424.198,444.455,423.617,435.207,417.357,430.348z"/>
<circle style="fill:#1C75A1;" cx="275.294" cy="321.136" r="102.6"/>
<path style="fill:#E1E6E9;" d="M339.292,385.133c-35.29,35.29-92.711,35.29-128.001,0c-35.29-35.29-35.288-92.71,0.001-128
	s92.709-35.29,127.998,0S374.582,349.844,339.292,385.133z"/>
<path style="fill:#D5D6DB;" d="M211.293,257.133l128,128c35.29-35.29,35.288-92.71-0.001-128S246.582,221.844,211.293,257.133z"/>
<g>
</g>
<g>
</g>
<g>
</g>
<g>
</g>
<g>
</g>
<g>
</g>
<g>
</g>
<g>
</g>
<g>
</g>
<g>
</g>
<g>
</g>
<g>
</g>
<g>
</g>
<g>
</g>
<g>
</g>
</svg>
