<?xml version="1.0" encoding="iso-8859-1"?>
<!-- Generator: Adobe Illustrator 19.0.0, SVG Export Plug-In . SVG Version: 6.00 Build 0)  -->
<svg version="1.1" id="Capa_1" xmlns="http://www.w3.org/2000/svg" xmlns:xlink="http://www.w3.org/1999/xlink" x="0px" y="0px"
	 viewBox="0 0 468.293 468.293" style="enable-background:new 0 0 468.293 468.293;" xml:space="preserve">
<path style="fill:#F6C358;" d="M443.317,435.46H24.976C11.182,435.46,0,424.278,0,410.484V51.565
	C0,41.22,8.386,32.833,18.732,32.833h78.754c5.382,0,10.504,2.315,14.06,6.355l49.275,55.974c3.556,4.04,8.678,6.355,14.06,6.355
	h274.681c10.345,0,18.732,8.386,18.732,18.732v290.236C468.293,424.278,457.111,435.46,443.317,435.46z"/>
<circle style="fill:#EBF0F3;" cx="234.146" cy="268.488" r="121.756"/>
<path style="fill:#27A2DB;" d="M234.146,364.65L234.146,364.65c-34.484,0-62.439-27.955-62.439-62.439v-41.928
	c0-4.531,3.673-8.204,8.204-8.204h108.469c4.531,0,8.204,3.673,8.204,8.204v41.928C296.585,336.695,268.63,364.65,234.146,364.65z"
	/>
<path style="fill:#D5D6DB;" d="M234.147,172.325L234.147,172.325c-26.748,0-48.43,21.683-48.43,48.429v31.324h20.512v-31.324
	c0-15.393,12.523-27.918,27.918-27.918s27.918,12.525,27.918,27.918v31.324h20.511v-31.324
	C282.576,194.008,260.893,172.325,234.147,172.325z"/>
<path style="fill:#3A556A;" d="M245.082,305.202c0-6.992-6.562-12.452-13.863-10.556c-3.693,0.959-6.7,3.994-7.643,7.691
	c-1.3,5.099,0.994,9.766,4.851,12.148l-1.808,18.297c-0.119,1.207,0.829,2.253,2.041,2.253h10.971c1.212,0,2.16-1.046,2.041-2.253
	l-1.808-18.297C242.985,312.559,245.082,309.137,245.082,305.202z"/>
<g>
</g>
<g>
</g>
<g>
</g>
<g>
</g>
<g>
</g>
<g>
</g>
<g>
</g>
<g>
</g>
<g>
</g>
<g>
</g>
<g>
</g>
<g>
</g>
<g>
</g>
<g>
</g>
<g>
</g>
</svg>
