<?xml version="1.0" encoding="iso-8859-1"?>
<!-- Generator: Adobe Illustrator 19.0.0, SVG Export Plug-In . SVG Version: 6.00 Build 0)  -->
<svg version="1.1" id="Capa_1" xmlns="http://www.w3.org/2000/svg" xmlns:xlink="http://www.w3.org/1999/xlink" x="0px" y="0px"
	 viewBox="0 0 468.293 468.293" style="enable-background:new 0 0 468.293 468.293;" xml:space="preserve">
<path style="fill:#E1E6E9;" d="M143.125,0l-71.32,71.32v384.485c0,6.897,5.591,12.488,12.488,12.488H384
	c6.897,0,12.488-5.591,12.488-12.488V12.488C396.488,5.591,390.897,0,384,0C384,0,143.125,0,143.125,0z"/>
<polygon style="fill:#EBF0F3;" points="143.125,71.32 143.125,0 71.805,71.32 "/>
<path style="fill:#27A2DB;" d="M230.047,311.4v-13.606c-17.027-1.739-32.309-8.511-45.852-20.317l13.606-16.215
	c10.442,9.071,21.187,14.478,32.246,16.215v-36.157c-14.04-3.356-24.325-7.764-30.847-13.234
	c-6.522-5.464-9.787-13.571-9.787-24.322c0-10.745,3.762-19.536,11.28-26.373c7.512-6.831,17.298-10.559,29.354-11.183v-9.317
	h11.929v9.503c13.662,0.999,26.587,5.656,38.762,13.981l-12.112,17.147c-8.199-5.839-17.084-9.443-26.65-10.811v35.038h0.555
	c14.292,3.356,24.791,7.893,31.503,13.606c6.705,5.719,10.064,14.012,10.064,24.883c0,10.874-3.857,19.728-11.558,26.559
	c-7.707,6.834-17.891,10.562-30.564,11.183v13.42H230.047z M216.908,191.092c-3.17,2.795-4.752,6.277-4.752,10.436
	c0,4.165,1.235,7.455,3.724,9.878c2.483,2.423,7.203,4.755,14.166,6.992v-32.246C224.457,186.65,220.078,188.298,216.908,191.092z
	 M256.136,272.82c3.479-2.858,5.224-6.459,5.224-10.811c0-4.348-1.374-7.795-4.102-10.344c-2.735-2.546-7.827-4.941-15.282-7.175
	v33.548C247.938,277.418,252.658,275.678,256.136,272.82z"/>
<g>
	<rect x="103.024" y="357.07" style="fill:#D5D6DB;" width="262.244" height="15.61"/>
	<rect x="103.024" y="407.04" style="fill:#D5D6DB;" width="262.244" height="15.61"/>
	<rect x="174.342" y="56.351" style="fill:#D5D6DB;" width="190.926" height="15.61"/>
	<rect x="103.024" y="106.302" style="fill:#D5D6DB;" width="262.244" height="15.61"/>
</g>
<g>
</g>
<g>
</g>
<g>
</g>
<g>
</g>
<g>
</g>
<g>
</g>
<g>
</g>
<g>
</g>
<g>
</g>
<g>
</g>
<g>
</g>
<g>
</g>
<g>
</g>
<g>
</g>
<g>
</g>
</svg>
