<?xml version="1.0" encoding="iso-8859-1"?>
<!-- Generator: Adobe Illustrator 19.0.0, SVG Export Plug-In . SVG Version: 6.00 Build 0)  -->
<svg version="1.1" id="Capa_1" xmlns="http://www.w3.org/2000/svg" xmlns:xlink="http://www.w3.org/1999/xlink" x="0px" y="0px"
	 viewBox="0 0 468.293 468.293" style="enable-background:new 0 0 468.293 468.293;" xml:space="preserve">
<path style="fill:#E1E6E9;" d="M449.561,443.317H18.732C8.386,443.317,0,434.931,0,424.585V43.707
	c0-10.345,8.386-18.732,18.732-18.732h430.829c10.345,0,18.732,8.386,18.732,18.732v380.878
	C468.293,434.931,459.906,443.317,449.561,443.317z"/>
<rect x="31.22" y="56.195" style="fill:#27A2DB;" width="405.854" height="355.902"/>
<path style="fill:#DC8744;" d="M331.15,232.793l-49.641,95.492l-36.351-69.926c-4.042-7.774-15.164-7.774-19.205,0l-24.71,47.531
	l-51.048-98.198c-4.042-7.774-15.164-7.774-19.205,0L31.221,412.096h121.303h91.907h5.531h68.624h118.488l-86.719-179.303
	C346.314,225.018,335.192,225.018,331.15,232.793z"/>
<circle style="fill:#FCD462;" cx="254.689" cy="152.226" r="26.38"/>
<g>
	<path style="fill:#F6C358;" d="M254.673,89.784c-2.917,0-5.277,2.363-5.277,5.277v14.949c0,2.914,2.36,5.277,5.277,5.277
		c2.917,0,5.277-2.363,5.277-5.277V95.061C259.95,92.147,257.59,89.784,254.673,89.784z"/>
	<path style="fill:#F6C358;" d="M254.673,189.147c-2.917,0-5.277,2.363-5.277,5.277v14.949c0,2.914,2.36,5.277,5.277,5.277
		c2.917,0,5.277-2.363,5.277-5.277v-14.949C259.95,191.51,257.59,189.147,254.673,189.147z"/>
	<path style="fill:#F6C358;" d="M284.514,127.651c1.35,0,2.7-0.515,3.731-1.546l10.574-10.574c2.061-2.061,2.061-5.4,0-7.462
		c-2.061-2.061-5.4-2.061-7.462,0l-10.574,10.574c-2.061,2.061-2.061,5.4,0,7.462C281.814,127.136,283.164,127.651,284.514,127.651z
		"/>
	<path style="fill:#F6C358;" d="M221.091,178.336l-10.574,10.571c-2.061,2.059-2.061,5.4,0,7.462
		c1.031,1.031,2.381,1.546,3.731,1.546s2.7-0.515,3.731-1.546l10.574-10.571c2.061-2.059,2.061-5.4,0-7.462
		C226.491,176.275,223.152,176.275,221.091,178.336z"/>
	<path style="fill:#F6C358;" d="M311.825,146.941h-14.949c-2.917,0-5.277,2.363-5.277,5.277s2.36,5.277,5.277,5.277h14.949
		c2.917,0,5.277-2.363,5.277-5.277S314.742,146.941,311.825,146.941z"/>
	<path style="fill:#F6C358;" d="M217.731,152.221c0-2.914-2.36-5.277-5.277-5.277H197.5c-2.917,0-5.277,2.363-5.277,5.277
		c0,2.914,2.36,5.277,5.277,5.277h14.954C215.371,157.497,217.731,155.135,217.731,152.221z"/>
	<path style="fill:#F6C358;" d="M288.24,178.334c-2.061-2.061-5.4-2.061-7.462,0c-2.061,2.061-2.061,5.403,0,7.462l10.574,10.571
		c1.031,1.031,2.381,1.546,3.731,1.546c1.35,0,2.7-0.515,3.731-1.546c2.061-2.061,2.061-5.403,0-7.462L288.24,178.334z"/>
	<path style="fill:#F6C358;" d="M221.081,126.1c1.031,1.031,2.381,1.546,3.731,1.546s2.7-0.515,3.731-1.543
		c2.061-2.061,2.061-5.403,0-7.464l-10.569-10.574c-2.061-2.061-5.4-2.059-7.462-0.003c-2.061,2.061-2.061,5.403,0,7.464
		L221.081,126.1z"/>
</g>
<g>
</g>
<g>
</g>
<g>
</g>
<g>
</g>
<g>
</g>
<g>
</g>
<g>
</g>
<g>
</g>
<g>
</g>
<g>
</g>
<g>
</g>
<g>
</g>
<g>
</g>
<g>
</g>
<g>
</g>
</svg>
