<?xml version="1.0" encoding="iso-8859-1"?>
<!-- Generator: Adobe Illustrator 19.0.0, SVG Export Plug-In . SVG Version: 6.00 Build 0)  -->
<svg version="1.1" id="Capa_1" xmlns="http://www.w3.org/2000/svg" xmlns:xlink="http://www.w3.org/1999/xlink" x="0px" y="0px"
	 viewBox="0 0 468.293 468.293" style="enable-background:new 0 0 468.293 468.293;" xml:space="preserve">
<path style="fill:#E1E6E9;" d="M402.761,12.488v443.317c0,6.897-5.591,12.488-12.488,12.488H78.078
	c-6.897,0-12.488-5.591-12.488-12.488V76.925h76.862V0h247.821C397.17,0,402.761,5.591,402.761,12.488z"/>
<path style="fill:#44C4A1;" d="M414.406,393.989H53.887c-3.448,0-6.244-2.796-6.244-6.244V262.867c0-3.448,2.795-6.244,6.244-6.244
	h360.519c3.448,0,6.244,2.795,6.244,6.244v124.878C420.65,391.193,417.854,393.989,414.406,393.989z"/>
<g>
	<path style="fill:#EBF0F3;" d="M199.074,327.186h15.855v32.115c-8.868,9.764-21.541,14.641-38.019,14.641
		c-13.887,0-25.51-4.56-34.87-13.701C132.68,351.1,128,339.553,128,325.579c0-13.974,4.767-25.619,14.313-34.936
		c9.535-9.316,21.071-13.974,34.597-13.974c13.526,0,24.767,3.936,33.722,11.82l-8.463,12.094c-3.674-3.138-7.37-5.303-11.088-6.517
		c-3.718-1.214-8.037-1.815-12.968-1.815c-9.491,0-17.462,3.073-23.914,9.207c-6.451,6.134-9.677,14.193-9.677,24.187
		c0,9.983,3.138,17.998,9.415,24.045c6.265,6.047,13.854,9.076,22.766,9.076s16.369-1.924,22.372-5.784V327.186z"/>
	<path style="fill:#EBF0F3;" d="M235.759,278.954h15.855v93.916h-15.855V278.954z"/>
	<path style="fill:#EBF0F3;" d="M293.537,293.727v25.805h41.649v14.641h-41.649v38.697h-15.855v-93.916h62.611l-0.131,14.772
		H293.537z"/>
	<polygon style="fill:#EBF0F3;" points="142.452,0 142.452,76.925 65.59,76.925 	"/>
</g>
<polygon style="fill:#D5D6DB;" points="132.077,76.925 65.59,123.175 65.59,76.925 "/>
<g>
</g>
<g>
</g>
<g>
</g>
<g>
</g>
<g>
</g>
<g>
</g>
<g>
</g>
<g>
</g>
<g>
</g>
<g>
</g>
<g>
</g>
<g>
</g>
<g>
</g>
<g>
</g>
<g>
</g>
</svg>
