<?xml version="1.0" encoding="iso-8859-1"?>
<!-- Generator: Adobe Illustrator 19.0.0, SVG Export Plug-In . SVG Version: 6.00 Build 0)  -->
<svg version="1.1" id="Capa_1" xmlns="http://www.w3.org/2000/svg" xmlns:xlink="http://www.w3.org/1999/xlink" x="0px" y="0px"
	 viewBox="0 0 468.293 468.293" style="enable-background:new 0 0 468.293 468.293;" xml:space="preserve">
<path style="fill:#FCD462;" d="M468.293,115.481v287.282c0,10.365-8.367,18.732-18.732,18.732H18.732
	C8.367,421.495,0,413.128,0,402.763V65.53c0-10.302,8.367-18.732,18.732-18.732h107.77c4.87,0,9.553,1.936,13.05,5.308
	l40.523,39.336c3.497,3.434,8.179,5.307,13.05,5.307h256.437C459.926,96.749,468.293,105.179,468.293,115.481z"/>
<rect x="30.302" y="131.859" style="fill:#EBF0F3;" width="407.664" height="96.056"/>
<path style="fill:#F6C358;" d="M468.293,167.306v235.457c0,10.365-8.367,18.732-18.732,18.732H18.732
	C8.367,421.495,0,413.128,0,402.763V167.306H468.293z"/>
<circle style="fill:#FCD462;" cx="234.146" cy="294.4" r="93.659"/>
<path style="fill:#DC8744;" d="M278.89,285.414l-40.737-48.344c-1.954-2.768-6.06-2.768-8.014,0l-40.737,48.344
	c-2.294,3.249,0.03,7.734,4.007,7.734h13.27c2.709,0,4.905,2.196,4.905,4.905v50.851c0,2.709,2.196,4.905,4.905,4.905h35.314
	c2.709,0,4.905-2.196,4.905-4.905v-50.851c0-2.709,2.196-4.905,4.905-4.905h13.27C278.86,293.147,281.183,288.663,278.89,285.414z"
	/>
<g>
</g>
<g>
</g>
<g>
</g>
<g>
</g>
<g>
</g>
<g>
</g>
<g>
</g>
<g>
</g>
<g>
</g>
<g>
</g>
<g>
</g>
<g>
</g>
<g>
</g>
<g>
</g>
<g>
</g>
</svg>
