<?xml version="1.0" encoding="iso-8859-1"?>
<!-- Generator: Adobe Illustrator 19.0.0, SVG Export Plug-In . SVG Version: 6.00 Build 0)  -->
<svg version="1.1" id="Capa_1" xmlns="http://www.w3.org/2000/svg" xmlns:xlink="http://www.w3.org/1999/xlink" x="0px" y="0px"
	 viewBox="0 0 468.293 468.293" style="enable-background:new 0 0 468.293 468.293;" xml:space="preserve">
<polygon style="fill:#D5D6DB;" points="158.539,23.711 82.989,99.262 82.989,468.293 409.015,468.293 409.015,23.711 "/>
<polygon style="fill:#E1E6E9;" points="134.828,0 59.278,75.551 59.278,444.582 385.304,444.582 385.304,0 "/>
<path style="fill:#44C4A1;" d="M227.928,160.979l19.498,60.009c0.794,2.442,3.07,4.096,5.638,4.096h63.098
	c5.742,0,8.13,7.348,3.484,10.723l-51.047,37.088c-2.078,1.509-2.947,4.185-2.153,6.627l19.498,60.009
	c1.774,5.461-4.476,10.003-9.122,6.627l-51.047-37.088c-2.078-1.509-4.891-1.509-6.968,0l-51.047,37.088
	c-4.646,3.375-10.896-1.166-9.122-6.627l19.498-60.009c0.794-2.442-0.076-5.118-2.153-6.627l-51.047-37.088
	c-4.646-3.375-2.258-10.723,3.484-10.723h63.098c2.568,0,4.844-1.654,5.638-4.096l19.498-60.009
	C218.428,155.517,226.154,155.517,227.928,160.979z"/>
<g>
	<rect x="103.711" y="374.946" style="fill:#D5D6DB;" width="237.112" height="14.817"/>
	<rect x="103.711" y="114.42" style="fill:#D5D6DB;" width="237.112" height="14.817"/>
	<rect x="103.711" y="60.728" style="fill:#D5D6DB;" width="237.112" height="14.817"/>
</g>
<polygon style="fill:#EBF0F3;" points="134.829,75.551 134.828,0 59.279,75.55 "/>
<g>
</g>
<g>
</g>
<g>
</g>
<g>
</g>
<g>
</g>
<g>
</g>
<g>
</g>
<g>
</g>
<g>
</g>
<g>
</g>
<g>
</g>
<g>
</g>
<g>
</g>
<g>
</g>
<g>
</g>
</svg>
