<?xml version="1.0" encoding="iso-8859-1"?>
<!-- Generator: Adobe Illustrator 19.0.0, SVG Export Plug-In . SVG Version: 6.00 Build 0)  -->
<svg version="1.1" id="Capa_1" xmlns="http://www.w3.org/2000/svg" xmlns:xlink="http://www.w3.org/1999/xlink" x="0px" y="0px"
	 viewBox="0 0 468.293 468.293" style="enable-background:new 0 0 468.293 468.293;" xml:space="preserve">
<path style="fill:#E1E6E9;" d="M356.066,100.277v355.528c0,6.897-5.591,12.488-12.488,12.488H31.383
	c-6.897,0-12.488-5.591-12.488-12.488V12.488C18.895,5.591,24.486,0,31.383,0h224.405v100.277H356.066z"/>
<polygon style="fill:#D5D6DB;" points="356.066,100.277 255.788,100.277 255.788,0 "/>
<g>
	<rect x="50.114" y="46.411" style="fill:#64798A;" width="37.463" height="42.814"/>
	<rect x="50.114" y="129.561" style="fill:#64798A;" width="37.463" height="42.814"/>
	<rect x="50.114" y="212.736" style="fill:#64798A;" width="37.463" height="42.814"/>
	<rect x="50.114" y="295.905" style="fill:#64798A;" width="37.463" height="42.814"/>
	<rect x="50.114" y="379.067" style="fill:#64798A;" width="37.463" height="42.814"/>
	<rect x="287.407" y="295.905" style="fill:#64798A;" width="37.463" height="42.814"/>
	<rect x="287.407" y="379.067" style="fill:#64798A;" width="37.463" height="42.814"/>
</g>
<path style="fill:#E56353;" d="M436.91,245.258H275.221c-6.897,0-12.488-5.591-12.488-12.488v-69.361
	c0-6.897,5.591-12.488,12.488-12.488H436.91c6.897,0,12.488,5.591,12.488,12.488v69.361
	C449.398,239.667,443.807,245.258,436.91,245.258z"/>
<g>
	<path style="fill:#EBF0F3;" d="M296.723,178.801v15.465h24.96v8.774h-24.96v23.19h-9.502v-56.282h37.521l-0.079,8.853H296.723z"/>
	<path style="fill:#EBF0F3;" d="M335.857,226.231v-56.282h9.502v47.266h25.687v9.017H335.857z"/>
	<path style="fill:#EBF0F3;" d="M402.283,226.231h-10.629l-22.627-56.282h10.629l17.313,42.03l17.313-42.03h10.629L402.283,226.231z
		"/>
</g>
<g>
</g>
<g>
</g>
<g>
</g>
<g>
</g>
<g>
</g>
<g>
</g>
<g>
</g>
<g>
</g>
<g>
</g>
<g>
</g>
<g>
</g>
<g>
</g>
<g>
</g>
<g>
</g>
<g>
</g>
</svg>
