<?xml version="1.0" encoding="iso-8859-1"?>
<!-- Generator: Adobe Illustrator 19.0.0, SVG Export Plug-In . SVG Version: 6.00 Build 0)  -->
<svg version="1.1" id="Capa_1" xmlns="http://www.w3.org/2000/svg" xmlns:xlink="http://www.w3.org/1999/xlink" x="0px" y="0px"
	 viewBox="0 0 468.293 468.293" style="enable-background:new 0 0 468.293 468.293;" xml:space="preserve">
<path style="fill:#D5D6DB;" d="M360.815,468.293H79.491c-6.897,0-12.488-5.591-12.488-12.488V74.966
	c0-6.897,5.591-12.488,12.488-12.488h293.812v393.327C373.303,462.702,367.712,468.293,360.815,468.293z"/>
<path style="fill:#E1E6E9;" d="M388.802,440.305H107.478c-6.897,0-12.488-5.591-12.488-12.488V46.979
	c0-6.897,5.591-12.488,12.488-12.488h281.324c6.897,0,12.488,5.591,12.488,12.488v380.839
	C401.29,434.714,395.699,440.305,388.802,440.305z"/>
<path style="fill:#64798A;" d="M201.738,0h-34.984c-11.575,0-20.99,9.416-20.99,20.99v13.495c0,0.002,0.002,0.003,0.002,0.003
	l13.99,0.002c0,0,0.002-0.003,0.002-0.005V20.99c0-3.857,3.136-6.997,6.997-6.997h34.984c3.861,0,6.997,3.14,6.997,6.997v103.066
	c0,3.857-3.136,6.997-6.997,6.997h-13.994c-3.861,0-6.997-3.14-6.997-6.997V62.49c0-3.864-3.129-6.997-6.997-6.997
	s-6.997,3.133-6.997,6.997v61.567c0,11.575,9.416,20.99,20.99,20.99h13.994c11.575,0,20.99-9.416,20.99-20.99V20.99
	C222.729,9.416,213.313,0,201.738,0z"/>
<g>
	<rect x="154.474" y="191.188" style="fill:#D5D6DB;" width="187.317" height="15.61"/>
	<rect x="154.474" y="253.627" style="fill:#D5D6DB;" width="187.317" height="15.61"/>
	<rect x="154.474" y="316.066" style="fill:#D5D6DB;" width="187.317" height="15.61"/>
	<rect x="154.474" y="378.505" style="fill:#D5D6DB;" width="187.317" height="15.61"/>
</g>
<g>
</g>
<g>
</g>
<g>
</g>
<g>
</g>
<g>
</g>
<g>
</g>
<g>
</g>
<g>
</g>
<g>
</g>
<g>
</g>
<g>
</g>
<g>
</g>
<g>
</g>
<g>
</g>
<g>
</g>
</svg>
