<?xml version="1.0" encoding="iso-8859-1"?>
<!-- Generator: Adobe Illustrator 19.0.0, SVG Export Plug-In . SVG Version: 6.00 Build 0)  -->
<svg version="1.1" id="Capa_1" xmlns="http://www.w3.org/2000/svg" xmlns:xlink="http://www.w3.org/1999/xlink" x="0px" y="0px"
	 viewBox="0 0 468.293 468.293" style="enable-background:new 0 0 468.293 468.293;" xml:space="preserve">
<path style="fill:#E1E6E9;" d="M148.139,0L71.805,76.334v373.227c0,10.345,8.386,18.732,18.732,18.732h287.22
	c10.345,0,18.732-8.386,18.732-18.732V18.732C396.488,8.386,388.101,0,377.756,0L148.139,0L148.139,0z"/>
<polygon style="fill:#EBF0F3;" points="148.139,76.334 148.139,0 71.805,76.334 "/>
<path style="fill:#64798A;" d="M311.526,390.539H168.155c-6.897,0-12.488-5.591-12.488-12.488V263.051
	c0-6.897,5.591-12.488,12.488-12.488h143.371c6.897,0,12.488,5.591,12.488,12.488v115.001
	C324.013,384.948,318.422,390.539,311.526,390.539z"/>
<path style="fill:#D5D6DB;" d="M261.358,154.087h-43.035c-23.716,0-42.942,19.225-42.942,42.941v53.535h26.044v-53.535
	c0-9.32,7.578-16.902,16.899-16.902h43.035c9.32,0,16.899,7.581,16.899,16.902v53.535h26.042v-53.535
	C304.299,173.312,285.074,154.087,261.358,154.087z"/>
<path style="fill:#3A556A;" d="M255.924,320.638c0-9.863-8.877-17.652-19.078-15.813c-6.32,1.139-11.527,6.251-12.768,12.552
	c-1.373,6.97,1.773,13.318,7.009,16.728l-3.404,24.893c-0.397,2.901,1.858,5.486,4.787,5.486h14.74c2.928,0,5.184-2.585,4.787-5.486
	l-3.404-24.892C252.999,331.236,255.924,326.288,255.924,320.638z"/>
<g>
</g>
<g>
</g>
<g>
</g>
<g>
</g>
<g>
</g>
<g>
</g>
<g>
</g>
<g>
</g>
<g>
</g>
<g>
</g>
<g>
</g>
<g>
</g>
<g>
</g>
<g>
</g>
<g>
</g>
</svg>
