<?xml version="1.0" encoding="iso-8859-1"?>
<!-- Generator: Adobe Illustrator 19.0.0, SVG Export Plug-In . SVG Version: 6.00 Build 0)  -->
<svg version="1.1" id="Capa_1" xmlns="http://www.w3.org/2000/svg" xmlns:xlink="http://www.w3.org/1999/xlink" x="0px" y="0px"
	 viewBox="0 0 468.293 468.293" style="enable-background:new 0 0 468.293 468.293;" xml:space="preserve">
<path style="fill:#E1E6E9;" d="M152.774,0L65.561,87.213v368.591c0,6.897,5.591,12.488,12.488,12.488h312.195
	c6.897,0,12.488-5.591,12.488-12.488V12.488C402.732,5.591,397.141,0,390.244,0C390.244,0,152.774,0,152.774,0z"/>
<polygon style="fill:#EBF0F3;" points="152.774,87.213 152.774,0 65.561,87.213 "/>
<polygon style="fill:#44C4A1;" points="234.146,119.909 257.73,192.493 334.049,192.493 272.306,237.352 295.889,309.935 
	234.146,265.076 172.403,309.935 195.987,237.352 134.244,192.493 210.563,192.493 "/>
<g>
	<rect x="181.385" y="68.483" style="fill:#D5D6DB;" width="192.737" height="18.732"/>
	<rect x="94.171" y="398.798" style="fill:#D5D6DB;" width="279.952" height="18.732"/>
	<rect x="94.171" y="342.603" style="fill:#D5D6DB;" width="279.952" height="18.732"/>
</g>
<g>
</g>
<g>
</g>
<g>
</g>
<g>
</g>
<g>
</g>
<g>
</g>
<g>
</g>
<g>
</g>
<g>
</g>
<g>
</g>
<g>
</g>
<g>
</g>
<g>
</g>
<g>
</g>
<g>
</g>
</svg>
