<?xml version="1.0" encoding="iso-8859-1"?>
<!-- Generator: Adobe Illustrator 19.0.0, SVG Export Plug-In . SVG Version: 6.00 Build 0)  -->
<svg version="1.1" id="Capa_1" xmlns="http://www.w3.org/2000/svg" xmlns:xlink="http://www.w3.org/1999/xlink" x="0px" y="0px"
	 viewBox="0 0 468.293 468.293" style="enable-background:new 0 0 468.293 468.293;" xml:space="preserve">
<path style="fill:#FCD462;" d="M450.764,175.444H17.529V53.31c0-10.194,8.264-18.458,18.458-18.458h95.767
	c6.166,0,11.925,3.079,15.349,8.207l24.744,37.051c3.424,5.128,9.183,8.207,15.349,8.207h245.109
	c10.194,0,18.458,8.264,18.458,18.458V175.444z"/>
<path style="fill:#F6C358;" d="M430.829,433.441H37.463C16.773,433.441,0,416.668,0,395.977V139.399
	c0-6.897,5.591-12.488,12.488-12.488h443.317c6.897,0,12.488,5.591,12.488,12.488v256.578
	C468.293,416.668,451.52,433.441,430.829,433.441z"/>
<path style="fill:#E56353;" d="M218.521,195.01l-104.95,166.897c-7.729,12.292,1.105,28.283,15.625,28.283h209.901
	c14.52,0,23.355-15.991,15.625-28.283L249.771,195.01C242.534,183.5,225.759,183.5,218.521,195.01z"/>
<path style="fill:#D15241;" d="M127.643,370.537L232.594,203.64c3.959-6.295,10.757-9.02,17.301-8.43l-0.126-0.201
	c-7.238-11.51-24.012-11.51-31.25,0L113.568,361.907c-7.442,11.836,0.49,27.058,14.051,28.175
	C124.123,384.439,123.586,376.988,127.643,370.537z"/>
<path style="fill:#EBF0F3;" d="M234.152,365.209c-2.94,0-5.469-1.064-7.586-3.181c-2.129-2.117-3.187-4.645-3.187-7.586
	c0-2.94,1.058-5.469,3.187-7.592c2.117-2.117,4.645-3.175,7.586-3.175c2.94,0,5.469,1.058,7.586,3.175
	c2.117,2.123,3.175,4.651,3.175,7.592c0,2.94-1.058,5.469-3.175,7.586C239.621,364.144,237.092,365.209,234.152,365.209z
	 M223.956,260.579h20.24v18.641l-4.34,52.171h-11.561l-4.34-52.171V260.579z"/>
<g>
</g>
<g>
</g>
<g>
</g>
<g>
</g>
<g>
</g>
<g>
</g>
<g>
</g>
<g>
</g>
<g>
</g>
<g>
</g>
<g>
</g>
<g>
</g>
<g>
</g>
<g>
</g>
<g>
</g>
</svg>
