<?xml version="1.0" encoding="iso-8859-1"?>
<!-- Generator: Adobe Illustrator 19.0.0, SVG Export Plug-In . SVG Version: 6.00 Build 0)  -->
<svg version="1.1" id="Capa_1" xmlns="http://www.w3.org/2000/svg" xmlns:xlink="http://www.w3.org/1999/xlink" x="0px" y="0px"
	 viewBox="0 0 468.293 468.293" style="enable-background:new 0 0 468.293 468.293;" xml:space="preserve">
<path style="fill:#E1E6E9;" d="M399.61,12.488v443.317c0,6.897-5.591,12.488-12.488,12.488H81.171
	c-6.897,0-12.488-5.591-12.488-12.488V69.745h69.744V0h248.695C394.019,0,399.61,5.591,399.61,12.488z"/>
<polygon style="fill:#D5D6DB;" points="138.458,0 138.458,69.745 68.714,69.745 "/>
<g>
	<path style="fill:#FCD462;" d="M352.78,216.621v106.436c0,5.961-2.827,11.246-7.252,14.625c-3.073,2.397-6.944,3.811-11.184,3.811
		H133.948c-4.178,0-8.051-1.413-11.184-3.811c-4.364-3.379-7.252-8.664-7.252-14.625V216.621H352.78z"/>
	<polygon style="fill:#FCD462;" points="352.78,216.613 115.529,216.613 234.155,112.259 	"/>
</g>
<rect x="142.049" y="145.445" style="fill:#44C4A1;" width="184.201" height="169.834"/>
<path style="fill:#F6C358;" d="M345.528,337.682c-3.073,2.397-6.944,3.811-11.184,3.811H133.948c-4.178,0-8.051-1.413-11.184-3.811
	c-4.364-3.379-7.252-8.664-7.252-14.625V216.621l118.664,62.435L345.528,337.682z"/>
<path style="fill:#DC8744;" d="M352.78,216.621v106.436c0,5.961-2.827,11.246-7.252,14.625c-3.073,2.397-6.944,3.811-11.184,3.811
	H133.948c-4.178,0-8.051-1.413-11.184-3.811l111.413-58.626L352.78,216.621z"/>
<g>
	<rect x="163.484" y="205.774" style="fill:#EBF0F3;" width="141.337" height="12.288"/>
	<rect x="163.484" y="175.048" style="fill:#EBF0F3;" width="141.337" height="12.288"/>
</g>
<g>
	<path style="fill:#64798A;" d="M152.753,372.76v8.42h-28.29v14.031h25.408v7.963h-25.408v14.185h29.204v8.42h-38.155V372.76
		H152.753z"/>
	<path style="fill:#64798A;" d="M174.068,425.779h-8.951V372.76h13.957l16.006,33.297l16-33.297h13.883v53.019h-8.951v-41.414
		l-18.506,36.784h-5.006l-18.432-36.784V425.779z"/>
	<path style="fill:#64798A;" d="M247.187,413.717l-5.309,12.062h-9.556l23.364-53.019h9.556l23.364,53.019h-9.562l-5.309-12.062
		H247.187z M270.094,405.452l-9.63-21.846l-9.636,21.846H270.094z"/>
	<path style="fill:#64798A;" d="M295.965,372.76h8.951v53.019h-8.951V372.76z"/>
	<path style="fill:#64798A;" d="M319.632,425.779V372.76h8.951v44.525h24.198v8.494H319.632z"/>
</g>
<g>
</g>
<g>
</g>
<g>
</g>
<g>
</g>
<g>
</g>
<g>
</g>
<g>
</g>
<g>
</g>
<g>
</g>
<g>
</g>
<g>
</g>
<g>
</g>
<g>
</g>
<g>
</g>
<g>
</g>
</svg>
