<?xml version="1.0" encoding="iso-8859-1"?>
<!-- Generator: Adobe Illustrator 19.0.0, SVG Export Plug-In . SVG Version: 6.00 Build 0)  -->
<svg version="1.1" id="Capa_1" xmlns="http://www.w3.org/2000/svg" xmlns:xlink="http://www.w3.org/1999/xlink" x="0px" y="0px"
	 viewBox="0 0 468.294 468.294" style="enable-background:new 0 0 468.294 468.294;" xml:space="preserve">
<path style="fill:#E1E6E9;" d="M80.221,0.002L4.79,75.433v374.13c0,10.345,8.386,18.732,18.732,18.732h289.636
	c10.345,0,18.732-8.386,18.732-18.732V18.733c0-10.345-8.386-18.732-18.732-18.732H80.221z"/>
<rect x="32.844" y="408.015" style="fill:#D5D6DB;" width="123.167" height="12.488"/>
<polygon style="fill:#EBF0F3;" points="80.221,75.433 80.223,0 4.788,75.435 "/>
<path style="fill:#FCD462;" d="M232.18,391.924l-4.761,4.95l-46.944,15.751l-22.46,7.541c-4.78,1.605-9.393-2.825-7.982-7.666
	l6.636-22.773l13.913-47.521l4.761-4.95L232.18,391.924z"/>
<polygon style="fill:#44C4A1;" points="227.413,396.921 226.055,386.952 216.04,385.983 214.683,376.014 204.668,375.045 
	203.311,365.075 193.296,364.106 191.938,354.137 181.924,353.168 180.566,343.199 170.552,342.23 369.864,135.012 426.725,189.703 
	"/>
<path style="fill:#64798A;" d="M180.475,412.625l-22.46,7.541c-4.78,1.605-9.393-2.825-7.982-7.666l6.636-22.773L180.475,412.625z"
	/>
<rect x="364.62" y="148.074" transform="matrix(-0.7207 -0.6932 0.6932 -0.7207 586.8785 549.1964)" style="fill:#D5D6DB;" width="78.891" height="16.615"/>
<path style="fill:#E56353;" d="M438.241,177.731l-56.857-54.688l21.777-22.641c4.781-4.971,12.686-5.124,17.657-0.343l38.857,37.374
	c4.971,4.781,5.124,12.686,0.343,17.657L438.241,177.731z"/>
<g>
	<rect x="112.397" y="62.946" style="fill:#D5D6DB;" width="187.317" height="12.488"/>
	<rect x="32.844" y="131.959" style="fill:#D5D6DB;" width="266.871" height="12.488"/>
	<rect x="32.844" y="200.973" style="fill:#D5D6DB;" width="204.432" height="12.488"/>
	<rect x="32.844" y="269.987" style="fill:#D5D6DB;" width="141.993" height="12.488"/>
	<rect x="32.844" y="339.001" style="fill:#D5D6DB;" width="98.285" height="12.488"/>
</g>
<g>
</g>
<g>
</g>
<g>
</g>
<g>
</g>
<g>
</g>
<g>
</g>
<g>
</g>
<g>
</g>
<g>
</g>
<g>
</g>
<g>
</g>
<g>
</g>
<g>
</g>
<g>
</g>
<g>
</g>
</svg>
