<?xml version="1.0" encoding="iso-8859-1"?>
<!-- Generator: Adobe Illustrator 19.0.0, SVG Export Plug-In . SVG Version: 6.00 Build 0)  -->
<svg version="1.1" id="Capa_1" xmlns="http://www.w3.org/2000/svg" xmlns:xlink="http://www.w3.org/1999/xlink" x="0px" y="0px"
	 viewBox="0 0 468.293 468.293" style="enable-background:new 0 0 468.293 468.293;" xml:space="preserve">
<path style="fill:#64798A;" d="M468.293,324.124H0v-92.066L98.373,61.874c2.232-3.861,6.352-6.238,10.812-6.238h249.924
	c4.459,0,8.58,2.378,10.812,6.238l98.373,170.183V324.124z"/>
<rect x="147.918" y="75.607" style="fill:#D5D6DB;" width="172.463" height="142.729"/>
<rect x="122.505" y="111.803" style="fill:#E1E6E9;" width="223.269" height="137.291"/>
<rect x="99.484" y="149.004" style="fill:#D5D6DB;" width="269.3" height="138.677"/>
<rect x="65.311" y="188.816" style="fill:#E1E6E9;" width="337.67" height="133.545"/>
<path style="fill:#DC8744;" d="M354.136,244.544v9.03c0,28.143-22.814,50.957-50.957,50.957H165.112
	c-28.143,0-50.957-22.814-50.957-50.957v-9.03c0-6.897-5.591-12.488-12.488-12.488H0v143.137c0,20.69,16.773,37.463,37.463,37.463
	h393.366c20.69,0,37.463-16.773,37.463-37.463V232.056H366.624C359.727,232.056,354.136,237.647,354.136,244.544z"/>
<path style="fill:#E1E6E9;" d="M271.61,371.081h-74.927c-6.897,0-12.488-5.591-12.488-12.488l0,0
	c0-6.897,5.591-12.488,12.488-12.488h74.927c6.897,0,12.488,5.591,12.488,12.488l0,0C284.098,365.49,278.507,371.081,271.61,371.081
	z"/>
<g>
</g>
<g>
</g>
<g>
</g>
<g>
</g>
<g>
</g>
<g>
</g>
<g>
</g>
<g>
</g>
<g>
</g>
<g>
</g>
<g>
</g>
<g>
</g>
<g>
</g>
<g>
</g>
<g>
</g>
</svg>
