<?xml version="1.0" encoding="iso-8859-1"?>
<!-- Generator: Adobe Illustrator 19.0.0, SVG Export Plug-In . SVG Version: 6.00 Build 0)  -->
<svg version="1.1" id="Capa_1" xmlns="http://www.w3.org/2000/svg" xmlns:xlink="http://www.w3.org/1999/xlink" x="0px" y="0px"
	 viewBox="0 0 468.293 468.293" style="enable-background:new 0 0 468.293 468.293;" xml:space="preserve">
<path style="fill:#E56353;" d="M454.144,227.854H14.149V51.856c0-10.345,8.386-18.732,18.732-18.732h80.337
	c5.992,0,11.621,2.866,15.147,7.711l22.928,31.511c3.525,4.845,9.155,7.711,15.147,7.711h268.974
	c10.345,0,18.732,8.386,18.732,18.732V227.854z"/>
<path style="fill:#D15241;" d="M413.691,435.168H54.601C24.446,435.168,0,410.722,0,380.567V152.343
	c0-6.897,5.591-12.488,12.488-12.488h443.317c6.897,0,12.488,5.591,12.488,12.488v228.224
	C468.293,410.722,443.847,435.168,413.691,435.168z"/>
<rect x="143.61" y="201.616" style="fill:#EBF0F3;" width="168.773" height="208.715"/>
<rect x="155.929" y="189.303" style="fill:#E1E6E9;" width="168.773" height="208.715"/>
<path style="fill:#2D93BA;" d="M286.765,164.688H270.42c-5.942,0-10.777,4.835-10.777,10.777v13.837h9.237v-13.837
	c0-0.848,0.692-1.54,1.54-1.54h16.346c0.848,0,1.54,0.692,1.54,1.54v54.405c0,4.246-3.452,7.698-7.698,7.698H270.42
	c-4.246,0-7.698-3.452-7.698-7.698v-28.59c0-2.55-2.069-4.619-4.619-4.619c-2.55,0-4.619,2.069-4.619,4.619v28.59
	c0,9.34,7.596,16.935,16.935,16.935h10.188c9.34,0,16.935-7.596,16.935-16.935v-54.405
	C297.542,169.523,292.707,164.688,286.765,164.688z"/>
<g>
</g>
<g>
</g>
<g>
</g>
<g>
</g>
<g>
</g>
<g>
</g>
<g>
</g>
<g>
</g>
<g>
</g>
<g>
</g>
<g>
</g>
<g>
</g>
<g>
</g>
<g>
</g>
<g>
</g>
</svg>
