<?xml version="1.0" encoding="iso-8859-1"?>
<!-- Generator: Adobe Illustrator 19.0.0, SVG Export Plug-In . SVG Version: 6.00 Build 0)  -->
<svg version="1.1" id="Capa_1" xmlns="http://www.w3.org/2000/svg" xmlns:xlink="http://www.w3.org/1999/xlink" x="0px" y="0px"
	 viewBox="0 0 468.293 468.293" style="enable-background:new 0 0 468.293 468.293;" xml:space="preserve">
<g>
	<path style="fill:#E1E6E9;" d="M383.32,50.041l-12.133-12.133C357.553,24.274,344.168,10.888,333.279,0H90.537
		C80.191,0,71.805,8.386,71.805,18.732v430.829c0,10.345,8.386,18.732,18.732,18.732h287.219c10.345,0,18.732-8.386,18.732-18.732
		V63.209C392.2,58.921,387.793,54.514,383.32,50.041z"/>
	<path style="fill:#E1E6E9;" d="M371.188,37.909l12.133,12.133C379.297,46.018,375.233,41.954,371.188,37.909z"/>
</g>
<path style="fill:#EBF0F3;" d="M346.447,13.168c-4.473-4.473-8.88-8.88-13.168-13.168v63.209l63.209,0
	c-10.889-10.888-24.274-24.274-37.909-37.909C354.534,21.255,350.47,17.191,346.447,13.168z"/>
<path style="fill:#44C4A1;" d="M172.122,75.152c14.232,0,25.769-11.538,25.769-25.77s-11.537-25.769-25.769-25.769
	s-25.77,11.537-25.77,25.769S157.89,75.152,172.122,75.152z"/>
<path style="fill:#3EA69B;" d="M233.089,127.699c-5.925-20.336-19.062-40.7-35.839-47.457c-6.86,5.313-15.607,8.511-25.13,8.511
	c-9.523,0-18.268-3.197-25.129-8.509c-16.777,6.756-29.913,27.119-35.838,47.455c-3.26,11.19,5.939,22.188,18.169,22.188h85.597
	C227.15,149.887,236.349,138.889,233.089,127.699z"/>
<g>
	<rect x="110.517" y="202.927" style="fill:#D5D6DB;" width="247.308" height="12.488"/>
	<rect x="110.517" y="252.878" style="fill:#D5D6DB;" width="191.113" height="12.488"/>
	<rect x="110.517" y="302.829" style="fill:#D5D6DB;" width="247.308" height="12.488"/>
	<rect x="110.517" y="352.78" style="fill:#D5D6DB;" width="191.113" height="12.488"/>
	<rect x="110.517" y="402.732" style="fill:#D5D6DB;" width="247.308" height="12.488"/>
</g>
<g>
</g>
<g>
</g>
<g>
</g>
<g>
</g>
<g>
</g>
<g>
</g>
<g>
</g>
<g>
</g>
<g>
</g>
<g>
</g>
<g>
</g>
<g>
</g>
<g>
</g>
<g>
</g>
<g>
</g>
</svg>
