<?xml version="1.0" encoding="iso-8859-1"?>
<!-- Generator: Adobe Illustrator 19.0.0, SVG Export Plug-In . SVG Version: 6.00 Build 0)  -->
<svg version="1.1" id="Capa_1" xmlns="http://www.w3.org/2000/svg" xmlns:xlink="http://www.w3.org/1999/xlink" x="0px" y="0px"
	 viewBox="0 0 468.293 468.293" style="enable-background:new 0 0 468.293 468.293;" xml:space="preserve">
<path style="fill:#FCD462;" d="M129.035,60.084v-9.122c0-6.897-5.591-12.488-12.488-12.488H12.488C5.591,38.475,0,44.066,0,50.962
	v82.989h468.293V85.06c0-6.897-5.591-12.488-12.488-12.488H141.523C134.626,72.572,129.035,66.981,129.035,60.084z"/>
<path style="fill:#F6C358;" d="M443.317,429.818H24.976C11.182,429.818,0,418.636,0,404.842V133.952h468.293v270.891
	C468.293,418.636,457.111,429.818,443.317,429.818z"/>
<circle style="fill:#EBF0F3;" cx="234.146" cy="281.887" r="109.574"/>
<polygon style="fill:#E56353;" points="296.585,245.442 270.584,219.441 234.146,255.884 197.708,219.441 171.707,245.442 
	208.147,281.885 171.707,318.327 197.708,344.328 234.146,307.886 270.584,344.328 296.585,318.327 260.146,281.885 "/>
<g>
</g>
<g>
</g>
<g>
</g>
<g>
</g>
<g>
</g>
<g>
</g>
<g>
</g>
<g>
</g>
<g>
</g>
<g>
</g>
<g>
</g>
<g>
</g>
<g>
</g>
<g>
</g>
<g>
</g>
</svg>
