<?xml version="1.0" encoding="iso-8859-1"?>
<!-- Generator: Adobe Illustrator 19.0.0, SVG Export Plug-In . SVG Version: 6.00 Build 0)  -->
<svg version="1.1" id="Capa_1" xmlns="http://www.w3.org/2000/svg" xmlns:xlink="http://www.w3.org/1999/xlink" x="0px" y="0px"
	 viewBox="0 0 468.293 468.293" style="enable-background:new 0 0 468.293 468.293;" xml:space="preserve">
<path style="fill:#E1E6E9;" d="M93.799,5.399L0,99.198v345.396c0,10.107,8.193,18.3,18.3,18.3h302.896
	c10.107,0,18.3-8.193,18.3-18.3V23.699c0-10.107-8.193-18.3-18.3-18.3H93.799z"/>
<polygon style="fill:#EBF0F3;" points="93.799,99.198 93.799,5.399 0,99.198 "/>
<path style="fill:#1C75A1;" d="M460.758,48.46c-4.161,0-7.534,3.374-7.534,7.534v4.411h-15.049c-4.161,0-7.534,3.374-7.534,7.534
	c0,4.161,3.374,7.534,7.534,7.534h15.049v99.875c0,4.161,3.374,7.534,7.534,7.534c4.161,0,7.534-3.374,7.534-7.534V55.994
	C468.293,51.833,464.919,48.46,460.758,48.46z"/>
<g>
	<path style="fill:#27A2DB;" d="M438.174,52.005v85.967h-60.275V52.005c0-1.959,0.15-3.843,0.527-5.651
		c2.637-13.939,14.918-24.487,29.61-24.487c8.288,0,15.822,3.39,21.322,8.815c4.144,4.219,7.082,9.644,8.288,15.672
		C438.024,48.162,438.174,50.046,438.174,52.005z"/>
	<rect x="381.69" y="137.972" style="fill:#27A2DB;" width="52.742" height="250.693"/>
</g>
<polygon style="fill:#E1E6E9;" points="411.599,438.888 434.394,388.668 381.654,388.668 404.448,438.888 "/>
<g>
	<rect x="381.69" y="137.972" style="fill:#D5D6DB;" width="52.742" height="10.552"/>
	<path style="fill:#D5D6DB;" d="M438.174,52.005v8.438h-60.275v-8.438c0-1.959,0.15-3.843,0.527-5.651h59.22
		C438.024,48.162,438.174,50.046,438.174,52.005z"/>
</g>
<polygon style="fill:#64798A;" points="408.897,446.426 411.599,438.888 404.449,438.888 407.151,446.426 "/>
<g>
	<rect x="44.869" y="147.543" style="fill:#D5D6DB;" width="249.756" height="18.732"/>
	<rect x="125.777" y="80.465" style="fill:#D5D6DB;" width="168.835" height="18.732"/>
	<rect x="44.869" y="209.795" style="fill:#D5D6DB;" width="178.532" height="18.732"/>
	<rect x="44.869" y="272.109" style="fill:#D5D6DB;" width="249.756" height="18.732"/>
	<rect x="44.869" y="334.361" style="fill:#D5D6DB;" width="178.532" height="18.732"/>
	<rect x="44.869" y="396.675" style="fill:#D5D6DB;" width="249.756" height="18.732"/>
</g>
<g>
</g>
<g>
</g>
<g>
</g>
<g>
</g>
<g>
</g>
<g>
</g>
<g>
</g>
<g>
</g>
<g>
</g>
<g>
</g>
<g>
</g>
<g>
</g>
<g>
</g>
<g>
</g>
<g>
</g>
</svg>
