<?xml version="1.0" encoding="iso-8859-1"?>
<!-- Generator: Adobe Illustrator 19.0.0, SVG Export Plug-In . SVG Version: 6.00 Build 0)  -->
<svg version="1.1" id="Capa_1" xmlns="http://www.w3.org/2000/svg" xmlns:xlink="http://www.w3.org/1999/xlink" x="0px" y="0px"
	 viewBox="0 0 468.293 468.293" style="enable-background:new 0 0 468.293 468.293;" xml:space="preserve">
<polygon style="fill:#E1E6E9;" points="89.7,0 3.365,86.335 3.365,468.293 340.535,468.293 340.535,0 "/>
<polygon style="fill:#EBF0F3;" points="89.7,86.335 89.7,0 3.365,86.335 "/>
<path style="fill:#64798A;" d="M323.939,253.731c-30.776,38.244-68.55,71.132-80.66,81.336c-2.282,1.922-5.586,1.936-7.911,0.066
	l-25.608-20.608c-2.324-1.87-3.018-5.102-1.628-7.742c7.377-14.013,31.425-57.947,62.201-96.191
	c14.719-18.29,31.042-35.289,45.319-49.046c30.871-29.897,58.864-62.591,84.191-97.35l0.157-0.195l9.437-12.923l10.524-14.372
	c4.171-5.78,12.355-6.888,17.901-2.426l22.425,18.046c5.546,4.463,6.214,12.695,1.508,18.045l-11.837,13.315l-10.771,12.09
	l-0.039,0.049c-28.634,32.097-54.584,66.435-77.04,103.104C351.722,215.82,338.658,235.441,323.939,253.731z"/>
<g>
	<path style="fill:#FCD462;" d="M449.936,83.668l-10.739,12.113l-0.063,0.062l-13.55-10.927l-51.574,64.063
		c0,0,1.748,9.865-0.749,10.927c-6.431,2.81-23.29-10.677-21.916-17.608c0.562-2.685,10.552-3.059,10.552-3.059l51.512-64.125
		l-13.55-10.927L399.984,64l9.428-12.925L449.936,83.668z"/>
	<path style="fill:#FCD462;" d="M235.785,335.469c0,0-8.471,6.908-15.015,40.715l-48.82,11.541l0.831-50.159
		c31.625-13.624,36.561-23.376,36.561-23.376"/>
</g>
<g>
	<rect x="138.889" y="70.725" style="fill:#D5D6DB;" width="152.451" height="15.61"/>
	<rect x="46.53" y="125.022" style="fill:#D5D6DB;" width="203.514" height="15.61"/>
	<rect x="46.53" y="179.325" style="fill:#D5D6DB;" width="186.262" height="15.61"/>
	<rect x="46.53" y="233.609" style="fill:#D5D6DB;" width="160.887" height="15.61"/>
	<rect x="46.53" y="287.906" style="fill:#D5D6DB;" width="128.737" height="15.61"/>
	<rect x="46.53" y="342.228" style="fill:#D5D6DB;" width="99.965" height="15.61"/>
	<rect x="46.53" y="396.488" style="fill:#D5D6DB;" width="66.042" height="15.61"/>
</g>
<g>
</g>
<g>
</g>
<g>
</g>
<g>
</g>
<g>
</g>
<g>
</g>
<g>
</g>
<g>
</g>
<g>
</g>
<g>
</g>
<g>
</g>
<g>
</g>
<g>
</g>
<g>
</g>
<g>
</g>
</svg>
