<?xml version="1.0" encoding="iso-8859-1"?>
<!-- Generator: Adobe Illustrator 19.0.0, SVG Export Plug-In . SVG Version: 6.00 Build 0)  -->
<svg version="1.1" id="Capa_1" xmlns="http://www.w3.org/2000/svg" xmlns:xlink="http://www.w3.org/1999/xlink" x="0px" y="0px"
	 viewBox="0 0 468.293 468.293" style="enable-background:new 0 0 468.293 468.293;" xml:space="preserve">
<path style="fill:#E1E6E9;" d="M337.171,12.488v443.317c0,6.897-5.591,12.488-12.488,12.488H12.488
	C5.591,468.293,0,462.702,0,455.805V90.162h90.099V0h234.583C331.58,0,337.171,5.591,337.171,12.488z"/>
<polygon style="fill:#EBF0F3;" points="90.099,0 90.099,90.162 0,90.162 "/>
<g>
	<rect x="38.544" y="324.496" style="fill:#D5D6DB;" width="98.004" height="18.732"/>
	<rect x="38.544" y="396.388" style="fill:#D5D6DB;" width="260.077" height="18.732"/>
	<rect x="131.122" y="71.43" style="fill:#D5D6DB;" width="124.878" height="18.732"/>
</g>
<path style="fill:#FCD462;" d="M225.501,313.462l-5.343,5.343l-56.734,15.762l-30.395,8.409c-4.676,1.294-8.976-3.007-7.683-7.683
	l8.408-30.395l15.762-56.735l5.343-5.343L225.501,313.462z"/>
<polygon style="fill:#E56353;" points="173.035,271.712 156.846,264.354 149.488,248.165 342.757,54.894 366.304,78.441 "/>
<polygon style="fill:#D15241;" points="196.582,295.26 180.393,287.901 173.035,271.712 366.304,78.441 389.852,101.989 "/>
<polygon style="fill:#E56353;" points="220.129,318.807 203.941,311.448 196.582,295.26 389.852,101.989 413.399,125.536 "/>
<path style="fill:#64798A;" d="M163.424,334.568l-30.395,8.409c-4.676,1.294-8.976-3.007-7.683-7.683l8.408-30.395L163.424,334.568z
	"/>
<rect x="334.981" y="73.71" transform="matrix(-0.7071 -0.7071 0.7071 -0.7071 598.1559 414.5407)" style="fill:#D5D6DB;" width="99.903" height="19.356"/>
<path style="fill:#44C4A1;" d="M464.635,56.639L411.654,3.658c-4.877-4.877-12.784-4.877-17.66,0l-37.552,37.552l70.642,70.642
	l37.552-37.552C469.512,69.423,469.512,61.516,464.635,56.639z"/>
<g>
</g>
<g>
</g>
<g>
</g>
<g>
</g>
<g>
</g>
<g>
</g>
<g>
</g>
<g>
</g>
<g>
</g>
<g>
</g>
<g>
</g>
<g>
</g>
<g>
</g>
<g>
</g>
<g>
</g>
</svg>
