<?xml version="1.0" encoding="iso-8859-1"?>
<!-- Generator: Adobe Illustrator 19.0.0, SVG Export Plug-In . SVG Version: 6.00 Build 0)  -->
<svg version="1.1" id="Capa_1" xmlns="http://www.w3.org/2000/svg" xmlns:xlink="http://www.w3.org/1999/xlink" x="0px" y="0px"
	 viewBox="0 0 468.293 468.293" style="enable-background:new 0 0 468.293 468.293;" xml:space="preserve">
<polygon style="fill:#E1E6E9;" points="135.515,0 59.317,76.198 59.317,468.293 408.976,468.293 408.976,0 "/>
<polygon style="fill:#EBF0F3;" points="135.515,76.198 135.515,0 59.317,76.198 "/>
<path style="fill:#27A2DB;" d="M313.309,221.222v-34.115l-14.998-3.548c-4.78-1.131-8.693-4.506-10.566-9.046
	c-0.02-0.047-0.039-0.094-0.059-0.142c-1.882-4.536-1.501-9.68,1.078-13.858l8.096-13.114l-24.123-24.123l-13.114,8.096
	c-4.178,2.58-9.323,2.96-13.859,1.078c-0.047-0.02-0.094-0.039-0.142-0.059c-4.54-1.873-7.915-5.787-9.046-10.566l-3.548-14.998
	h-34.115l-3.53,14.919c-1.135,4.799-4.508,8.759-9.064,10.644l-0.142,0.059c-4.555,1.884-9.737,1.467-13.931-1.123l-13.042-8.052
	l-24.123,24.123l8.096,13.114c2.58,4.178,2.96,9.323,1.078,13.859c-0.02,0.047-0.039,0.094-0.059,0.142
	c-1.873,4.54-5.787,7.916-10.566,9.046l-14.998,3.548v34.115l14.998,3.548c4.779,1.131,8.693,4.506,10.566,9.046
	c0.019,0.047,0.039,0.094,0.059,0.142c1.882,4.536,1.501,9.681-1.078,13.859l-8.096,13.114l24.123,24.123l13.114-8.097
	c4.178-2.58,9.324-2.96,13.859-1.078c0.047,0.02,0.094,0.039,0.142,0.059c4.54,1.873,7.915,5.787,9.046,10.566l3.548,14.998h34.115
	l3.548-14.999c1.131-4.779,4.506-8.692,9.045-10.565c0.047-0.019,0.094-0.039,0.142-0.059c4.535-1.882,9.68-1.501,13.858,1.078
	l13.115,8.097l24.123-24.123l-8.096-13.114c-2.58-4.178-2.96-9.323-1.078-13.859c0.02-0.047,0.039-0.094,0.059-0.142
	c1.873-4.54,5.787-7.915,10.566-9.046L313.309,221.222z"/>
<circle style="fill:#EBF0F3;" cx="215.977" cy="204.176" r="63.956"/>
<circle style="fill:#D5D6DB;" cx="215.977" cy="204.176" r="36.546"/>
<path style="fill:#E56353;" d="M349.659,356.221v-16.223l-7.132-1.687c-2.273-0.538-4.134-2.143-5.024-4.302
	c-0.009-0.022-0.019-0.045-0.028-0.067c-0.895-2.157-0.714-4.603,0.513-6.59l3.85-6.236l-11.471-11.471l-6.236,3.85
	c-1.987,1.227-4.433,1.408-6.59,0.513c-0.022-0.009-0.045-0.019-0.067-0.028c-2.159-0.891-3.764-2.752-4.302-5.024l-1.687-7.132
	h-16.223l-1.678,7.095c-0.54,2.282-2.144,4.165-4.31,5.062l-0.067,0.028c-2.166,0.896-4.63,0.697-6.625-0.534l-6.202-3.829
	l-11.471,11.471l3.85,6.236c1.227,1.987,1.408,4.434,0.513,6.59c-0.009,0.022-0.019,0.045-0.028,0.067
	c-0.891,2.159-2.752,3.764-5.024,4.302l-7.132,1.687v16.223l7.132,1.687c2.273,0.538,4.134,2.143,5.024,4.302
	c0.009,0.022,0.019,0.045,0.028,0.067c0.895,2.157,0.714,4.603-0.513,6.59l-3.85,6.236l11.471,11.471l6.236-3.85
	c1.987-1.227,4.434-1.408,6.59-0.513c0.022,0.009,0.045,0.019,0.067,0.028c2.159,0.891,3.764,2.752,4.302,5.024l1.687,7.132h16.223
	l1.687-7.132c0.538-2.273,2.142-4.133,4.301-5.024c0.022-0.009,0.045-0.019,0.067-0.028c2.157-0.895,4.603-0.714,6.59,0.513
	l6.236,3.85l11.471-11.471l-3.85-6.236c-1.227-1.987-1.408-4.433-0.513-6.59c0.009-0.022,0.019-0.045,0.028-0.067
	c0.891-2.159,2.752-3.764,5.024-4.302L349.659,356.221z"/>
<circle style="fill:#EBF0F3;" cx="303.391" cy="348.098" r="30.414"/>
<g>
	<circle style="fill:#D5D6DB;" cx="303.391" cy="348.098" r="17.377"/>
	<rect x="159.844" y="63.713" style="fill:#D5D6DB;" width="224.78" height="12.488"/>
	<rect x="83.656" y="425.022" style="fill:#D5D6DB;" width="300.956" height="12.488"/>
	<rect x="159.844" y="26.249" style="fill:#D5D6DB;" width="224.78" height="12.488"/>
</g>
<g>
</g>
<g>
</g>
<g>
</g>
<g>
</g>
<g>
</g>
<g>
</g>
<g>
</g>
<g>
</g>
<g>
</g>
<g>
</g>
<g>
</g>
<g>
</g>
<g>
</g>
<g>
</g>
<g>
</g>
</svg>
