<?xml version="1.0" encoding="iso-8859-1"?>
<!-- Generator: Adobe Illustrator 19.0.0, SVG Export Plug-In . SVG Version: 6.00 Build 0)  -->
<svg version="1.1" id="Capa_1" xmlns="http://www.w3.org/2000/svg" xmlns:xlink="http://www.w3.org/1999/xlink" x="0px" y="0px"
	 viewBox="0 0 468.293 468.293" style="enable-background:new 0 0 468.293 468.293;" xml:space="preserve">
<path style="fill:#E1E6E9;" d="M402.759,12.488v443.317c0,6.897-5.591,12.488-12.488,12.488H78.076
	c-6.897,0-12.488-5.591-12.488-12.488V54.82h54.758V0h269.925C397.168,0,402.759,5.591,402.759,12.488z"/>
<rect x="43.707" y="249.569" style="fill:#D5D6DB;" width="380.878" height="141.156"/>
<g>
	<polygon style="fill:#64798A;" points="424.585,390.73 402.732,404.655 402.732,390.73 	"/>
	<polygon style="fill:#64798A;" points="43.707,390.73 65.561,404.655 65.561,390.73 	"/>
	<path style="fill:#64798A;" d="M158.899,352.142c5.26,0,9.792-0.885,13.597-2.656c3.795-1.771,7.768-4.596,11.921-8.485
		l9.834,10.108c-9.581,10.614-21.218,15.926-34.899,15.926c-13.692,0-25.044-4.395-34.066-13.207
		c-9.022-8.812-13.534-19.942-13.534-33.413c0-13.47,4.596-24.696,13.797-33.676c9.191-8.98,20.807-13.47,34.836-13.47
		c14.029,0,25.75,5.175,35.162,15.536l-9.708,10.625c-4.322-4.142-8.401-7.041-12.248-8.675c-3.837-1.644-8.348-2.466-13.534-2.466
		c-9.149,0-16.833,2.962-23.052,8.875c-6.219,5.913-9.328,13.47-9.328,22.662c0,9.202,3.088,16.886,9.265,23.062
		C143.12,349.054,150.435,352.142,158.899,352.142z"/>
	<path style="fill:#64798A;" d="M239.659,287.383c-4.448,0-8.095,0.906-10.941,2.719c-2.856,1.813-4.279,4.553-4.279,8.232
		c0,3.668,1.423,6.472,4.279,8.411c2.846,1.95,8.907,4.037,18.193,6.282c9.275,2.245,16.274,5.397,20.986,9.455
		c4.701,4.058,7.051,10.045,7.051,17.94c0,7.905-2.972,14.314-8.938,19.236c-5.955,4.922-13.766,7.378-23.442,7.378
		c-14.156,0-26.72-4.87-37.682-14.63l9.581-11.531c9.149,7.947,18.646,11.921,28.49,11.921c4.922,0,8.833-1.065,11.721-3.173
		c2.899-2.119,4.343-4.922,4.343-8.422c0-3.499-1.36-6.219-4.079-8.158c-2.719-1.95-7.41-3.71-14.05-5.312
		c-6.651-1.602-11.71-3.067-15.157-4.406c-3.457-1.339-6.524-3.088-9.202-5.249c-5.354-4.058-8.021-10.266-8.021-18.646
		c0-8.38,3.036-14.83,9.128-19.362c6.082-4.532,13.618-6.798,22.598-6.798c5.787,0,11.531,0.949,17.223,2.846
		c5.702,1.897,10.625,4.574,14.767,8.032l-8.158,11.531c-2.677-2.424-6.303-4.406-10.878-5.966
		C248.618,288.162,244.107,287.383,239.659,287.383z"/>
	<path style="fill:#64798A;" d="M321.251,287.383c-4.448,0-8.095,0.906-10.941,2.719c-2.856,1.813-4.279,4.553-4.279,8.232
		c0,3.668,1.423,6.472,4.279,8.411c2.846,1.95,8.907,4.037,18.193,6.282c9.275,2.245,16.274,5.397,20.986,9.455
		c4.701,4.058,7.051,10.045,7.051,17.94c0,7.905-2.972,14.314-8.938,19.236c-5.955,4.922-13.766,7.378-23.442,7.378
		c-14.156,0-26.72-4.87-37.682-14.63l9.581-11.531c9.149,7.947,18.646,11.921,28.49,11.921c4.922,0,8.833-1.065,11.721-3.173
		c2.899-2.119,4.343-4.922,4.343-8.422c0-3.499-1.36-6.219-4.079-8.158c-2.719-1.95-7.41-3.71-14.05-5.312
		c-6.651-1.602-11.71-3.067-15.157-4.406c-3.457-1.339-6.524-3.088-9.202-5.249c-5.354-4.058-8.021-10.266-8.021-18.646
		c0-8.38,3.036-14.83,9.128-19.362c6.082-4.532,13.618-6.798,22.598-6.798c5.787,0,11.531,0.949,17.223,2.846
		c5.702,1.897,10.625,4.574,14.767,8.032l-8.158,11.531c-2.677-2.424-6.303-4.406-10.878-5.966
		C330.21,288.162,325.699,287.383,321.251,287.383z"/>
</g>
<polygon style="fill:#D5D6DB;" points="120.346,0 120.346,54.82 65.588,54.82 "/>
<g>
	<path style="fill:#27A2DB;" d="M124.13,126.887v-16.494l61.67-28.544v14.927l-46.093,20.809v1.449l46.093,21.331v14.927
		L124.13,126.887z"/>
	<path style="fill:#27A2DB;" d="M256.101,64.428h13.095l-56.695,121.508h-13.095L256.101,64.428z"/>
	<path style="fill:#27A2DB;" d="M344.217,110.393v16.494l-61.67,28.406v-14.927l46.082-21.331v-1.449l-46.082-20.809V81.849
		L344.217,110.393z"/>
</g>
<g>
</g>
<g>
</g>
<g>
</g>
<g>
</g>
<g>
</g>
<g>
</g>
<g>
</g>
<g>
</g>
<g>
</g>
<g>
</g>
<g>
</g>
<g>
</g>
<g>
</g>
<g>
</g>
<g>
</g>
</svg>
