<?xml version="1.0" encoding="iso-8859-1"?>
<!-- Generator: Adobe Illustrator 19.0.0, SVG Export Plug-In . SVG Version: 6.00 Build 0)  -->
<svg version="1.1" id="Capa_1" xmlns="http://www.w3.org/2000/svg" xmlns:xlink="http://www.w3.org/1999/xlink" x="0px" y="0px"
	 viewBox="0 0 468.293 468.293" style="enable-background:new 0 0 468.293 468.293;" xml:space="preserve">
<path style="fill:#44C4A1;" d="M2.791,455.805V60.446c0-6.897,5.591-12.488,12.488-12.488h283.625
	c6.897,0,12.488,5.591,12.488,12.488v395.359c0,6.897-5.591,12.488-12.488,12.488H15.279C8.382,468.293,2.791,462.702,2.791,455.805
	z"/>
<rect x="24.076" y="69.239" style="fill:#EBF0F3;" width="266.034" height="377.756"/>
<path style="fill:#64798A;" d="M193.493,34.751C192.58,15.411,176.657,0,157.092,0s-35.488,15.411-36.402,34.751H88.437
	c-6.161,0-11.156,4.995-11.156,11.156v25.278c0,6.161,4.995,11.156,11.156,11.156h137.308c6.162,0,11.156-4.995,11.156-11.156
	V45.907c0-6.161-4.995-11.156-11.156-11.156H193.493z"/>
<circle style="fill:#EBF0F3;" cx="157.09" cy="32.637" r="16.977"/>
<g>
	<rect x="50.101" y="127.388" style="fill:#27A2DB;" width="37.245" height="37.245"/>
	<rect x="50.101" y="206.498" style="fill:#27A2DB;" width="37.245" height="37.245"/>
	<rect x="49.046" y="286.658" style="fill:#27A2DB;" width="37.245" height="37.245"/>
	<rect x="50.101" y="364.719" style="fill:#27A2DB;" width="37.245" height="37.245"/>
</g>
<g>
	<rect x="111.385" y="139.358" style="fill:#D5D6DB;" width="153.75" height="13.3"/>
	<rect x="111.385" y="218.468" style="fill:#D5D6DB;" width="153.75" height="13.3"/>
	<rect x="110.392" y="298.646" style="fill:#D5D6DB;" width="153.75" height="13.3"/>
	<polygon style="fill:#D5D6DB;" points="167.12,376.688 110.378,376.688 110.378,389.99 158.437,389.99 	"/>
	<path style="fill:#D5D6DB;" d="M234.176,361.412l-4.761,4.95l-46.944,15.751l-22.46,7.541c-4.78,1.605-9.393-2.825-7.982-7.666
		l6.636-22.773l13.913-47.521l4.761-4.95L234.176,361.412z"/>
</g>
<polygon style="fill:#E56353;" points="229.408,366.41 228.051,356.441 218.036,355.472 216.678,345.502 206.664,344.533 
	205.306,334.564 195.292,333.595 193.934,323.626 183.919,322.657 182.562,312.687 172.547,311.718 371.86,104.5 428.721,159.192 
	"/>
<path style="fill:#64798A;" d="M182.47,382.113l-22.46,7.541c-4.78,1.605-9.393-2.825-7.982-7.666l6.636-22.773L182.47,382.113z"/>
<rect x="366.585" y="117.533" transform="matrix(-0.7207 -0.6932 0.6932 -0.7207 611.4305 498.0054)" style="fill:#E1E6E9;" width="78.891" height="16.615"/>
<path style="fill:#2D93BA;" d="M440.237,147.219L383.38,92.531l21.777-22.641c4.781-4.971,12.686-5.124,17.657-0.343l38.857,37.374
	c4.971,4.781,5.124,12.686,0.343,17.657L440.237,147.219z"/>
<g>
</g>
<g>
</g>
<g>
</g>
<g>
</g>
<g>
</g>
<g>
</g>
<g>
</g>
<g>
</g>
<g>
</g>
<g>
</g>
<g>
</g>
<g>
</g>
<g>
</g>
<g>
</g>
<g>
</g>
</svg>
