<?xml version="1.0" encoding="iso-8859-1"?>
<!-- Generator: Adobe Illustrator 19.0.0, SVG Export Plug-In . SVG Version: 6.00 Build 0)  -->
<svg version="1.1" id="Capa_1" xmlns="http://www.w3.org/2000/svg" xmlns:xlink="http://www.w3.org/1999/xlink" x="0px" y="0px"
	 viewBox="0 0 468.293 468.293" style="enable-background:new 0 0 468.293 468.293;" xml:space="preserve">
<path style="fill:#E1E6E9;" d="M326.068,0.001H84.293c-6.897,0-12.488,5.591-12.488,12.488v443.317
	c0,6.897,5.591,12.488,12.488,12.488H384c6.897,0,12.488-5.591,12.488-12.488V70.421L326.068,0.001z"/>
<polygon style="fill:#EBF0F3;" points="326.069,70.419 396.489,70.42 326.069,0 "/>
<path style="fill:#64798A;" d="M180.151,116.949c-2.069-2.909-6.116-3.57-9.008-1.501l-41.915,29.95l-11.773-11.771
	c-2.523-2.523-6.611-2.523-9.134,0c-2.523,2.523-2.523,6.613,0,9.134l15.644,15.641c1.252,1.251,2.907,1.892,4.567,1.892
	c1.312,0,2.624-0.396,3.754-1.204l46.366-33.132C181.554,123.885,182.225,119.851,180.151,116.949z"/>
<rect x="199.524" y="129.436" style="fill:#D5D6DB;" width="162.341" height="15.61"/>
<path style="fill:#64798A;" d="M180.151,205.007c-2.069-2.909-6.116-3.57-9.008-1.501l-41.915,29.95l-11.773-11.771
	c-2.523-2.523-6.611-2.523-9.134,0c-2.523,2.523-2.523,6.613,0,9.134l15.644,15.641c1.252,1.251,2.907,1.892,4.567,1.892
	c1.312,0,2.624-0.396,3.754-1.204l46.366-33.132C181.554,211.943,182.225,207.909,180.151,205.007z"/>
<rect x="199.524" y="217.538" style="fill:#D5D6DB;" width="162.341" height="15.61"/>
<path style="fill:#64798A;" d="M180.151,293.065c-2.069-2.909-6.116-3.57-9.008-1.501l-41.915,29.95l-11.773-11.771
	c-2.523-2.523-6.611-2.523-9.134,0c-2.523,2.523-2.523,6.613,0,9.134l15.644,15.641c1.252,1.252,2.907,1.892,4.567,1.892
	c1.312,0,2.624-0.396,3.754-1.204l46.366-33.132C181.554,300.002,182.225,295.967,180.151,293.065z"/>
<rect x="199.524" y="305.577" style="fill:#D5D6DB;" width="162.341" height="15.61"/>
<path style="fill:#64798A;" d="M180.151,381.124c-2.069-2.909-6.116-3.57-9.008-1.501l-41.915,29.95l-11.773-11.771
	c-2.523-2.523-6.611-2.523-9.134,0c-2.523,2.523-2.523,6.613,0,9.134l15.644,15.641c1.252,1.251,2.907,1.892,4.567,1.892
	c1.312,0,2.624-0.396,3.754-1.204l46.366-33.132C181.554,388.06,182.225,384.025,180.151,381.124z"/>
<rect x="199.524" y="393.616" style="fill:#D5D6DB;" width="162.341" height="15.61"/>
<g>
</g>
<g>
</g>
<g>
</g>
<g>
</g>
<g>
</g>
<g>
</g>
<g>
</g>
<g>
</g>
<g>
</g>
<g>
</g>
<g>
</g>
<g>
</g>
<g>
</g>
<g>
</g>
<g>
</g>
</svg>
