<?xml version="1.0" encoding="iso-8859-1"?>
<!-- Generator: Adobe Illustrator 19.0.0, SVG Export Plug-In . SVG Version: 6.00 Build 0)  -->
<svg version="1.1" id="Capa_1" xmlns="http://www.w3.org/2000/svg" xmlns:xlink="http://www.w3.org/1999/xlink" x="0px" y="0px"
	 viewBox="0 0 468.293 468.293" style="enable-background:new 0 0 468.293 468.293;" xml:space="preserve">
<path style="fill:#E1E6E9;" d="M152.639,0L65.562,87.078v368.727c0,6.897,5.591,12.488,12.488,12.488h312.195
	c6.897,0,12.488-5.591,12.488-12.488V12.488C402.733,5.591,397.142,0,390.245,0L152.639,0L152.639,0z"/>
<polygon style="fill:#EBF0F3;" points="152.638,87.078 152.639,0 65.56,87.078 "/>
<rect x="103.024" y="265.865" style="fill:#27A2DB;" width="34.204" height="51.918"/>
<rect x="160.031" y="230.15" style="fill:#DC8744;" width="34.204" height="87.664"/>
<rect x="217.038" y="194.36" style="fill:#E56353;" width="34.204" height="123.442"/>
<rect x="274.045" y="146.682" style="fill:#44C4A1;" width="34.204" height="171.12"/>
<rect x="331.052" y="87.078" style="fill:#FCD462;" width="34.204" height="230.725"/>
<g>
	<rect x="103.024" y="408.657" style="fill:#D5D6DB;" width="262.244" height="18.732"/>
	<rect x="103.024" y="358.706" style="fill:#D5D6DB;" width="262.244" height="18.732"/>
</g>
<g>
</g>
<g>
</g>
<g>
</g>
<g>
</g>
<g>
</g>
<g>
</g>
<g>
</g>
<g>
</g>
<g>
</g>
<g>
</g>
<g>
</g>
<g>
</g>
<g>
</g>
<g>
</g>
<g>
</g>
</svg>
