<?xml version="1.0" encoding="iso-8859-1"?>
<!-- Generator: Adobe Illustrator 19.0.0, SVG Export Plug-In . SVG Version: 6.00 Build 0)  -->
<svg version="1.1" id="Capa_1" xmlns="http://www.w3.org/2000/svg" xmlns:xlink="http://www.w3.org/1999/xlink" x="0px" y="0px"
	 viewBox="0 0 468.293 468.293" style="enable-background:new 0 0 468.293 468.293;" xml:space="preserve">
<path style="fill:#E1E6E9;" d="M135.052,0L65.561,69.491v386.314c0,6.897,5.591,12.488,12.488,12.488h312.195
	c6.897,0,12.488-5.591,12.488-12.488V12.488C402.732,5.591,397.141,0,390.244,0H135.052z"/>
<polygon style="fill:#EBF0F3;" points="135.052,69.491 135.052,0 65.561,69.49 "/>
<path style="fill:#E56353;" d="M262.884,415.271l-24.829-19.932c-2.283-1.833-5.534-1.833-7.817,0l-24.829,19.932
	c-4.087,3.28-10.153,0.371-10.153-4.869V271.49h77.781v138.912C273.037,415.642,266.971,418.552,262.884,415.271z"/>
<path style="fill:#27A2DB;" d="M266.139,297.893l25.093,1.938c11.458,0.885,21.004-8.661,20.119-20.119l-1.938-25.092l0.577-1.394
	l19.114-16.373c8.728-7.476,8.728-20.976,0-28.452l-19.113-16.372l-0.578-1.394l1.938-25.093
	c0.885-11.458-8.661-21.004-20.119-20.119l-25.092,1.938l-1.394-0.577l-16.373-19.114c-7.476-8.728-20.976-8.728-28.452,0
	l-16.373,19.113l-1.393,0.578l-25.092-1.938c-11.458-0.885-21.004,8.661-20.119,20.119l1.938,25.093l-0.579,1.393l-19.113,16.372
	c-8.728,7.476-8.728,20.976,0,28.452l19.114,16.373l0.576,1.395l-1.938,25.092c-0.885,11.458,8.661,21.004,20.119,20.119
	l25.093-1.938l1.393,0.579l16.373,19.113c7.476,8.728,20.976,8.728,28.452,0l16.373-19.114"/>
<circle style="fill:#EBF0F3;" cx="234.146" cy="222.658" r="60.26"/>
<path style="fill:#E1E6E9;" d="M234.146,162.367V282.89c33.282,0,60.262-26.98,60.262-60.262S267.428,162.367,234.146,162.367z"/>
<g>
</g>
<g>
</g>
<g>
</g>
<g>
</g>
<g>
</g>
<g>
</g>
<g>
</g>
<g>
</g>
<g>
</g>
<g>
</g>
<g>
</g>
<g>
</g>
<g>
</g>
<g>
</g>
<g>
</g>
</svg>
