<?xml version="1.0" encoding="iso-8859-1"?>
<!-- Generator: Adobe Illustrator 19.0.0, SVG Export Plug-In . SVG Version: 6.00 Build 0)  -->
<svg version="1.1" id="Capa_1" xmlns="http://www.w3.org/2000/svg" xmlns:xlink="http://www.w3.org/1999/xlink" x="0px" y="0px"
	 viewBox="0 0 468.293 468.293" style="enable-background:new 0 0 468.293 468.293;" xml:space="preserve">
<path style="fill:#2D93BA;" d="M357.765,461.36l-16.137-16.141c-2.439-2.439-6.393-2.439-8.831,0L316.66,461.36
	c-3.933,3.934-10.66,1.148-10.66-4.415V356.479h62.425v100.466C368.425,462.508,361.699,465.294,357.765,461.36z"/>
<path style="fill:#E1E6E9;" d="M437.073,327.422H31.22c-17.242,0-31.22-13.977-31.22-31.22V36.311
	c0-17.242,13.977-31.22,31.22-31.22h405.854c17.242,0,31.22,13.977,31.22,31.22v259.892
	C468.293,313.445,454.315,327.422,437.073,327.422z"/>
<path style="fill:#27A2DB;" d="M406.109,317.563l5.122-8.871c2.231-3.864,2.231-8.624,0-12.488l-5.122-8.872
	c-1.096-1.898-1.673-4.052-1.673-6.244v-10.244c0-4.461-2.38-8.584-6.244-10.815l-8.871-5.122c-1.898-1.096-3.475-2.673-4.571-4.571
	l-5.121-8.87c-2.231-3.864-6.353-6.244-10.815-6.244h-10.243c-2.192,0-4.345-0.577-6.244-1.673l-8.872-5.122
	c-3.864-2.231-8.624-2.231-12.487,0l-8.872,5.122c-1.898,1.096-4.052,1.673-6.244,1.673H305.61c-4.461,0-8.584,2.38-10.815,6.244
	l-5.122,8.871c-1.096,1.898-2.672,3.475-4.571,4.571l-8.871,5.122c-3.864,2.231-6.244,6.353-6.244,10.815v10.244
	c0,2.192-0.577,4.345-1.673,6.244l-5.122,8.872c-2.231,3.864-2.231,8.624,0,12.487l5.121,8.871c1.096,1.898,1.673,4.052,1.673,6.244
	v10.244c0,4.461,2.38,8.584,6.244,10.815l8.871,5.122c1.898,1.096,3.475,2.672,4.571,4.571l5.122,8.871
	c2.231,3.864,6.353,6.244,10.815,6.244h10.243c2.192,0,4.346,0.577,6.244,1.673l8.87,5.121c3.864,2.231,8.624,2.231,12.488,0
	l8.872-5.122c1.898-1.096,4.052-1.673,6.244-1.673h10.244c4.461,0,8.584-2.38,10.815-6.244l5.122-8.871
	c1.096-1.898,2.673-3.475,4.571-4.571l8.87-5.121c3.864-2.231,6.244-6.353,6.244-10.815v-10.242
	C404.436,321.614,405.013,319.461,406.109,317.563z"/>
<circle style="fill:#EBF0F3;" cx="337.233" cy="302.448" r="49.951"/>
<g>
	<rect x="46.829" y="59.941" style="fill:#D5D6DB;" width="374.634" height="12.488"/>
	<rect x="46.829" y="110.205" style="fill:#D5D6DB;" width="374.634" height="12.488"/>
	<rect x="46.829" y="160.156" style="fill:#D5D6DB;" width="374.634" height="12.488"/>
	<rect x="46.829" y="210.107" style="fill:#D5D6DB;" width="193.561" height="12.488"/>
	<rect x="46.829" y="260.059" style="fill:#D5D6DB;" width="143.61" height="12.488"/>
</g>
<g>
</g>
<g>
</g>
<g>
</g>
<g>
</g>
<g>
</g>
<g>
</g>
<g>
</g>
<g>
</g>
<g>
</g>
<g>
</g>
<g>
</g>
<g>
</g>
<g>
</g>
<g>
</g>
<g>
</g>
</svg>
