<?xml version="1.0" encoding="iso-8859-1"?>
<!-- Generator: Adobe Illustrator 19.0.0, SVG Export Plug-In . SVG Version: 6.00 Build 0)  -->
<svg version="1.1" id="Capa_1" xmlns="http://www.w3.org/2000/svg" xmlns:xlink="http://www.w3.org/1999/xlink" x="0px" y="0px"
	 viewBox="0 0 468.293 468.293" style="enable-background:new 0 0 468.293 468.293;" xml:space="preserve">
<polygon style="fill:#E1E6E9;" points="361.771,0 109.846,0 109.846,468.293 447.017,468.293 447.017,85.245 "/>
<polygon style="fill:#EBF0F3;" points="361.771,85.246 447.017,85.245 361.771,0 "/>
<path style="fill:#27A2DB;" d="M192.173,169.944H27.52c-3.448,0-6.244-2.795-6.244-6.244V68.981c0-3.448,2.795-6.244,6.244-6.244
	h164.654c3.448,0,6.244,2.795,6.244,6.244V163.7C198.417,167.148,195.622,169.944,192.173,169.944z"/>
<g>
	<path style="fill:#EBF0F3;" d="M45.221,98.43h16.634v27.049c0,3.098-0.814,5.421-2.436,6.97s-3.585,2.323-5.881,2.323
		c-3.247,0-6.57-1.622-9.966-4.872l-5.018,6.97c4.296,4.296,9.491,6.442,15.585,6.442c4.845,0,8.814-1.521,11.912-4.57
		c3.098-3.046,4.646-7.616,4.646-13.71V90.488H45.221V98.43z"/>
	<path style="fill:#EBF0F3;" d="M102.764,90.488H84.782v52.375h8.841v-15.36h9.29c7.692,0,13.399-1.473,17.122-4.421
		c3.72-2.948,5.582-7.591,5.582-13.936s-1.823-11.04-5.47-14.085C116.502,92.013,110.706,90.488,102.764,90.488z M113.892,116.677
		c-1.774,1.872-5.11,2.808-10.003,2.808H93.624V98.506h8.991c4.796,0,8.317,0.75,10.564,2.247c2.247,1.5,3.372,4.061,3.372,7.68
		C116.551,112.055,115.663,114.802,113.892,116.677z"/>
	<path style="fill:#EBF0F3;" d="M172.298,117.388v14.387c-3.348,2.146-7.506,3.223-12.476,3.223c-4.973,0-9.204-1.686-12.701-5.058
		c-3.497-3.372-5.244-7.841-5.244-13.412s1.799-10.067,5.393-13.488c3.598-3.421,8.043-5.134,13.338-5.134
		c2.747,0,5.155,0.338,7.229,1.012c2.073,0.674,4.134,1.887,6.183,3.634l4.72-6.744c-4.994-4.393-11.265-6.591-18.805-6.591
		c-7.543,0-13.976,2.598-19.296,7.79c-5.32,5.198-7.979,11.689-7.979,19.482s2.61,14.238,7.829,19.332s11.701,7.643,19.445,7.643
		c9.189,0,16.259-2.723,21.204-8.168v-17.909H172.298z"/>
</g>
<path style="fill:#64798A;" d="M333.05,260.464l-9.807-20.057c-2.095-4.285-6.449-7.002-11.219-7.002h-67.187
	c-4.77,0-9.123,2.717-11.219,7.002l-9.807,20.057c-2.095,4.285-6.449,7.002-11.219,7.002h-34.065
	c-6.897,0-12.488,5.591-12.488,12.488v112.39c0,6.897,5.591,12.488,12.488,12.488h199.805c6.897,0,12.488-5.591,12.488-12.488
	v-112.39c0-6.897-5.591-12.488-12.488-12.488h-34.065C339.499,267.466,335.146,264.749,333.05,260.464z"/>
<circle style="fill:#E1E6E9;" cx="278.416" cy="336.172" r="53.073"/>
<circle style="fill:#D5D6DB;" cx="278.416" cy="336.172" r="34.341"/>
<circle style="fill:#3A556A;" cx="278.416" cy="336.172" r="21.854"/>
<g>
	<circle style="fill:#E1E6E9;" cx="270.998" cy="326.912" r="9.996"/>
	<circle style="fill:#E1E6E9;" cx="285.659" cy="348.909" r="7.205"/>
</g>
<g>
</g>
<g>
</g>
<g>
</g>
<g>
</g>
<g>
</g>
<g>
</g>
<g>
</g>
<g>
</g>
<g>
</g>
<g>
</g>
<g>
</g>
<g>
</g>
<g>
</g>
<g>
</g>
<g>
</g>
</svg>
