<?xml version="1.0" encoding="iso-8859-1"?>
<!-- Generator: Adobe Illustrator 19.0.0, SVG Export Plug-In . SVG Version: 6.00 Build 0)  -->
<svg version="1.1" id="Capa_1" xmlns="http://www.w3.org/2000/svg" xmlns:xlink="http://www.w3.org/1999/xlink" x="0px" y="0px"
	 viewBox="0 0 468.293 468.293" style="enable-background:new 0 0 468.293 468.293;" xml:space="preserve">
<path style="fill:#F6C358;" d="M17.283,0C10.387,0,4.796,5.591,4.796,12.488v200.481v225.054c0,6.897,5.591,12.488,12.488,12.488
	h433.726c6.897,0,12.488-5.591,12.488-12.488V212.969V12.488C463.497,5.591,457.906,0,451.009,0H17.283z"/>
<rect x="29.365" y="264.56" style="fill:#FCD462;" width="409.538" height="163.84"/>
<path style="fill:#64798A;" d="M382.543,450.51h48.189v11.538c0,3.448-2.796,6.244-6.244,6.244h-35.701
	c-3.448,0-6.244-2.796-6.244-6.244V450.51z"/>
<circle style="fill:#DC8744;" cx="234.146" cy="346.468" r="38.013"/>
<g>
	<rect x="29.365" y="27.017" style="fill:#FCD462;" width="409.538" height="163.84"/>
	<rect x="4.795" y="215.415" style="fill:#FCD462;" width="458.677" height="24.576"/>
</g>
<path style="fill:#64798A;" d="M37.559,450.51h48.189v11.538c0,3.448-2.795,6.244-6.244,6.244H43.803
	c-3.448,0-6.244-2.796-6.244-6.244V450.51z"/>
<path style="fill:#DC8744;" d="M272.153,108.941c0,20.98-16.984,38.026-38.026,38.026c-5.557,0-10.802-1.186-15.547-3.372
	c-13.237-5.931-22.478-19.231-22.478-34.654c0-20.979,17.046-38.025,38.026-38.025c19.606,0,35.653,14.798,37.776,33.779
	C272.091,106.07,272.153,107.506,272.153,108.941z"/>
<g>
	<path style="fill:#F6C358;" d="M252.859,108.942c0,10.335-8.366,18.732-18.732,18.732c-2.738,0-5.321-0.584-7.659-1.661
		c-6.521-2.922-11.073-9.473-11.073-17.071c0-10.335,8.397-18.732,18.732-18.732c9.658,0,17.563,7.29,18.609,16.64
		C252.828,107.527,252.859,108.234,252.859,108.942z"/>
	<path style="fill:#F6C358;" d="M252.859,346.469c0,10.335-8.366,18.732-18.732,18.732c-2.738,0-5.321-0.584-7.659-1.661
		c-6.521-2.922-11.073-9.473-11.073-17.071c0-10.335,8.397-18.732,18.732-18.732c9.658,0,17.563,7.29,18.609,16.64
		C252.828,345.055,252.859,345.762,252.859,346.469z"/>
</g>
<g>
</g>
<g>
</g>
<g>
</g>
<g>
</g>
<g>
</g>
<g>
</g>
<g>
</g>
<g>
</g>
<g>
</g>
<g>
</g>
<g>
</g>
<g>
</g>
<g>
</g>
<g>
</g>
<g>
</g>
</svg>
