<?xml version="1.0" encoding="iso-8859-1"?>
<!-- Generator: Adobe Illustrator 19.0.0, SVG Export Plug-In . SVG Version: 6.00 Build 0)  -->
<svg version="1.1" id="Capa_1" xmlns="http://www.w3.org/2000/svg" xmlns:xlink="http://www.w3.org/1999/xlink" x="0px" y="0px"
	 viewBox="0 0 468.313 468.313" style="enable-background:new 0 0 468.313 468.313;" xml:space="preserve">
<path style="fill:#D5D6DB;" d="M420.806,387.141l-269.361,80.644c-6.607,1.978-13.567-1.774-15.545-8.382L39.125,136.162
	c-1.978-6.607,1.774-13.567,8.382-15.545l281.324-84.225l100.357,335.204C431.166,378.203,427.413,385.163,420.806,387.141z"/>
<path style="fill:#E1E6E9;" d="M364.144,403.665H82.961c-6.897,0-12.488-5.591-12.488-12.488V49.734
	c0-6.897,5.591-12.488,12.488-12.488h281.184c6.897,0,12.488,5.591,12.488,12.488v341.444
	C376.632,398.074,371.041,403.665,364.144,403.665z"/>
<path style="fill:#64798A;" d="M181.543,0h-30.257c-11.299,0-20.458,9.159-20.458,20.458v16.788h15.737V20.458
	c0-2.597,2.124-4.721,4.721-4.721h30.257c2.597,0,4.721,2.124,4.721,4.721v94.335c0,2.597-2.124,4.721-4.721,4.721h-16.561
	c-2.597,0-4.721-2.124-4.721-4.721V63.661c0-4.346-3.523-7.868-7.868-7.868l0,0c-4.346,0-7.868,3.523-7.868,7.868v51.133
	c0,11.299,9.159,20.458,20.458,20.458h16.561c11.299,0,20.458-9.159,20.458-20.458V20.458C202.001,9.159,192.841,0,181.543,0z"/>
<g>
</g>
<g>
</g>
<g>
</g>
<g>
</g>
<g>
</g>
<g>
</g>
<g>
</g>
<g>
</g>
<g>
</g>
<g>
</g>
<g>
</g>
<g>
</g>
<g>
</g>
<g>
</g>
<g>
</g>
</svg>
