<?xml version="1.0" encoding="iso-8859-1"?>
<!-- Generator: Adobe Illustrator 19.0.0, SVG Export Plug-In . SVG Version: 6.00 Build 0)  -->
<svg version="1.1" id="Capa_1" xmlns="http://www.w3.org/2000/svg" xmlns:xlink="http://www.w3.org/1999/xlink" x="0px" y="0px"
	 viewBox="0 0 468.3 468.3" style="enable-background:new 0 0 468.3 468.3;" xml:space="preserve">
<path style="fill:#E1E6E9;" d="M402.728,12.488v443.317c0,6.897-5.591,12.488-12.488,12.488H78.045
	c-6.897,0-12.488-5.591-12.488-12.488V90.162L155.719,0H390.24C397.137,0,402.728,5.591,402.728,12.488z"/>
<path style="fill:#27A2DB;" d="M390.255,468.3H78.06c-6.897,0-12.488-5.591-12.488-12.488V355.556h337.171v100.255
	C402.743,462.709,397.152,468.3,390.255,468.3z"/>
<g>
	<path style="fill:#EBF0F3;" d="M185.981,384.56c4.689,3.921,7.034,9.959,7.034,18.115c0,8.163-2.392,14.139-7.183,17.926
		c-4.783,3.788-12.123,5.685-22.012,5.685H151.87v19.753h-11.371v-67.353h23.125C173.842,378.687,181.292,380.647,185.981,384.56z
		 M177.936,412.359c2.282-2.407,3.419-5.936,3.419-10.594c0-4.658-1.443-7.952-4.337-9.881c-2.894-1.929-7.418-2.886-13.59-2.886
		H151.87v26.976h13.198C171.364,415.974,175.654,414.775,177.936,412.359z"/>
	<path style="fill:#EBF0F3;" d="M226.79,387.548c-3.309,0-6.023,0.674-8.14,2.023c-2.125,1.349-3.184,3.388-3.184,6.124
		c0,2.729,1.059,4.815,3.184,6.258c2.117,1.451,6.626,3.003,13.535,4.674c6.901,1.67,12.108,4.015,15.613,7.034
		c3.497,3.019,5.246,7.473,5.246,13.347c0,5.881-2.211,10.649-6.65,14.311c-4.431,3.662-10.241,5.489-17.44,5.489
		c-10.532,0-19.879-3.623-28.034-10.884l7.128-8.579c6.807,5.913,13.872,8.869,21.196,8.869c3.662,0,6.571-0.792,8.72-2.36
		c2.156-1.576,3.231-3.662,3.231-6.266c0-2.603-1.012-4.627-3.035-6.07c-2.023-1.451-5.513-2.76-10.453-3.952
		c-4.948-1.192-8.712-2.282-11.277-3.278c-2.572-0.996-4.854-2.298-6.846-3.905c-3.984-3.019-5.968-7.638-5.968-13.872
		c0-6.234,2.258-11.033,6.791-14.405c4.525-3.372,10.132-5.058,16.813-5.058c4.305,0,8.579,0.706,12.813,2.117
		c4.242,1.412,7.905,3.403,10.986,5.975l-6.07,8.579c-1.992-1.804-4.689-3.278-8.093-4.438
		C233.456,388.128,230.099,387.548,226.79,387.548z"/>
	<path style="fill:#EBF0F3;" d="M318.084,387.501c6.493,5.881,9.732,14.052,9.732,24.521c0,10.477-3.145,18.758-9.442,24.866
		c-6.297,6.101-15.935,9.151-28.905,9.151h-22.357v-67.353h23.125C302.314,378.687,311.599,381.62,318.084,387.501z
		 M316.351,412.312c0-15.417-8.83-23.125-26.497-23.125h-11.371v46.157h12.625c8.155,0,14.405-1.945,18.742-5.826
		C314.187,425.628,316.351,419.895,316.351,412.312z"/>
	<path style="fill:#EBF0F3;" d="M155.719,0v77.674c0,6.897-5.591,12.488-12.488,12.488H65.557L155.719,0z"/>
</g>
<path style="fill:#DC8744;" d="M111.784,305.035c2.468,2.468,6.608,2.842,10.492,0.849c38.785-19.892,75.224-46.842,106.926-78.544
	c13.201-13.201,25.556-27.207,36.944-41.866c7.314-9.393,14.199-19.06,20.629-28.943c12.104-18.554,22.622-37.906,31.237-57.74
	c-19.833,8.616-39.185,19.134-57.753,31.223c-9.868,6.445-19.535,13.33-28.928,20.645c-49.897,38.724-92.249,88.946-120.399,143.882
	C108.941,298.426,109.316,302.567,111.784,305.035L111.784,305.035z"/>
<path style="fill:#F6C358;" d="M266.147,185.474l-34.815-34.816c9.393-7.315,19.059-14.2,28.928-20.645l26.516,26.517
	C280.346,166.415,273.461,176.081,266.147,185.474z"/>
<path style="fill:#3A556A;" d="M357.407,48.393c0,0-6.292,19.716-32.637,22.252c-6.357,0.612-12.613,2.354-18.052,5.703
	c-4.193,2.582-8.449,6.3-11.332,11.587c-13.404,24.58,19.055,48.157,39.506,29.036c3.503-3.275,7.054-7.533,10.568-13.017
	C345.461,103.954,363.44,83.191,357.407,48.393z"/>
<g>
</g>
<g>
</g>
<g>
</g>
<g>
</g>
<g>
</g>
<g>
</g>
<g>
</g>
<g>
</g>
<g>
</g>
<g>
</g>
<g>
</g>
<g>
</g>
<g>
</g>
<g>
</g>
<g>
</g>
</svg>
