<?xml version="1.0" encoding="iso-8859-1"?>
<!-- Generator: Adobe Illustrator 19.0.0, SVG Export Plug-In . SVG Version: 6.00 Build 0)  -->
<svg version="1.1" id="Capa_1" xmlns="http://www.w3.org/2000/svg" xmlns:xlink="http://www.w3.org/1999/xlink" x="0px" y="0px"
	 viewBox="0 0 468.293 468.293" style="enable-background:new 0 0 468.293 468.293;" xml:space="preserve">
<path style="fill:#F6C358;" d="M468.293,319.657H110.669v-167.35h338.892c10.345,0,18.732,8.386,18.732,18.732V319.657z"/>
<polygon style="fill:#E1E6E9;" points="121.16,8.229 69.142,60.245 69.142,283.811 399.149,283.811 399.149,8.229 "/>
<polygon style="fill:#EBF0F3;" points="121.159,60.245 121.16,8.227 69.141,60.247 "/>
<path style="fill:#FCD462;" d="M449.561,460.066H18.732C8.386,460.066,0,451.679,0,441.334V140.73
	c0-10.345,8.386-18.732,18.732-18.732h107.986c5.58,0,10.869,2.488,14.428,6.785l40.463,61.356
	c3.559,4.298,8.848,6.785,14.428,6.785h253.524c10.345,0,18.732,8.386,18.732,18.732v225.677
	C468.293,451.679,459.906,460.066,449.561,460.066z"/>
<g>
	<rect x="146.981" y="47.672" style="fill:#D5D6DB;" width="226.341" height="12.55"/>
	<rect x="195.596" y="91.66" style="fill:#D5D6DB;" width="177.726" height="12.55"/>
	<rect x="195.596" y="135.68" style="fill:#D5D6DB;" width="177.726" height="12.55"/>
</g>
<g>
</g>
<g>
</g>
<g>
</g>
<g>
</g>
<g>
</g>
<g>
</g>
<g>
</g>
<g>
</g>
<g>
</g>
<g>
</g>
<g>
</g>
<g>
</g>
<g>
</g>
<g>
</g>
<g>
</g>
</svg>
