<?xml version="1.0" encoding="iso-8859-1"?>
<!-- Generator: Adobe Illustrator 19.0.0, SVG Export Plug-In . SVG Version: 6.00 Build 0)  -->
<svg version="1.1" id="Capa_1" xmlns="http://www.w3.org/2000/svg" xmlns:xlink="http://www.w3.org/1999/xlink" x="0px" y="0px"
	 viewBox="0 0 468.293 468.293" style="enable-background:new 0 0 468.293 468.293;" xml:space="preserve">
<g>
	<polygon style="fill:#44C4A1;" points="277.526,457.875 264.917,436.406 240.16,444.704 276.605,355.401 313.971,368.573 	"/>
	<polygon style="fill:#44C4A1;" points="350.416,457.875 363.025,436.406 387.782,444.704 351.338,355.401 313.971,368.573 	"/>
</g>
<path style="fill:#27A2DB;" d="M449.561,322.612H18.732C8.386,322.612,0,314.226,0,303.881V29.149
	c0-10.345,8.386-18.732,18.732-18.732h430.829c10.345,0,18.732,8.386,18.732,18.732v274.732
	C468.293,314.226,459.906,322.612,449.561,322.612z"/>
<rect x="21.866" y="35.89" style="fill:#EBF0F3;" width="424.585" height="261.282"/>
<polygon style="fill:#FCD462;" points="396.932,313.653 403.697,297.32 396.932,280.927 396.932,262.737 384.152,249.959 
	377.447,233.709 361.079,226.885 348.318,214.125 330.471,214.125 314.014,207.264 297.406,214.125 279.569,214.125 
	267.016,226.678 250.559,233.476 243.729,249.965 230.956,262.737 230.956,280.802 224.25,296.991 230.956,313.24 230.956,331.486 
	243.775,344.307 250.501,360.602 266.914,367.445 279.569,380.101 297.268,380.101 313.932,387.047 330.75,380.101 348.318,380.101 
	360.682,367.737 377.388,360.835 384.321,344.097 396.932,331.486 "/>
<polygon style="fill:#E56353;" points="302.267,355.124 289.913,355.124 281.078,346.291 269.645,341.523 264.956,330.173 
	255.932,321.142 255.932,308.288 251.273,297.008 255.932,285.77 255.932,273.084 264.901,264.115 269.669,252.605 281.157,247.862 
	289.919,239.099 302.364,239.099 313.968,234.304 325.468,239.099 337.968,239.099 346.913,248.038 358.303,252.785 
	362.962,264.093 371.956,273.084 371.956,285.88 376.669,297.304 371.956,308.688 371.956,321.142 363.151,329.95 358.279,341.706 
	346.541,346.554 337.974,355.124 325.791,355.124 313.974,360.005 "/>
<g>
</g>
<g>
</g>
<g>
</g>
<g>
</g>
<g>
</g>
<g>
</g>
<g>
</g>
<g>
</g>
<g>
</g>
<g>
</g>
<g>
</g>
<g>
</g>
<g>
</g>
<g>
</g>
<g>
</g>
</svg>
