<?xml version="1.0" encoding="iso-8859-1"?>
<!-- Generator: Adobe Illustrator 19.0.0, SVG Export Plug-In . SVG Version: 6.00 Build 0)  -->
<svg version="1.1" id="Capa_1" xmlns="http://www.w3.org/2000/svg" xmlns:xlink="http://www.w3.org/1999/xlink" x="0px" y="0px"
	 viewBox="0 0 468.293 468.293" style="enable-background:new 0 0 468.293 468.293;" xml:space="preserve">
<path style="fill:#E1E6E9;" d="M122.261,0L57.192,65.069v314.776c0,5.748,4.659,10.407,10.407,10.407h254.965
	c5.747,0,10.407-4.659,10.407-10.407V10.407C332.97,4.659,328.311,0,322.563,0H122.261z"/>
<polygon style="fill:#EBF0F3;" points="122.262,65.07 122.262,0.001 57.192,65.07 "/>
<g>
	<rect x="97.842" y="96.387" style="fill:#D5D6DB;" width="194.498" height="16.209"/>
	<rect x="97.842" y="148.23" style="fill:#D5D6DB;" width="194.498" height="16.209"/>
</g>
<rect x="317.446" y="374.619" transform="matrix(-0.7071 0.7071 -0.7071 -0.7071 838.91 428.3436)" style="fill:#3A556A;" width="26.593" height="26.593"/>
<path style="fill:#E56353;" d="M405.169,462.36L405.169,462.36c-7.91,7.91-20.734,7.91-28.643,0l-45.669-45.669
	c0-3.935-0.118-6.024-0.118-9.959l18.684-18.684c3.935,0,6.142,0,10.077,0l45.669,45.669
	C413.078,441.627,413.078,454.451,405.169,462.36z"/>
<circle style="fill:#64798A;" cx="254.626" cy="311.82" r="102.843"/>
<path style="fill:#EBF0F3;" d="M318.226,375.421c-35.076,35.076-92.145,35.074-127.221-0.001c-35.074-35.074-35.076-92.144,0-127.22
	s92.148-35.077,127.223-0.003C353.304,283.273,353.302,340.345,318.226,375.421z"/>
<g>
	<rect x="197.682" y="304.702" style="fill:#D5D6DB;" width="113.901" height="14.236"/>
	<rect x="209.058" y="335.984" style="fill:#D5D6DB;" width="91.117" height="14.236"/>
	<rect x="209.058" y="273.358" style="fill:#D5D6DB;" width="91.117" height="14.236"/>
</g>
<g>
</g>
<g>
</g>
<g>
</g>
<g>
</g>
<g>
</g>
<g>
</g>
<g>
</g>
<g>
</g>
<g>
</g>
<g>
</g>
<g>
</g>
<g>
</g>
<g>
</g>
<g>
</g>
<g>
</g>
</svg>
