<?xml version="1.0" encoding="iso-8859-1"?>
<!-- Generator: Adobe Illustrator 19.0.0, SVG Export Plug-In . SVG Version: 6.00 Build 0)  -->
<svg version="1.1" id="Capa_1" xmlns="http://www.w3.org/2000/svg" xmlns:xlink="http://www.w3.org/1999/xlink" x="0px" y="0px"
	 viewBox="0 0 468.293 468.293" style="enable-background:new 0 0 468.293 468.293;" xml:space="preserve">
<path style="fill:#FCD462;" d="M401.394,468.293H66.929c-23.24,0-42.079-18.84-42.079-42.079V13.38C24.849,5.99,30.839,0,38.229,0
	h307.735c7.389,0,13.38,5.99,13.38,13.38v387.155L401.394,468.293z"/>
<path style="fill:#F6C358;" d="M401.394,468.293L401.394,468.293c-23.224,0-42.05-18.826-42.05-42.05V58.976h71.612
	c6.897,0,12.488,5.591,12.488,12.488v354.779C443.444,449.466,424.617,468.293,401.394,468.293z"/>
<path style="fill:#D15241;" d="M220.545,345.795l-26.078-19.405c-1.574-1.171-3.731-1.171-5.305,0l-26.078,19.405
	c-2.931,2.181-7.096,0.089-7.096-3.565V236.399h71.652v105.832C227.641,345.885,223.476,347.977,220.545,345.795z"/>
<path style="fill:#E56353;" d="M280.762,172.08l7.695-13.328c2.444-4.232,2.444-9.447,0-13.679l-7.695-13.328
	c-1.201-2.08-1.833-4.438-1.833-6.84v-15.39c0-4.887-2.607-9.403-6.84-11.847l-13.328-7.695c-2.079-1.201-3.806-2.927-5.007-5.007
	l-7.695-13.328c-2.444-4.232-6.959-6.84-11.847-6.84h-15.391c-2.401,0-4.76-0.632-6.84-1.833l-13.328-7.695
	c-4.232-2.444-9.447-2.444-13.68,0l-13.327,7.695c-2.08,1.201-4.439,1.833-6.84,1.833h-15.391c-4.887,0-9.403,2.607-11.847,6.84
	l-7.695,13.328c-1.201,2.079-2.927,3.806-5.007,5.007l-13.328,7.695c-4.232,2.444-6.84,6.959-6.84,11.847v15.39
	c0,2.401-0.632,4.76-1.833,6.84l-7.695,13.329c-2.444,4.232-2.444,9.447,0,13.679l7.695,13.329c1.201,2.08,1.833,4.438,1.833,6.84
	v15.39c0,4.887,2.607,9.403,6.84,11.847l13.327,7.694c2.08,1.201,3.806,2.927,5.007,5.007l7.696,13.329
	c2.444,4.232,6.959,6.84,11.847,6.84h15.391c2.401,0,4.76,0.632,6.84,1.833l13.328,7.695c4.232,2.444,9.447,2.444,13.679,0
	l13.328-7.695c2.08-1.201,4.438-1.833,6.84-1.833h15.39c4.887,0,9.403-2.607,11.847-6.84l7.695-13.328
	c1.201-2.079,2.927-3.806,5.007-5.007l13.328-7.695c4.232-2.444,6.84-6.959,6.84-11.847v-15.39
	C278.929,176.518,279.561,174.159,280.762,172.08z"/>
<circle style="fill:#EBF0F3;" cx="191.813" cy="151.914" r="62.439"/>
<path style="fill:#27A2DB;" d="M272.987,389.88H110.646c-6.896,0-12.488,5.591-12.488,12.488c0,6.896,5.591,12.488,12.488,12.488
	h162.341c6.896,0,12.488-5.591,12.488-12.488C285.475,395.471,279.883,389.88,272.987,389.88z"/>
<g>
</g>
<g>
</g>
<g>
</g>
<g>
</g>
<g>
</g>
<g>
</g>
<g>
</g>
<g>
</g>
<g>
</g>
<g>
</g>
<g>
</g>
<g>
</g>
<g>
</g>
<g>
</g>
<g>
</g>
</svg>
