<?xml version="1.0" encoding="iso-8859-1"?>
<!-- Generator: Adobe Illustrator 19.0.0, SVG Export Plug-In . SVG Version: 6.00 Build 0)  -->
<svg version="1.1" id="Capa_1" xmlns="http://www.w3.org/2000/svg" xmlns:xlink="http://www.w3.org/1999/xlink" x="0px" y="0px"
	 viewBox="0 0 468.293 468.293" style="enable-background:new 0 0 468.293 468.293;" xml:space="preserve">
<path style="fill:#44C4A1;" d="M353.616,409.909H81.173l30.543-58.792V39.245C111.716,17.57,129.286,0,150.961,0h241.9v370.664
	C392.861,392.338,375.29,409.909,353.616,409.909z"/>
<g>
	<path style="fill:#3EA69B;" d="M384.701,0H150.635c21.675,0,39.245,17.57,39.245,39.245c0,21.674-17.57,39.245-39.245,39.245
		h234.066c21.675,0,39.245-17.571,39.245-39.245C423.946,17.57,406.376,0,384.701,0z"/>
	<path style="fill:#3EA69B;" d="M77.387,409.909L77.387,409.909c-18.248,0-33.04-14.793-33.04-33.04v0
		c0-18.248,14.793-33.04,33.04-33.04h34.329v21.869v9.883C111.716,394.539,96.347,409.909,77.387,409.909z"/>
</g>
<path style="fill:#E56353;" d="M224.713,334.48v128.337c0,4.571,4.219,7.122,7.083,4.284l17.779-17.619
	c1.59-1.575,3.837-1.575,5.427,0l17.779,17.619c2.864,2.838,7.083,0.287,7.083-4.284V334.48H224.713z"/>
<polygon style="fill:#FCD462;" points="318.094,321.586 328.275,303.953 318.094,286.321 318.094,265.96 300.462,255.78 
	290.282,238.147 269.921,238.147 252.288,227.967 234.656,238.147 214.295,238.147 204.115,255.78 186.482,265.96 186.482,286.321 
	176.302,303.953 186.482,321.586 186.482,341.947 204.115,352.127 214.295,369.759 234.655,369.759 252.288,379.94 269.921,369.759 
	290.282,369.759 300.462,352.127 318.094,341.947 "/>
<circle style="fill:#27A2DB;" cx="252.291" cy="303.953" r="51.924"/>
<g>
	<rect x="144.222" y="174.242" style="fill:#E1E6E9;" width="216.133" height="18.014"/>
	<rect x="144.222" y="114.201" style="fill:#E1E6E9;" width="216.133" height="18.014"/>
</g>
<g>
</g>
<g>
</g>
<g>
</g>
<g>
</g>
<g>
</g>
<g>
</g>
<g>
</g>
<g>
</g>
<g>
</g>
<g>
</g>
<g>
</g>
<g>
</g>
<g>
</g>
<g>
</g>
<g>
</g>
</svg>
