<?xml version="1.0" encoding="iso-8859-1"?>
<!-- Generator: Adobe Illustrator 19.0.0, SVG Export Plug-In . SVG Version: 6.00 Build 0)  -->
<svg version="1.1" id="Capa_1" xmlns="http://www.w3.org/2000/svg" xmlns:xlink="http://www.w3.org/1999/xlink" x="0px" y="0px"
	 viewBox="0 0 468.293 468.293" style="enable-background:new 0 0 468.293 468.293;" xml:space="preserve">
<path style="fill:#E1E6E9;" d="M150.379,0l-87.94,87.939v367.865c0,6.897,5.591,12.488,12.488,12.488h318.439
	c6.897,0,12.488-5.591,12.488-12.488V12.488C405.854,5.591,400.263,0,393.366,0H150.379z"/>
<polygon style="fill:#EBF0F3;" points="150.38,87.939 150.38,0 62.439,87.939 "/>
<rect x="62.745" y="235.195" style="fill:#64798A;" width="360.217" height="72.835"/>
<path style="fill:#FCD462;" d="M62.709,308.025l-39.012-20.424L3.175,276.863c-4.234-2.215-4.234-8.275,0-10.49l20.522-10.738
	l39.012-20.423L62.709,308.025z"/>
<path style="fill:#1C75A1;" d="M23.697,287.601L3.175,276.863c-4.234-2.215-4.234-8.275,0-10.49l20.522-10.738L23.697,287.601z"/>
<rect x="408.876" y="235.083" style="fill:#D5D6DB;" width="14.061" height="73.06"/>
<path style="fill:#27A2DB;" d="M422.923,308.141l0-73.062l32.882,0c6.897,0,12.488,5.591,12.488,12.488l0,48.086
	c0,6.897-5.591,12.488-12.488,12.488H422.923z"/>
<g>
	<rect x="184.445" y="54.896" style="fill:#D5D6DB;" width="187.317" height="15.61"/>
	<rect x="95.013" y="120.72" style="fill:#D5D6DB;" width="276.73" height="15.61"/>
	<rect x="95.013" y="180.299" style="fill:#D5D6DB;" width="276.73" height="15.61"/>
	<rect x="95.013" y="350.595" style="fill:#D5D6DB;" width="276.73" height="15.61"/>
	<rect x="95.013" y="410.162" style="fill:#D5D6DB;" width="276.73" height="15.61"/>
</g>
<g>
</g>
<g>
</g>
<g>
</g>
<g>
</g>
<g>
</g>
<g>
</g>
<g>
</g>
<g>
</g>
<g>
</g>
<g>
</g>
<g>
</g>
<g>
</g>
<g>
</g>
<g>
</g>
<g>
</g>
</svg>
