<?xml version="1.0" encoding="iso-8859-1"?>
<!-- Generator: Adobe Illustrator 19.0.0, SVG Export Plug-In . SVG Version: 6.00 Build 0)  -->
<svg version="1.1" id="Capa_1" xmlns="http://www.w3.org/2000/svg" xmlns:xlink="http://www.w3.org/1999/xlink" x="0px" y="0px"
	 viewBox="0 0 468.293 468.293" style="enable-background:new 0 0 468.293 468.293;" xml:space="preserve">
<path style="fill:#E1E6E9;" d="M368.31,0H118.634c-6.897,0-12.488,5.591-12.488,12.488v443.317c0,6.897,5.591,12.488,12.488,12.488
	h312.195c6.897,0,12.488-5.591,12.488-12.488V75.007L368.31,0z"/>
<path style="fill:#D5D6DB;" d="M430.829,468.293H118.634c-6.897,0-12.488-5.591-12.488-12.488V330.599h337.171v125.206
	C443.317,462.702,437.726,468.293,430.829,468.293z"/>
<path style="fill:#44C4A1;" d="M174.829,154.296H37.463c-6.897,0-12.488-5.591-12.488-12.488V59.024
	c0-6.897,5.591-12.488,12.488-12.488h137.366c6.897,0,12.488,5.591,12.488,12.488v82.784
	C187.317,148.705,181.726,154.296,174.829,154.296z"/>
<g>
	<polygon style="fill:#EBF0F3;" points="121.018,128.415 106.146,113.543 91.275,128.415 65.025,128.415 93.021,100.415 
		65.025,72.418 91.275,72.418 106.146,87.29 121.018,72.418 147.268,72.418 119.271,100.415 147.268,128.415 	"/>
	<path style="fill:#EBF0F3;" d="M223.094,444.412l-21.844-33.406h-0.641l-21.844,33.406h-18.68l30.486-45.605l-28.325-43.191h18.546
		l19.817,29.98h0.641l19.817-29.98h18.546l-28.336,43.191l30.496,45.605H223.094z"/>
	<path style="fill:#EBF0F3;" d="M255.999,444.412v-88.796h14.99v74.566h40.524v14.23H255.999z"/>
	<path style="fill:#EBF0F3;" d="M354.766,367.303c-4.363,0-7.939,0.889-10.731,2.667c-2.802,1.783-4.197,4.471-4.197,8.069
		c0,3.603,1.396,6.353,4.197,8.255c2.791,1.907,8.735,3.965,17.843,6.161c9.097,2.207,15.962,5.298,20.582,9.273
		c4.611,3.985,6.916,9.847,6.916,17.595c0,7.748-2.915,14.039-8.766,18.866c-5.841,4.828-13.501,7.242-22.991,7.242
		c-13.884,0-26.206-4.786-36.957-14.354l9.397-11.309c8.973,7.795,18.288,11.687,27.943,11.687c4.828,0,8.663-1.034,11.496-3.112
		c2.843-2.073,4.259-4.828,4.259-8.255c0-3.432-1.334-6.099-4.001-8.007c-2.667-1.902-7.267-3.639-13.78-5.205
		c-6.523-1.566-11.485-3.008-14.866-4.321c-3.391-1.313-6.399-3.024-9.025-5.143c-5.252-3.98-7.867-10.079-7.867-18.293
		c0-8.213,2.977-14.545,8.952-18.99c5.965-4.445,13.356-6.668,22.164-6.668c5.675,0,11.31,0.93,16.892,2.791
		c5.593,1.866,10.42,4.492,14.483,7.877l-8.001,11.304c-2.626-2.367-6.182-4.316-10.669-5.841
		C363.553,368.068,359.129,367.303,354.766,367.303z"/>
	<polygon style="fill:#EBF0F3;" points="368.311,75.007 443.318,75.007 368.311,0 	"/>
</g>
<g>
</g>
<g>
</g>
<g>
</g>
<g>
</g>
<g>
</g>
<g>
</g>
<g>
</g>
<g>
</g>
<g>
</g>
<g>
</g>
<g>
</g>
<g>
</g>
<g>
</g>
<g>
</g>
<g>
</g>
</svg>
