<?xml version="1.0" encoding="iso-8859-1"?>
<!-- Generator: Adobe Illustrator 19.0.0, SVG Export Plug-In . SVG Version: 6.00 Build 0)  -->
<svg version="1.1" id="Capa_1" xmlns="http://www.w3.org/2000/svg" xmlns:xlink="http://www.w3.org/1999/xlink" x="0px" y="0px"
	 viewBox="0 0 468.293 468.293" style="enable-background:new 0 0 468.293 468.293;" xml:space="preserve">
<path style="fill:#E1E6E9;" d="M147.532,0L59.317,88.216v380.077h349.659V12.488C408.976,5.591,403.385,0,396.488,0H147.532z"/>
<polygon style="fill:#EBF0F3;" points="147.532,88.216 147.533,0 59.317,88.216 "/>
<rect x="59.317" y="321.03" style="fill:#D5D6DB;" width="349.659" height="147.262"/>
<g>
	<path style="fill:#EBF0F3;" d="M156.567,362.335v79.115H140.77v-79.115h-28.38v-14.462h72.557v14.462H156.567z"/>
	<path style="fill:#EBF0F3;" d="M257.504,441.45l-23.02-35.205h-0.675l-23.02,35.205h-19.686l32.128-48.061l-29.851-45.517h19.545
		l20.885,31.594h0.675l20.885-31.594h19.545l-29.862,45.517l32.139,48.061H257.504z"/>
	<path style="fill:#EBF0F3;" d="M327.523,362.335v79.115h-15.797v-79.115h-28.38v-14.462h72.557v14.462H327.523z"/>
</g>
<g>
	<rect x="196.933" y="200.823" style="fill:#D5D6DB;" width="124.878" height="15.61"/>
	<rect x="103.024" y="261.495" style="fill:#D5D6DB;" width="262.244" height="15.61"/>
</g>
<rect x="251.087" y="40.884" transform="matrix(-0.7071 -0.7071 0.7071 -0.7071 389.2433 417.1877)" style="fill:#FCD462;" width="59.873" height="174.192"/>
<path style="fill:#D5D6DB;" d="M240.584,210.761l-22.077,3.574l-19.914,3.199c-4.203,0.675-7.834-2.96-7.154-7.162l3.217-19.888
	l3.573-22.077L240.584,210.761z"/>
<path style="fill:#3A556A;" d="M218.506,214.335l-19.914,3.199c-4.203,0.675-7.834-2.96-7.154-7.162l3.217-19.888L218.506,214.335z"
	/>
<path style="fill:#44C4A1;" d="M363.747,87.569l-42.341-42.341l14.767-14.767c7.315-7.315,19.175-7.315,26.491,0l15.85,15.85
	c7.315,7.315,7.315,19.175,0,26.491L363.747,87.569z"/>
<g>
</g>
<g>
</g>
<g>
</g>
<g>
</g>
<g>
</g>
<g>
</g>
<g>
</g>
<g>
</g>
<g>
</g>
<g>
</g>
<g>
</g>
<g>
</g>
<g>
</g>
<g>
</g>
<g>
</g>
</svg>
