<?xml version="1.0" encoding="iso-8859-1"?>
<!-- Generator: Adobe Illustrator 19.0.0, SVG Export Plug-In . SVG Version: 6.00 Build 0)  -->
<svg version="1.1" id="Capa_1" xmlns="http://www.w3.org/2000/svg" xmlns:xlink="http://www.w3.org/1999/xlink" x="0px" y="0px"
	 viewBox="0 0 468.293 468.293" style="enable-background:new 0 0 468.293 468.293;" xml:space="preserve">
<path style="fill:#E1E6E9;" d="M153.617,0L65.561,88.056v361.505c0,10.345,8.386,18.732,18.732,18.732H384
	c10.345,0,18.732-8.386,18.732-18.732V18.732C402.732,8.386,394.345,0,384,0H153.617z"/>
<polygon style="fill:#EBF0F3;" points="153.617,88.056 153.617,0 65.561,88.056 "/>
<rect x="105.534" y="134.494" style="fill:#27A2DB;" width="43.707" height="43.707"/>
<rect x="105.534" y="212.293" style="fill:#FCD462;" width="43.707" height="43.707"/>
<rect x="105.534" y="290.073" style="fill:#44C4A1;" width="43.707" height="43.707"/>
<rect x="105.534" y="367.828" style="fill:#E56353;" width="43.707" height="43.707"/>
<g>
	<rect x="175.441" y="147.169" style="fill:#D5D6DB;" width="187.317" height="18.426"/>
	<rect x="175.441" y="69.376" style="fill:#D5D6DB;" width="187.317" height="18.426"/>
	<rect x="175.441" y="224.93" style="fill:#D5D6DB;" width="187.317" height="18.426"/>
	<rect x="175.441" y="302.711" style="fill:#D5D6DB;" width="187.317" height="18.426"/>
	<rect x="175.441" y="380.503" style="fill:#D5D6DB;" width="187.317" height="18.426"/>
	<polygon style="fill:#D5D6DB;" points="65.561,127.48 143.403,88.056 65.561,88.056 	"/>
</g>
<g>
</g>
<g>
</g>
<g>
</g>
<g>
</g>
<g>
</g>
<g>
</g>
<g>
</g>
<g>
</g>
<g>
</g>
<g>
</g>
<g>
</g>
<g>
</g>
<g>
</g>
<g>
</g>
<g>
</g>
</svg>
