<?xml version="1.0" encoding="iso-8859-1"?>
<!-- Generator: Adobe Illustrator 19.0.0, SVG Export Plug-In . SVG Version: 6.00 Build 0)  -->
<svg version="1.1" id="Capa_1" xmlns="http://www.w3.org/2000/svg" xmlns:xlink="http://www.w3.org/1999/xlink" x="0px" y="0px"
	 viewBox="0 0 468.293 468.293" style="enable-background:new 0 0 468.293 468.293;" xml:space="preserve">
<path style="fill:#E1E6E9;" d="M65.461,13.967L0,79.427v294.704c0,6.897,5.591,12.488,12.488,12.488h263.256V26.455
	c0-6.897-5.591-12.488-12.488-12.488H65.461z"/>
<polygon style="fill:#D5D6DB;" points="65.46,79.427 65.458,13.967 0.001,79.428 "/>
<path style="fill:#EBF0F3;" d="M124.532,81.674l-65.461,65.461v294.704c0,6.897,5.591,12.488,12.488,12.488h250.768
	c6.897,0,12.488-5.591,12.488-12.488V94.162c0-6.897-5.591-12.488-12.488-12.488H124.532z"/>
<g>
	<polygon style="fill:#D5D6DB;" points="124.531,147.134 124.529,81.674 59.072,147.135 	"/>
	<path style="fill:#D5D6DB;" d="M395.703,139.688l-11.315,0c-6.466,0-9.703,7.818-5.13,12.389l38.326,38.31
		c2.834,2.833,7.428,2.832,10.261-0.001l38.307-38.306c4.571-4.571,1.334-12.387-5.131-12.387l-13.329-0.001
		c0,0-0.425-112.198-123.503-125.698c-4.14-0.454-5.782,5.167-1.988,6.884C350.337,33.616,392.113,65.013,395.703,139.688z"/>
	<rect x="160.468" y="131.528" style="fill:#D5D6DB;" width="133.463" height="15.61"/>
	<rect x="137.815" y="183.271" style="fill:#D5D6DB;" width="156.098" height="15.61"/>
	<rect x="137.815" y="235.02" style="fill:#D5D6DB;" width="156.098" height="15.61"/>
	<rect x="137.815" y="286.782" style="fill:#D5D6DB;" width="156.098" height="15.61"/>
	<rect x="137.815" y="338.501" style="fill:#D5D6DB;" width="156.098" height="15.61"/>
	<rect x="137.815" y="390.244" style="fill:#D5D6DB;" width="156.098" height="15.61"/>
	<rect x="99.959" y="183.246" style="fill:#D5D6DB;" width="18.732" height="15.61"/>
	<rect x="99.959" y="235.02" style="fill:#D5D6DB;" width="18.732" height="15.61"/>
	<rect x="99.959" y="286.72" style="fill:#D5D6DB;" width="18.732" height="15.61"/>
	<rect x="99.959" y="338.526" style="fill:#D5D6DB;" width="18.732" height="15.61"/>
	<rect x="99.959" y="390.244" style="fill:#D5D6DB;" width="18.732" height="15.61"/>
</g>
<g>
</g>
<g>
</g>
<g>
</g>
<g>
</g>
<g>
</g>
<g>
</g>
<g>
</g>
<g>
</g>
<g>
</g>
<g>
</g>
<g>
</g>
<g>
</g>
<g>
</g>
<g>
</g>
<g>
</g>
</svg>
