<?xml version="1.0" encoding="iso-8859-1"?>
<!-- Generator: Adobe Illustrator 19.0.0, SVG Export Plug-In . SVG Version: 6.00 Build 0)  -->
<svg version="1.1" id="Capa_1" xmlns="http://www.w3.org/2000/svg" xmlns:xlink="http://www.w3.org/1999/xlink" x="0px" y="0px"
	 viewBox="0 0 468.293 468.293" style="enable-background:new 0 0 468.293 468.293;" xml:space="preserve">
<path style="fill:#E1E6E9;" d="M365.268,426.162H103.024c-6.897,0-12.488-5.591-12.488-12.488V54.721
	c0-6.897,5.591-12.488,12.488-12.488h262.244c6.897,0,12.488,5.591,12.488,12.488v358.953
	C377.756,420.571,372.165,426.162,365.268,426.162z"/>
<g>
	<path style="fill:#2D93BA;" d="M206.029,12.798c13.408,0,24.316,10.908,24.316,24.316v5.117l0.001,0.003h12.796l0.001-0.003v-5.117
		C243.142,16.649,226.496,0,206.029,0s-37.113,16.649-37.113,37.113v97.664l-12.113-12.113c-2.5-2.5-6.549-2.5-9.048,0
		c-2.5,2.5-2.5,6.549,0,9.048l23.036,23.036c1.25,1.25,2.884,1.875,4.524,1.875c1.64,0,3.274-0.625,4.524-1.875l23.036-23.036
		c2.5-2.5,2.5-6.549,0-9.048c-2.5-2.5-6.549-2.5-9.048,0l-12.113,12.113V37.113C181.714,23.706,192.622,12.798,206.029,12.798z"/>
	<path style="fill:#2D93BA;" d="M262.263,455.495c-13.408,0-24.316-10.908-24.316-24.315v-5.117l-0.001-0.003h-12.796l-0.001,0.003
		v5.117c0,20.464,16.647,37.113,37.113,37.113s37.113-16.649,37.113-37.113v-97.664l12.113,12.113c2.5,2.5,6.549,2.5,9.048,0
		c2.5-2.5,2.5-6.549,0-9.048l-23.036-23.036c-1.25-1.25-2.884-1.875-4.524-1.875c-1.64,0-3.274,0.625-4.524,1.875l-23.036,23.036
		c-2.5,2.5-2.5,6.549,0,9.048s6.549,2.5,9.048,0l12.113-12.113v97.664C286.579,444.587,275.671,455.495,262.263,455.495z"/>
</g>
<g>
	<rect x="228.589" y="140.987" style="fill:#D5D6DB;" width="124.878" height="15.61"/>
	<rect x="115.512" y="195.172" style="fill:#D5D6DB;" width="237.268" height="15.61"/>
	<rect x="115.512" y="257.611" style="fill:#D5D6DB;" width="237.268" height="15.61"/>
	<rect x="228.589" y="91.036" style="fill:#D5D6DB;" width="124.878" height="15.61"/>
	<rect x="115.637" y="311.696" style="fill:#D5D6DB;" width="124.878" height="15.61"/>
	<rect x="115.637" y="361.647" style="fill:#D5D6DB;" width="124.878" height="15.61"/>
</g>
<g>
</g>
<g>
</g>
<g>
</g>
<g>
</g>
<g>
</g>
<g>
</g>
<g>
</g>
<g>
</g>
<g>
</g>
<g>
</g>
<g>
</g>
<g>
</g>
<g>
</g>
<g>
</g>
<g>
</g>
</svg>
