<?xml version="1.0" encoding="iso-8859-1"?>
<!-- Generator: Adobe Illustrator 19.0.0, SVG Export Plug-In . SVG Version: 6.00 Build 0)  -->
<svg version="1.1" id="Capa_1" xmlns="http://www.w3.org/2000/svg" xmlns:xlink="http://www.w3.org/1999/xlink" x="0px" y="0px"
	 viewBox="0 0 468.293 468.293" style="enable-background:new 0 0 468.293 468.293;" xml:space="preserve">
<path style="fill:#D5D6DB;" d="M163.368,29.269l-76.548,76.549v350.768c0,6.466,5.242,11.707,11.707,11.707h300.506
	c6.466,0,11.707-5.242,11.707-11.707V40.976c0-6.466-5.242-11.707-11.707-11.707H163.368z"/>
<path style="fill:#E1E6E9;" d="M134.1,0L57.552,76.549v350.768c0,6.466,5.242,11.707,11.707,11.707h300.506
	c6.466,0,11.707-5.242,11.707-11.707V11.708C381.473,5.242,376.231,0,369.765,0H134.1z"/>
<polygon style="fill:#EBF0F3;" points="134.099,76.549 134.099,0 57.552,76.549 "/>
<rect x="169.984" y="61.915" style="fill:#FCD462;" width="175.579" height="14.636"/>
<rect x="168.673" y="141.112" style="fill:#F6C358;" width="175.579" height="14.636"/>
<rect x="168.673" y="214.022" style="fill:#3EA69B;" width="175.579" height="14.636"/>
<rect x="168.673" y="286.907" style="fill:#E56353;" width="175.579" height="14.636"/>
<rect x="168.673" y="360.086" style="fill:#2D93BA;" width="175.579" height="14.049"/>
<rect x="94.745" y="127.956" style="fill:#FCD462;" width="40.972" height="40.972"/>
<rect x="94.745" y="200.854" style="fill:#44C4A1;" width="40.972" height="40.972"/>
<rect x="94.745" y="273.733" style="fill:#E56353;" width="40.972" height="40.972"/>
<rect x="94.745" y="346.661" style="fill:#27A2DB;" width="40.972" height="40.972"/>
<g>
</g>
<g>
</g>
<g>
</g>
<g>
</g>
<g>
</g>
<g>
</g>
<g>
</g>
<g>
</g>
<g>
</g>
<g>
</g>
<g>
</g>
<g>
</g>
<g>
</g>
<g>
</g>
<g>
</g>
</svg>
