<?xml version="1.0" encoding="iso-8859-1"?>
<!-- Generator: Adobe Illustrator 19.0.0, SVG Export Plug-In . SVG Version: 6.00 Build 0)  -->
<svg version="1.1" id="Capa_1" xmlns="http://www.w3.org/2000/svg" xmlns:xlink="http://www.w3.org/1999/xlink" x="0px" y="0px"
	 viewBox="0 0 468.293 468.293" style="enable-background:new 0 0 468.293 468.293;" xml:space="preserve">
<path style="fill:#44C4A1;" d="M140.915,73.214V51.65c0-6.897-5.591-12.488-12.488-12.488H12.488C5.591,39.162,0,44.753,0,51.65
	v34.052v62.548h468.293v-50.06c0-6.897-5.591-12.488-12.488-12.488H153.402C146.506,85.701,140.915,80.11,140.915,73.214z"/>
<path style="fill:#3EA69B;" d="M443.317,429.131H24.976C11.182,429.131,0,417.949,0,404.155V148.249h468.293v255.906
	C468.293,417.949,457.111,429.131,443.317,429.131z"/>
<circle style="fill:#44C4A1;" cx="234.146" cy="288.693" r="106.146"/>
<path style="fill:#EBF0F3;" d="M305.355,241.035c-5.447-6.201-14.889-6.814-21.089-1.366l-75.558,66.362l-24.003-23.871
	c-5.85-5.821-15.321-5.789-21.136,0.061c-5.821,5.853-5.798,15.318,0.058,21.139l33.911,33.721c2.908,2.887,6.72,4.347,10.539,4.347
	c3.515,0,7.036-1.232,9.861-3.716l86.05-75.581C310.195,256.683,310.802,247.239,305.355,241.035z"/>
<g>
</g>
<g>
</g>
<g>
</g>
<g>
</g>
<g>
</g>
<g>
</g>
<g>
</g>
<g>
</g>
<g>
</g>
<g>
</g>
<g>
</g>
<g>
</g>
<g>
</g>
<g>
</g>
<g>
</g>
</svg>
