<?xml version="1.0" encoding="iso-8859-1"?>
<!-- Generator: Adobe Illustrator 19.0.0, SVG Export Plug-In . SVG Version: 6.00 Build 0)  -->
<svg version="1.1" id="Capa_1" xmlns="http://www.w3.org/2000/svg" xmlns:xlink="http://www.w3.org/1999/xlink" x="0px" y="0px"
	 viewBox="0 0 468.293 468.293" style="enable-background:new 0 0 468.293 468.293;" xml:space="preserve">
<polygon style="fill:#E1E6E9;" points="405.418,0 405.418,468.293 62.877,468.293 62.877,73.241 136.056,0 "/>
<polygon style="fill:#EBF0F3;" points="62.875,73.241 136.057,0 136.056,73.241 "/>
<path style="fill:#E56353;" d="M351.946,351.955c-9.898,9.898-26.12,9.337-35.309-1.211l-33.743-42.962l-15.424-19.619
	l20.683-20.683l19.619,15.424l42.991,33.713C361.283,325.835,361.844,342.056,351.946,351.955z"/>
<polygon style="fill:#D5D6DB;" points="307.773,282.903 282.894,307.781 267.47,288.162 288.153,267.479 "/>
<ellipse style="fill:#2D93BA;" cx="210.611" cy="210.608" rx="101.332" ry="101.332"/>
<path style="fill:#EBF0F3;" d="M270.459,270.455c-33.006,33.006-86.712,33.006-119.719-0.002s-33.009-86.715-0.003-119.721
	c33.009-33.009,86.717-33.008,119.724,0S303.468,237.446,270.459,270.455z"/>
<path style="fill:#27A2DB;" d="M207.341,272.049v-10.823c-13.55-1.382-25.713-6.769-36.476-16.157l10.823-12.899
	c8.302,7.216,16.844,11.511,25.653,12.899v-28.766c-11.173-2.667-19.354-6.178-24.543-10.528c-5.188-4.35-7.783-10.799-7.783-19.348
	c0-8.549,2.98-15.541,8.965-20.983c5.985-5.436,13.768-8.398,23.36-8.893v-7.415h9.484v7.559
	c10.872,0.796,21.152,4.501,30.841,11.125l-9.641,13.641c-6.528-4.645-13.587-7.511-21.2-8.603v27.873h0.446
	c11.366,2.673,19.716,6.28,25.049,10.823c5.345,4.549,8.012,11.149,8.012,19.795c0,8.651-3.065,15.698-9.194,21.128
	c-6.13,5.442-14.226,8.404-24.313,8.899v10.673H207.341z M196.88,176.346c-2.522,2.22-3.777,4.989-3.777,8.302
	c0,3.312,0.989,5.931,2.968,7.855c1.967,1.931,5.731,3.783,11.27,5.563v-25.653C202.889,172.81,199.402,174.12,196.88,176.346z
	 M228.095,241.358c2.763-2.268,4.151-5.134,4.151-8.597c0-3.457-1.086-6.202-3.258-8.229c-2.184-2.027-6.238-3.928-12.163-5.707
	v26.684C221.567,245.02,225.32,243.633,228.095,241.358z"/>
<g>
	<rect x="177.077" y="42.022" style="fill:#D5D6DB;" width="187.317" height="18.732"/>
	<rect x="103.899" y="407.54" style="fill:#D5D6DB;" width="260.496" height="18.732"/>
</g>
<g>
</g>
<g>
</g>
<g>
</g>
<g>
</g>
<g>
</g>
<g>
</g>
<g>
</g>
<g>
</g>
<g>
</g>
<g>
</g>
<g>
</g>
<g>
</g>
<g>
</g>
<g>
</g>
<g>
</g>
</svg>
