<?xml version="1.0" encoding="iso-8859-1"?>
<!-- Generator: Adobe Illustrator 19.0.0, SVG Export Plug-In . SVG Version: 6.00 Build 0)  -->
<svg version="1.1" id="Capa_1" xmlns="http://www.w3.org/2000/svg" xmlns:xlink="http://www.w3.org/1999/xlink" x="0px" y="0px"
	 viewBox="0 0 468.293 468.293" style="enable-background:new 0 0 468.293 468.293;" xml:space="preserve">
<path style="fill:#E1E6E9;" d="M315.207,0H72.15c-6.897,0-12.488,5.591-12.488,12.488v443.317c0,6.897,5.591,12.488,12.488,12.488
	h323.992c6.897,0,12.488-5.591,12.488-12.488V93.423L315.207,0z"/>
<polygon style="fill:#EBF0F3;" points="315.207,93.423 408.63,93.423 315.206,0 "/>
<g>
	<rect x="98.541" y="132.745" style="fill:#64798A;" width="37.463" height="37.463"/>
	<rect x="98.541" y="218.999" style="fill:#64798A;" width="37.463" height="37.463"/>
	<rect x="98.541" y="305.264" style="fill:#64798A;" width="37.463" height="37.463"/>
	<rect x="98.541" y="391.493" style="fill:#64798A;" width="37.463" height="37.463"/>
</g>
<g>
	<rect x="167.212" y="138.989" style="fill:#D5D6DB;" width="202.533" height="24.976"/>
	<rect x="167.212" y="225.243" style="fill:#D5D6DB;" width="202.533" height="24.976"/>
	<rect x="167.212" y="311.508" style="fill:#D5D6DB;" width="202.533" height="24.976"/>
	<rect x="167.212" y="397.737" style="fill:#D5D6DB;" width="202.533" height="24.976"/>
</g>
<g>
</g>
<g>
</g>
<g>
</g>
<g>
</g>
<g>
</g>
<g>
</g>
<g>
</g>
<g>
</g>
<g>
</g>
<g>
</g>
<g>
</g>
<g>
</g>
<g>
</g>
<g>
</g>
<g>
</g>
</svg>
