<?xml version="1.0" encoding="iso-8859-1"?>
<!-- Generator: Adobe Illustrator 19.0.0, SVG Export Plug-In . SVG Version: 6.00 Build 0)  -->
<svg version="1.1" id="Capa_1" xmlns="http://www.w3.org/2000/svg" xmlns:xlink="http://www.w3.org/1999/xlink" x="0px" y="0px"
	 viewBox="0 0 468.293 468.293" style="enable-background:new 0 0 468.293 468.293;" xml:space="preserve">
<path style="fill:#E1E6E9;" d="M344.053,12.488v443.317c0,6.897-5.591,12.488-12.488,12.488H19.37
	c-6.897,0-12.488-5.591-12.488-12.488V95.095L102.039,0h229.526C338.462,0,344.053,5.591,344.053,12.488z"/>
<polygon style="fill:#EBF0F3;" points="6.882,95.094 102.037,0 102.038,95.094 "/>
<rect x="313.33" y="300.597" transform="matrix(-0.7071 0.7071 -0.7071 -0.7071 798.5847 310.7983)" style="fill:#64798A;" width="43.189" height="40.385"/>
<path style="fill:#3A556A;" d="M376.812,320.128l79.119,79.119c7.285,7.285,7.329,19.162,0,26.491l-16.027,16.027
	c-7.329,7.329-19.206,7.285-26.491,0l-79.119-79.119c-4.901-4.901-4.856-12.804,0-17.66l24.858-24.858
	C364.007,315.272,371.911,315.227,376.812,320.128z"/>
<ellipse style="fill:#1C75A1;" cx="245.701" cy="231.533" rx="124.879" ry="124.879"/>
<ellipse style="fill:#EBF0F3;" cx="245.695" cy="231.533" rx="106.147" ry="106.147"/>
<rect x="390.812" y="397.41" transform="matrix(-0.7071 0.7071 -0.7071 -0.7071 1006.1145 396.8015)" style="fill:#D5D6DB;" width="60.129" height="18.732"/>
<path style="fill:#E56353;" d="M301.889,165.268l-89.524,14.769v88.941c-2.539,0.126-5.208,0.624-7.879,1.554
	c-10.456,3.64-16.931,12.337-14.463,19.425c2.468,7.088,12.945,9.884,23.4,6.245c9.363-3.259,15.512-10.571,14.928-17.154h0.06
	v-84.241l57.431-11.077v66.787c-2.539,0.126-5.208,0.624-7.879,1.554c-10.456,3.64-16.932,12.337-14.463,19.425
	c2.468,7.088,12.945,9.884,23.4,6.245c9.363-3.259,15.512-10.571,14.928-17.154h0.06V165.268z"/>
<g>
</g>
<g>
</g>
<g>
</g>
<g>
</g>
<g>
</g>
<g>
</g>
<g>
</g>
<g>
</g>
<g>
</g>
<g>
</g>
<g>
</g>
<g>
</g>
<g>
</g>
<g>
</g>
<g>
</g>
</svg>
