<?xml version="1.0" encoding="iso-8859-1"?>
<!-- Generator: Adobe Illustrator 19.0.0, SVG Export Plug-In . SVG Version: 6.00 Build 0)  -->
<svg version="1.1" id="Capa_1" xmlns="http://www.w3.org/2000/svg" xmlns:xlink="http://www.w3.org/1999/xlink" x="0px" y="0px"
	 viewBox="0 0 468.293 468.293" style="enable-background:new 0 0 468.293 468.293;" xml:space="preserve">
<path style="fill:#E1E6E9;" d="M319.021,0H74.513c-6.897,0-12.488,5.591-12.488,12.488v443.317c0,6.897,5.591,12.488,12.488,12.488
	h319.266c6.897,0,12.488-5.591,12.488-12.488V87.246L319.021,0z"/>
<polygon style="fill:#EBF0F3;" points="319.022,87.246 406.266,87.246 319.02,0 "/>
<g>
	<path style="fill:#44C4A1;" d="M184.829,422.211l-8.243-14.085c-0.657-1.123-2.099-1.882-3.397-1.789l-16.278,1.168
		c-2.247,0.161-4.403-2.089-3.55-3.707l44.253-84.005l36.534,19.245l-44.253,84.005
		C189.042,424.661,185.967,424.156,184.829,422.211z"/>
	<path style="fill:#44C4A1;" d="M283.465,422.211l8.243-14.085c0.657-1.123,2.099-1.882,3.397-1.789l16.278,1.168
		c2.247,0.161,4.403-2.089,3.55-3.707l-44.253-84.005l-36.534,19.245l44.253,84.005
		C279.253,424.661,282.327,424.156,283.465,422.211z"/>
</g>
<path style="fill:#27A2DB;" d="M310.032,291.076l4.838-11.68c0.596-1.438,0.596-3.055,0-4.493l-4.838-11.68
	c-0.295-0.712-0.447-1.476-0.447-2.247v-12.643c0-1.557-0.619-3.05-1.72-4.151l-8.94-8.94c-0.545-0.545-0.978-1.192-1.273-1.905
	l-4.838-11.68c-0.596-1.439-1.739-2.581-3.177-3.177l-11.68-4.838c-0.712-0.295-1.359-0.727-1.905-1.273l-8.94-8.94
	c-1.101-1.101-2.594-1.719-4.151-1.719H250.32c-0.771,0-1.534-0.152-2.247-0.447l-11.681-4.838c-1.439-0.596-3.055-0.596-4.493,0
	l-11.68,4.838c-0.712,0.295-1.476,0.447-2.247,0.447H205.33c-1.557,0-3.05,0.618-4.151,1.719l-8.94,8.94
	c-0.545,0.545-1.192,0.978-1.905,1.273l-11.68,4.838c-1.438,0.596-2.581,1.739-3.177,3.177l-4.838,11.68
	c-0.295,0.712-0.727,1.359-1.273,1.904l-8.94,8.94c-1.101,1.101-1.719,2.594-1.719,4.151v12.643c0,0.771-0.152,1.534-0.447,2.247
	l-4.838,11.68c-0.596,1.439-0.596,3.055,0,4.493l4.838,11.68c0.295,0.712,0.447,1.476,0.447,2.247v12.642
	c0,1.557,0.619,3.05,1.719,4.151l8.94,8.94c0.545,0.545,0.978,1.192,1.273,1.904l4.838,11.68c0.596,1.438,1.739,2.581,3.177,3.177
	l11.68,4.838c0.712,0.295,1.359,0.727,1.905,1.273l8.94,8.94c1.101,1.101,2.594,1.719,4.151,1.719h12.643
	c0.771,0,1.534,0.152,2.247,0.447l11.68,4.838c1.438,0.596,3.055,0.596,4.493,0l11.681-4.838c0.712-0.295,1.476-0.447,2.247-0.447
	h12.643c1.557,0,3.05-0.619,4.151-1.719l8.94-8.94c0.545-0.545,1.192-0.978,1.905-1.273l11.68-4.838
	c1.439-0.596,2.581-1.739,3.177-3.177l4.838-11.68c0.295-0.712,0.727-1.36,1.273-1.905l8.94-8.94c1.101-1.101,1.72-2.594,1.72-4.151
	v-12.643C309.585,292.552,309.737,291.788,310.032,291.076z"/>
<path style="fill:#FCD462;" d="M229.211,331.341c-3.618-1.491-7.384-2.236-11.237-2.236h-5.349l-3.79-3.784
	c-2.689-2.706-5.899-4.856-9.494-6.349l-4.959-2.058l-2.041-4.93c-1.508-3.606-3.623-6.777-6.324-9.488l-3.83-3.827v-5.346
	c0-3.916-0.763-7.728-2.276-11.326l-2.001-4.847l2.047-4.945c1.468-3.523,2.23-7.324,2.23-11.228v-5.343l3.784-3.781
	c2.712-2.715,4.839-5.885,6.324-9.431l2.087-5.037l4.936-2.044c3.595-1.493,6.788-3.632,9.523-6.364l3.784-3.784h5.349
	c3.858,0,7.619-0.745,11.197-2.219l4.976-2.061l4.942,2.047c3.56,1.479,7.344,2.233,11.231,2.233h5.343l3.778,3.781
	c2.832,2.803,6.026,4.919,9.574,6.381l4.896,2.03l2.047,4.942c1.514,3.62,3.646,6.802,6.364,9.52l3.778,3.784v5.346
	c0,3.835,0.74,7.585,2.202,11.148l2.081,5.025l-2.047,4.942c-1.491,3.623-2.236,7.384-2.236,11.231v5.349l-3.778,3.778
	c-2.746,2.758-4.862,5.928-6.341,9.462l-2.07,5.005l-4.942,2.047c-3.532,1.453-6.736,3.586-9.483,6.318l-3.824,3.824h-5.343
	c-3.881,0-7.671,0.754-11.254,2.245l-4.919,2.035L229.211,331.341z"/>
<g>
	<rect x="96.862" y="68.514" style="fill:#D5D6DB;" width="187.317" height="18.732"/>
	<rect x="96.83" y="132.964" style="fill:#D5D6DB;" width="274.563" height="18.732"/>
</g>
<g>
</g>
<g>
</g>
<g>
</g>
<g>
</g>
<g>
</g>
<g>
</g>
<g>
</g>
<g>
</g>
<g>
</g>
<g>
</g>
<g>
</g>
<g>
</g>
<g>
</g>
<g>
</g>
<g>
</g>
</svg>
