<?xml version="1.0" encoding="iso-8859-1"?>
<!-- Generator: Adobe Illustrator 19.0.0, SVG Export Plug-In . SVG Version: 6.00 Build 0)  -->
<svg version="1.1" id="Capa_1" xmlns="http://www.w3.org/2000/svg" xmlns:xlink="http://www.w3.org/1999/xlink" x="0px" y="0px"
	 viewBox="0 0 468.293 468.293" style="enable-background:new 0 0 468.293 468.293;" xml:space="preserve">
<path style="fill:#44C4A1;" d="M148.951,14.634L76.097,87.487v354.464c0,6.466,5.242,11.707,11.707,11.707h292.683
	c6.466,0,11.707-5.242,11.707-11.707V26.341c0-6.466-5.242-11.707-11.707-11.707C380.488,14.634,148.951,14.634,148.951,14.634z"/>
<rect x="65.755" y="221.602" style="fill:#FCD462;" width="327.368" height="97.936"/>
<path style="fill:#E1E6E9;" d="M393.13,221.607l46.784,26.414l22.688,12.806c7.588,4.283,7.588,15.211,0,19.494l-22.688,12.806
	l-46.784,26.414V221.607z"/>
<path style="fill:#E56353;" d="M65.755,221.607v97.933H18.732C8.386,319.539,0,311.153,0,300.808v-60.469
	c0-10.345,8.386-18.732,18.732-18.732H65.755z"/>
<rect x="65.755" y="221.609" style="fill:#E1E6E9;" width="11.408" height="97.936"/>
<g>
	<rect x="78.361" y="264.979" style="fill:#F6C358;" width="314.755" height="11.195"/>
	<rect x="78.361" y="236.994" style="fill:#F6C358;" width="314.755" height="11.195"/>
	<rect x="78.361" y="292.964" style="fill:#F6C358;" width="314.755" height="11.195"/>
</g>
<path style="fill:#64798A;" d="M439.914,248.02l22.688,12.806c7.588,4.283,7.588,15.211,0,19.494l-22.688,12.806V248.02z"/>
<polygon style="fill:#3EA69B;" points="148.951,87.487 148.951,14.634 76.097,87.487 "/>
<g>
	<rect x="186.193" y="71.867" style="fill:#E1E6E9;" width="166.6" height="15.61"/>
	<rect x="115.512" y="122.755" style="fill:#E1E6E9;" width="237.268" height="15.61"/>
	<rect x="115.512" y="173.643" style="fill:#E1E6E9;" width="237.268" height="15.61"/>
	<rect x="115.512" y="353.342" style="fill:#E1E6E9;" width="237.268" height="15.61"/>
	<rect x="115.512" y="404.23" style="fill:#E1E6E9;" width="237.268" height="15.61"/>
</g>
<g>
</g>
<g>
</g>
<g>
</g>
<g>
</g>
<g>
</g>
<g>
</g>
<g>
</g>
<g>
</g>
<g>
</g>
<g>
</g>
<g>
</g>
<g>
</g>
<g>
</g>
<g>
</g>
<g>
</g>
</svg>
