<?xml version="1.0" encoding="iso-8859-1"?>
<!-- Generator: Adobe Illustrator 19.0.0, SVG Export Plug-In . SVG Version: 6.00 Build 0)  -->
<svg version="1.1" id="Capa_1" xmlns="http://www.w3.org/2000/svg" xmlns:xlink="http://www.w3.org/1999/xlink" x="0px" y="0px"
	 viewBox="0 0 468.293 468.293" style="enable-background:new 0 0 468.293 468.293;" xml:space="preserve">
<path style="fill:#44C4A1;" d="M124.994,468.293H31.22c-17.242,0-31.22-13.977-31.22-31.22V31.22C0,13.977,13.977,0,31.22,0h93.775
	c17.242,0,31.22,13.977,31.22,31.22v405.854C156.214,454.315,142.237,468.293,124.994,468.293z"/>
<path style="fill:#27A2DB;" d="M281.034,468.293h-93.775c-17.242,0-31.22-13.977-31.22-31.22V31.22
	c0-17.242,13.977-31.22,31.22-31.22h93.775c17.242,0,31.22,13.977,31.22,31.22v405.854
	C312.253,454.315,298.276,468.293,281.034,468.293z"/>
<path style="fill:#E56353;" d="M437.073,468.293h-93.775c-17.242,0-31.22-13.977-31.22-31.22V31.22
	c0-17.242,13.977-31.22,31.22-31.22h93.775c17.242,0,31.22,13.977,31.22,31.22v405.854
	C468.293,454.315,454.315,468.293,437.073,468.293z"/>
<rect x="28.16" y="45.899" style="fill:#EBF0F3;" width="99.902" height="185.282"/>
<g>
	<rect x="46.892" y="132.296" style="fill:#2D93BA;" width="62.439" height="12.488"/>
	<rect x="46.892" y="169.759" style="fill:#2D93BA;" width="62.439" height="12.488"/>
	<rect x="46.892" y="94.832" style="fill:#2D93BA;" width="62.439" height="12.488"/>
</g>
<circle style="fill:#64798A;" cx="78.111" cy="375.571" r="46.829"/>
<path style="fill:#3A556A;" d="M42.985,387.269c0-25.863,20.966-46.829,46.829-46.829c9.939,0,19.14,3.118,26.722,8.4
	c-8.461-12.144-22.506-20.108-38.429-20.108c-25.863,0-46.829,20.966-46.829,46.829c0,15.923,7.963,29.968,20.108,38.429
	C46.103,406.409,42.985,397.209,42.985,387.269z"/>
<rect x="184.195" y="45.899" style="fill:#EBF0F3;" width="99.902" height="185.282"/>
<g>
	<rect x="202.927" y="132.296" style="fill:#2D93BA;" width="62.439" height="12.488"/>
	<rect x="202.927" y="169.759" style="fill:#2D93BA;" width="62.439" height="12.488"/>
	<rect x="202.927" y="94.832" style="fill:#2D93BA;" width="62.439" height="12.488"/>
</g>
<circle style="fill:#64798A;" cx="234.146" cy="375.571" r="46.829"/>
<path style="fill:#3A556A;" d="M199.024,387.269c0-25.863,20.966-46.829,46.829-46.829c9.939,0,19.14,3.118,26.722,8.4
	c-8.461-12.144-22.506-20.108-38.429-20.108c-25.863,0-46.829,20.966-46.829,46.829c0,15.923,7.963,29.968,20.108,38.429
	C202.143,406.409,199.024,397.209,199.024,387.269z"/>
<rect x="340.236" y="45.899" style="fill:#EBF0F3;" width="99.902" height="185.282"/>
<g>
	<rect x="358.968" y="132.296" style="fill:#2D93BA;" width="62.439" height="12.488"/>
	<rect x="358.968" y="169.759" style="fill:#2D93BA;" width="62.439" height="12.488"/>
	<rect x="358.968" y="94.832" style="fill:#2D93BA;" width="62.439" height="12.488"/>
</g>
<circle style="fill:#64798A;" cx="390.188" cy="375.571" r="46.829"/>
<path style="fill:#3A556A;" d="M355.064,387.269c0-25.863,20.966-46.829,46.829-46.829c9.939,0,19.14,3.118,26.722,8.4
	c-8.461-12.144-22.506-20.108-38.429-20.108c-25.863,0-46.829,20.966-46.829,46.829c0,15.923,7.963,29.968,20.108,38.429
	C358.182,406.409,355.064,397.209,355.064,387.269z"/>
<g>
</g>
<g>
</g>
<g>
</g>
<g>
</g>
<g>
</g>
<g>
</g>
<g>
</g>
<g>
</g>
<g>
</g>
<g>
</g>
<g>
</g>
<g>
</g>
<g>
</g>
<g>
</g>
<g>
</g>
</svg>
