<?xml version="1.0" encoding="iso-8859-1"?>
<!-- Generator: Adobe Illustrator 19.0.0, SVG Export Plug-In . SVG Version: 6.00 Build 0)  -->
<svg version="1.1" id="Capa_1" xmlns="http://www.w3.org/2000/svg" xmlns:xlink="http://www.w3.org/1999/xlink" x="0px" y="0px"
	 viewBox="0 0 468.293 468.293" style="enable-background:new 0 0 468.293 468.293;" xml:space="preserve">
<path style="fill:#E1E6E9;" d="M390.244,0H78.049c-6.897,0-12.488,5.591-12.488,12.488v443.317c0,6.897,5.591,12.488,12.488,12.488
	h231.049l93.634-93.634V12.488C402.732,5.591,397.141,0,390.244,0z"/>
<polygon style="fill:#EBF0F3;" points="309.098,468.293 402.732,374.659 309.098,374.659 "/>
<path style="fill:#44C4A1;" d="M305.957,218.593H162.335c-5.169,0-9.36-4.19-9.36-9.36v-14.99c0-17.631,11.666-33.135,28.607-38.019
	l52.563-15.152l52.564,15.152c16.941,4.884,28.607,20.388,28.607,38.019v14.99C315.317,214.403,311.127,218.593,305.957,218.593z"/>
<path style="fill:#F6C358;" d="M261.015,161.404c0,18.05-53.738,18.05-53.738,0l5.751-42.508h42.236L261.015,161.404z"/>
<path style="fill:#64798A;" d="M282.969,97.457c1.451-3.827,2.758-7.806,2.719-11.899c-0.042-4.434-1.656-8.684-3.281-12.81
	c-2.632-6.682-5.414-13.439-9.937-19.018c-6.43-7.934-15.91-12.866-25.647-15.947c-7.582-2.399-16.584-3.568-22.874,1.297
	c-1.096,0.847-2.121,1.883-3.458,2.247c-1.535,0.418-3.141-0.137-4.707-0.418c-7.57-1.36-14.652,3.681-20.694,8.439
	c-2.404,1.893-4.842,3.822-6.619,6.313c-2.245,3.147-3.287,6.981-4.076,10.765c-1.422,6.825-2.158,13.861-1.29,20.778
	c0.747,5.948,2.66,11.679,4.562,17.364c2.105,6.291,5.406,13.628,11.979,14.526c5.518,0.754,10.302-3.558,15.576-5.347
	c3.71-1.259,7.712-1.256,11.63-1.24c7.72,0.032,15.44,0.063,23.16,0.095c3.636,0.015,7.292,0.019,10.914,0.387
	c3.355,0.341,8.178,2.783,11.297,2.534C277.806,115.074,281.081,102.436,282.969,97.457z"/>
<path style="fill:#FCD462;" d="M277.26,101.848c-1.99,18.133-20.504,50.98-43.05,50.98c-23.874,0-43.227-36.831-43.227-54.022
	c4.836-4.068,10.365-7.603,15.201-11.672c1.934-1.627,3.872-3.258,5.614-5.089c3.196-3.358,5.69-7.377,7.305-11.721
	c0.693-1.865,3.193-2.177,4.339-0.551l6.658,9.45c1.398,1.984,2.845,4.017,4.879,5.341c3.633,2.366,8.313,2.016,12.647,1.905
	c4.987-0.128,9.984,0.175,14.919,0.906c3.417,0.506,6.903,1.257,9.756,3.209C275.524,92.788,277.686,97.968,277.26,101.848z"/>
<g>
	<rect x="96.781" y="254.314" style="fill:#D5D6DB;" width="274.732" height="15.61"/>
	<rect x="96.781" y="305.764" style="fill:#D5D6DB;" width="224.78" height="15.61"/>
	<rect x="96.781" y="357.239" style="fill:#D5D6DB;" width="174.829" height="15.61"/>
	<rect x="96.781" y="408.707" style="fill:#D5D6DB;" width="124.878" height="15.61"/>
</g>
<g>
</g>
<g>
</g>
<g>
</g>
<g>
</g>
<g>
</g>
<g>
</g>
<g>
</g>
<g>
</g>
<g>
</g>
<g>
</g>
<g>
</g>
<g>
</g>
<g>
</g>
<g>
</g>
<g>
</g>
</svg>
