<?xml version="1.0" encoding="iso-8859-1"?>
<!-- Generator: Adobe Illustrator 19.0.0, SVG Export Plug-In . SVG Version: 6.00 Build 0)  -->
<svg version="1.1" id="Capa_1" xmlns="http://www.w3.org/2000/svg" xmlns:xlink="http://www.w3.org/1999/xlink" x="0px" y="0px"
	 viewBox="0 0 468.293 468.293" style="enable-background:new 0 0 468.293 468.293;" xml:space="preserve">
<path style="fill:#64798A;" d="M436.578,146.419H31.714V67.56c0-6.768,5.486-12.254,12.254-12.254h60.686
	c4.149,0,8.015,2.099,10.276,5.578l20.617,31.733c2.26,3.479,6.127,5.578,10.276,5.578h278.502c6.768,0,12.254,5.486,12.254,12.254
	V146.419z"/>
<path style="fill:#D5D6DB;" d="M12.256,135.143h443.78c7.462,0,13.192,6.613,12.129,13.999l-33.942,248.082
	c-1.302,9.047-9.053,15.762-18.193,15.762H52.262c-9.14,0-16.891-6.716-18.193-15.762L0.127,149.142
	C-0.936,141.756,4.794,135.143,12.256,135.143z"/>
<circle style="fill:#E1E6E9;" cx="234.146" cy="274.045" r="109.268"/>
<g>
	<path style="fill:#64798A;" d="M201.413,320.059h-38.35v-87.608h34.086c5.936,0,11.056,0.714,15.36,2.132
		c4.294,1.423,7.497,3.345,9.587,5.768c4.008,4.508,6.007,9.608,6.007,15.289c0,6.854-2.173,11.949-6.517,15.289
		c-1.581,1.173-2.672,1.902-3.254,2.193c-0.581,0.296-1.632,0.775-3.131,1.443c5.426,1.173,9.751,3.616,12.974,7.333
		c3.213,3.718,4.824,8.333,4.824,13.846c0,6.099-2.091,11.49-6.273,16.171C221.802,317.346,213.357,320.059,201.413,320.059z
		 M177.853,268.796h18.798c10.699,0,16.044-3.631,16.044-10.903c0-4.177-1.295-7.186-3.886-9.021
		c-2.591-1.836-6.599-2.759-12.035-2.759h-18.92V268.796z M177.853,306.397h23.183c5.436,0,9.587-0.857,12.474-2.57
		c2.876-1.708,4.325-4.947,4.325-9.71c0-7.772-6.232-11.658-18.675-11.658h-21.307V306.397z"/>
	<path style="fill:#64798A;" d="M285.252,252.38c8.945,0,16.584,3.09,22.938,9.276c6.354,6.181,9.526,14.412,9.526,24.688
		s-3.152,18.634-9.465,25.065c-6.303,6.436-13.657,9.654-22.051,9.654c-8.404,0-15.942-3.677-22.622-11.031v10.026h-14.045v-92.993
		h14.045v37.972C269.086,256.598,276.318,252.38,285.252,252.38z M263.324,286.844c0,6.354,1.918,11.556,5.763,15.605
		c3.845,4.054,8.527,6.079,14.045,6.079c5.508,0,10.312-2.004,14.412-6.018c4.09-4.008,6.14-9.21,6.14-15.6
		c0-6.395-2.009-11.699-6.018-15.921c-4.008-4.217-8.812-6.329-14.412-6.329c-5.599,0-10.322,2.111-14.167,6.329
		C265.241,275.212,263.324,280.495,263.324,286.844z"/>
</g>
<g>
</g>
<g>
</g>
<g>
</g>
<g>
</g>
<g>
</g>
<g>
</g>
<g>
</g>
<g>
</g>
<g>
</g>
<g>
</g>
<g>
</g>
<g>
</g>
<g>
</g>
<g>
</g>
<g>
</g>
</svg>
