<?xml version="1.0" encoding="iso-8859-1"?>
<!-- Generator: Adobe Illustrator 19.0.0, SVG Export Plug-In . SVG Version: 6.00 Build 0)  -->
<svg version="1.1" id="Capa_1" xmlns="http://www.w3.org/2000/svg" xmlns:xlink="http://www.w3.org/1999/xlink" x="0px" y="0px"
	 viewBox="0 0 468.305 468.305" style="enable-background:new 0 0 468.305 468.305;" xml:space="preserve">
<path style="fill:#64798A;" d="M371.948,421.617H243.802v-74.198c0-5.331-4.319-9.651-9.65-9.651c-5.331,0-9.651,4.319-9.651,9.651
	v74.198H96.352c-5.331,0-9.651,4.319-9.651,9.651c0,5.331,4.319,9.65,9.651,9.65h275.595c5.331,0,9.651-4.32,9.651-9.65
	C381.598,425.936,377.279,421.617,371.948,421.617z"/>
<path style="fill:#FCD462;" d="M414.964,226.388H53.341V19.287C53.341,8.635,61.976,0,72.628,0h78.909
	c6.067,0,11.78,2.855,15.423,7.706l28.251,37.625c3.643,4.852,9.356,7.706,15.423,7.706h185.043
	c10.652,0,19.287,8.635,19.287,19.287V226.388z"/>
<path style="fill:#F6C358;" d="M369.921,347.418H98.384c-32.773,0-59.34-26.567-59.34-59.34V107.424h390.217v180.654
	C429.261,320.851,402.693,347.418,369.921,347.418z"/>
<circle style="fill:#2D93BA;" cx="234.153" cy="429.705" r="38.6"/>
<circle style="fill:#27A2DB;" cx="234.153" cy="429.705" r="22.516"/>
<g>
</g>
<g>
</g>
<g>
</g>
<g>
</g>
<g>
</g>
<g>
</g>
<g>
</g>
<g>
</g>
<g>
</g>
<g>
</g>
<g>
</g>
<g>
</g>
<g>
</g>
<g>
</g>
<g>
</g>
</svg>
