<?xml version="1.0" encoding="iso-8859-1"?>
<!-- Generator: Adobe Illustrator 19.0.0, SVG Export Plug-In . SVG Version: 6.00 Build 0)  -->
<svg version="1.1" id="Capa_1" xmlns="http://www.w3.org/2000/svg" xmlns:xlink="http://www.w3.org/1999/xlink" x="0px" y="0px"
	 viewBox="0 0 468.293 468.293" style="enable-background:new 0 0 468.293 468.293;" xml:space="preserve">
<path style="fill:#E1E6E9;" d="M239.276,18.911H12.488C5.591,18.911,0,24.502,0,31.398v405.496c0,6.897,5.591,12.488,12.488,12.488
	h284.964c6.897,0,12.488-5.591,12.488-12.488V89.575L239.276,18.911z"/>
<polygon style="fill:#EBF0F3;" points="239.276,89.575 309.94,89.575 239.276,18.911 "/>
<path style="fill:#E56353;" d="M432.698,449.382h-55.083c-19.658,0-35.594-15.936-35.594-35.594v-156.55h126.272v156.55
	C468.293,433.446,452.357,449.382,432.698,449.382z"/>
<rect x="356.215" y="183.021" style="fill:#E1E6E9;" width="97.854" height="74.215"/>
<g>
	<rect x="402.045" y="183.021" style="fill:#D5D6DB;" width="6.225" height="74.215"/>
	<rect x="367.391" y="200.704" style="fill:#D5D6DB;" width="25.819" height="14.904"/>
	<rect x="417.155" y="200.704" style="fill:#D5D6DB;" width="25.819" height="14.904"/>
</g>
<circle style="fill:#D15241;" cx="405.167" cy="410.599" r="19.256"/>
<g>
	<rect x="36.333" y="214.647" style="fill:#D5D6DB;" width="237.268" height="15.61"/>
	<rect x="36.333" y="144.309" style="fill:#D5D6DB;" width="237.268" height="15.61"/>
	<rect x="36.333" y="73.965" style="fill:#D5D6DB;" width="156.909" height="15.61"/>
	<rect x="36.333" y="284.972" style="fill:#D5D6DB;" width="237.268" height="15.61"/>
	<rect x="36.333" y="355.34" style="fill:#D5D6DB;" width="237.268" height="15.61"/>
</g>
<g>
</g>
<g>
</g>
<g>
</g>
<g>
</g>
<g>
</g>
<g>
</g>
<g>
</g>
<g>
</g>
<g>
</g>
<g>
</g>
<g>
</g>
<g>
</g>
<g>
</g>
<g>
</g>
<g>
</g>
</svg>
