<?xml version="1.0" encoding="iso-8859-1"?>
<!-- Generator: Adobe Illustrator 19.0.0, SVG Export Plug-In . SVG Version: 6.00 Build 0)  -->
<svg version="1.1" id="Capa_1" xmlns="http://www.w3.org/2000/svg" xmlns:xlink="http://www.w3.org/1999/xlink" x="0px" y="0px"
	 viewBox="0 0 468.293 468.293" style="enable-background:new 0 0 468.293 468.293;" xml:space="preserve">
<path style="fill:#E1E6E9;" d="M403.293,468.293H93.86c-6.897,0-12.488-5.591-12.488-12.488V12.488C81.372,5.591,86.963,0,93.86,0
	h309.432c6.897,0,12.488,5.591,12.488,12.488v443.317C415.78,462.702,410.189,468.293,403.293,468.293z"/>
<path style="fill:#44C4A1;" d="M277.15,157.405H81.373l-28.861,13.702V66.959c0-6.716,5.444-12.16,12.16-12.16H277.15l48.641,51.303
	L277.15,157.405z"/>
<path style="fill:#3EA69B;" d="M81.372,184.808H66.214c-7.567,0-13.702-6.134-13.702-13.702v0c0-7.567,6.134-13.702,13.702-13.702
	h15.158V184.808z"/>
<g>
	<path style="fill:#EBF0F3;" d="M85.208,93.065c-1.769,0-3.22,0.361-4.352,1.082c-1.136,0.723-1.702,1.813-1.702,3.272
		c0,1.461,0.566,2.576,1.702,3.348c1.132,0.774,3.543,1.608,7.237,2.499c3.69,0.895,6.474,2.149,8.348,3.761
		c1.87,1.616,2.805,3.994,2.805,7.136c0,3.143-1.182,5.694-3.556,7.652c-2.369,1.958-5.476,2.937-9.325,2.937
		c-5.631,0-10.629-1.941-14.989-5.822l3.811-4.587c3.639,3.161,7.417,4.74,11.333,4.74c1.958,0,3.514-0.419,4.662-1.262
		c1.153-0.841,1.727-1.958,1.727-3.348c0-1.392-0.541-2.474-1.623-3.247c-1.082-0.771-2.948-1.476-5.589-2.111
		c-2.646-0.635-4.658-1.22-6.029-1.753c-1.375-0.532-2.595-1.226-3.66-2.086c-2.13-1.614-3.191-4.088-3.191-7.419
		c0-3.331,1.208-5.899,3.631-7.702c2.419-1.803,5.417-2.704,8.989-2.704c2.302,0,4.587,0.377,6.851,1.132
		c2.268,0.757,4.226,1.822,5.874,3.195l-3.245,4.585c-1.065-0.96-2.507-1.751-4.327-2.369
		C88.771,93.375,86.977,93.065,85.208,93.065z"/>
	<path style="fill:#EBF0F3;" d="M106.767,88.325h6.08v17.57l16.486-17.57h7.727l-14.478,15.767l14.683,20.247h-7.212L118.1,108.574
		l-5.254,5.667v10.098h-6.08V88.325z"/>
	<path style="fill:#EBF0F3;" d="M168.334,88.325v5.719h-19.216v9.532h17.258v5.409h-17.258v9.635h19.836v5.719h-25.916V88.325
		H168.334z"/>
	<path style="fill:#EBF0F3;" d="M190.334,93.891v30.448h-6.08V93.891h-10.922v-5.566h27.924v5.566H190.334z"/>
	<path style="fill:#EBF0F3;" d="M224.287,118.826c2.092,0,3.895-0.35,5.409-1.054c1.509-0.704,3.09-1.83,4.742-3.375l3.912,4.019
		c-3.811,4.224-8.44,6.337-13.882,6.337c-5.446,0-9.962-1.753-13.551-5.256c-3.589-3.503-5.384-7.935-5.384-13.293
		c0-5.358,1.828-9.822,5.488-13.396c3.656-3.57,8.277-5.356,13.857-5.356c5.581,0,10.243,2.061,13.987,6.182l-3.862,4.224
		c-1.719-1.648-3.342-2.799-4.872-3.453c-1.526-0.652-3.321-0.979-5.384-0.979c-3.639,0-6.696,1.178-9.17,3.53
		c-2.474,2.352-3.711,5.358-3.711,9.017s1.229,6.715,3.685,9.17C218.011,117.599,220.92,118.826,224.287,118.826z"/>
	<path style="fill:#EBF0F3;" d="M245.771,124.339V88.325h6.08v15.612h17.878V88.325h6.08v36.014h-6.08v-14.736h-17.878v14.736
		H245.771z"/>
</g>
<g>
	<polygon style="fill:#F6C358;" points="365.297,266.728 291.544,266.728 304.374,205.805 	"/>
	<polygon style="fill:#F6C358;" points="205.571,266.728 131.88,266.728 192.742,205.805 	"/>
	<polygon style="fill:#F6C358;" points="304.374,205.805 291.544,266.728 205.571,266.728 192.742,205.805 	"/>
</g>
<polyline style="fill:#FCD462;" points="365.271,266.705 248.563,419.893 131.856,266.705 "/>
<g>
	<polygon style="fill:#F6C358;" points="248.563,205.808 205.571,266.704 291.556,266.705 	"/>
	<polygon style="fill:#F6C358;" points="248.564,419.893 291.556,266.728 205.571,266.728 	"/>
</g>
<g>
	<polygon style="fill:#FCD462;" points="248.558,205.805 205.571,266.728 192.742,205.805 	"/>
	<polygon style="fill:#FCD462;" points="304.374,205.805 291.544,266.728 248.558,205.805 	"/>
</g>
<g>
</g>
<g>
</g>
<g>
</g>
<g>
</g>
<g>
</g>
<g>
</g>
<g>
</g>
<g>
</g>
<g>
</g>
<g>
</g>
<g>
</g>
<g>
</g>
<g>
</g>
<g>
</g>
<g>
</g>
</svg>
