<?xml version="1.0" encoding="iso-8859-1"?>
<!-- Generator: Adobe Illustrator 19.0.0, SVG Export Plug-In . SVG Version: 6.00 Build 0)  -->
<svg version="1.1" id="Capa_1" xmlns="http://www.w3.org/2000/svg" xmlns:xlink="http://www.w3.org/1999/xlink" x="0px" y="0px"
	 viewBox="0 0 468.293 468.293" style="enable-background:new 0 0 468.293 468.293;" xml:space="preserve">
<path style="fill:#F6C358;" d="M377.586,301.026H0V193.539c0-20.69,16.773-37.463,37.463-37.463h340.122V301.026z"/>
<polygon style="fill:#E1E6E9;" points="117.33,2.993 53.621,66.702 53.621,295.111 414.672,295.111 414.672,2.993 "/>
<polygon style="fill:#EBF0F3;" points="117.33,66.702 117.33,2.993 53.621,66.702 "/>
<g>
	<rect x="153.6" y="54.216" style="fill:#D5D6DB;" width="224.78" height="13.131"/>
	<rect x="87.689" y="102.444" style="fill:#D5D6DB;" width="292.914" height="13.131"/>
	<rect x="87.689" y="150.678" style="fill:#D5D6DB;" width="292.914" height="13.131"/>
</g>
<path style="fill:#FCD462;" d="M449.561,465.299H18.732C8.386,465.299,0,456.913,0,446.568V239.519
	c0-20.69,16.773-37.463,37.463-37.463h192.177c15.352,0,29.15-9.366,34.817-23.633l20.909-52.637
	c5.667-14.267,19.465-23.633,34.817-23.633h110.645c20.69,0,37.463,16.773,37.463,37.463v306.951
	C468.293,456.913,459.906,465.299,449.561,465.299z"/>
<g>
</g>
<g>
</g>
<g>
</g>
<g>
</g>
<g>
</g>
<g>
</g>
<g>
</g>
<g>
</g>
<g>
</g>
<g>
</g>
<g>
</g>
<g>
</g>
<g>
</g>
<g>
</g>
<g>
</g>
</svg>
