<?xml version="1.0" encoding="iso-8859-1"?>
<!-- Generator: Adobe Illustrator 19.0.0, SVG Export Plug-In . SVG Version: 6.00 Build 0)  -->
<svg version="1.1" id="Capa_1" xmlns="http://www.w3.org/2000/svg" xmlns:xlink="http://www.w3.org/1999/xlink" x="0px" y="0px"
	 viewBox="0 0 468.293 468.293" style="enable-background:new 0 0 468.293 468.293;" xml:space="preserve">
<g>
	<path style="fill:#3A556A;" d="M381.256,191.928c-3.659-3.659-9.585-3.659-13.244,0l-8.988,8.988v-99.588
		c0-5.174-4.192-9.366-9.366-9.366h-112.39c-5.174,0-9.366,4.192-9.366,9.366c0,5.174,4.192,9.366,9.366,9.366h103.024v90.223
		l-8.988-8.988c-3.659-3.659-9.585-3.659-13.244,0c-3.659,3.655-3.659,9.588,0,13.244l24.964,24.964
		c0.871,0.875,1.917,1.57,3.076,2.047c0.045,0.019,0.092,0.025,0.137,0.043c1.062,0.418,2.21,0.666,3.42,0.666
		s2.359-0.248,3.42-0.666c0.045-0.018,0.092-0.024,0.137-0.043c1.16-0.477,2.205-1.173,3.076-2.047l24.964-24.964
		C384.915,201.516,384.915,195.583,381.256,191.928z"/>
	<path style="fill:#3A556A;" d="M231.024,357.598H128v-89.421l8.988,8.988c1.829,1.829,4.226,2.744,6.622,2.744
		c2.396,0,4.793-0.915,6.622-2.744c3.659-3.655,3.659-9.588,0-13.244l-23.168-23.168c-1.506-3.155-4.699-5.35-8.429-5.35
		c-3.73,0-6.923,2.195-8.429,5.35l-23.168,23.168c-3.659,3.655-3.659,9.588,0,13.244c3.659,3.659,9.585,3.659,13.244,0l8.988-8.988
		v98.787c0,5.174,4.192,9.366,9.366,9.366h112.39c5.174,0,9.366-4.192,9.366-9.366C240.39,361.79,236.198,357.598,231.024,357.598z"
		/>
</g>
<path style="fill:#FCD462;" d="M222.207,202.656H15.061C6.743,202.656,0,195.913,0,187.595V15.061C0,6.743,6.743,0,15.061,0h36.681
	c4.22,0,8.247,1.771,11.099,4.881l18.676,20.361c2.853,3.11,6.879,4.881,11.099,4.881h129.59c8.318,0,15.061,6.743,15.061,15.061
	v142.412C237.268,195.913,230.525,202.656,222.207,202.656z"/>
<rect y="65.411" style="fill:#F6C358;" width="237.268" height="22.615"/>
<path style="fill:#FCD462;" d="M453.232,468.293H246.085c-8.318,0-15.061-6.743-15.061-15.061V280.697
	c0-8.318,6.743-15.061,15.061-15.061h36.681c4.22,0,8.247,1.771,11.099,4.881l18.676,20.361c2.853,3.11,6.879,4.881,11.099,4.881
	h129.59c8.318,0,15.061,6.743,15.061,15.061v142.412C468.293,461.55,461.55,468.293,453.232,468.293z"/>
<rect x="231.024" y="331.052" style="fill:#F6C358;" width="237.268" height="22.615"/>
<g>
</g>
<g>
</g>
<g>
</g>
<g>
</g>
<g>
</g>
<g>
</g>
<g>
</g>
<g>
</g>
<g>
</g>
<g>
</g>
<g>
</g>
<g>
</g>
<g>
</g>
<g>
</g>
<g>
</g>
</svg>
