<?xml version="1.0" encoding="iso-8859-1"?>
<!-- Generator: Adobe Illustrator 19.0.0, SVG Export Plug-In . SVG Version: 6.00 Build 0)  -->
<svg version="1.1" id="Capa_1" xmlns="http://www.w3.org/2000/svg" xmlns:xlink="http://www.w3.org/1999/xlink" x="0px" y="0px"
	 viewBox="0 0 468.293 468.293" style="enable-background:new 0 0 468.293 468.293;" xml:space="preserve">
<path style="fill:#64798A;" d="M76.931,455.805V74.141c0-6.897,5.591-12.488,12.488-12.488h289.456
	c6.897,0,12.488,5.591,12.488,12.488v381.664c0,6.897-5.591,12.488-12.488,12.488H89.418
	C82.522,468.293,76.931,462.702,76.931,455.805z"/>
<rect x="95.426" y="78.361" style="fill:#EBF0F3;" width="277.417" height="373.267"/>
<path style="fill:#27A2DB;" d="M298.302,37.885h-26.271C272.031,16.962,255.07,0,234.146,0s-37.885,16.962-37.885,37.885H169.99
	c-5.788,0-10.797,4.025-12.042,9.678l-8.429,38.26c-1.695,7.695,4.163,14.984,12.042,14.984h145.17
	c7.879,0,13.737-7.289,12.042-14.984l-8.43-38.26C309.099,41.91,304.09,37.885,298.302,37.885z"/>
<circle style="fill:#EBF0F3;" cx="234.146" cy="35.222" r="21.473"/>
<g>
	<rect x="175.067" y="143.966" style="fill:#D5D6DB;" width="161.698" height="15.61"/>
	<rect x="175.067" y="193.605" style="fill:#D5D6DB;" width="161.698" height="15.61"/>
	<rect x="175.067" y="243.262" style="fill:#D5D6DB;" width="161.698" height="15.61"/>
	<rect x="175.067" y="292.901" style="fill:#D5D6DB;" width="161.698" height="15.61"/>
	<rect x="175.067" y="342.54" style="fill:#D5D6DB;" width="161.698" height="15.61"/>
	<rect x="175.067" y="392.179" style="fill:#D5D6DB;" width="161.698" height="15.61"/>
	<rect x="131.528" y="143.966" style="fill:#D5D6DB;" width="24.332" height="15.61"/>
	<rect x="131.528" y="193.605" style="fill:#D5D6DB;" width="24.332" height="15.61"/>
	<rect x="131.528" y="243.262" style="fill:#D5D6DB;" width="24.332" height="15.61"/>
	<rect x="131.528" y="292.901" style="fill:#D5D6DB;" width="24.332" height="15.61"/>
	<rect x="131.528" y="342.54" style="fill:#D5D6DB;" width="24.332" height="15.61"/>
	<rect x="131.528" y="392.179" style="fill:#D5D6DB;" width="24.332" height="15.61"/>
</g>
<g>
</g>
<g>
</g>
<g>
</g>
<g>
</g>
<g>
</g>
<g>
</g>
<g>
</g>
<g>
</g>
<g>
</g>
<g>
</g>
<g>
</g>
<g>
</g>
<g>
</g>
<g>
</g>
<g>
</g>
</svg>
