<?xml version="1.0" encoding="iso-8859-1"?>
<!-- Generator: Adobe Illustrator 19.0.0, SVG Export Plug-In . SVG Version: 6.00 Build 0)  -->
<svg version="1.1" id="Capa_1" xmlns="http://www.w3.org/2000/svg" xmlns:xlink="http://www.w3.org/1999/xlink" x="0px" y="0px"
	 viewBox="0 0 467.57 467.57" style="enable-background:new 0 0 467.57 467.57;" xml:space="preserve">
<path style="fill:#2D93BA;" d="M447.817,311.213L130.521,436.616c-16.035,6.337-34.171-1.524-40.509-17.559L2.194,196.867
	c-6.338-16.035,1.524-34.172,17.559-40.51L337.049,30.954c16.035-6.337,34.171,1.524,40.509,17.559l87.818,222.19
	C471.714,286.738,463.852,304.875,447.817,311.213z"/>
<path style="fill:#27A2DB;" d="M415.458,400.423H61.661c-17.242,0-31.22-13.977-31.22-31.22v-248.35
	c0-17.242,13.977-31.22,31.22-31.22h353.797c17.242,0,31.219,13.977,31.219,31.22v248.35
	C446.677,386.446,432.7,400.423,415.458,400.423z"/>
<path style="fill:#EBF0F3;" d="M58.189,353.944V136.116c0-10.345,8.386-18.732,18.732-18.732h323.274
	c10.345,0,18.732,8.386,18.732,18.732v217.828c0,10.345-8.386,18.732-18.732,18.732H76.92
	C66.575,372.675,58.189,364.289,58.189,353.944z"/>
<path style="fill:#DC8744;" d="M304.832,236.712l-32.596,58.445c-4.285,7.684-15.38,7.565-19.501-0.208l-56.717-106.991
	c-4.051-8.321-15.908-8.321-19.959,0L80.721,372.675h152.51h58.127h105.036l-71.602-135.963
	C320.74,228.391,308.883,228.391,304.832,236.712z"/>
<circle style="fill:#FCD462;" cx="264.68" cy="170.615" r="33.299"/>
<g>
</g>
<g>
</g>
<g>
</g>
<g>
</g>
<g>
</g>
<g>
</g>
<g>
</g>
<g>
</g>
<g>
</g>
<g>
</g>
<g>
</g>
<g>
</g>
<g>
</g>
<g>
</g>
<g>
</g>
</svg>
