<?xml version="1.0" encoding="iso-8859-1"?>
<!-- Generator: Adobe Illustrator 19.0.0, SVG Export Plug-In . SVG Version: 6.00 Build 0)  -->
<svg version="1.1" id="Capa_1" xmlns="http://www.w3.org/2000/svg" xmlns:xlink="http://www.w3.org/1999/xlink" x="0px" y="0px"
	 viewBox="0 0 468.293 468.293" style="enable-background:new 0 0 468.293 468.293;" xml:space="preserve">
<path style="fill:#FCD462;" d="M468.293,395.216H0V54.768c0-10.345,8.386-18.732,18.732-18.732H97.84
	c6.158,0,11.922,3.026,15.419,8.095l14.676,21.273c3.497,5.069,9.261,8.095,15.419,8.095h324.939V395.216z"/>
<path style="fill:#EBF0F3;" d="M439.748,202.762H28.545V92.231c0-10.345,8.386-18.732,18.732-18.732h373.74
	c10.345,0,18.732,8.386,18.732,18.732V202.762z"/>
<path style="fill:#E1E6E9;" d="M308.679,189.634H53.774V117.5c0-6.897,5.591-12.488,12.488-12.488h229.93
	c6.897,0,12.488,5.591,12.488,12.488V189.634z"/>
<path style="fill:#F6C358;" d="M24.976,432.257h418.341c13.794,0,24.976-11.182,24.976-24.976V98.053h-97.84
	c-6.158,0-11.922,3.026-15.419,8.095l-14.676,21.273c-3.497,5.069-9.261,8.095-15.419,8.095H0v271.765
	C0,421.075,11.182,432.257,24.976,432.257z"/>
<g>
</g>
<g>
</g>
<g>
</g>
<g>
</g>
<g>
</g>
<g>
</g>
<g>
</g>
<g>
</g>
<g>
</g>
<g>
</g>
<g>
</g>
<g>
</g>
<g>
</g>
<g>
</g>
<g>
</g>
</svg>
