<?xml version="1.0" encoding="iso-8859-1"?>
<!-- Generator: Adobe Illustrator 19.0.0, SVG Export Plug-In . SVG Version: 6.00 Build 0)  -->
<svg version="1.1" id="Capa_1" xmlns="http://www.w3.org/2000/svg" xmlns:xlink="http://www.w3.org/1999/xlink" x="0px" y="0px"
	 viewBox="0 0 468.074 468.074" style="enable-background:new 0 0 468.074 468.074;" xml:space="preserve">
<path style="fill:#E1E6E9;" d="M79.855,3.934L0.001,83.788V436.83c0,6.765,5.484,12.249,12.249,12.249h292.037
	c6.765,0,12.249-5.484,12.249-12.249V16.183c0-6.765-5.484-12.249-12.249-12.249H79.855z"/>
<rect x="328.432" y="324.489" transform="matrix(-0.7071 0.7071 -0.7071 -0.7071 836.9675 341.1078)" style="fill:#1C75A1;" width="38.812" height="38.812"/>
<path style="fill:#27A2DB;" d="M459.994,450.832l-5.228,5.228c-10.774,10.774-28.241,10.774-39.015,0l-72.765-72.765
	c-1.959-1.959-1.959-5.135,0-7.094l37.149-37.149c1.959-1.959,5.135-1.959,7.094,0l72.765,72.765
	C470.767,422.591,470.767,440.058,459.994,450.832z"/>
<ellipse style="fill:#64798A;" cx="249.023" cy="245.098" rx="136.51" ry="136.51"/>
<ellipse style="fill:#EBF0F3;" cx="249.023" cy="245.105" rx="117.404" ry="117.404"/>
<path style="fill:#64798A;" d="M244.957,321.925v-13.531c-16.94-1.727-32.145-8.462-45.6-20.198l13.531-16.125
	c10.378,9.021,21.058,14.391,32.07,16.125v-35.961c-13.968-3.334-24.195-7.723-30.682-13.161
	c-6.486-5.438-9.729-13.501-9.729-24.188s3.726-19.429,11.208-26.232c7.482-6.796,17.211-10.499,29.204-11.117v-9.269h11.856v9.45
	c13.591,0.996,26.443,5.626,38.556,13.908l-12.052,17.053c-8.161-5.808-16.985-9.39-26.503-10.755v34.845h0.558
	c14.21,3.341,24.648,7.851,31.315,13.531c6.682,5.687,10.016,13.938,10.016,24.746c0,10.816-3.831,19.625-11.494,26.413
	c-7.663,6.803-17.785,10.506-30.395,11.125v13.342H244.957z M231.879,202.283c-3.153,2.776-4.721,6.237-4.721,10.378
	c0,4.141,1.237,7.414,3.711,9.82c2.459,2.414,7.165,4.729,14.089,6.954v-32.07C239.391,197.863,235.032,199.5,231.879,202.283z
	 M270.902,283.558c3.454-2.836,5.189-6.418,5.189-10.748c0-4.322-1.358-7.753-4.073-10.288c-2.73-2.534-7.799-4.91-15.205-7.135
	v33.359C262.742,288.136,267.433,286.401,270.902,283.558z"/>
<polygon style="fill:#EBF0F3;" points="79.855,83.788 79.854,3.935 0,83.789 "/>
<g>
</g>
<g>
</g>
<g>
</g>
<g>
</g>
<g>
</g>
<g>
</g>
<g>
</g>
<g>
</g>
<g>
</g>
<g>
</g>
<g>
</g>
<g>
</g>
<g>
</g>
<g>
</g>
<g>
</g>
</svg>
