<?xml version="1.0" encoding="iso-8859-1"?>
<!-- Generator: Adobe Illustrator 19.0.0, SVG Export Plug-In . SVG Version: 6.00 Build 0)  -->
<svg version="1.1" id="Capa_1" xmlns="http://www.w3.org/2000/svg" xmlns:xlink="http://www.w3.org/1999/xlink" x="0px" y="0px"
	 viewBox="0 0 468.293 468.293" style="enable-background:new 0 0 468.293 468.293;" xml:space="preserve">
<path style="fill:#E1E6E9;" d="M324.363,0H74.927C68.03,0,62.439,5.591,62.439,12.488v443.317c0,6.897,5.591,12.488,12.488,12.488
	h318.439c6.897,0,12.488-5.591,12.488-12.488V81.491L324.363,0z"/>
<polygon style="fill:#EBF0F3;" points="324.363,81.491 405.854,81.491 324.363,0 "/>
<path style="fill:#64798A;" d="M333.713,282.081c-7.081,0-12.822,5.741-12.822,12.822v58.33H147.4v-58.33
	c0-7.081-5.741-12.822-12.822-12.822c-7.081,0-12.822,5.741-12.822,12.822v71.153c0,7.081,5.741,12.822,12.822,12.822h199.136
	c7.081,0,12.822-5.741,12.822-12.822v-71.153C346.536,287.822,340.794,282.081,333.713,282.081z"/>
<path style="fill:#E56353;" d="M286.97,263.056l-48.266,48.265c-1.248,1.249-2.934,1.873-4.558,1.873
	c-1.623,0-3.309-0.624-4.558-1.873l-48.266-48.265c-4.058-4.059-1.186-10.927,4.558-10.927h17.732v-74.802
	c0-3.559,2.872-6.431,6.431-6.431h48.203c3.559,0,6.431,2.872,6.431,6.431v74.802h17.732
	C288.156,252.129,291.028,258.997,286.97,263.056z"/>
<path style="fill:#D15241;" d="M282.431,252.109h-17.747v-74.793c0-3.541-2.87-6.411-6.411-6.411h-24.127v142.312
	c1.64,0,3.282-0.626,4.533-1.878l48.286-48.286C291.003,259.015,288.143,252.109,282.431,252.109z"/>
<g>
</g>
<g>
</g>
<g>
</g>
<g>
</g>
<g>
</g>
<g>
</g>
<g>
</g>
<g>
</g>
<g>
</g>
<g>
</g>
<g>
</g>
<g>
</g>
<g>
</g>
<g>
</g>
<g>
</g>
</svg>
