<?xml version="1.0" encoding="iso-8859-1"?>
<!-- Generator: Adobe Illustrator 19.0.0, SVG Export Plug-In . SVG Version: 6.00 Build 0)  -->
<svg version="1.1" id="Capa_1" xmlns="http://www.w3.org/2000/svg" xmlns:xlink="http://www.w3.org/1999/xlink" x="0px" y="0px"
	 viewBox="0 0 468.293 468.293" style="enable-background:new 0 0 468.293 468.293;" xml:space="preserve">
<path style="fill:#E1E6E9;" d="M82.938,5.541L0,88.479v355.985c0,10.1,8.188,18.288,18.288,18.288h294.198
	c10.1,0,18.288-8.188,18.288-18.288V23.829c0-10.1-8.188-18.288-18.288-18.288H82.938z"/>
<polygon style="fill:#EBF0F3;" points="82.938,88.479 82.938,5.541 0,88.479 "/>
<path style="fill:#44C4A1;" d="M468.291,258.792l0.001-49.291l-33.902-8.412c-1.859-5.831-4.239-11.42-7.008-16.777l18.06-29.978
	l-34.853-34.854l-29.979,18.06c-5.357-2.769-10.946-5.149-16.776-7.007l-8.412-33.904h-49.291l-8.411,33.904
	c-5.83,1.859-11.418,4.238-16.776,7.007l-29.981-18.062l-34.855,34.853l18.062,29.983c-2.768,5.356-5.148,10.944-7.006,16.774
	l-33.906,8.412l-0.001,49.291l33.907,8.412c1.859,5.83,4.238,11.418,7.006,16.774l-18.061,29.981l34.853,34.854l29.981-18.061
	c5.357,2.769,10.947,5.149,16.776,7.008l8.411,33.904h49.291l8.412-33.904c5.829-1.859,11.417-4.238,16.774-7.007l29.978,18.06
	l34.854-34.853l-18.059-29.977c2.77-5.358,5.15-10.947,7.009-16.779L468.291,258.792z"/>
<circle style="fill:#E1E6E9;" cx="330.802" cy="234.146" r="85.348"/>
<g>
	<circle style="fill:#D5D6DB;" cx="330.802" cy="234.146" r="42.671"/>
	<rect x="36.951" y="136.342" style="fill:#D5D6DB;" width="73.154" height="24.382"/>
	<rect x="36.951" y="199.88" style="fill:#D5D6DB;" width="103.636" height="24.382"/>
	<rect x="36.951" y="263.424" style="fill:#D5D6DB;" width="73.154" height="24.382"/>
	<rect x="36.951" y="326.962" style="fill:#D5D6DB;" width="103.636" height="24.382"/>
	<rect x="36.951" y="390.494" style="fill:#D5D6DB;" width="73.154" height="24.382"/>
</g>
<g>
</g>
<g>
</g>
<g>
</g>
<g>
</g>
<g>
</g>
<g>
</g>
<g>
</g>
<g>
</g>
<g>
</g>
<g>
</g>
<g>
</g>
<g>
</g>
<g>
</g>
<g>
</g>
<g>
</g>
</svg>
