<?xml version="1.0" encoding="iso-8859-1"?>
<!-- Generator: Adobe Illustrator 19.0.0, SVG Export Plug-In . SVG Version: 6.00 Build 0)  -->
<svg version="1.1" id="Capa_1" xmlns="http://www.w3.org/2000/svg" xmlns:xlink="http://www.w3.org/1999/xlink" x="0px" y="0px"
	 viewBox="0 0 468.293 468.293" style="enable-background:new 0 0 468.293 468.293;" xml:space="preserve">
<path style="fill:#E1E6E9;" d="M326.745,0H14.549C7.653,0,2.062,5.591,2.062,12.488v388.655l73.393,67.149h251.29
	c6.897,0,12.488-5.591,12.488-12.488V12.488C339.232,5.591,333.641,0,326.745,0z"/>
<polygon style="fill:#EBF0F3;" points="75.453,401.143 2.061,401.143 75.453,468.293 "/>
<rect x="203.801" y="51.968" style="fill:#27A2DB;" width="107.333" height="124.878"/>
<g>
	<rect x="30.158" y="51.968" style="fill:#D5D6DB;" width="151.102" height="18.732"/>
	<rect x="30.158" y="105.041" style="fill:#D5D6DB;" width="151.102" height="18.732"/>
	<rect x="30.158" y="158.114" style="fill:#D5D6DB;" width="151.102" height="18.732"/>
	<rect x="30.158" y="216.414" style="fill:#D5D6DB;" width="280.976" height="18.732"/>
	<rect x="30.158" y="276.798" style="fill:#D5D6DB;" width="280.976" height="18.732"/>
	<rect x="30.158" y="337.171" style="fill:#D5D6DB;" width="280.976" height="18.732"/>
	<rect x="136.441" y="397.612" style="fill:#D5D6DB;" width="174.692" height="18.732"/>
</g>
<rect x="377.943" y="75.426" style="fill:#E56353;" width="88.289" height="318.876"/>
<rect x="407.352" y="75.401" style="fill:#D15241;" width="29.415" height="318.876"/>
<path style="fill:#FCD462;" d="M466.231,394.275l-25.74,47.95l-11.905,22.191c-2.774,5.17-10.187,5.17-12.961,0l-11.905-22.191
	l-25.74-47.95H466.231z"/>
<path style="fill:#64798A;" d="M440.491,442.225l-11.905,22.191c-2.774,5.17-10.187,5.17-12.961,0l-11.905-22.191H440.491z"/>
<rect x="378.006" y="54.203" style="fill:#D5D6DB;" width="88.226" height="21.198"/>
<path style="fill:#44C4A1;" d="M466.231,54.246h-88.251V12.488C377.981,5.591,383.572,0,390.468,0h63.275
	c6.897,0,12.488,5.591,12.488,12.488V54.246z"/>
<g>
</g>
<g>
</g>
<g>
</g>
<g>
</g>
<g>
</g>
<g>
</g>
<g>
</g>
<g>
</g>
<g>
</g>
<g>
</g>
<g>
</g>
<g>
</g>
<g>
</g>
<g>
</g>
<g>
</g>
</svg>
