<?xml version="1.0" encoding="iso-8859-1"?>
<!-- Generator: Adobe Illustrator 19.0.0, SVG Export Plug-In . SVG Version: 6.00 Build 0)  -->
<svg version="1.1" id="Capa_1" xmlns="http://www.w3.org/2000/svg" xmlns:xlink="http://www.w3.org/1999/xlink" x="0px" y="0px"
	 viewBox="0 0 468.293 468.293" style="enable-background:new 0 0 468.293 468.293;" xml:space="preserve">
<path style="fill:#FCD462;" d="M450.888,390.515H17.405V66.848c0-9.576,7.763-17.339,17.339-17.339h88.099
	c5.145,0,10.024,2.285,13.318,6.237l37.784,45.325c3.294,3.952,8.174,6.237,13.318,6.237h246.284
	c9.576,0,17.339,7.763,17.339,17.339V390.515z"/>
<path style="fill:#F6C358;" d="M434.662,418.784H33.63c-9.13,0-16.696-7.08-17.301-16.19L0,156.837h468.293l-16.329,245.758
	C451.358,411.705,443.792,418.784,434.662,418.784z"/>
<circle style="fill:#FCD462;" cx="234.146" cy="287.813" r="93.659"/>
<path style="fill:#F6C358;" d="M280.439,258.081l-37.456-37.455c-0.582-0.584-1.226-1.106-1.915-1.566
	c-0.296-0.198-0.617-0.333-0.927-0.503c-0.404-0.223-0.793-0.466-1.221-0.644c-0.407-0.168-0.829-0.264-1.247-0.387
	c-0.361-0.107-0.707-0.247-1.082-0.321c-1.614-0.321-3.276-0.321-4.89,0c-0.375,0.074-0.721,0.214-1.082,0.321
	c-0.418,0.123-0.84,0.219-1.247,0.387c-0.428,0.178-0.817,0.421-1.221,0.644c-0.309,0.17-0.631,0.305-0.927,0.503
	c-0.689,0.46-1.332,0.982-1.915,1.566l-37.456,37.455c-4.878,4.875-4.878,12.784,0,17.659c4.878,4.878,12.78,4.878,17.659,0
	l16.146-16.144v86.574c0,6.896,5.591,12.488,12.488,12.488s12.488-5.591,12.488-12.488v-86.574l16.146,16.144
	c2.439,2.439,5.634,3.659,8.829,3.659s6.39-1.22,8.829-3.659C285.317,270.864,285.317,262.956,280.439,258.081z"/>
<g>
</g>
<g>
</g>
<g>
</g>
<g>
</g>
<g>
</g>
<g>
</g>
<g>
</g>
<g>
</g>
<g>
</g>
<g>
</g>
<g>
</g>
<g>
</g>
<g>
</g>
<g>
</g>
<g>
</g>
</svg>
