<?xml version="1.0" encoding="iso-8859-1"?>
<!-- Generator: Adobe Illustrator 19.0.0, SVG Export Plug-In . SVG Version: 6.00 Build 0)  -->
<svg version="1.1" id="Capa_1" xmlns="http://www.w3.org/2000/svg" xmlns:xlink="http://www.w3.org/1999/xlink" x="0px" y="0px"
	 viewBox="0 0 468.341 468.341" style="enable-background:new 0 0 468.341 468.341;" xml:space="preserve">
<path style="fill:#27A2DB;" d="M359.808,421.57H246.655v-81.345c0-6.896-5.591-12.488-12.488-12.488
	c-6.896,0-12.488,5.591-12.488,12.488v81.345H108.527c-6.896,0-12.488,5.591-12.488,12.488s5.591,12.488,12.488,12.488h251.28
	c6.896,0,12.488-5.591,12.488-12.488S366.704,421.57,359.808,421.57z"/>
<path style="fill:#F6C358;" d="M448.337,74.24v243.138c0,12.613-10.24,22.853-22.853,22.853H42.858
	c-12.613,0-22.854-10.24-22.854-22.853V22.853C20.004,10.24,30.245,0,42.858,0h85.541c6.369,0,12.488,2.685,16.796,7.43
	l33.592,36.589c4.309,4.683,10.428,7.43,16.796,7.43h229.9C438.096,51.45,448.337,61.627,448.337,74.24z"/>
<rect x="199.904" y="399.808" style="fill:#E56353;" width="68.533" height="68.533"/>
<path style="fill:#FCD462;" d="M448.337,122.38v194.997c0,12.613-10.24,22.853-22.853,22.853H42.858
	c-12.613,0-22.854-10.24-22.854-22.853V122.38H448.337z"/>
<g>
</g>
<g>
</g>
<g>
</g>
<g>
</g>
<g>
</g>
<g>
</g>
<g>
</g>
<g>
</g>
<g>
</g>
<g>
</g>
<g>
</g>
<g>
</g>
<g>
</g>
<g>
</g>
<g>
</g>
</svg>
