<?xml version="1.0" encoding="iso-8859-1"?>
<!-- Generator: Adobe Illustrator 19.0.0, SVG Export Plug-In . SVG Version: 6.00 Build 0)  -->
<svg version="1.1" id="Capa_1" xmlns="http://www.w3.org/2000/svg" xmlns:xlink="http://www.w3.org/1999/xlink" x="0px" y="0px"
	 viewBox="0 0 468.293 468.293" style="enable-background:new 0 0 468.293 468.293;" xml:space="preserve">
<path style="fill:#E1E6E9;" d="M347.148,468.293H48.812c-10.345,0-18.732-8.386-18.732-18.732V18.732C30.08,8.386,38.466,0,48.812,0
	h298.337c10.345,0,18.732,8.386,18.732,18.732v430.829C365.88,459.906,357.493,468.293,347.148,468.293z"/>
<path style="fill:#27A2DB;" d="M429.515,121.738v68.371c0,3.247-1.499,6.244-4.059,8.18l-35.715,27.66
	c-2.685,2.061-3.996,5.183-3.996,8.179c0,3.059,1.311,6.119,3.996,8.18l35.715,27.66c2.56,1.998,4.059,4.995,4.059,8.18v68.433
	H302.264v-68.433c0-3.184,1.498-6.181,3.996-8.18l35.715-27.66c2.685-2.061,3.996-5.12,3.996-8.18c0-2.997-1.311-6.119-3.996-8.179
	l-35.715-27.66c-2.498-1.936-3.996-4.933-3.996-8.18v-68.371H429.515z"/>
<g>
	<path style="fill:#2D93BA;" d="M430.427,124.839H301.333c-4.3,0-7.786-3.486-7.786-7.786v0c0-4.3,3.486-7.786,7.786-7.786h129.095
		c4.3,0,7.786,3.486,7.786,7.786v0C438.213,121.354,434.727,124.839,430.427,124.839z"/>
	<path style="fill:#2D93BA;" d="M430.427,359.024H301.333c-4.3,0-7.786-3.486-7.786-7.786v0c0-4.3,3.486-7.786,7.786-7.786h129.095
		c4.3,0,7.786,3.486,7.786,7.786v0C438.213,355.539,434.727,359.024,430.427,359.024z"/>
</g>
<g>
	<path style="fill:#F6C358;" d="M354.56,302.64l-40.814,40.814h104.268L377.2,302.64C370.948,296.388,360.812,296.388,354.56,302.64
		z"/>
	<path style="fill:#F6C358;" d="M365.89,278.527L365.89,278.527c-3.448,0-6.244-2.795-6.244-6.244v-12.488
		c0-3.448,2.796-6.244,6.244-6.244h0c3.448,0,6.244,2.796,6.244,6.244v12.488C372.133,275.732,369.338,278.527,365.89,278.527z"/>
	<path style="fill:#F6C358;" d="M331.345,300.381L331.345,300.381c-2.586,0-4.683-2.097-4.683-4.683v-9.366
		c0-2.586,2.097-4.683,4.683-4.683l0,0c2.586,0,4.683,2.097,4.683,4.683v9.366C336.027,298.285,333.931,300.381,331.345,300.381z"/>
	<path style="fill:#F6C358;" d="M400.415,300.381L400.415,300.381c-2.586,0-4.683-2.097-4.683-4.683v-9.366
		c0-2.586,2.097-4.683,4.683-4.683l0,0c2.586,0,4.683,2.097,4.683,4.683v9.366C405.098,298.285,403.002,300.381,400.415,300.381z"/>
	<path style="fill:#F6C358;" d="M429.515,167.381v22.728c0,3.247-1.499,6.244-4.059,8.18l-35.715,27.66
		c-2.685,2.061-3.996,5.183-3.996,8.179h-39.774c0-2.997-1.311-6.119-3.996-8.179l-35.715-27.66
		c-2.498-1.936-3.996-4.933-3.996-8.18v-22.728H429.515z"/>
</g>
<g>
	<rect x="66.86" y="49.427" style="fill:#D5D6DB;" width="258.622" height="15.61"/>
	<rect x="66.86" y="99.971" style="fill:#D5D6DB;" width="189.908" height="15.61"/>
	<rect x="66.86" y="150.522" style="fill:#D5D6DB;" width="189.908" height="15.61"/>
	<rect x="66.86" y="201.066" style="fill:#D5D6DB;" width="189.908" height="15.61"/>
	<rect x="66.86" y="251.617" style="fill:#D5D6DB;" width="189.908" height="15.61"/>
	<rect x="66.86" y="302.161" style="fill:#D5D6DB;" width="189.908" height="15.61"/>
	<rect x="66.86" y="352.712" style="fill:#D5D6DB;" width="189.908" height="15.61"/>
	<rect x="66.86" y="403.231" style="fill:#D5D6DB;" width="258.622" height="15.61"/>
</g>
<g>
</g>
<g>
</g>
<g>
</g>
<g>
</g>
<g>
</g>
<g>
</g>
<g>
</g>
<g>
</g>
<g>
</g>
<g>
</g>
<g>
</g>
<g>
</g>
<g>
</g>
<g>
</g>
<g>
</g>
</svg>
