<?xml version="1.0" encoding="iso-8859-1"?>
<!-- Generator: Adobe Illustrator 19.0.0, SVG Export Plug-In . SVG Version: 6.00 Build 0)  -->
<svg version="1.1" id="Capa_1" xmlns="http://www.w3.org/2000/svg" xmlns:xlink="http://www.w3.org/1999/xlink" x="0px" y="0px"
	 viewBox="0 0 468.293 468.293" style="enable-background:new 0 0 468.293 468.293;" xml:space="preserve">
<path style="fill:#E1E6E9;" d="M376.71,70.264H91.585c-7.086,0-12.83,5.744-12.83,12.83v324.689l60.509,60.509H376.71
	c7.086,0,12.83-5.744,12.83-12.83V83.094C389.54,76.008,383.796,70.264,376.71,70.264z"/>
<polygon style="fill:#EBF0F3;" points="139.263,407.784 78.753,407.785 139.264,468.293 "/>
<path style="fill:#27A2DB;" d="M267.234,97.861H201.06V32.205C201.06,14.419,215.479,0,233.265,0h1.765
	c17.786,0,32.205,14.419,32.205,32.205V97.861z"/>
<path style="fill:#64798A;" d="M281.542,114.51h-94.789c-4.475,0-8.103-3.628-8.103-8.103v-0.444c0-4.475,3.628-8.103,8.103-8.103
	h94.789c4.475,0,8.103,3.628,8.103,8.103v0.444C289.644,110.883,286.017,114.51,281.542,114.51z"/>
<circle style="fill:#EBF0F3;" cx="234.146" cy="36.389" r="19.425"/>
<g>
	<rect x="105.847" y="176.147" style="fill:#D5D6DB;" width="153.962" height="16.034"/>
	<rect x="105.847" y="227.472" style="fill:#D5D6DB;" width="256.624" height="16.034"/>
	<rect x="105.847" y="278.79" style="fill:#D5D6DB;" width="153.962" height="16.034"/>
	<rect x="105.847" y="330.115" style="fill:#D5D6DB;" width="256.624" height="16.034"/>
</g>
<g>
</g>
<g>
</g>
<g>
</g>
<g>
</g>
<g>
</g>
<g>
</g>
<g>
</g>
<g>
</g>
<g>
</g>
<g>
</g>
<g>
</g>
<g>
</g>
<g>
</g>
<g>
</g>
<g>
</g>
</svg>
