<?xml version="1.0" encoding="iso-8859-1"?>
<!-- Generator: Adobe Illustrator 19.0.0, SVG Export Plug-In . SVG Version: 6.00 Build 0)  -->
<svg version="1.1" id="Capa_1" xmlns="http://www.w3.org/2000/svg" xmlns:xlink="http://www.w3.org/1999/xlink" x="0px" y="0px"
	 viewBox="0 0 468.293 468.293" style="enable-background:new 0 0 468.293 468.293;" xml:space="preserve">
<path style="fill:#E1E6E9;" d="M132.205,0L65.561,66.645v389.16c0,6.897,5.591,12.488,12.488,12.488h312.195
	c6.897,0,12.488-5.591,12.488-12.488V12.488C402.732,5.591,397.141,0,390.244,0H132.205z"/>
<polygon style="fill:#EBF0F3;" points="132.206,66.645 132.206,0 65.562,66.645 "/>
<rect x="101.988" y="99.209" style="fill:#44C4A1;" width="44.806" height="44.806"/>
<rect x="101.988" y="196.446" style="fill:#27A2DB;" width="44.806" height="44.806"/>
<rect x="101.988" y="293.713" style="fill:#E56353;" width="44.806" height="44.806"/>
<rect x="101.988" y="390.931" style="fill:#64798A;" width="44.806" height="44.806"/>
<g>
	<rect x="179.013" y="99.209" style="fill:#3EA69B;" width="187.317" height="12.488"/>
	<rect x="179.013" y="131.528" style="fill:#3EA69B;" width="138.115" height="12.488"/>
</g>
<g>
	<rect x="179.013" y="196.446" style="fill:#27A2DB;" width="187.317" height="12.488"/>
	<rect x="179.013" y="228.777" style="fill:#27A2DB;" width="138.115" height="12.488"/>
</g>
<g>
	<rect x="179.013" y="293.713" style="fill:#E56353;" width="187.317" height="12.488"/>
	<rect x="179.013" y="326" style="fill:#E56353;" width="138.115" height="12.488"/>
</g>
<g>
	<rect x="179.013" y="390.931" style="fill:#64798A;" width="187.317" height="12.488"/>
	<rect x="179.013" y="423.212" style="fill:#64798A;" width="138.115" height="12.488"/>
</g>
<g>
</g>
<g>
</g>
<g>
</g>
<g>
</g>
<g>
</g>
<g>
</g>
<g>
</g>
<g>
</g>
<g>
</g>
<g>
</g>
<g>
</g>
<g>
</g>
<g>
</g>
<g>
</g>
<g>
</g>
</svg>
