<?xml version="1.0" encoding="iso-8859-1"?>
<!-- Generator: Adobe Illustrator 19.0.0, SVG Export Plug-In . SVG Version: 6.00 Build 0)  -->
<svg version="1.1" id="Capa_1" xmlns="http://www.w3.org/2000/svg" xmlns:xlink="http://www.w3.org/1999/xlink" x="0px" y="0px"
	 viewBox="0 0 468.293 468.293" style="enable-background:new 0 0 468.293 468.293;" xml:space="preserve">
<path style="fill:#E1E6E9;" d="M82.989,4.779L0,87.768v363.513c0,6.756,5.477,12.233,12.233,12.233h293.591
	c6.756,0,12.233-5.477,12.233-12.233V17.012c0-6.756-5.477-12.233-12.233-12.233H82.989z"/>
<polygon style="fill:#EBF0F3;" points="82.99,87.768 82.99,4.779 0,87.768 "/>
<g>
	<rect x="33.886" y="209.421" style="fill:#D5D6DB;" width="183.496" height="18.351"/>
	<rect x="33.886" y="158.139" style="fill:#D5D6DB;" width="220.222" height="18.351"/>
	<rect x="33.886" y="260.745" style="fill:#D5D6DB;" width="183.496" height="18.351"/>
	<rect x="33.886" y="312.008" style="fill:#D5D6DB;" width="183.496" height="18.351"/>
	<rect x="33.886" y="363.314" style="fill:#D5D6DB;" width="127.22" height="18.351"/>
</g>
<polygon style="fill:#44C4A1;" points="389.945,65.822 439.243,109.713 225.937,348.739 176.639,304.848 "/>
<path style="fill:#3EA69B;" d="M414.594,136.844l-49.298-43.891l45.345-50.93c12.12-13.613,32.981-14.824,46.595-2.703l0,0
	c13.613,12.12,14.824,32.981,2.703,46.595L414.594,136.844z"/>
<polygon style="fill:#D5D6DB;" points="170.821,370.795 225.937,348.739 176.639,304.848 161.106,362.145 "/>
<path style="fill:#3A556A;" d="M451.06,133.221c-3.403-3.03-8.619-2.727-11.649,0.676l-6.952,7.808l-12.382-11.024l-10.973,12.325
	l12.382,11.024l-70.731,79.443c-3.03,3.403-2.727,8.619,0.676,11.649c3.403,3.03,8.619,2.727,11.649-0.676l88.655-99.576
	C454.766,141.466,454.464,136.251,451.06,133.221z"/>
<path style="fill:#64798A;" d="M152.413,381.689L152.413,381.689c-2.68-2.386-2.918-6.493-0.532-9.173l9.23-10.367l9.706,8.641
	l-9.23,10.367C159.2,383.837,155.093,384.076,152.413,381.689z"/>
<g>
</g>
<g>
</g>
<g>
</g>
<g>
</g>
<g>
</g>
<g>
</g>
<g>
</g>
<g>
</g>
<g>
</g>
<g>
</g>
<g>
</g>
<g>
</g>
<g>
</g>
<g>
</g>
<g>
</g>
</svg>
