<?xml version="1.0" encoding="iso-8859-1"?>
<!-- Generator: Adobe Illustrator 19.0.0, SVG Export Plug-In . SVG Version: 6.00 Build 0)  -->
<svg version="1.1" id="Capa_1" xmlns="http://www.w3.org/2000/svg" xmlns:xlink="http://www.w3.org/1999/xlink" x="0px" y="0px"
	 viewBox="0 0 468.293 468.293" style="enable-background:new 0 0 468.293 468.293;" xml:space="preserve">
<path style="fill:#D5D6DB;" d="M373.368,430.323H69.442c-6.897,0-12.488-5.591-12.488-12.488V12.488C56.955,5.591,62.545,0,69.442,0
	h291.438c6.897,0,12.488,5.591,12.488,12.488L373.368,430.323L373.368,430.323z"/>
<path style="fill:#E1E6E9;" d="M398.85,468.293H107.412c-6.897,0-12.488-5.591-12.488-12.488V50.457
	c0-6.897,5.591-12.488,12.488-12.488H398.85c6.897,0,12.488,5.591,12.488,12.488v405.347
	C411.338,462.702,405.747,468.293,398.85,468.293z"/>
<rect x="136.336" y="95.55" style="fill:#27A2DB;" width="49.951" height="49.951"/>
<path style="fill:#2D93BA;" d="M164.202,136.763c-1.972,0-3.905-0.939-5.108-2.665l-10.466-15.021
	c-1.966-2.82-1.273-6.701,1.547-8.664c2.823-1.966,6.704-1.27,8.664,1.547l7.196,10.326l34.571-20.021
	c2.975-1.723,6.786-0.708,8.503,2.267c1.723,2.972,0.708,6.78-2.267,8.503l-39.524,22.889
	C166.339,136.492,165.266,136.763,164.202,136.763z"/>
<rect x="136.336" y="183.952" style="fill:#FCD462;" width="49.951" height="49.951"/>
<path style="fill:#F6C358;" d="M164.202,225.165c-1.972,0-3.905-0.939-5.108-2.665l-10.466-15.021
	c-1.966-2.82-1.273-6.701,1.547-8.664c2.823-1.966,6.704-1.27,8.664,1.547l7.196,10.326l34.571-20.021
	c2.975-1.723,6.786-0.708,8.503,2.267c1.723,2.972,0.708,6.78-2.267,8.503l-39.524,22.889
	C166.339,224.895,165.266,225.165,164.202,225.165z"/>
<rect x="136.336" y="272.359" style="fill:#E56353;" width="49.951" height="49.951"/>
<path style="fill:#D15241;" d="M164.202,313.568c-1.972,0-3.905-0.939-5.108-2.665l-10.466-15.021
	c-1.966-2.82-1.273-6.701,1.547-8.664c2.823-1.966,6.704-1.27,8.664,1.547l7.196,10.326l34.571-20.021
	c2.975-1.723,6.786-0.708,8.503,2.267c1.723,2.972,0.708,6.78-2.267,8.503l-39.524,22.889
	C166.339,313.297,165.266,313.568,164.202,313.568z"/>
<rect x="136.336" y="360.773" style="fill:#27A2DB;" width="49.951" height="49.951"/>
<path style="fill:#2D93BA;" d="M164.202,401.97c-1.972,0-3.905-0.939-5.108-2.665l-10.466-15.021
	c-1.966-2.82-1.273-6.701,1.547-8.664c2.823-1.966,6.704-1.27,8.664,1.547l7.196,10.326l34.571-20.021
	c2.975-1.723,6.786-0.708,8.503,2.267c1.723,2.972,0.708,6.78-2.267,8.503l-39.524,22.889
	C166.339,401.7,165.266,401.97,164.202,401.97z"/>
<rect x="232.56" y="112.721" style="fill:#27A2DB;" width="137.366" height="15.61"/>
<rect x="232.56" y="201.122" style="fill:#F6C358;" width="137.366" height="15.61"/>
<rect x="232.56" y="289.53" style="fill:#D15241;" width="137.366" height="15.61"/>
<rect x="232.56" y="377.943" style="fill:#2D93BA;" width="137.366" height="15.61"/>
<g>
</g>
<g>
</g>
<g>
</g>
<g>
</g>
<g>
</g>
<g>
</g>
<g>
</g>
<g>
</g>
<g>
</g>
<g>
</g>
<g>
</g>
<g>
</g>
<g>
</g>
<g>
</g>
<g>
</g>
</svg>
