<?xml version="1.0" encoding="iso-8859-1"?>
<!-- Generator: Adobe Illustrator 19.0.0, SVG Export Plug-In . SVG Version: 6.00 Build 0)  -->
<svg version="1.1" id="Capa_1" xmlns="http://www.w3.org/2000/svg" xmlns:xlink="http://www.w3.org/1999/xlink" x="0px" y="0px"
	 viewBox="0 0 468.293 468.293" style="enable-background:new 0 0 468.293 468.293;" xml:space="preserve">
<path style="fill:#E1E6E9;" d="M135.805,0.001L65.562,70.245v385.561c0,6.897,5.591,12.488,12.488,12.488h312.195
	c6.897,0,12.488-5.591,12.488-12.488V12.489c0-6.897-5.591-12.488-12.488-12.488L135.805,0.001L135.805,0.001z"/>
<polygon style="fill:#EBF0F3;" points="135.805,70.245 135.806,0 65.561,70.245 "/>
<g>
	<rect x="158.733" y="52.911" style="fill:#D5D6DB;" width="61.715" height="17.108"/>
	<rect x="109.269" y="110.455" style="fill:#D5D6DB;" width="111.185" height="17.108"/>
	<rect x="109.269" y="168.049" style="fill:#D5D6DB;" width="111.185" height="17.108"/>
	<rect x="109.269" y="225.593" style="fill:#D5D6DB;" width="249.756" height="17.108"/>
	<rect x="109.269" y="283.149" style="fill:#D5D6DB;" width="249.756" height="17.108"/>
	<rect x="109.269" y="340.73" style="fill:#D5D6DB;" width="249.756" height="17.108"/>
	<rect x="109.269" y="398.236" style="fill:#D5D6DB;" width="249.756" height="17.108"/>
</g>
<rect x="246.197" y="52.911" style="fill:#27A2DB;" width="112.827" height="132.246"/>
<g>
</g>
<g>
</g>
<g>
</g>
<g>
</g>
<g>
</g>
<g>
</g>
<g>
</g>
<g>
</g>
<g>
</g>
<g>
</g>
<g>
</g>
<g>
</g>
<g>
</g>
<g>
</g>
<g>
</g>
</svg>
