<?xml version="1.0" encoding="iso-8859-1"?>
<!-- Generator: Adobe Illustrator 19.0.0, SVG Export Plug-In . SVG Version: 6.00 Build 0)  -->
<svg version="1.1" id="Capa_1" xmlns="http://www.w3.org/2000/svg" xmlns:xlink="http://www.w3.org/1999/xlink" x="0px" y="0px"
	 viewBox="0 0 468.293 468.293" style="enable-background:new 0 0 468.293 468.293;" xml:space="preserve">
<path style="fill:#FCD462;" d="M201.427,65.561V39.903c0-3.448-2.795-6.244-6.244-6.244H45.005c-3.448,0-6.244,2.795-6.244,6.244
	v25.658H18.732C8.386,65.561,0,73.947,0,84.293v319.122c0,17.242,13.977,31.22,31.22,31.22h405.854
	c17.242,0,31.22-13.977,31.22-31.22V84.293c0-10.345-8.386-18.732-18.732-18.732H201.427z"/>
<rect x="30.851" y="123.879" style="fill:#E1E6E9;" width="406.603" height="196.489"/>
<rect x="64.45" y="96.187" style="fill:#EBF0F3;" width="339.419" height="224.175"/>
<path style="fill:#F6C358;" d="M437.073,434.634H31.22c-17.242,0-31.22-13.977-31.22-31.22V234.236
	c0-13.794,11.182-24.976,24.976-24.976h283.838c8.658,0,16.699-4.485,21.249-11.851l16.213-26.249
	c4.55-7.367,12.591-11.851,21.249-11.851h75.793c13.794,0,24.976,11.182,24.976,24.976v219.13
	C468.293,420.656,454.315,434.634,437.073,434.634z"/>
<g>
</g>
<g>
</g>
<g>
</g>
<g>
</g>
<g>
</g>
<g>
</g>
<g>
</g>
<g>
</g>
<g>
</g>
<g>
</g>
<g>
</g>
<g>
</g>
<g>
</g>
<g>
</g>
<g>
</g>
</svg>
