<?xml version="1.0" encoding="iso-8859-1"?>
<!-- Generator: Adobe Illustrator 19.0.0, SVG Export Plug-In . SVG Version: 6.00 Build 0)  -->
<svg version="1.1" id="Capa_1" xmlns="http://www.w3.org/2000/svg" xmlns:xlink="http://www.w3.org/1999/xlink" x="0px" y="0px"
	 viewBox="0 0 468.293 468.293" style="enable-background:new 0 0 468.293 468.293;" xml:space="preserve">
<path style="fill:#E56353;" d="M296.585,376.644H171.707V76.039c0-6.897,5.591-12.488,12.488-12.488h112.39V376.644z"/>
<rect x="196.683" y="88.526" style="fill:#EBF0F3;" width="74.927" height="131.559"/>
<path style="fill:#44C4A1;" d="M171.707,376.644H46.829V138.478c0-6.897,5.591-12.488,12.488-12.488h112.39V376.644z"/>
<rect x="71.805" y="150.965" style="fill:#EBF0F3;" width="74.927" height="100.34"/>
<path style="fill:#27A2DB;" d="M421.463,376.644H296.585V13.6c0-6.897,5.591-12.488,12.488-12.488h99.902
	c6.897,0,12.488,5.591,12.488,12.488V376.644z"/>
<rect x="321.548" y="26.112" style="fill:#EBF0F3;" width="74.927" height="147.412"/>
<path style="fill:#DC8744;" d="M346.405,298.595v5.838c0,17.242-13.977,31.22-31.22,31.22H153.107
	c-17.242,0-31.22-13.977-31.22-31.22v-5.838c0-6.897-5.591-12.488-12.488-12.488H12.488C5.591,286.107,0,291.698,0,298.595v131.122
	c0,20.69,16.773,37.463,37.463,37.463h393.366c20.69,0,37.463-16.773,37.463-37.463V298.595c0-6.897-5.591-12.488-12.488-12.488
	h-96.912C351.996,286.107,346.405,291.698,346.405,298.595z"/>
<g>
	<rect x="337.171" y="93.546" style="fill:#64798A;" width="43.707" height="12.488"/>
	<rect x="212.293" y="148.043" style="fill:#64798A;" width="43.707" height="12.488"/>
	<rect x="87.415" y="194.897" style="fill:#64798A;" width="43.707" height="12.488"/>
	<rect x="87.415" y="219.873" style="fill:#64798A;" width="43.707" height="12.488"/>
	<rect x="87.415" y="169.922" style="fill:#64798A;" width="43.707" height="12.488"/>
	<rect x="212.293" y="179.262" style="fill:#64798A;" width="43.707" height="12.488"/>
	<rect x="212.293" y="116.823" style="fill:#64798A;" width="43.707" height="12.488"/>
	<rect x="337.171" y="131.01" style="fill:#64798A;" width="43.707" height="12.488"/>
	<rect x="337.171" y="56.083" style="fill:#64798A;" width="43.707" height="12.488"/>
</g>
<g>
</g>
<g>
</g>
<g>
</g>
<g>
</g>
<g>
</g>
<g>
</g>
<g>
</g>
<g>
</g>
<g>
</g>
<g>
</g>
<g>
</g>
<g>
</g>
<g>
</g>
<g>
</g>
<g>
</g>
</svg>
