<?xml version="1.0" encoding="iso-8859-1"?>
<!-- Generator: Adobe Illustrator 19.0.0, SVG Export Plug-In . SVG Version: 6.00 Build 0)  -->
<svg version="1.1" id="Capa_1" xmlns="http://www.w3.org/2000/svg" xmlns:xlink="http://www.w3.org/1999/xlink" x="0px" y="0px"
	 viewBox="0 0 468.293 468.293" style="enable-background:new 0 0 468.293 468.293;" xml:space="preserve">
<path style="fill:#E1E6E9;" d="M431.297,0H130.121c-10.345,0-18.732,8.386-18.732,18.732v430.829
	c0,10.345,8.386,18.732,18.732,18.732h242.011l77.897-77.897V18.732C450.028,8.386,441.642,0,431.297,0z"/>
<polygon style="fill:#EBF0F3;" points="372.131,468.293 450.028,390.396 372.131,390.396 "/>
<path style="fill:#44C4A1;" d="M198.269,153.101H24.509c-3.448,0-6.244-2.795-6.244-6.244V56.436c0-3.448,2.795-6.244,6.244-6.244
	h173.76c3.448,0,6.244,2.795,6.244,6.244v90.421C204.513,150.306,201.718,153.101,198.269,153.101z"/>
<g>
	<path style="fill:#EBF0F3;" d="M71.528,82.427c3.294,2.751,4.94,6.992,4.94,12.722c0,5.731-1.68,9.925-5.045,12.588
		c-3.36,2.663-8.515,3.993-15.46,3.993H47.57v13.874h-7.986V78.296h16.242C63.002,78.296,68.234,79.673,71.528,82.427z
		 M65.877,101.951c1.603-1.694,2.401-4.175,2.401-7.446c0-3.269-1.013-5.582-3.046-6.937c-2.032-1.352-5.21-2.03-9.545-2.03H47.57
		v18.949h9.269C61.262,104.487,64.275,103.642,65.877,101.951z"/>
	<path style="fill:#EBF0F3;" d="M121.338,78.296h7.986v47.307h-8.663l-26.8-34.516v34.516h-7.986V78.296h7.986l27.477,35.328V78.296
		z"/>
	<path style="fill:#EBF0F3;" d="M175.208,102.593h7.986v16.176c-4.467,4.918-10.85,7.377-19.15,7.377
		c-6.995,0-12.849-2.302-17.564-6.904c-4.714-4.602-7.072-10.423-7.072-17.462s2.401-12.901,7.209-17.597
		c4.803-4.69,10.613-7.036,17.426-7.036c6.813,0,12.475,1.985,16.985,5.954l-4.263,6.091c-1.851-1.578-3.712-2.674-5.585-3.283
		c-1.873-0.609-4.048-0.914-6.532-0.914c-4.781,0-8.796,1.548-12.045,4.637c-3.249,3.09-4.874,7.152-4.874,12.183
		c0,5.031,1.581,9.068,4.742,12.114c3.156,3.046,6.978,4.569,11.467,4.569c4.489,0,8.245-0.972,11.268-2.911V102.593z"/>
</g>
<path style="fill:#FCD462;" d="M399.343,340.432H162.075V215.554c0-6.897,5.591-12.488,12.488-12.488h212.293
	c6.897,0,12.488,5.591,12.488,12.488V340.432z"/>
<path style="fill:#DC8744;" d="M353.236,339.841l0.37,0.563H207.811l0.37-0.563h-46.107l45.306-69.9
	c2.461-3.798,8.019-3.797,10.48,0.001l17.778,27.441l39.829-61.523c2.461-3.801,8.022-3.801,10.483,0l39.829,61.523l17.777-27.441
	c2.461-3.798,8.018-3.799,10.48-0.001l45.306,69.9H353.236z"/>
<g>
</g>
<g>
</g>
<g>
</g>
<g>
</g>
<g>
</g>
<g>
</g>
<g>
</g>
<g>
</g>
<g>
</g>
<g>
</g>
<g>
</g>
<g>
</g>
<g>
</g>
<g>
</g>
<g>
</g>
</svg>
