<?xml version="1.0" encoding="iso-8859-1"?>
<!-- Generator: Adobe Illustrator 19.0.0, SVG Export Plug-In . SVG Version: 6.00 Build 0)  -->
<svg version="1.1" id="Capa_1" xmlns="http://www.w3.org/2000/svg" xmlns:xlink="http://www.w3.org/1999/xlink" x="0px" y="0px"
	 viewBox="0 0 468.293 468.293" style="enable-background:new 0 0 468.293 468.293;" xml:space="preserve">
<path style="fill:#D5D6DB;" d="M389.937,40.153H112.976c-7.648,0-13.848,6.2-13.848,13.848v313.063l66.608,66.608h224.202
	c7.648,0,13.848-6.2,13.848-13.848V54.001C403.785,46.353,397.585,40.153,389.937,40.153z"/>
<path style="fill:#E1E6E9;" d="M355.317,74.773H78.356c-7.648,0-13.848,6.2-13.848,13.848v313.063l66.608,66.608h224.202
	c7.648,0,13.848-6.2,13.848-13.848V88.621C369.165,80.973,362.965,74.773,355.317,74.773z"/>
<polygon style="fill:#EBF0F3;" points="131.116,401.685 64.508,401.685 131.116,468.293 "/>
<path style="fill:#64798A;" d="M311.339,60.505c-4.727,0-8.563,3.833-8.563,8.563v63.596c0,1.575-1.282,2.854-2.854,2.854h-39.96
	c-1.572,0-2.854-1.279-2.854-2.854V19.98c0-1.575,1.282-2.854,2.854-2.854h22.834c1.572,0,2.854,1.279,2.854,2.854v20.173h17.126
	V19.98c0-11.016-8.964-19.98-19.98-19.98h-22.834c-11.016,0-19.98,8.964-19.98,19.98v112.685c0,11.016,8.964,19.98,19.98,19.98
	h39.96c11.016,0,19.98-8.964,19.98-19.98V69.068C319.902,64.338,316.066,60.505,311.339,60.505z"/>
<g>
	<rect x="98.204" y="209.92" style="fill:#D5D6DB;" width="237.268" height="18.732"/>
	<rect x="98.204" y="267.801" style="fill:#D5D6DB;" width="237.268" height="18.732"/>
	<rect x="98.204" y="325.657" style="fill:#D5D6DB;" width="237.268" height="18.732"/>
</g>
<g>
</g>
<g>
</g>
<g>
</g>
<g>
</g>
<g>
</g>
<g>
</g>
<g>
</g>
<g>
</g>
<g>
</g>
<g>
</g>
<g>
</g>
<g>
</g>
<g>
</g>
<g>
</g>
<g>
</g>
</svg>
