<?xml version="1.0" encoding="iso-8859-1"?>
<!-- Generator: Adobe Illustrator 19.0.0, SVG Export Plug-In . SVG Version: 6.00 Build 0)  -->
<svg version="1.1" id="Capa_1" xmlns="http://www.w3.org/2000/svg" xmlns:xlink="http://www.w3.org/1999/xlink" x="0px" y="0px"
	 viewBox="0 0 468.293 468.293" style="enable-background:new 0 0 468.293 468.293;" xml:space="preserve">
<g>
	<path style="fill:#E1E6E9;" d="M74.3,352.758l35.521-35.968c2.445-2.475,6.441-2.475,8.885,0l31.078,31.469
		c2.445,2.475,6.441,2.475,8.886,0l31.072-31.468c2.445-2.476,6.441-2.476,8.886,0l31.077,31.469c2.445,2.475,6.441,2.475,8.886,0
		l31.072-31.468c2.444-2.476,6.441-2.476,8.886,0l31.078,31.469c2.445,2.475,6.441,2.475,8.885,0l31.078-31.469
		c2.445-2.475,6.441-2.475,8.886,0l35.515,35.967l2.498-2.53V12.488C396.488,5.591,390.897,0,384,0H157.511L71.805,85.706V350.23
		L74.3,352.758z"/>
	<path style="fill:#E1E6E9;" d="M393.989,388.3l-35.515-35.967c-2.444-2.476-6.441-2.476-8.886,0l-31.078,31.469
		c-2.445,2.475-6.441,2.475-8.885,0l-31.078-31.469c-2.445-2.475-6.441-2.475-8.886,0l-31.072,31.468
		c-2.445,2.476-6.441,2.476-8.886,0l-31.077-31.469c-2.445-2.475-6.441-2.475-8.886,0l-31.072,31.468
		c-2.444,2.476-6.441,2.476-8.886,0l-31.078-31.469c-2.445-2.475-6.441-2.475-8.885,0L74.3,388.3l-2.495-2.527v70.032
		c0,6.897,5.591,12.488,12.488,12.488H384c6.897,0,12.488-5.591,12.488-12.488V385.77L393.989,388.3z"/>
</g>
<polygon style="fill:#EBF0F3;" points="157.511,85.706 157.51,0.001 71.806,85.705 "/>
<g>
	<rect x="189.584" y="70.094" style="fill:#D5D6DB;" width="174.829" height="15.61"/>
	<rect x="103.899" y="130.454" style="fill:#D5D6DB;" width="260.533" height="15.61"/>
	<rect x="103.899" y="190.814" style="fill:#D5D6DB;" width="260.533" height="15.61"/>
	<rect x="103.899" y="251.167" style="fill:#D5D6DB;" width="260.533" height="15.61"/>
</g>
<g>
</g>
<g>
</g>
<g>
</g>
<g>
</g>
<g>
</g>
<g>
</g>
<g>
</g>
<g>
</g>
<g>
</g>
<g>
</g>
<g>
</g>
<g>
</g>
<g>
</g>
<g>
</g>
<g>
</g>
</svg>
