<?xml version="1.0" encoding="iso-8859-1"?>
<!-- Generator: Adobe Illustrator 19.0.0, SVG Export Plug-In . SVG Version: 6.00 Build 0)  -->
<svg version="1.1" id="Capa_1" xmlns="http://www.w3.org/2000/svg" xmlns:xlink="http://www.w3.org/1999/xlink" x="0px" y="0px"
	 viewBox="0 0 468.293 468.293" style="enable-background:new 0 0 468.293 468.293;" xml:space="preserve">
<path style="fill:#3EA69B;" d="M209.097,62.543L209.097,62.543c0-6.548-5.308-11.856-11.856-11.856H53.75
	c-6.548,0-11.856,5.308-11.856,11.856v4.586c0,5.303-4.299,9.602-9.602,9.602h0c-6.548,0-11.856,5.308-11.856,11.856v111.109h414.93
	V76.73H223.285C215.449,76.73,209.097,70.378,209.097,62.543z"/>
<rect x="46.742" y="99.753" style="fill:#EBF0F3;" width="377.569" height="194.498"/>
<path style="fill:#44C4A1;" d="M444.582,417.606H23.711C10.616,417.606,0,406.99,0,393.895v-251.99
	c0-13.095,10.616-23.711,23.711-23.711h254.614c9.738,0,18.486-5.954,22.058-15.014l11.532-29.25
	c3.572-9.06,12.32-15.014,22.058-15.014h110.607c13.095,0,23.711,10.616,23.711,23.711v311.268
	C468.293,406.99,457.677,417.606,444.582,417.606z"/>
<g>
</g>
<g>
</g>
<g>
</g>
<g>
</g>
<g>
</g>
<g>
</g>
<g>
</g>
<g>
</g>
<g>
</g>
<g>
</g>
<g>
</g>
<g>
</g>
<g>
</g>
<g>
</g>
<g>
</g>
</svg>
