<?xml version="1.0" encoding="iso-8859-1"?>
<!-- Generator: Adobe Illustrator 19.0.0, SVG Export Plug-In . SVG Version: 6.00 Build 0)  -->
<svg version="1.1" id="Capa_1" xmlns="http://www.w3.org/2000/svg" xmlns:xlink="http://www.w3.org/1999/xlink" x="0px" y="0px"
	 viewBox="0 0 468.293 468.293" style="enable-background:new 0 0 468.293 468.293;" xml:space="preserve">
<path style="fill:#F6C358;" d="M392.307,268.679H0.006V113.227c0-20.69,16.773-37.463,37.463-37.463h354.838V268.679z"/>
<rect x="40.585" y="106.477" style="fill:#EBF0F3;" width="387.122" height="204.382"/>
<path style="fill:#FCD462;" d="M468.293,77.331v313.631c0,20.73-16.796,37.463-37.463,37.463H37.463
	C16.796,428.425,0,411.692,0,390.962V177.233c0-20.729,16.796-37.463,37.463-37.463h225.217c13.612,0,26.162-7.43,32.78-19.355
	l30.408-61.253c6.619-11.926,19.169-19.294,32.78-19.294h72.18C451.497,39.867,468.293,56.601,468.293,77.331z"/>
<path style="fill:#F6C358;" d="M468.293,369.108v21.854c0,20.73-16.796,37.463-37.463,37.463H37.463
	C16.796,428.425,0,411.692,0,390.962v-21.854H468.293z"/>
<g>
</g>
<g>
</g>
<g>
</g>
<g>
</g>
<g>
</g>
<g>
</g>
<g>
</g>
<g>
</g>
<g>
</g>
<g>
</g>
<g>
</g>
<g>
</g>
<g>
</g>
<g>
</g>
<g>
</g>
</svg>
