<?xml version="1.0" encoding="iso-8859-1"?>
<!-- Generator: Adobe Illustrator 19.0.0, SVG Export Plug-In . SVG Version: 6.00 Build 0)  -->
<svg version="1.1" id="Capa_1" xmlns="http://www.w3.org/2000/svg" xmlns:xlink="http://www.w3.org/1999/xlink" x="0px" y="0px"
	 viewBox="0 0 468.293 468.293" style="enable-background:new 0 0 468.293 468.293;" xml:space="preserve">
<path style="fill:#EBF0F3;" d="M360.745,0H118.367c-6.897,0-12.488,5.591-12.488,12.488v443.317c0,6.897,5.591,12.488,12.488,12.488
	H443.05c6.897,0,12.488-5.591,12.488-12.488V94.793L360.745,0z"/>
<polygon style="fill:#D5D6DB;" points="342.013,113.526 455.538,101.037 455.538,94.793 360.745,0 354.501,0 "/>
<path style="fill:#44C4A1;" d="M192.759,246.606H18.999c-3.448,0-6.244-2.796-6.244-6.244V137.454c0-3.448,2.795-6.244,6.244-6.244
	h173.76c3.448,0,6.244,2.795,6.244,6.244v102.909C199.003,243.811,196.208,246.606,192.759,246.606z"/>
<polygon style="fill:#E1E6E9;" points="360.745,94.794 455.538,94.793 360.745,0 "/>
<g>
	<path style="fill:#EBF0F3;" d="M95.334,162.168c4.582,3.827,6.873,9.728,6.873,17.7c0,7.973-2.341,13.808-7.015,17.513
		c-4.678,3.705-11.85,5.555-21.516,5.555H62.002v19.302H50.891v-65.817h22.597C83.468,156.421,90.751,158.337,95.334,162.168z
		 M87.472,189.331c2.226-2.356,3.341-5.808,3.341-10.36c0-4.548-1.414-7.766-4.237-9.651c-2.824-1.881-7.249-2.824-13.275-2.824
		H62.002v26.363h12.9C81.051,192.86,85.242,191.684,87.472,189.331z"/>
	<path style="fill:#EBF0F3;" d="M135.209,165.083c-3.234,0-5.885,0.659-7.958,1.977c-2.073,1.322-3.107,3.314-3.107,5.981
		c0,2.67,1.034,4.709,3.107,6.118c2.073,1.414,6.482,2.939,13.229,4.567c6.747,1.636,11.831,3.927,15.252,6.873
		c3.421,2.954,5.134,7.299,5.134,13.042s-2.169,10.406-6.498,13.984c-4.333,3.578-10.015,5.368-17.041,5.368
		c-10.298,0-19.428-3.548-27.401-10.639l6.969-8.383c6.651,5.778,13.559,8.662,20.712,8.662c3.578,0,6.417-0.766,8.525-2.306
		c2.1-1.536,3.153-3.578,3.153-6.119c0-2.544-0.988-4.521-2.965-5.935c-1.977-1.41-5.383-2.697-10.218-3.858
		c-4.835-1.161-8.505-2.23-11.015-3.203c-2.513-0.973-4.739-2.241-6.686-3.812c-3.893-2.95-5.839-7.471-5.839-13.559
		c0-6.088,2.214-10.781,6.64-14.076c4.425-3.295,9.9-4.942,16.428-4.942c4.207,0,8.383,0.69,12.524,2.069
		c4.142,1.383,7.72,3.329,10.735,5.839l-5.935,8.379c-1.946-1.755-4.582-3.199-7.908-4.329
		C141.719,165.65,138.439,165.083,135.209,165.083z"/>
</g>
<g>
</g>
<g>
</g>
<g>
</g>
<g>
</g>
<g>
</g>
<g>
</g>
<g>
</g>
<g>
</g>
<g>
</g>
<g>
</g>
<g>
</g>
<g>
</g>
<g>
</g>
<g>
</g>
<g>
</g>
</svg>
