<?xml version="1.0" encoding="iso-8859-1"?>
<!-- Generator: Adobe Illustrator 19.0.0, SVG Export Plug-In . SVG Version: 6.00 Build 0)  -->
<svg version="1.1" id="Capa_1" xmlns="http://www.w3.org/2000/svg" xmlns:xlink="http://www.w3.org/1999/xlink" x="0px" y="0px"
	 viewBox="0 0 468.293 468.293" style="enable-background:new 0 0 468.293 468.293;" xml:space="preserve">
<path style="fill:#FCD462;" d="M399.734,12.488v443.317c0,6.897-5.591,12.488-12.488,12.488h-306.2
	c-6.897,0-12.488-5.591-12.488-12.488V90.224L158.845,0h228.402C394.143,0,399.734,5.591,399.734,12.488z"/>
<polygon style="fill:#F6C358;" points="158.845,0 158.845,90.224 68.558,90.224 "/>
<path style="fill:#E1E6E9;" d="M305.321,184.288c-18.012-10.101-38.749-15.82-60.769-15.82c-22.074,0-42.811,5.771-60.822,15.82
	c-38.215,21.379-64.082,62.266-64.082,109.032c0,68.892,56.012,124.904,124.905,124.904c68.839,0,124.851-56.012,124.851-124.904
	C369.403,246.5,343.535,205.667,305.321,184.288z M244.539,320.057c-14.758,0-26.723-11.964-26.723-26.723
	c0-14.759,11.965-26.723,26.723-26.723c14.759,0,26.723,11.964,26.723,26.723C271.263,308.093,259.298,320.057,244.539,320.057z"/>
<g>
	<path style="fill:#EBF0F3;" d="M263.908,258.605l41.413-74.303c-18.012-10.101-38.749-15.82-60.769-15.82
		c-22.074,0-42.811,5.771-60.822,15.82l41.449,74.303H263.908z"/>
	<path style="fill:#EBF0F3;" d="M263.908,328.101l41.413,74.303c-18.012,10.101-38.749,15.82-60.769,15.82
		c-22.074,0-42.811-5.771-60.822-15.82l41.449-74.303H263.908z"/>
</g>
<g>
	<path style="fill:#64798A;" d="M244.537,245.247c-26.523,0-48.102,21.578-48.102,48.102c0,26.519,21.578,48.098,48.102,48.098
		s48.102-21.578,48.102-48.098C292.639,266.825,271.061,245.247,244.537,245.247z M244.539,316.363
		c-12.712,0-23.017-10.305-23.017-23.017s10.305-23.017,23.017-23.017s23.017,10.305,23.017,23.017S257.251,316.363,244.539,316.363
		z"/>
	<path style="fill:#64798A;" d="M218.113,51.343h8.841v52.372h-8.841V51.343z"/>
	<path style="fill:#64798A;" d="M257.338,58.233c-2.573,0-4.683,0.524-6.329,1.573c-1.652,1.049-2.476,2.634-2.476,4.762
		c0,2.122,0.823,3.744,2.476,4.866c1.646,1.128,5.152,2.335,10.524,3.634c5.366,1.299,9.415,3.122,12.14,5.47
		c2.72,2.348,4.079,5.811,4.079,10.378c0,4.573-1.72,8.28-5.171,11.128c-3.445,2.848-7.963,4.268-13.561,4.268
		c-8.189,0-15.457-2.817-21.799-8.463l5.543-6.671c5.293,4.598,10.787,6.896,16.482,6.896c2.848,0,5.11-0.616,6.78-1.835
		c1.677-1.226,2.512-2.848,2.512-4.872c0-2.024-0.787-3.598-2.36-4.72c-1.573-1.128-4.287-2.146-8.128-3.073
		c-3.848-0.927-6.774-1.774-8.768-2.549c-2-0.774-3.774-1.787-5.323-3.037c-3.098-2.348-4.64-5.939-4.64-10.787
		s1.756-8.579,5.28-11.201c3.518-2.622,7.878-3.933,13.073-3.933c3.348,0,6.671,0.549,9.963,1.646
		c3.299,1.098,6.146,2.646,8.543,4.646l-4.72,6.671c-1.549-1.402-3.646-2.549-6.293-3.451
		C262.521,58.684,259.912,58.233,257.338,58.233z"/>
	<path style="fill:#64798A;" d="M332.521,96.483c-5.293,5.171-11.835,7.756-19.628,7.756s-14.335-2.585-19.628-7.756
		c-5.299-5.171-7.945-11.61-7.945-19.329s2.646-14.165,7.945-19.329c5.293-5.171,11.835-7.756,19.628-7.756
		s14.335,2.585,19.628,7.756c5.299,5.165,7.945,11.61,7.945,19.329S337.82,91.312,332.521,96.483z M326.046,63.702
		c-3.573-3.695-7.957-5.543-13.152-5.543s-9.579,1.848-13.152,5.543c-3.567,3.701-5.354,8.183-5.354,13.451s1.787,9.75,5.354,13.451
		c3.573,3.695,7.957,5.543,13.152,5.543s9.579-1.848,13.152-5.543c3.567-3.701,5.354-8.183,5.354-13.451
		S329.613,67.404,326.046,63.702z"/>
</g>
<g>
</g>
<g>
</g>
<g>
</g>
<g>
</g>
<g>
</g>
<g>
</g>
<g>
</g>
<g>
</g>
<g>
</g>
<g>
</g>
<g>
</g>
<g>
</g>
<g>
</g>
<g>
</g>
<g>
</g>
</svg>
