<?xml version="1.0" encoding="iso-8859-1"?>
<!-- Generator: Adobe Illustrator 19.0.0, SVG Export Plug-In . SVG Version: 6.00 Build 0)  -->
<svg version="1.1" id="Capa_1" xmlns="http://www.w3.org/2000/svg" xmlns:xlink="http://www.w3.org/1999/xlink" x="0px" y="0px"
	 viewBox="0 0 468.293 468.293" style="enable-background:new 0 0 468.293 468.293;" xml:space="preserve">
<path style="fill:#E1E6E9;" d="M85.919,0.002L9.9,76.021v378.892c0,7.389,5.99,13.38,13.38,13.38h314.87V13.381
	c0-7.389-5.99-13.38-13.38-13.38H85.919z"/>
<path style="fill:#64798A;" d="M450.046,468.293H226.253c-5.05,0-8.944-4.45-8.273-9.456l3.849-28.733
	c3.187-18.592,16.615-33.783,34.676-39.228l81.737-24.643l81.573,24.634c18.05,5.451,31.468,20.637,34.654,39.222l3.851,28.749
	C458.99,463.843,455.096,468.293,450.046,468.293z"/>
<path style="fill:#FCD462;" d="M380.077,392.683c0,25.572-83.856,25.572-83.856,0l13.749-37.38h56.358L380.077,392.683z"/>
<path style="fill:#DC8744;" d="M393.675,306.299c-0.31,1.212-0.619,2.476-1.341,3.482c-0.103,0.155-0.232,0.309-0.361,0.439
	c0.181-5.081,0.516-9.827-1.599-14.598c-2.579-5.726-6.448-10.755-10.317-15.707c-0.8-1.032-1.728-2.166-3.018-2.425
	c-1.212-0.258-2.45,0.31-3.611,0.774c-9.285,3.74-20.144,1.031-28.474-4.539c-8.305-5.545-14.572-13.592-20.711-21.511
	c-11.322,5.287-23.161,10.987-30.28,21.227c-4.591,6.628-6.783,14.547-8.898,22.31c-0.877,3.25-0.954,6.345-0.826,9.465
	c-1.599-1.883-2.631-5.803-3.198-7.557c-2.089-6.293-2.76-13.077-1.831-19.654c1.651-11.786,8.047-22.284,14.289-32.42
	c2.502-4.049,5.107-8.228,9.001-10.962c3.585-2.502,7.944-3.56,12.251-4.333c8.15-1.47,16.455-2.037,24.735-2.347
	c8.614-0.309,17.615-0.284,25.302,3.636c5.726,2.915,10.239,7.738,14.598,12.483c6.422,6.964,13.025,14.211,16.146,23.161
	C399.865,279.734,396.796,293.455,393.675,306.299z"/>
<path style="fill:#F6C358;" d="M391.972,310.22c-0.052,1.032-0.077,2.063-0.077,3.121c0,26.488-24.012,58.264-53.647,58.264
	c-29.635,0-53.673-31.775-53.673-58.264c0-2.837-0.232-5.494-0.336-8.124c-0.129-3.121-0.051-6.216,0.826-9.465
	c2.115-7.763,4.307-15.682,8.898-22.31c7.119-10.24,18.957-15.94,30.28-21.227c6.139,7.918,12.406,15.965,20.711,21.511
	c8.331,5.571,19.189,8.279,28.474,4.539c1.16-0.464,2.398-1.032,3.611-0.774c1.29,0.258,2.218,1.393,3.018,2.425
	c3.869,4.952,7.738,9.981,10.317,15.707C392.488,300.393,392.153,305.139,391.972,310.22z"/>
<polygon style="fill:#EBF0F3;" points="85.919,76.021 85.921,0 9.898,76.022 "/>
<g>
	<rect x="118.004" y="60.41" style="fill:#D5D6DB;" width="187.317" height="15.61"/>
	<rect x="42.733" y="126.782" style="fill:#D5D6DB;" width="262.556" height="15.61"/>
	<rect x="42.733" y="193.155" style="fill:#D5D6DB;" width="262.556" height="15.61"/>
	<rect x="42.733" y="259.497" style="fill:#D5D6DB;" width="198.712" height="15.61"/>
	<rect x="42.733" y="325.9" style="fill:#D5D6DB;" width="162.466" height="15.61"/>
	<rect x="42.733" y="392.242" style="fill:#D5D6DB;" width="121.975" height="15.61"/>
</g>
<g>
</g>
<g>
</g>
<g>
</g>
<g>
</g>
<g>
</g>
<g>
</g>
<g>
</g>
<g>
</g>
<g>
</g>
<g>
</g>
<g>
</g>
<g>
</g>
<g>
</g>
<g>
</g>
<g>
</g>
</svg>
