<?xml version="1.0" encoding="iso-8859-1"?>
<!-- Generator: Adobe Illustrator 19.0.0, SVG Export Plug-In . SVG Version: 6.00 Build 0)  -->
<svg version="1.1" id="Capa_1" xmlns="http://www.w3.org/2000/svg" xmlns:xlink="http://www.w3.org/1999/xlink" x="0px" y="0px"
	 viewBox="0 0 468.293 468.293" style="enable-background:new 0 0 468.293 468.293;" xml:space="preserve">
<path style="fill:#D5D6DB;" d="M420.689,12.865v379.519H151.774V12.865C151.774,5.76,157.534,0,164.639,0h243.185
	C414.93,0,420.689,5.76,420.689,12.865z"/>
<path style="fill:#E1E6E9;" d="M394.959,38.595v379.519H47.603V97.645h71.916V25.73h262.575
	C389.2,25.73,394.959,31.49,394.959,38.595z"/>
<polygon style="fill:#D5D6DB;" points="119.519,25.73 119.519,97.645 47.603,97.645 "/>
<path style="fill:#DC8744;" d="M324.659,283.65c0,49.989-40.524,90.512-90.512,90.512c-49.988,0-90.512-40.524-90.512-90.512H18.657
	c-7.105,0-12.865,5.76-12.865,12.865v146.048c0,14.21,11.52,25.73,25.73,25.73h405.249c14.21,0,25.73-11.52,25.73-25.73V296.515
	c0-7.105-5.76-12.865-12.865-12.865H324.659z"/>
<g>
	<rect x="160.78" y="81.564" style="fill:#D5D6DB;" width="192.974" height="16.084"/>
	<rect x="88.838" y="211.737" style="fill:#D5D6DB;" width="264.866" height="16.084"/>
	<rect x="88.838" y="146.651" style="fill:#D5D6DB;" width="264.866" height="16.084"/>
</g>
<g>
</g>
<g>
</g>
<g>
</g>
<g>
</g>
<g>
</g>
<g>
</g>
<g>
</g>
<g>
</g>
<g>
</g>
<g>
</g>
<g>
</g>
<g>
</g>
<g>
</g>
<g>
</g>
<g>
</g>
</svg>
