<?xml version="1.0" encoding="iso-8859-1"?>
<!-- Generator: Adobe Illustrator 19.0.0, SVG Export Plug-In . SVG Version: 6.00 Build 0)  -->
<svg version="1.1" id="Capa_1" xmlns="http://www.w3.org/2000/svg" xmlns:xlink="http://www.w3.org/1999/xlink" x="0px" y="0px"
	 viewBox="0 0 468.332 468.332" style="enable-background:new 0 0 468.332 468.332;" xml:space="preserve">
<path style="fill:#D5D6DB;" d="M263.858,466.991L31.532,349.795c-6.157-3.106-8.631-10.614-5.526-16.771L187.699,12.318
	c3.105-6.159,10.616-8.634,16.775-5.528L436.8,123.987c6.157,3.106,8.631,10.614,5.526,16.771L280.633,461.464
	C277.528,467.623,270.017,470.098,263.858,466.991z"/>
<path style="fill:#E1E6E9;" d="M375.825,441.887H92.488c-6.897,0-12.488-5.591-12.488-12.488V39.281
	c0-6.897,5.591-12.488,12.488-12.488h283.337c6.897,0,12.488,5.591,12.488,12.488v390.118
	C388.313,436.296,382.722,441.887,375.825,441.887z"/>
<path style="fill:#64798A;" d="M161.732,0h-28.96c-10.766,0-19.523,8.757-19.523,19.523v7.27h13.015v-7.27
	c0-3.591,2.917-6.508,6.508-6.508h28.96c3.591,0,6.508,2.917,6.508,6.508v110.621c0,3.591-2.917,6.508-6.508,6.508h-15.945
	c-3.591,0-6.508-2.917-6.508-6.508v-61.2h-13.015v61.2c0,10.766,8.757,19.523,19.523,19.523h15.945
	c10.766,0,19.523-8.757,19.523-19.523V19.523C181.255,8.757,172.497,0,161.732,0z"/>
<g>
	<rect x="201.923" y="72.199" style="fill:#D5D6DB;" width="151.964" height="15.753"/>
	<rect x="201.923" y="133.914" style="fill:#D5D6DB;" width="151.964" height="15.753"/>
	<rect x="114.427" y="195.61" style="fill:#D5D6DB;" width="239.454" height="15.753"/>
	<rect x="114.427" y="257.312" style="fill:#D5D6DB;" width="239.454" height="15.753"/>
	<rect x="114.427" y="319.021" style="fill:#D5D6DB;" width="239.454" height="15.753"/>
	<rect x="114.427" y="380.711" style="fill:#D5D6DB;" width="239.454" height="15.753"/>
</g>
<g>
</g>
<g>
</g>
<g>
</g>
<g>
</g>
<g>
</g>
<g>
</g>
<g>
</g>
<g>
</g>
<g>
</g>
<g>
</g>
<g>
</g>
<g>
</g>
<g>
</g>
<g>
</g>
<g>
</g>
</svg>
