<?xml version="1.0" encoding="iso-8859-1"?>
<!-- Generator: Adobe Illustrator 19.0.0, SVG Export Plug-In . SVG Version: 6.00 Build 0)  -->
<svg version="1.1" id="Capa_1" xmlns="http://www.w3.org/2000/svg" xmlns:xlink="http://www.w3.org/1999/xlink" x="0px" y="0px"
	 viewBox="0 0 468.302 468.302" style="enable-background:new 0 0 468.302 468.302;" xml:space="preserve">
<path style="fill:#E1E6E9;" d="M444.156,12.497v443.317c0,6.897-5.591,12.488-12.488,12.488H113.229
	c-6.897,0-12.488-5.591-12.488-12.488V64.072h64.063V0.01h266.864C438.565,0.01,444.156,5.601,444.156,12.497z"/>
<rect x="234.963" style="fill:#D5D6DB;" width="74.927" height="278.235"/>
<g>
	<rect x="234.963" style="fill:#64798A;" width="37.463" height="46.373"/>
	<rect x="272.426" y="46.373" style="fill:#64798A;" width="37.463" height="46.373"/>
	<rect x="234.963" y="92.747" style="fill:#64798A;" width="37.463" height="46.373"/>
	<rect x="272.426" y="139.12" style="fill:#64798A;" width="37.463" height="46.373"/>
	<rect x="234.963" y="185.513" style="fill:#64798A;" width="37.463" height="46.373"/>
	<rect x="272.426" y="231.861" style="fill:#64798A;" width="37.463" height="46.373"/>
</g>
<polygon style="fill:#EBF0F3;" points="164.804,0.01 164.804,64.072 100.741,64.072 "/>
<path style="fill:#64798A;" d="M272.454,395.303L272.454,395.303c-17.694,0-31.195-15.821-28.411-33.295l10.058-63.141h36.706
	l10.058,63.141C303.648,379.482,290.148,395.303,272.454,395.303z"/>
<circle style="fill:#EBF0F3;" cx="272.426" cy="365.774" r="15.61"/>
<path style="fill:#44C4A1;" d="M164.848,424.821H36.634c-6.897,0-12.488-5.591-12.488-12.488v-61.955
	c0-6.897,5.591-12.488,12.488-12.488h128.214c6.897,0,12.488,5.591,12.488,12.488v61.955
	C177.336,419.23,171.745,424.821,164.848,424.821z"/>
<g>
	<path style="fill:#EBF0F3;" d="M73.46,364.199H45.465v-7.672h39.645v6.533l-28.845,35.17v0.214h29.273v7.742H44.546v-6.464
		l28.914-35.309V364.199z"/>
	<path style="fill:#EBF0F3;" d="M96.049,356.527h8.383v49.659h-8.383V356.527z"/>
	<path style="fill:#EBF0F3;" d="M151.75,360.857c3.457,2.891,5.186,7.343,5.186,13.356c0,6.019-1.763,10.424-5.296,13.217
		c-3.527,2.793-8.938,4.192-16.229,4.192H126.6v14.564h-8.383v-49.659h17.05C142.8,356.527,148.293,357.972,151.75,360.857z
		 M145.818,381.353c1.682-1.775,2.521-4.377,2.521-7.811s-1.064-5.863-3.197-7.285c-2.133-1.422-5.469-2.128-10.02-2.128H126.6
		v19.889h9.731C140.973,384.019,144.136,383.134,145.818,381.353z"/>
</g>
<g>
</g>
<g>
</g>
<g>
</g>
<g>
</g>
<g>
</g>
<g>
</g>
<g>
</g>
<g>
</g>
<g>
</g>
<g>
</g>
<g>
</g>
<g>
</g>
<g>
</g>
<g>
</g>
<g>
</g>
</svg>
