<?xml version="1.0" encoding="iso-8859-1"?>
<!-- Generator: Adobe Illustrator 19.0.0, SVG Export Plug-In . SVG Version: 6.00 Build 0)  -->
<svg version="1.1" id="Capa_1" xmlns="http://www.w3.org/2000/svg" xmlns:xlink="http://www.w3.org/1999/xlink" x="0px" y="0px"
	 viewBox="0 0 468.293 468.293" style="enable-background:new 0 0 468.293 468.293;" xml:space="preserve">
<path style="fill:#E1E6E9;" d="M402.732,91.973v363.832c0,6.897-5.591,12.488-12.488,12.488H78.049
	c-6.897,0-12.488-5.591-12.488-12.488V12.488C65.561,5.591,71.152,0,78.049,0h232.71v91.973H402.732z"/>
<polygon style="fill:#EBF0F3;" points="402.732,91.973 310.759,91.973 310.759,0 "/>
<g>
	<rect x="100.745" y="76.363" style="fill:#D5D6DB;" width="174.829" height="15.61"/>
	<rect x="192.125" y="376.32" style="fill:#D5D6DB;" width="174.829" height="15.61"/>
	<rect x="150.697" y="301.331" style="fill:#D5D6DB;" width="216.239" height="15.61"/>
	<rect x="150.697" y="226.341" style="fill:#D5D6DB;" width="216.239" height="15.61"/>
	<rect x="150.697" y="151.352" style="fill:#D5D6DB;" width="216.239" height="15.61"/>
	<polyline style="fill:#D5D6DB;" points="100.745,316.941 123.629,316.941 123.629,301.331 100.745,301.331 	"/>
	<polyline style="fill:#D5D6DB;" points="100.745,241.951 123.629,241.951 123.629,226.341 100.745,226.341 	"/>
	<polyline style="fill:#D5D6DB;" points="100.745,166.962 123.629,166.962 123.629,151.352 100.745,151.352 	"/>
</g>
<g>
</g>
<g>
</g>
<g>
</g>
<g>
</g>
<g>
</g>
<g>
</g>
<g>
</g>
<g>
</g>
<g>
</g>
<g>
</g>
<g>
</g>
<g>
</g>
<g>
</g>
<g>
</g>
<g>
</g>
</svg>
