<?xml version="1.0" encoding="iso-8859-1"?>
<!-- Generator: Adobe Illustrator 19.0.0, SVG Export Plug-In . SVG Version: 6.00 Build 0)  -->
<svg version="1.1" id="Capa_1" xmlns="http://www.w3.org/2000/svg" xmlns:xlink="http://www.w3.org/1999/xlink" x="0px" y="0px"
	 viewBox="0 0 468.293 468.293" style="enable-background:new 0 0 468.293 468.293;" xml:space="preserve">
<path style="fill:#EBF0F3;" d="M405.858,12.488v443.317c0,6.897-5.591,12.488-12.488,12.488H74.931
	c-6.897,0-12.488-5.591-12.488-12.488V66.622h66.623V0H393.37C400.267,0,405.858,5.591,405.858,12.488z"/>
<path style="fill:#D5D6DB;" d="M393.361,468.282H74.922c-6.897,0-12.488-5.591-12.488-12.488v-95.345h343.415v95.345
	C405.849,462.691,400.258,468.282,393.361,468.282z"/>
<g>
	<path style="fill:#64798A;" d="M144.549,444.898H134.24v-61.065h16.075l18.436,38.35l18.428-38.35h15.99v61.065h-10.309v-47.699
		l-21.315,42.367h-5.766l-21.23-42.367V444.898z"/>
	<path style="fill:#64798A;" d="M220.118,383.833h10.309v29.79l27.955-29.79h13.103l-24.55,26.733l24.898,34.333h-12.229
		l-20.27-26.733l-8.908,9.612v17.12h-10.309V383.833z"/>
	<path style="fill:#64798A;" d="M309.494,444.898h-11.532l-24.55-61.065h11.532l18.784,45.602l18.784-45.602h11.532L309.494,444.898
		z"/>
</g>
<polygon style="fill:#E1E6E9;" points="129.067,0 129.067,66.622 62.443,66.622 "/>
<g>
	<path style="fill:#DC8744;" d="M332.987,260.183h-17.67l-10.152-30.088l-150.213,24.292l-0.165,0.489l-1.811,5.307h-17.67
		c-3.497,0-6.244,2.81-6.244,6.244v17.483c0,3.434,2.747,6.244,6.244,6.244h197.682c3.497,0,6.244-2.809,6.244-6.244v-17.483
		C339.231,262.993,336.484,260.183,332.987,260.183z"/>
	<polygon style="fill:#DC8744;" points="264.991,111.703 260.24,97.327 205.104,106.237 205.05,106.396 199.621,122.437 
		265.062,111.912 	"/>
	<polygon style="fill:#DC8744;" points="273.982,138.178 269.129,123.863 195.073,135.83 194.997,136.054 189.59,152.091 
		274.071,138.441 	"/>
	<polygon style="fill:#DC8744;" points="282.974,164.714 278.138,150.513 185.043,165.486 184.944,165.776 179.559,181.685 
		283.081,165.029 	"/>
	<polygon style="fill:#DC8744;" points="291.965,191.188 287.147,176.979 175.013,195.078 174.892,195.434 169.529,211.34 
		292.091,191.556 	"/>
	<polygon style="fill:#DC8744;" points="300.894,217.662 296.212,203.558 164.982,224.672 164.839,225.093 159.498,240.932 
		301.038,218.082 	"/>
	<polygon style="fill:#DC8744;" points="256.062,85.167 249.756,66.622 218.537,66.622 209.651,92.843 256.117,85.325 	"/>
</g>
<g>
	<polygon style="fill:#EBF0F3;" points="260.183,97.155 256.117,85.325 209.651,92.843 209.608,92.972 205.104,106.237 
		260.24,97.327 	"/>
	<polygon style="fill:#EBF0F3;" points="269.05,123.629 265.062,111.912 199.621,122.437 199.555,122.63 195.073,135.83 
		269.129,123.863 	"/>
	<polygon style="fill:#EBF0F3;" points="278.041,150.228 274.071,138.441 189.59,152.091 189.502,152.351 185.043,165.486 
		278.138,150.513 	"/>
	<polygon style="fill:#EBF0F3;" points="287.032,176.64 283.081,165.029 179.559,181.685 179.45,182.01 175.013,195.078 
		287.147,176.979 	"/>
	<polygon style="fill:#EBF0F3;" points="296.086,203.176 292.091,191.556 169.529,211.34 169.397,211.731 164.982,224.672 
		296.212,203.558 	"/>
	<polygon style="fill:#EBF0F3;" points="305.014,229.651 301.038,218.082 159.498,240.932 159.344,241.389 154.951,254.388 
		305.165,230.096 	"/>
</g>
<polygon style="fill:#D5D6DB;" points="129.067,66.622 62.435,91.934 62.435,66.622 "/>
<g>
</g>
<g>
</g>
<g>
</g>
<g>
</g>
<g>
</g>
<g>
</g>
<g>
</g>
<g>
</g>
<g>
</g>
<g>
</g>
<g>
</g>
<g>
</g>
<g>
</g>
<g>
</g>
<g>
</g>
</svg>
