<?xml version="1.0" encoding="iso-8859-1"?>
<!-- Generator: Adobe Illustrator 19.0.0, SVG Export Plug-In . SVG Version: 6.00 Build 0)  -->
<svg version="1.1" id="Capa_1" xmlns="http://www.w3.org/2000/svg" xmlns:xlink="http://www.w3.org/1999/xlink" x="0px" y="0px"
	 viewBox="0 0 468.293 468.293" style="enable-background:new 0 0 468.293 468.293;" xml:space="preserve">
<path style="fill:#FCD462;" d="M402.732,12.488v443.317c0,6.897-5.591,12.488-12.488,12.488H78.049
	c-6.897,0-12.488-5.591-12.488-12.488V93.784h93.783V0h230.9C397.141,0,402.732,5.591,402.732,12.488z"/>
<polygon style="fill:#F6C358;" points="159.344,0 159.344,93.784 65.561,93.784 "/>
<circle style="fill:#EBF0F3;" cx="234.146" cy="281.038" r="112.578"/>
<path style="fill:#E56353;" d="M302.596,269.689l-98.518-56.593c-10.356-5.949-22.526,4.073-18.675,15.379
	c5.078,14.908,9.464,33.055,9.464,51.268c0,0.432-0.033,0.863-0.038,1.295h114.244C309.116,276.628,306.968,272.201,302.596,269.689
	z"/>
<path style="fill:#D15241;" d="M194.829,281.038c-0.204,18.71-4.754,37.411-9.92,52.669c-3.812,11.261,8.404,21.198,18.712,15.276
	l98.975-56.858c4.285-2.462,6.433-6.766,6.477-11.087H194.829z"/>
<path style="fill:#F6C358;" d="M390.244,0H159.343v18.732h212.169c6.896,0,12.488,5.59,12.488,12.488v437.073h6.244
	c6.896,0,12.488-5.591,12.488-12.488V12.488C402.732,5.59,397.14,0,390.244,0z"/>
<g>
</g>
<g>
</g>
<g>
</g>
<g>
</g>
<g>
</g>
<g>
</g>
<g>
</g>
<g>
</g>
<g>
</g>
<g>
</g>
<g>
</g>
<g>
</g>
<g>
</g>
<g>
</g>
<g>
</g>
</svg>
