<?xml version="1.0" encoding="iso-8859-1"?>
<!-- Generator: Adobe Illustrator 19.0.0, SVG Export Plug-In . SVG Version: 6.00 Build 0)  -->
<svg version="1.1" id="Capa_1" xmlns="http://www.w3.org/2000/svg" xmlns:xlink="http://www.w3.org/1999/xlink" x="0px" y="0px"
	 viewBox="0 0 468.293 468.293" style="enable-background:new 0 0 468.293 468.293;" xml:space="preserve">
<path style="fill:#E1E6E9;" d="M138.25,0L71.805,66.445v389.36c0,6.897,5.591,12.488,12.488,12.488H384
	c6.897,0,12.488-5.591,12.488-12.488V12.488C396.488,5.591,390.897,0,384,0L138.25,0L138.25,0z"/>
<polygon style="fill:#EBF0F3;" points="138.25,66.445 138.25,0 71.805,66.445 "/>
<path style="fill:#64798A;" d="M234.146,329.183L234.146,329.183c-48.278,0-87.415-39.137-87.415-87.415v-44.459
	c0-12.692,10.289-22.981,22.981-22.981H298.58c12.692,0,22.981,10.289,22.981,22.981v44.459
	C321.561,290.046,282.424,329.183,234.146,329.183z"/>
<path style="fill:#D5D6DB;" d="M237.365,68.189h-6.438c-32.704,0-59.216,26.511-59.216,59.216v46.924h22.982v-46.923
	c0-19.979,16.254-36.236,36.233-36.236h6.435c19.985,0,36.239,16.257,36.239,36.236v46.923h22.98v-46.924
	C296.581,94.7,270.069,68.189,237.365,68.189z"/>
<path style="fill:#E1E6E9;" d="M242.21,258.4l2.766,25.801c0.273,2.549-1.724,4.772-4.288,4.772h-13.084
	c-2.563,0-4.561-2.223-4.288-4.772l2.766-25.801c-5.321-3.192-8.557-9.482-7.26-16.418c1.098-5.871,5.721-10.749,11.536-12.114
	c10.27-2.412,19.398,5.306,19.398,15.165C249.756,250.725,246.738,255.684,242.21,258.4z"/>
<g>
	<rect x="107.145" y="383.126" style="fill:#D5D6DB;" width="31.22" height="31.22"/>
	<rect x="162.223" y="383.126" style="fill:#D5D6DB;" width="31.22" height="31.22"/>
	<rect x="218.418" y="383.126" style="fill:#D5D6DB;" width="31.22" height="31.22"/>
	<rect x="273.483" y="383.126" style="fill:#D5D6DB;" width="31.22" height="31.22"/>
	<rect x="329.928" y="383.126" style="fill:#D5D6DB;" width="31.22" height="31.22"/>
</g>
<g>
</g>
<g>
</g>
<g>
</g>
<g>
</g>
<g>
</g>
<g>
</g>
<g>
</g>
<g>
</g>
<g>
</g>
<g>
</g>
<g>
</g>
<g>
</g>
<g>
</g>
<g>
</g>
<g>
</g>
</svg>
