<?xml version="1.0" encoding="iso-8859-1"?>
<!-- Generator: Adobe Illustrator 19.0.0, SVG Export Plug-In . SVG Version: 6.00 Build 0)  -->
<svg version="1.1" id="Capa_1" xmlns="http://www.w3.org/2000/svg" xmlns:xlink="http://www.w3.org/1999/xlink" x="0px" y="0px"
	 viewBox="0 0 468.293 468.293" style="enable-background:new 0 0 468.293 468.293;" xml:space="preserve">
<path style="fill:#44C4A1;" d="M405.854,79.985v375.82c0,6.869-5.62,12.488-12.488,12.488H74.927
	c-6.869,0-12.488-5.619-12.488-12.488V12.488C62.439,5.62,68.058,0,74.927,0h251.005v79.985H405.854z"/>
<polygon style="fill:#3EA69B;" points="405.854,79.985 325.931,79.985 325.931,0 "/>
<path style="fill:#FCD462;" d="M286.456,218.009l-8.031-24.859c-1.665-5.155-6.465-8.649-11.883-8.649h-64.791
	c-5.418,0-10.218,3.493-11.883,8.649l-8.031,24.859h-59.678c-6.897,0-12.488,5.591-12.488,12.488v120.791
	c0,6.897,5.591,12.488,12.488,12.488h223.976c6.897,0,12.488-5.591,12.488-12.488V230.497c0-6.897-5.591-12.488-12.488-12.488
	H286.456z"/>
<circle style="fill:#E1E6E9;" cx="234.146" cy="290.903" r="56.195"/>
<circle style="fill:#D5D6DB;" cx="234.146" cy="290.903" r="40.585"/>
<circle style="fill:#64798A;" cx="234.146" cy="290.903" r="20.018"/>
<g>
	<circle style="fill:#EBF0F3;" cx="229.838" cy="280.788" r="8.51"/>
	<circle style="fill:#EBF0F3;" cx="240.147" cy="303.579" r="5.994"/>
</g>
<circle style="fill:#E56353;" cx="149.236" cy="244.605" r="9.366"/>
<path style="fill:#64798A;" d="M161.692,217.919h-24.907v-2.798c0-3.448,2.795-6.244,6.244-6.244h12.42
	c3.448,0,6.244,2.795,6.244,6.244V217.919z"/>
<path style="fill:#31978C;" d="M325.931,0v39.962H62.439V12.488C62.439,5.62,68.058,0,74.927,0H325.931z"/>
<g>
</g>
<g>
</g>
<g>
</g>
<g>
</g>
<g>
</g>
<g>
</g>
<g>
</g>
<g>
</g>
<g>
</g>
<g>
</g>
<g>
</g>
<g>
</g>
<g>
</g>
<g>
</g>
<g>
</g>
</svg>
