<?xml version="1.0" encoding="iso-8859-1"?>
<!-- Generator: Adobe Illustrator 19.0.0, SVG Export Plug-In . SVG Version: 6.00 Build 0)  -->
<svg version="1.1" id="Capa_1" xmlns="http://www.w3.org/2000/svg" xmlns:xlink="http://www.w3.org/1999/xlink" x="0px" y="0px"
	 viewBox="0 0 468.293 468.293" style="enable-background:new 0 0 468.293 468.293;" xml:space="preserve">
<path style="fill:#D5D6DB;" d="M162.025,74.902v380.903c0,6.897,5.591,12.488,12.488,12.488h263.511
	c6.897,0,12.488-5.591,12.488-12.488v-311.56H381.17V74.902H162.025z"/>
<g>
	<polygon style="fill:#E1E6E9;" points="381.17,74.902 381.17,144.245 450.511,144.245 	"/>
	<path style="fill:#E1E6E9;" d="M306.268,12.488v380.903H30.269c-6.897,0-12.488-5.591-12.488-12.488V69.343h69.342V0H293.78
		C300.677,0,306.268,5.591,306.268,12.488z"/>
</g>
<polygon style="fill:#EBF0F3;" points="87.123,0 87.123,69.343 17.781,69.343 "/>
<path style="fill:#3A556A;" d="M382.622,258.458c0.227-0.381,0.453-0.759,0.625-1.172c0.078-0.186,0.114-0.386,0.179-0.575
	c0.132-0.387,0.275-0.768,0.357-1.174c0.122-0.607,0.186-1.226,0.186-1.851s-0.064-1.245-0.186-1.851
	c-0.082-0.409-0.226-0.791-0.36-1.18c-0.064-0.188-0.1-0.386-0.177-0.569c-0.174-0.418-0.403-0.803-0.634-1.188
	c-0.082-0.139-0.139-0.288-0.229-0.422c-0.34-0.508-0.727-0.982-1.159-1.413l-29.634-29.628c-3.659-3.659-9.585-3.659-13.244,0
	s-3.659,9.585,0,13.244l13.643,13.64H237.933c-5.171,0-9.366,4.195-9.366,9.366c0,5.171,4.195,9.366,9.366,9.366h114.061
	l-13.646,13.646c-3.659,3.659-3.659,9.585,0,13.244c1.829,1.829,4.226,2.744,6.622,2.744c2.396,0,4.793-0.915,6.622-2.744
	l29.634-29.634c0.431-0.43,0.818-0.905,1.159-1.413C382.477,258.757,382.536,258.601,382.622,258.458z"/>
<g>
	<rect x="68.364" y="133.663" style="fill:#D5D6DB;" width="187.317" height="15.61"/>
	<rect x="68.364" y="178.326" style="fill:#D5D6DB;" width="187.317" height="15.61"/>
	<rect x="68.364" y="313.463" style="fill:#D5D6DB;" width="187.317" height="15.61"/>
</g>
<g>
</g>
<g>
</g>
<g>
</g>
<g>
</g>
<g>
</g>
<g>
</g>
<g>
</g>
<g>
</g>
<g>
</g>
<g>
</g>
<g>
</g>
<g>
</g>
<g>
</g>
<g>
</g>
<g>
</g>
</svg>
