<?xml version="1.0" encoding="iso-8859-1"?>
<!-- Generator: Adobe Illustrator 19.0.0, SVG Export Plug-In . SVG Version: 6.00 Build 0)  -->
<svg version="1.1" id="Capa_1" xmlns="http://www.w3.org/2000/svg" xmlns:xlink="http://www.w3.org/1999/xlink" x="0px" y="0px"
	 viewBox="0 0 468.293 468.293" style="enable-background:new 0 0 468.293 468.293;" xml:space="preserve">
<path style="fill:#D5D6DB;" d="M338.743,374.886v49.884c0,24.037,19.485,43.522,43.522,43.522h0
	c24.037,0,43.522-19.485,43.522-43.522v-49.884V12.488C425.787,5.591,420.196,0,413.299,0H91.587
	C84.69,0,79.099,5.591,79.099,12.488v362.399h31.087H338.743"/>
<path style="fill:#E1E6E9;" d="M86.028,468.293L86.028,468.293c-24.037,0-43.522-19.485-43.522-43.522v-49.884h296.237v49.884
	c0,24.037,19.485,43.522,43.522,43.522h0H86.028z"/>
<g>
	<path style="fill:#64798A;" d="M200.372,74.872c-1.394-3.553-5.424-5.312-8.955-3.899c-12.423,4.884-22.227,16.412-31.704,27.557
		c-8.334,9.8-17.055,19.974-23.554,19.79c-3.081-0.067-6.567-2.564-10.363-7.43c-2.348-3.009-6.684-3.549-9.697-1.196
		c-3.009,2.348-3.544,6.688-1.196,9.697c6.567,8.415,13.426,12.584,20.968,12.742c0.148,0.004,0.297,0.004,0.441,0.004
		c12.958,0,23.145-11.982,33.926-24.656c8.375-9.85,17.037-20.033,26.235-23.653C200.026,82.432,201.771,78.42,200.372,74.872z"/>
	<rect x="238.317" y="93.502" style="fill:#64798A;" width="153.125" height="15.61"/>
	<path style="fill:#64798A;" d="M200.372,161.319c-1.394-3.553-5.424-5.312-8.955-3.899c-12.423,4.884-22.227,16.412-31.704,27.557
		c-8.334,9.8-17.055,19.974-23.554,19.79c-3.081-0.067-6.567-2.564-10.363-7.43c-2.348-3.009-6.684-3.549-9.697-1.196
		c-3.009,2.348-3.544,6.688-1.196,9.697c6.567,8.415,13.426,12.584,20.968,12.742c0.148,0.005,0.297,0.005,0.441,0.005
		c12.958,0,23.145-11.982,33.926-24.656c8.375-9.85,17.037-20.033,26.235-23.653C200.026,168.88,201.771,164.868,200.372,161.319z"
		/>
	<rect x="238.317" y="179.949" style="fill:#64798A;" width="153.125" height="15.61"/>
	<path style="fill:#64798A;" d="M199.49,248.307c-1.366-3.481-5.314-5.203-8.772-3.82c-12.169,4.785-21.774,16.077-31.057,26.995
		c-8.164,9.6-16.707,19.566-23.074,19.386c-3.018-0.066-6.433-2.511-10.151-7.279c-2.3-2.948-6.547-3.476-9.499-1.172
		c-2.948,2.3-3.472,6.552-1.172,9.499c6.433,8.243,13.152,12.328,20.54,12.482c0.145,0.004,0.291,0.004,0.432,0.004
		c12.693,0,22.673-11.737,33.234-24.153c8.204-9.649,16.689-19.624,25.699-23.171C199.151,255.713,200.86,251.783,199.49,248.307z"
		/>
	<rect x="238.317" y="266.427" style="fill:#64798A;" width="153.125" height="15.61"/>
</g>
<g>
</g>
<g>
</g>
<g>
</g>
<g>
</g>
<g>
</g>
<g>
</g>
<g>
</g>
<g>
</g>
<g>
</g>
<g>
</g>
<g>
</g>
<g>
</g>
<g>
</g>
<g>
</g>
<g>
</g>
</svg>
