<?xml version="1.0" encoding="iso-8859-1"?>
<!-- Generator: Adobe Illustrator 19.0.0, SVG Export Plug-In . SVG Version: 6.00 Build 0)  -->
<svg version="1.1" id="Capa_1" xmlns="http://www.w3.org/2000/svg" xmlns:xlink="http://www.w3.org/1999/xlink" x="0px" y="0px"
	 viewBox="0 0 468.293 468.293" style="enable-background:new 0 0 468.293 468.293;" xml:space="preserve">
<rect x="99.063" y="50.164" style="fill:#D5D6DB;" width="295.898" height="418.129"/>
<rect x="73.332" y="24.432" style="fill:#E1E6E9;" width="295.899" height="418.129"/>
<path style="fill:#64798A;" d="M150.922,0h-23.672c-9.79,0-17.754,7.964-17.754,17.754v6.71h11.836v-6.71
	c0-3.265,2.656-5.918,5.918-5.918h23.672c3.262,0,5.918,2.653,5.918,5.918v82.039c0,6.525-5.308,11.836-11.836,11.836
	c-6.528,0-11.836-5.311-11.836-11.836V50.166h-11.836v49.627c0,13.056,10.62,23.672,23.672,23.672
	c13.053,0,23.672-10.617,23.672-23.672V17.754C168.676,7.964,160.712,0,150.922,0z"/>
<g>
	<rect x="102.921" y="390.494" style="fill:#D5D6DB;" width="236.725" height="14.798"/>
	<rect x="102.921" y="324.745" style="fill:#D5D6DB;" width="236.725" height="14.798"/>
	<rect x="102.921" y="258.991" style="fill:#D5D6DB;" width="236.725" height="14.798"/>
	<rect x="102.921" y="193.243" style="fill:#D5D6DB;" width="236.725" height="14.798"/>
	<rect x="198.247" y="127.488" style="fill:#D5D6DB;" width="141.381" height="14.798"/>
	<rect x="198.247" y="61.733" style="fill:#D5D6DB;" width="141.381" height="14.798"/>
</g>
<g>
</g>
<g>
</g>
<g>
</g>
<g>
</g>
<g>
</g>
<g>
</g>
<g>
</g>
<g>
</g>
<g>
</g>
<g>
</g>
<g>
</g>
<g>
</g>
<g>
</g>
<g>
</g>
<g>
</g>
</svg>
