<?xml version="1.0" encoding="iso-8859-1"?>
<!-- Generator: Adobe Illustrator 19.0.0, SVG Export Plug-In . SVG Version: 6.00 Build 0)  -->
<svg version="1.1" id="Capa_1" xmlns="http://www.w3.org/2000/svg" xmlns:xlink="http://www.w3.org/1999/xlink" x="0px" y="0px"
	 viewBox="0 0 468.293 468.293" style="enable-background:new 0 0 468.293 468.293;" xml:space="preserve">
<path style="fill:#E1E6E9;" d="M53.069,0c-6.897,0-12.488,5.591-12.488,12.488v378.708l0,33.74c0,21.355,15.34,40.463,36.539,43.038
	c25.406,3.086,47.003-16.661,47.003-41.451v-0.139h269.201V12.488C393.324,5.591,387.733,0,380.836,0H53.069z"/>
<path style="fill:#D5D6DB;" d="M124.123,414.41v12.111c0,23.07-18.701,41.771-41.771,41.771h303.588
	c23.069,0,41.771-18.701,41.771-41.771V414.41H124.123z"/>
<circle style="fill:#E56353;" cx="216.976" cy="56.151" r="31.22"/>
<circle style="fill:#FCD462;" cx="216.976" cy="56.151" r="16.347"/>
<rect x="72.117" y="130.366" style="fill:#44C4A1;" width="46.979" height="46.979"/>
<rect x="72.117" y="215.265" style="fill:#27A2DB;" width="46.979" height="46.979"/>
<rect x="72.117" y="300.163" style="fill:#E56353;" width="46.979" height="46.979"/>
<rect x="174.455" y="146.045" style="fill:#44C4A1;" width="187.317" height="15.61"/>
<rect x="174.455" y="230.949" style="fill:#27A2DB;" width="187.317" height="15.61"/>
<rect x="174.455" y="315.817" style="fill:#E56353;" width="187.317" height="15.61"/>
<g>
</g>
<g>
</g>
<g>
</g>
<g>
</g>
<g>
</g>
<g>
</g>
<g>
</g>
<g>
</g>
<g>
</g>
<g>
</g>
<g>
</g>
<g>
</g>
<g>
</g>
<g>
</g>
<g>
</g>
</svg>
