<?xml version="1.0" encoding="iso-8859-1"?>
<!-- Generator: Adobe Illustrator 19.0.0, SVG Export Plug-In . SVG Version: 6.00 Build 0)  -->
<svg version="1.1" id="Capa_1" xmlns="http://www.w3.org/2000/svg" xmlns:xlink="http://www.w3.org/1999/xlink" x="0px" y="0px"
	 viewBox="0 0 468.293 468.293" style="enable-background:new 0 0 468.293 468.293;" xml:space="preserve">
<path style="fill:#FCD462;" d="M400.876,110.263H187.899V84.618c0-6.066-4.917-10.983-10.983-10.983H37.643
	c-6.066,0-10.983,4.917-10.983,10.983v25.645H10.983C4.917,110.263,0,115.18,0,121.246v256.938c0,9.099,7.376,16.474,16.474,16.474
	h378.911c9.099,0,16.474-7.376,16.474-16.474V121.246C411.859,115.18,406.942,110.263,400.876,110.263z"/>
<rect x="93.29" y="145.957" style="fill:#EBF0F3;" width="293.526" height="104.142"/>
<path style="fill:#F6C358;" d="M391.45,394.658H14.776c-7.361,0-12.639-7.1-10.517-14.149l55.756-185.223
	c3.492-11.602,14.176-19.543,26.292-19.543h354.511c18.403,0,31.597,17.749,26.292,35.372l-49.367,164
	C414.25,386.716,403.566,394.658,391.45,394.658z"/>
<path style="fill:#EBF0F3;" d="M386.81,307.222H282.695c-3.563,0-6.182,4.371-5.333,8.9l9.43,50.309
	c0.603,3.215,2.804,5.475,5.333,5.475h85.255c2.529,0,4.731-2.26,5.333-5.475l9.43-50.309
	C392.992,311.593,390.372,307.222,386.81,307.222z"/>
<g>
	<rect x="301.374" y="323.06" style="fill:#D5D6DB;" width="66.754" height="8.236"/>
	<rect x="301.374" y="347.785" style="fill:#D5D6DB;" width="66.754" height="8.236"/>
</g>
<g>
</g>
<g>
</g>
<g>
</g>
<g>
</g>
<g>
</g>
<g>
</g>
<g>
</g>
<g>
</g>
<g>
</g>
<g>
</g>
<g>
</g>
<g>
</g>
<g>
</g>
<g>
</g>
<g>
</g>
</svg>
