<?xml version="1.0" encoding="iso-8859-1"?>
<!-- Generator: Adobe Illustrator 19.0.0, SVG Export Plug-In . SVG Version: 6.00 Build 0)  -->
<svg version="1.1" id="Capa_1" xmlns="http://www.w3.org/2000/svg" xmlns:xlink="http://www.w3.org/1999/xlink" x="0px" y="0px"
	 viewBox="0 0 468.229 468.229" style="enable-background:new 0 0 468.229 468.229;" xml:space="preserve">
<path style="fill:#27A2DB;" d="M314.09,27.63v412.97c0,6.425-5.208,11.633-11.633,11.633H11.633C5.208,452.232,0,447.024,0,440.599
	V91.03h75.033V15.997h227.424C308.881,15.997,314.09,21.205,314.09,27.63z"/>
<polygon style="fill:#E1E6E9;" points="75.033,15.997 75.033,91.03 0,91.03 "/>
<g>
	<rect x="32.099" y="375.939" style="fill:#EBF0F3;" width="185.219" height="14.798"/>
	<rect x="101.95" y="77.087" style="fill:#EBF0F3;" width="185.219" height="15.616"/>
	<rect x="32.099" y="151.695" style="fill:#EBF0F3;" width="221.353" height="15.616"/>
	<rect x="32.099" y="226.616" style="fill:#EBF0F3;" width="172.725" height="14.992"/>
	<rect x="32.099" y="301.305" style="fill:#EBF0F3;" width="139.651" height="14.836"/>
</g>
<rect x="302.499" y="29.893" transform="matrix(-0.8384 -0.545 0.545 -0.8384 467.1597 523.785)" style="fill:#F6C358;" width="17.452" height="325.496"/>
<rect x="317.152" y="39.416" transform="matrix(-0.8384 -0.545 0.545 -0.8384 488.906 549.2778)" style="fill:#FCD462;" width="17.452" height="325.496"/>
<rect x="331.762" y="48.918" transform="matrix(-0.8384 -0.545 0.545 -0.8384 510.5867 574.7092)" style="fill:#F6C358;" width="17.452" height="325.496"/>
<rect x="346.383" y="58.432" transform="matrix(-0.8384 -0.545 0.545 -0.8384 532.2813 600.17)" style="fill:#FCD462;" width="17.452" height="325.496"/>
<path style="fill:#E1E6E9;" d="M274.103,361.795l-30.108,16.432l-24.963,13.644c-4.064,2.221-8.967-0.967-8.586-5.582l2.34-28.351
	l2.8-34.185L274.103,361.795z"/>
<path style="fill:#64798A;" d="M243.995,378.227l-24.963,13.644c-4.064,2.221-8.967-0.967-8.586-5.582l2.34-28.351L243.995,378.227z
	"/>
<path style="fill:#E56353;" d="M451.135,89.483L392.618,51.44l15.074-23.186c3.759-5.782,11.494-7.422,17.276-3.663l37.579,24.43
	c5.782,3.759,7.422,11.494,3.663,17.276L451.135,89.483z"/>
<rect x="383.737" y="69.503" transform="matrix(-0.8384 -0.545 0.545 -0.8384 728.4955 366.8835)" style="fill:#E1E6E9;" width="69.795" height="11.895"/>
<g>
</g>
<g>
</g>
<g>
</g>
<g>
</g>
<g>
</g>
<g>
</g>
<g>
</g>
<g>
</g>
<g>
</g>
<g>
</g>
<g>
</g>
<g>
</g>
<g>
</g>
<g>
</g>
<g>
</g>
</svg>
