<?xml version="1.0" encoding="iso-8859-1"?>
<!-- Generator: Adobe Illustrator 19.0.0, SVG Export Plug-In . SVG Version: 6.00 Build 0)  -->
<svg version="1.1" id="Capa_1" xmlns="http://www.w3.org/2000/svg" xmlns:xlink="http://www.w3.org/1999/xlink" x="0px" y="0px"
	 viewBox="0 0 468.293 468.293" style="enable-background:new 0 0 468.293 468.293;" xml:space="preserve">
<path style="fill:#2D93BA;" d="M427.727,314.527H40.009V110.073c0-10.345,8.386-18.732,18.732-18.732h350.254
	c10.345,0,18.732,8.386,18.732,18.732V314.527z"/>
<polygon style="fill:#EBF0F3;" points="390.23,28.931 390.23,364.853 78.035,364.853 78.035,80.193 129.359,80.193 129.359,28.931 
	"/>
<path style="fill:#27A2DB;" d="M153.452,195.887l-53.61,40.07H15.833c-10.013,0-17.51,9.181-15.508,18.992l41.408,171.749
	c1.504,7.37,7.986,12.664,15.508,12.664h352.87c7.693,0,14.272-5.532,15.593-13.111l42.35-211.819
	c1.687-9.682-5.765-18.545-15.593-18.545H153.452z"/>
<polygon style="fill:#E1E6E9;" points="129.359,28.931 129.359,80.193 78.035,80.193 "/>
<g>
	<rect x="340.28" y="55.908" style="fill:#64798A;" width="24.976" height="24.976"/>
	<rect x="340.28" y="99.921" style="fill:#64798A;" width="24.976" height="24.976"/>
	<rect x="340.28" y="143.934" style="fill:#64798A;" width="24.976" height="24.976"/>
</g>
<g>
	<rect x="154.349" y="62.152" style="fill:#D5D6DB;" width="160.968" height="12.488"/>
	<rect x="154.349" y="106.165" style="fill:#D5D6DB;" width="160.968" height="12.488"/>
	<rect x="154.349" y="150.178" style="fill:#D5D6DB;" width="160.968" height="12.488"/>
</g>
<g>
</g>
<g>
</g>
<g>
</g>
<g>
</g>
<g>
</g>
<g>
</g>
<g>
</g>
<g>
</g>
<g>
</g>
<g>
</g>
<g>
</g>
<g>
</g>
<g>
</g>
<g>
</g>
<g>
</g>
</svg>
