<?xml version="1.0" encoding="iso-8859-1"?>
<!-- Generator: Adobe Illustrator 19.0.0, SVG Export Plug-In . SVG Version: 6.00 Build 0)  -->
<svg version="1.1" id="Capa_1" xmlns="http://www.w3.org/2000/svg" xmlns:xlink="http://www.w3.org/1999/xlink" x="0px" y="0px"
	 viewBox="0 0 468.293 468.293" style="enable-background:new 0 0 468.293 468.293;" xml:space="preserve">
<path style="fill:#E1E6E9;" d="M400.172,12.488v443.317c0,6.897-5.591,12.488-12.488,12.488H80.609
	c-6.897,0-12.488-5.591-12.488-12.488V77.424h77.425V0h242.139C394.581,0,400.172,5.591,400.172,12.488z"/>
<g>
	<polygon style="fill:#D5D6DB;" points="145.545,0 145.545,77.424 68.121,77.424 	"/>
	<rect x="188.947" y="61.815" style="fill:#D5D6DB;" width="170.646" height="15.61"/>
	<rect x="108.7" y="390.868" style="fill:#D5D6DB;" width="250.88" height="15.61"/>
	<rect x="108.7" y="331.052" style="fill:#D5D6DB;" width="250.88" height="15.61"/>
</g>
<rect x="108.7" y="122.38" style="fill:#27A2DB;" width="250.88" height="62.439"/>
<rect x="108.7" y="229.776" style="fill:#E56353;" width="69.501" height="62.439"/>
<rect x="290.092" y="229.776" style="fill:#FCD462;" width="69.501" height="62.439"/>
<rect x="199.393" y="229.776" style="fill:#44C4A1;" width="69.501" height="62.439"/>
<g>
</g>
<g>
</g>
<g>
</g>
<g>
</g>
<g>
</g>
<g>
</g>
<g>
</g>
<g>
</g>
<g>
</g>
<g>
</g>
<g>
</g>
<g>
</g>
<g>
</g>
<g>
</g>
<g>
</g>
</svg>
