<?xml version="1.0" encoding="iso-8859-1"?>
<!-- Generator: Adobe Illustrator 19.0.0, SVG Export Plug-In . SVG Version: 6.00 Build 0)  -->
<svg version="1.1" id="Capa_1" xmlns="http://www.w3.org/2000/svg" xmlns:xlink="http://www.w3.org/1999/xlink" x="0px" y="0px"
	 viewBox="0 0 468.293 468.293" style="enable-background:new 0 0 468.293 468.293;" xml:space="preserve">
<path style="fill:#E1E6E9;" d="M405.854,12.488v443.317c0,6.897-5.591,12.488-12.488,12.488H74.927
	c-6.897,0-12.488-5.591-12.488-12.488V74.989h75.052V0h255.875C400.263,0,405.854,5.591,405.854,12.488z"/>
<polygon style="fill:#EBF0F3;" points="137.491,0 137.491,74.989 62.439,74.989 "/>
<path style="fill:#DC8744;" d="M352.78,338.582H115.512c-3.448,0-6.244-2.796-6.244-6.244v-6.244c0-3.448,2.795-6.244,6.244-6.244
	H352.78c3.448,0,6.244,2.796,6.244,6.244v6.244C359.024,335.787,356.229,338.582,352.78,338.582z"/>
<rect x="141.612" y="210.857" style="fill:#27A2DB;" width="37.463" height="108.969"/>
<rect x="215.415" y="160.905" style="fill:#E56353;" width="37.463" height="158.92"/>
<rect x="289.243" y="129.711" style="fill:#FCD462;" width="37.463" height="190.139"/>
<g>
	<rect x="178.014" y="59.38" style="fill:#D5D6DB;" width="187.317" height="18.732"/>
	<rect x="102.962" y="390.181" style="fill:#D5D6DB;" width="262.369" height="18.732"/>
</g>
<g>
</g>
<g>
</g>
<g>
</g>
<g>
</g>
<g>
</g>
<g>
</g>
<g>
</g>
<g>
</g>
<g>
</g>
<g>
</g>
<g>
</g>
<g>
</g>
<g>
</g>
<g>
</g>
<g>
</g>
</svg>
