<?xml version="1.0" encoding="iso-8859-1"?>
<!-- Generator: Adobe Illustrator 19.0.0, SVG Export Plug-In . SVG Version: 6.00 Build 0)  -->
<svg version="1.1" id="Capa_1" xmlns="http://www.w3.org/2000/svg" xmlns:xlink="http://www.w3.org/1999/xlink" x="0px" y="0px"
	 viewBox="0 0 468.293 468.293" style="enable-background:new 0 0 468.293 468.293;" xml:space="preserve">
<path style="fill:#D5D6DB;" d="M412.191,345.186H80.66V12.488C80.66,5.591,86.251,0,93.148,0h306.555
	c6.897,0,12.488,5.591,12.488,12.488V345.186z"/>
<path style="fill:#E1E6E9;" d="M387.633,369.744H56.102V37.046c0-6.897,5.591-12.488,12.488-12.488h306.555
	c6.897,0,12.488,5.591,12.488,12.488V369.744z"/>
<g>
	<rect x="99.078" y="75.264" style="fill:#D5D6DB;" width="245.573" height="18.42"/>
	<rect x="99.078" y="126.264" style="fill:#D5D6DB;" width="245.573" height="18.42"/>
	<rect x="196.177" y="177.258" style="fill:#D5D6DB;" width="148.48" height="18.42"/>
	<rect x="266.864" y="228.277" style="fill:#D5D6DB;" width="77.799" height="18.42"/>
</g>
<path style="fill:#FCD462;" d="M427.539,468.292H46.893c-10.172,0-18.418-8.246-18.418-18.418V201.718
	c0-6.781,5.497-12.279,12.279-12.279h94.564c0,0,54.968,66.215,133.008,95.336c66.543,24.831,132.672,27.678,159.274,27.691
	c6.767,0.003,12.22,5.51,12.22,12.277v131.27C439.818,462.794,434.321,468.292,427.539,468.292z"/>
<g>
	<path style="fill:#F6C358;" d="M268.325,284.774c-78.039-29.12-133.008-95.336-133.008-95.336H40.753
		c-6.781,0-12.279,5.497-12.279,12.279v6.139h94.564c0,0,54.968,66.215,133.008,95.336C342.14,335.32,421.4,330.646,421.4,330.646
		v137.646h6.139c6.781,0,12.279-5.497,12.279-12.279V324.743c0-6.767-5.453-12.274-12.22-12.277
		C400.996,312.453,334.868,309.606,268.325,284.774z"/>
	<rect x="115.25" y="381.752" style="fill:#F6C358;" width="37.463" height="37.463"/>
	<rect x="182.028" y="381.752" style="fill:#F6C358;" width="37.463" height="37.463"/>
	<rect x="248.819" y="381.752" style="fill:#F6C358;" width="37.463" height="37.463"/>
	<rect x="315.567" y="381.752" style="fill:#F6C358;" width="37.463" height="37.463"/>
</g>
<g>
</g>
<g>
</g>
<g>
</g>
<g>
</g>
<g>
</g>
<g>
</g>
<g>
</g>
<g>
</g>
<g>
</g>
<g>
</g>
<g>
</g>
<g>
</g>
<g>
</g>
<g>
</g>
<g>
</g>
</svg>
