<?xml version="1.0" encoding="iso-8859-1"?>
<!-- Generator: Adobe Illustrator 19.0.0, SVG Export Plug-In . SVG Version: 6.00 Build 0)  -->
<svg version="1.1" id="Capa_1" xmlns="http://www.w3.org/2000/svg" xmlns:xlink="http://www.w3.org/1999/xlink" x="0px" y="0px"
	 viewBox="0 0 468.293 468.293" style="enable-background:new 0 0 468.293 468.293;" xml:space="preserve">
<path style="fill:#E1E6E9;" d="M449.561,12.488v443.317c0,6.897-5.591,12.488-12.488,12.488H124.878
	c-6.897,0-12.488-5.591-12.488-12.488V87.041h87.102V0h237.581C443.97,0,449.561,5.591,449.561,12.488z"/>
<path style="fill:#D5D6DB;" d="M437.073,0v443.317c0,6.898-5.591,12.488-12.488,12.488H112.39c0,6.898,5.591,12.488,12.488,12.488
	h312.195c6.897,0,12.488-5.59,12.488-12.488V12.488C449.561,5.591,443.97,0,437.073,0z"/>
<polygon style="fill:#EBF0F3;" points="199.492,0 199.492,87.041 112.39,87.041 "/>
<path style="fill:#44C4A1;" d="M193.561,411.909H31.22c-6.897,0-12.488-5.591-12.488-12.488v-73.06
	c0-6.897,5.591-12.488,12.488-12.488h162.341c6.897,0,12.488,5.591,12.488,12.488v73.06
	C206.049,406.318,200.458,411.909,193.561,411.909z"/>
<g>
	<path style="fill:#EBF0F3;" d="M73.106,345.81c4.54,4.113,6.805,9.826,6.805,17.147c0,7.326-2.199,13.117-6.602,17.388
		c-4.403,4.266-11.143,6.399-20.212,6.399H37.463v-47.098h16.171C62.079,339.646,68.571,341.697,73.106,345.81z M71.894,363.16
		c0-10.781-6.174-16.171-18.529-16.171h-7.951v32.276h8.828c5.703,0,10.073-1.36,13.106-4.074
		C70.381,372.471,71.894,368.462,71.894,363.16z"/>
	<path style="fill:#EBF0F3;" d="M129.57,380.241c-4.76,4.65-10.644,6.975-17.651,6.975s-12.892-2.325-17.651-6.975
		c-4.765-4.65-7.145-10.441-7.145-17.383c0-6.942,2.38-12.738,7.145-17.383c4.76-4.65,10.644-6.975,17.651-6.975
		s12.892,2.325,17.651,6.975c4.765,4.645,7.145,10.441,7.145,17.383C136.715,369.8,134.335,375.591,129.57,380.241z
		 M123.747,350.761c-3.213-3.323-7.156-4.984-11.828-4.984s-8.615,1.661-11.828,4.984c-3.208,3.329-4.815,7.359-4.815,12.097
		c0,4.738,1.607,8.768,4.815,12.097c3.213,3.323,7.156,4.985,11.828,4.985s8.615-1.661,11.828-4.985
		c3.208-3.328,4.815-7.359,4.815-12.097C128.561,358.12,126.954,354.09,123.747,350.761z"/>
	<path style="fill:#EBF0F3;" d="M168.251,379.533c2.736,0,5.094-0.461,7.074-1.382c1.974-0.921,4.041-2.391,6.202-4.414l5.116,5.259
		c-4.985,5.522-11.038,8.286-18.156,8.286c-7.123,0-13.029-2.287-17.723-6.871s-7.041-10.375-7.041-17.383
		c0-7.008,2.391-12.848,7.178-17.52c4.782-4.672,10.824-7.008,18.123-7.008c7.299,0,13.396,2.692,18.293,8.083l-5.05,5.527
		c-2.248-2.155-4.37-3.663-6.372-4.513c-1.996-0.855-4.343-1.283-7.041-1.283c-4.76,0-8.757,1.541-11.992,4.617
		c-3.235,3.076-4.853,7.008-4.853,11.79c0,4.787,1.607,8.785,4.82,11.998C160.042,377.927,163.848,379.533,168.251,379.533z"/>
</g>
<path style="fill:#2D93BA;" d="M356.308,249.25c0,5.804-5.455,10.028-11.068,8.549c-13.755-3.623-38.461-9.036-63.306-9.036
	c-25.527,0-51.202,5.524-65.295,9.146c-5.594,1.438-10.996-2.791-10.996-8.567v-72.173h150.664V249.25z"/>
<path style="fill:#27A2DB;" d="M280.377,142.791l-111.925,25.991c-2.736,0.635-2.736,4.53,0,5.166l111.922,25.991
	c0.395,0.092,0.805,0.092,1.2,0l111.925-25.991c2.736-0.635,2.736-4.53,0-5.166l-111.922-25.99
	C281.182,142.699,280.771,142.699,280.377,142.791z"/>
<g>
</g>
<g>
</g>
<g>
</g>
<g>
</g>
<g>
</g>
<g>
</g>
<g>
</g>
<g>
</g>
<g>
</g>
<g>
</g>
<g>
</g>
<g>
</g>
<g>
</g>
<g>
</g>
<g>
</g>
</svg>
