<?xml version="1.0" encoding="iso-8859-1"?>
<!-- Generator: Adobe Illustrator 19.0.0, SVG Export Plug-In . SVG Version: 6.00 Build 0)  -->
<svg version="1.1" id="Capa_1" xmlns="http://www.w3.org/2000/svg" xmlns:xlink="http://www.w3.org/1999/xlink" x="0px" y="0px"
	 viewBox="0 0 468.293 468.293" style="enable-background:new 0 0 468.293 468.293;" xml:space="preserve">
<path style="fill:#FCD462;" d="M213.87,79.441V49.596c0-6.897-5.591-12.488-12.488-12.488H46.481
	c-6.897,0-12.488,5.591-12.488,12.488v29.845H12.488C5.591,79.441,0,85.032,0,91.928v43.854h468.293V91.928
	c0-6.897-5.591-12.488-12.488-12.488H213.87z"/>
<path style="fill:#F6C358;" d="M411.231,431.184H57.061C25.547,431.184,0,405.637,0,374.123V135.782h468.293v238.341
	C468.293,405.637,442.745,431.184,411.231,431.184z"/>
<path style="fill:#64798A;" d="M281.108,222.148c0,0-37.677-24.585-50.887-40.143c-4.438-5.226-13.216-2.385-13.558,4.462
	c-0.01,0.195-0.015,0.393-0.015,0.595v134.68c-4.872-2.559-10.41-4.018-16.298-4.006c-18.785,0.039-34.707,15.836-34.886,34.621
	c-0.186,19.464,15.537,35.303,34.96,35.303c19.309,0,34.962-15.654,34.962-34.961c0-1.661-0.156-3.282-0.38-4.881v-126
	c0-2.85,2.487-5.044,5.324-4.775c36.715,3.483,61.991,49.574,61.991,49.574S308.034,241.73,281.108,222.148z"/>
<g>
</g>
<g>
</g>
<g>
</g>
<g>
</g>
<g>
</g>
<g>
</g>
<g>
</g>
<g>
</g>
<g>
</g>
<g>
</g>
<g>
</g>
<g>
</g>
<g>
</g>
<g>
</g>
<g>
</g>
</svg>
