<?xml version="1.0" encoding="iso-8859-1"?>
<!-- Generator: Adobe Illustrator 19.0.0, SVG Export Plug-In . SVG Version: 6.00 Build 0)  -->
<svg version="1.1" id="Capa_1" xmlns="http://www.w3.org/2000/svg" xmlns:xlink="http://www.w3.org/1999/xlink" x="0px" y="0px"
	 viewBox="0 0 468.293 468.293" style="enable-background:new 0 0 468.293 468.293;" xml:space="preserve">
<path style="fill:#E1E6E9;" d="M341.052,18.732v449.561H22.613c-10.345,0-18.732-8.386-18.732-18.732V87.104L90.984,0H322.32
	C332.666,0,341.052,8.386,341.052,18.732z"/>
<polygon style="fill:#EBF0F3;" points="90.984,0 90.984,87.104 3.881,87.104 "/>
<path style="fill:#E56353;" d="M464.036,308.658c-0.15-1.238-0.223-2.482-0.276-3.728c-1.268-29.422-28.241-52.925-61.331-52.925
	c-33.898,0-61.377,24.666-61.377,55.092c0-30.427-27.48-55.092-61.377-55.092c-33.089,0-60.063,23.503-61.331,52.925
	c-0.054,1.246-0.127,2.49-0.276,3.728c-1.029,8.511-3.248,50.453,44.938,91.967c0,0,72.402,62.271,78.046,67.668
	c5.645-5.397,78.046-67.668,78.046-67.668C467.284,359.111,465.065,317.169,464.036,308.658z"/>
<g>
	<polygon style="fill:#D5D6DB;" points="90.984,87.104 3.881,132.489 3.881,87.104 	"/>
	<rect x="128.624" y="71.493" style="fill:#D5D6DB;" width="174.829" height="15.61"/>
	<rect x="47.454" y="148.917" style="fill:#D5D6DB;" width="250.068" height="15.61"/>
	<rect x="47.454" y="381.19" style="fill:#D5D6DB;" width="73.747" height="15.61"/>
	<rect x="47.454" y="303.766" style="fill:#D5D6DB;" width="129.942" height="15.61"/>
	<rect x="47.454" y="226.341" style="fill:#D5D6DB;" width="174.829" height="15.61"/>
</g>
<g>
</g>
<g>
</g>
<g>
</g>
<g>
</g>
<g>
</g>
<g>
</g>
<g>
</g>
<g>
</g>
<g>
</g>
<g>
</g>
<g>
</g>
<g>
</g>
<g>
</g>
<g>
</g>
<g>
</g>
</svg>
