<?xml version="1.0" encoding="iso-8859-1"?>
<!-- Generator: Adobe Illustrator 19.0.0, SVG Export Plug-In . SVG Version: 6.00 Build 0)  -->
<svg version="1.1" id="Capa_1" xmlns="http://www.w3.org/2000/svg" xmlns:xlink="http://www.w3.org/1999/xlink" x="0px" y="0px"
	 viewBox="0 0 468.293 468.293" style="enable-background:new 0 0 468.293 468.293;" xml:space="preserve">
<path style="fill:#EBF0F3;" d="M402.732,12.488v443.317c0,6.897-5.591,12.488-12.488,12.488H78.049
	c-6.897,0-12.488-5.591-12.488-12.488V78.797h78.798V0h245.885C397.141,0,402.732,5.591,402.732,12.488z"/>
<polygon style="fill:#E1E6E9;" points="144.359,0 144.359,78.797 65.561,78.797 "/>
<path style="fill:#27A2DB;" d="M348.783,154.574l-23.225-19.354c-2.316-1.93-5.679-1.93-7.994,0l-23.225,19.354
	c-4.067,3.389-10.241,0.497-10.241-4.797V0h74.927v149.777C359.024,155.071,352.85,157.963,348.783,154.574z"/>
<path style="fill:#E1E6E9;" d="M402.732,397.486v58.319c0,6.897-5.591,12.488-12.488,12.488H78.049
	c-6.897,0-12.488-5.591-12.488-12.488v-58.319H402.732z"/>
<g>
	<rect x="109.268" y="207.884" style="fill:#D5D6DB;" width="249.756" height="18.732"/>
	<rect x="109.268" y="267.426" style="fill:#D5D6DB;" width="249.756" height="18.732"/>
	<rect x="109.268" y="326.906" style="fill:#D5D6DB;" width="249.756" height="18.732"/>
</g>
<g>
</g>
<g>
</g>
<g>
</g>
<g>
</g>
<g>
</g>
<g>
</g>
<g>
</g>
<g>
</g>
<g>
</g>
<g>
</g>
<g>
</g>
<g>
</g>
<g>
</g>
<g>
</g>
<g>
</g>
</svg>
