<?xml version="1.0" encoding="iso-8859-1"?>
<!-- Generator: Adobe Illustrator 19.0.0, SVG Export Plug-In . SVG Version: 6.00 Build 0)  -->
<svg version="1.1" id="Capa_1" xmlns="http://www.w3.org/2000/svg" xmlns:xlink="http://www.w3.org/1999/xlink" x="0px" y="0px"
	 viewBox="0 0 468.293 468.293" style="enable-background:new 0 0 468.293 468.293;" xml:space="preserve">
<path style="fill:#E1E6E9;" d="M402.732,12.488v443.317c0,6.869-5.62,12.488-12.488,12.488H78.049
	c-6.868,0-12.488-5.619-12.488-12.488V83.982h84.043V0h240.64C397.112,0,402.732,5.62,402.732,12.488z"/>
<polygon style="fill:#EBF0F3;" points="149.604,0 149.604,83.982 65.561,83.982 "/>
<path style="fill:#44C4A1;" d="M355.077,231.494c0,64.889-52.638,117.49-117.528,117.49s-117.49-52.601-117.49-117.49
	c0-47.019,27.649-87.631,67.549-106.401c6.481-3.035,13.3-5.507,20.381-7.343c2.473-0.638,4.945-1.199,7.493-1.686
	c7.118-1.349,14.499-2.061,22.067-2.061c6.594,0,13.075,0.562,19.369,1.611c2.51,0.413,5.02,0.899,7.493,1.537
	c7.156,1.611,14.012,3.896,20.606,6.818C326.267,142.215,355.077,183.501,355.077,231.494z"/>
<path style="fill:#EBF0F3;" d="M285.018,219.992v38.102l-21.243,30.496l-21.314,30.59c-2.982,4.279-9.314,4.279-12.296,0
	l-21.314-30.59l-21.243-30.496v-38.102H285.018z"/>
<g>
	<path style="fill:#64798A;" d="M285.018,123.969v134.125l-20.606-12.664l-3.747-2.322l-3.746,2.322l-20.606,12.664l-20.831-12.813
		l-3.522-2.173l-3.971,2.436l-20.381,12.55V125.093c15.173-7.118,32.07-11.089,49.941-11.089
		C254.447,114.004,270.482,117.563,285.018,123.969z"/>
	<path style="fill:#64798A;" d="M212.66,294.055l17.506,25.124c2.982,4.28,9.314,4.28,12.296,0l17.506-25.124H212.66z"/>
</g>
<g>
	<path style="fill:#D5D6DB;" d="M264.412,117.151V245.43l-3.747-2.322l-3.746,2.322V115.615
		C259.429,116.027,261.94,116.514,264.412,117.151z"/>
	<path style="fill:#D5D6DB;" d="M215.483,116.065v129.217l-3.522-2.173l-3.971,2.436V117.75
		C210.463,117.113,212.935,116.551,215.483,116.065z"/>
	<path style="fill:#D5D6DB;" d="M402.732,379.006v76.799c0,6.869-5.62,12.488-12.488,12.488H78.049
		c-6.868,0-12.488-5.619-12.488-12.488v-76.799H402.732z"/>
</g>
<g>
	<path style="fill:#EBF0F3;" d="M180.762,442.155c3.046,0,5.668-0.512,7.866-1.537c2.198-1.024,4.497-2.659,6.893-4.909l5.695,5.848
		c-5.546,6.14-12.277,9.213-20.192,9.213c-7.918,0-14.488-2.543-19.707-7.64s-7.829-11.537-7.829-19.329
		c0-7.793,2.659-14.287,7.979-19.482c5.32-5.195,12.04-7.793,20.155-7.793c8.119,0,14.899,2.994,20.345,8.988l-5.622,6.146
		c-2.497-2.396-4.857-4.073-7.079-5.018c-2.223-0.951-4.832-1.427-7.829-1.427c-5.296,0-9.741,1.713-13.338,5.134
		c-3.595,3.421-5.393,7.793-5.393,13.11c0,5.323,1.784,9.768,5.357,13.341C171.631,440.369,175.866,442.155,180.762,442.155z"/>
	<path style="fill:#EBF0F3;" d="M251.643,404.655c5.043,4.573,7.567,10.927,7.567,19.067c0,8.146-2.448,14.585-7.345,19.335
		c-4.896,4.744-12.387,7.116-22.476,7.116h-17.384v-52.372h17.982C239.378,397.802,246.598,400.082,251.643,404.655z
		 M250.293,423.948c0-11.988-6.869-17.982-20.604-17.982h-8.841v35.89h9.814c6.345,0,11.201-1.512,14.573-4.53
		C248.607,434.302,250.293,429.844,250.293,423.948z"/>
	<path style="fill:#EBF0F3;" d="M312.405,414.808c0,8.64-3.771,14.085-11.314,16.335l13.713,19.03h-11.241l-12.512-17.61h-11.613
		v17.61h-8.841v-52.372h19.482c7.991,0,13.71,1.348,17.159,4.043C310.683,404.546,312.405,408.863,312.405,414.808z
		 M300.643,422.229c1.799-1.549,2.698-4.037,2.698-7.457c0-3.421-0.927-5.768-2.774-7.043c-1.848-1.274-5.143-1.909-9.89-1.909
		h-11.238v18.732h11.015C295.448,424.552,298.845,423.777,300.643,422.229z"/>
</g>
<g>
</g>
<g>
</g>
<g>
</g>
<g>
</g>
<g>
</g>
<g>
</g>
<g>
</g>
<g>
</g>
<g>
</g>
<g>
</g>
<g>
</g>
<g>
</g>
<g>
</g>
<g>
</g>
<g>
</g>
</svg>
