<?xml version="1.0" encoding="iso-8859-1"?>
<!-- Generator: Adobe Illustrator 19.0.0, SVG Export Plug-In . SVG Version: 6.00 Build 0)  -->
<svg version="1.1" id="Capa_1" xmlns="http://www.w3.org/2000/svg" xmlns:xlink="http://www.w3.org/1999/xlink" x="0px" y="0px"
	 viewBox="0 0 468.293 468.293" style="enable-background:new 0 0 468.293 468.293;" xml:space="preserve">
<path style="fill:#E1E6E9;" d="M299.948,12.83v375.172H33.417c-7.086,0-12.83-5.744-12.83-12.83V69.763h69.685V0h196.847
	C294.204,0,299.948,5.744,299.948,12.83z"/>
<g>
	<polygon style="fill:#EBF0F3;" points="90.272,0 90.272,69.763 20.587,69.763 	"/>
	<path style="fill:#EBF0F3;" d="M380.239,93.121v362.342c0,7.086-5.744,12.83-12.83,12.83H113.707c-7.086,0-12.83-5.744-12.83-12.83
		V150.053h69.685V80.291h196.847C374.495,80.291,380.239,86.035,380.239,93.121z"/>
</g>
<polygon style="fill:#D5D6DB;" points="170.562,80.291 170.562,150.053 100.877,150.053 "/>
<path style="fill:#64798A;" d="M332.71,47.13L361.489,0l5.246,13.098c0,0,37.618-16.23,67.669,17.499
	c0,0,38.206,49.499-14.88,86.011c0,0,28.335-84.728-38.592-68.06l5.182,12.939L332.71,47.13z"/>
<g>
	<rect x="211.231" y="134.013" style="fill:#E1E6E9;" width="128.3" height="16.034"/>
	<rect x="141.549" y="398.361" style="fill:#E1E6E9;" width="197.982" height="16.034"/>
	<rect x="141.549" y="332.263" style="fill:#E1E6E9;" width="197.982" height="16.034"/>
	<rect x="141.549" y="266.178" style="fill:#E1E6E9;" width="197.982" height="16.034"/>
	<rect x="141.549" y="200.098" style="fill:#E1E6E9;" width="197.982" height="16.034"/>
</g>
<g>
</g>
<g>
</g>
<g>
</g>
<g>
</g>
<g>
</g>
<g>
</g>
<g>
</g>
<g>
</g>
<g>
</g>
<g>
</g>
<g>
</g>
<g>
</g>
<g>
</g>
<g>
</g>
<g>
</g>
</svg>
