<?xml version="1.0" encoding="iso-8859-1"?>
<!-- Generator: Adobe Illustrator 19.0.0, SVG Export Plug-In . SVG Version: 6.00 Build 0)  -->
<svg version="1.1" id="Capa_1" xmlns="http://www.w3.org/2000/svg" xmlns:xlink="http://www.w3.org/1999/xlink" x="0px" y="0px"
	 viewBox="0 0 468.293 468.293" style="enable-background:new 0 0 468.293 468.293;" xml:space="preserve">
<path style="fill:#44C4A1;" d="M444.054,165.462H24.239V73.264c0-6.952,5.636-12.588,12.588-12.588h104.238
	c3.487,0,6.817,1.446,9.197,3.994l29.149,31.196c2.38,2.548,5.711,3.994,9.197,3.994h242.857c6.952,0,12.588,5.636,12.588,12.588
	V165.462z"/>
<rect x="92.491" y="118.347" style="fill:#E1E6E9;" width="283.286" height="84.574"/>
<rect x="63.913" y="137.079" style="fill:#EBF0F3;" width="340.48" height="84.574"/>
<path style="fill:#3EA69B;" d="M418.905,407.616H49.388c-6.281,0-11.601-4.63-12.467-10.851L0.123,170.132
	c-1.054-7.569,4.825-14.324,12.467-14.324h443.113c7.642,0,13.522,6.755,12.467,14.324l-36.798,226.633
	C430.505,402.986,425.186,407.616,418.905,407.616z"/>
<g>
</g>
<g>
</g>
<g>
</g>
<g>
</g>
<g>
</g>
<g>
</g>
<g>
</g>
<g>
</g>
<g>
</g>
<g>
</g>
<g>
</g>
<g>
</g>
<g>
</g>
<g>
</g>
<g>
</g>
</svg>
