<?xml version="1.0" encoding="iso-8859-1"?>
<!-- Generator: Adobe Illustrator 19.0.0, SVG Export Plug-In . SVG Version: 6.00 Build 0)  -->
<svg version="1.1" id="Capa_1" xmlns="http://www.w3.org/2000/svg" xmlns:xlink="http://www.w3.org/1999/xlink" x="0px" y="0px"
	 viewBox="0 0 468.293 468.293" style="enable-background:new 0 0 468.293 468.293;" xml:space="preserve">
<path style="fill:#F6C358;" d="M442.141,418.041H49.863c-14.443,0-26.152-11.709-26.152-26.152V94.884
	c0-11.555,9.367-20.921,20.921-20.921h94.232c5.765,0,11.274,2.379,15.228,6.575l36.889,39.154
	c3.953,4.196,9.463,6.575,15.228,6.575h241.162c11.555,0,20.921,9.367,20.921,20.922V391.89
	C468.293,406.333,456.584,418.041,442.141,418.041z"/>
<path style="fill:#FCD462;" d="M418.43,394.33H26.152C11.709,394.33,0,382.622,0,368.179V71.173
	c0-11.555,9.367-20.921,20.921-20.921h94.232c5.765,0,11.274,2.379,15.228,6.575L167.27,95.98c3.953,4.196,9.463,6.575,15.228,6.575
	H423.66c11.555,0,20.922,9.367,20.922,20.921v244.702C444.582,382.622,432.873,394.33,418.43,394.33z"/>
<path style="fill:#EBF0F3;" d="M329.017,249.184c0,27.685-10.558,52.844-27.854,71.826c-19.487,21.453-47.622,34.874-78.845,34.874
	c-31.28,0-59.359-13.421-78.901-34.874c-17.297-18.982-27.798-44.141-27.798-71.826c0-58.966,47.734-106.7,106.7-106.7
	C281.227,142.485,329.017,190.219,329.017,249.184z"/>
<path style="fill:#2D93BA;" d="M301.163,321.01c-19.487,21.453-47.622,34.874-78.845,34.874c-31.28,0-59.359-13.421-78.901-34.874
	c4.717-10.671,13.927-19.037,25.608-22.407l27.854-8.032l7.581-2.19l17.858-5.11l17.971,5.166l7.413,2.133l27.854,8.032
	C287.236,301.973,296.446,310.339,301.163,321.01z"/>
<path style="fill:#F6C358;" d="M249.511,303.844c0,18.286-54.438,18.286-54.438,0l5.826-43.062h42.786L249.511,303.844z"/>
<path style="fill:#64798A;" d="M271.751,239.064c1.47-3.877,2.794-7.908,2.755-12.054c-0.042-4.492-1.677-8.798-3.323-12.977
	c-2.666-6.77-5.485-13.614-10.066-19.266c-6.514-8.038-16.117-13.034-25.981-16.155c-7.68-2.43-16.8-3.615-23.172,1.314
	c-1.11,0.859-2.149,1.908-3.503,2.276c-1.555,0.423-3.182-0.139-4.768-0.424c-7.668-1.378-14.843,3.729-20.964,8.549
	c-2.435,1.918-4.905,3.872-6.706,6.395c-2.274,3.188-3.33,7.072-4.129,10.906c-1.441,6.914-2.186,14.042-1.307,21.049
	c0.757,6.026,2.694,11.831,4.621,17.59c2.132,6.373,5.477,13.806,12.135,14.715c5.59,0.764,10.436-3.605,15.779-5.417
	c3.758-1.275,7.813-1.272,11.782-1.256c7.821,0.032,15.641,0.064,23.462,0.096c3.684,0.015,7.387,0.019,11.056,0.392
	c3.399,0.345,8.285,2.82,11.445,2.567C266.521,256.91,269.839,244.107,271.751,239.064z"/>
<path style="fill:#FCD462;" d="M265.968,243.512c-2.016,18.37-20.772,51.645-43.611,51.645c-24.185,0-43.791-37.311-43.791-54.727
	c4.899-4.121,10.501-7.702,15.399-11.824c1.959-1.648,3.923-3.301,5.688-5.155c3.238-3.402,5.764-7.473,7.4-11.874
	c0.703-1.889,3.235-2.206,4.396-0.558l6.745,9.573c1.416,2.01,2.882,4.069,4.942,5.411c3.68,2.397,8.422,2.043,12.812,1.929
	c5.052-0.13,10.115,0.177,15.113,0.918c3.461,0.513,6.993,1.274,9.883,3.251C264.21,234.334,266.4,239.581,265.968,243.512z"/>
<g>
</g>
<g>
</g>
<g>
</g>
<g>
</g>
<g>
</g>
<g>
</g>
<g>
</g>
<g>
</g>
<g>
</g>
<g>
</g>
<g>
</g>
<g>
</g>
<g>
</g>
<g>
</g>
<g>
</g>
</svg>
