<?xml version="1.0" encoding="iso-8859-1"?>
<!-- Generator: Adobe Illustrator 19.0.0, SVG Export Plug-In . SVG Version: 6.00 Build 0)  -->
<svg version="1.1" id="Capa_1" xmlns="http://www.w3.org/2000/svg" xmlns:xlink="http://www.w3.org/1999/xlink" x="0px" y="0px"
	 viewBox="0 0 468.293 468.293" style="enable-background:new 0 0 468.293 468.293;" xml:space="preserve">
<path style="fill:#3EA69B;" d="M50.828,330.019c0,0-1.307,21.45,32.172,28.966v-28.966H50.828z"/>
<path style="fill:#EBF0F3;" d="M417.467,12.488v443.317c0,6.868-5.619,12.488-12.488,12.488H86.54c-1.936,0-3.746-0.437-5.37-1.249
	c-0.812-0.375-1.561-0.874-2.31-1.436c-0.375-0.312-0.749-0.625-1.124-0.999c-0.25-0.312-0.5-0.562-0.749-0.874
	c0.007,0.005,0.015,0.006,0.022,0.011c-1.84-2.159-2.957-4.909-2.957-7.941V75.614h75.614V0h255.313
	C411.848,0,417.467,5.62,417.467,12.488z"/>
<path style="fill:#44C4A1;" d="M417.472,330.019H50.821V197.408c0-6.897,5.591-12.488,12.488-12.488h354.163V330.019z"/>
<g>
	<path style="fill:#EBF0F3;" d="M193.776,289.32l-10.11,22.97h-18.203l44.488-100.966h18.203l44.488,100.966h-18.197l-10.115-22.97
		H193.776z M237.4,273.58l-18.344-41.602l-18.344,41.602H237.4z"/>
	<path style="fill:#EBF0F3;" d="M285.355,220.129c-2.022-2.022-3.033-4.42-3.033-7.218s1.011-5.208,3.033-7.229
		c2.022-2.022,4.426-3.033,7.218-3.033c2.792,0,5.202,1.011,7.224,3.033c2.022,2.022,3.033,4.432,3.033,7.229
		s-1.011,5.196-3.033,7.218c-2.022,2.022-4.432,3.033-7.224,3.033C289.781,223.162,287.377,222.151,285.355,220.129z
		 M300.519,312.29h-16.175v-76.844h16.175V312.29z"/>
</g>
<polygon style="fill:#D5D6DB;" points="149.668,0 149.668,75.613 74.054,75.613 "/>
<g>
</g>
<g>
</g>
<g>
</g>
<g>
</g>
<g>
</g>
<g>
</g>
<g>
</g>
<g>
</g>
<g>
</g>
<g>
</g>
<g>
</g>
<g>
</g>
<g>
</g>
<g>
</g>
<g>
</g>
</svg>
