<?xml version="1.0" encoding="iso-8859-1"?>
<!-- Generator: Adobe Illustrator 19.0.0, SVG Export Plug-In . SVG Version: 6.00 Build 0)  -->
<svg version="1.1" id="Capa_1" xmlns="http://www.w3.org/2000/svg" xmlns:xlink="http://www.w3.org/1999/xlink" x="0px" y="0px"
	 viewBox="0 0 468.293 468.293" style="enable-background:new 0 0 468.293 468.293;" xml:space="preserve">
<path style="fill:#E1E6E9;" d="M402.736,12.488v443.317c0,6.897-5.591,12.488-12.488,12.488H78.053
	c-6.897,0-12.488-5.591-12.488-12.488V67.434H133V0h257.248C397.145,0,402.736,5.591,402.736,12.488z"/>
<path style="fill:#D5D6DB;" d="M390.239,468.281H78.044c-6.897,0-12.488-5.591-12.488-12.488V352.809h337.171v102.984
	C402.727,462.69,397.136,468.281,390.239,468.281z"/>
<g>
	<path style="fill:#EBF0F3;" d="M194.481,385.6h-40.697v-11.155h57.635v9.499l-41.937,51.133v0.311h42.555v11.255h-59.597v-9.398
		l42.042-51.334V385.6z"/>
	<path style="fill:#EBF0F3;" d="M227.327,374.446h12.188v72.198h-12.188V374.446z"/>
	<path style="fill:#EBF0F3;" d="M308.304,380.742c5.027,4.203,7.54,10.675,7.54,19.417c0,8.75-2.568,15.156-7.696,19.216
		c-5.132,4.06-13,6.094-23.604,6.094h-12.806v21.174H259.55v-72.198h24.789C295.288,374.446,303.278,376.547,308.304,380.742z
		 M299.68,410.541c2.442-2.581,3.665-6.363,3.665-11.356c0-4.993-1.551-8.524-4.648-10.591c-3.098-2.068-7.952-3.093-14.563-3.093
		h-12.394v28.916h14.151C292.636,414.416,297.234,413.13,299.68,410.541z"/>
</g>
<g>
	<rect x="234.14" y="171.77" style="fill:#64798A;" width="26.075" height="22.628"/>
	<rect x="208.072" y="194.423" style="fill:#64798A;" width="26.075" height="22.628"/>
	<rect x="234.14" y="217.038" style="fill:#64798A;" width="26.075" height="22.628"/>
	<rect x="208.072" y="239.672" style="fill:#64798A;" width="26.075" height="22.628"/>
	<rect x="234.14" y="262.3" style="fill:#64798A;" width="26.075" height="22.628"/>
	<rect x="208.072" y="284.909" style="fill:#64798A;" width="26.075" height="22.628"/>
	<rect x="234.14" y="307.556" style="fill:#64798A;" width="26.075" height="22.628"/>
	<rect x="208.072" y="330.178" style="fill:#64798A;" width="26.075" height="22.628"/>
</g>
<path style="fill:#EBF0F3;" d="M234.142,88.663L234.142,88.663c-21.177,0-38.504-17.327-38.504-38.504v0
	c0-21.177,17.327-38.504,38.504-38.504h0c21.177,0,38.504,17.327,38.504,38.504v0C272.646,71.336,255.319,88.663,234.142,88.663z"/>
<path style="fill:#D5D6DB;" d="M246.629,177.98h-24.976c-10.345,0-18.732-8.386-18.732-18.732V69.322
	c0-10.345,8.386-18.732,18.732-18.732h24.976c10.345,0,18.732,8.386,18.732,18.732v89.926
	C265.361,169.593,256.975,177.98,246.629,177.98z"/>
<path style="fill:#EBF0F3;" d="M221.655,165.492c-3.442,0-6.244-2.799-6.244-6.244v-19.546c0-3.445,2.802-6.244,6.244-6.244h24.976
	c3.442,0,6.244,2.799,6.244,6.244v19.546c0,3.445-2.802,6.244-6.244,6.244H221.655z"/>
<path style="fill:#64798A;" d="M234.142,78.257L234.142,78.257c-5.173,0-9.366-4.193-9.366-9.366V31.427
	c0-5.173,4.193-9.366,9.366-9.366h0c5.173,0,9.366,4.193,9.366,9.366v37.463C243.508,74.063,239.314,78.257,234.142,78.257z"/>
<polygon style="fill:#D5D6DB;" points="133,0 133,67.434 65.566,67.434 "/>
<g>
</g>
<g>
</g>
<g>
</g>
<g>
</g>
<g>
</g>
<g>
</g>
<g>
</g>
<g>
</g>
<g>
</g>
<g>
</g>
<g>
</g>
<g>
</g>
<g>
</g>
<g>
</g>
<g>
</g>
</svg>
