<?xml version="1.0" encoding="iso-8859-1"?>
<!-- Generator: Adobe Illustrator 19.0.0, SVG Export Plug-In . SVG Version: 6.00 Build 0)  -->
<svg version="1.1" id="Capa_1" xmlns="http://www.w3.org/2000/svg" xmlns:xlink="http://www.w3.org/1999/xlink" x="0px" y="0px"
	 viewBox="0 0 468.293 468.293" style="enable-background:new 0 0 468.293 468.293;" xml:space="preserve">
<path style="fill:#E1E6E9;" d="M402.732,18.732v430.829c0,10.345-8.386,18.732-18.732,18.732H84.293
	c-10.345,0-18.732-8.386-18.732-18.732V76.55h76.488V0H384C394.345,0,402.732,8.386,402.732,18.732z"/>
<polygon style="fill:#D5D6DB;" points="142.049,0 142.049,76.55 65.561,76.55 "/>
<rect x="43.52" y="192.787" style="fill:#27A2DB;" width="381.253" height="138.921"/>
<g>
	<path style="fill:#EBF0F3;" d="M203.207,263.908h13.99v28.337c-7.825,8.616-19.012,12.919-33.552,12.919
		c-12.253,0-22.509-4.023-30.768-12.089c-8.259-8.066-12.388-18.255-12.388-30.585s4.207-22.606,12.625-30.826
		c8.418-8.22,18.597-12.331,30.532-12.331c11.93,0,21.853,3.473,29.755,10.43l-7.468,10.671c-3.242-2.769-6.503-4.679-9.783-5.75
		c-3.28-1.071-7.092-1.602-11.438-1.602c-8.38,0-15.413,2.711-21.106,8.124c-5.688,5.413-8.534,12.524-8.534,21.342
		c0,8.809,2.764,15.881,8.298,21.217c5.533,5.336,12.229,8.008,20.097,8.008c7.863,0,14.443-1.698,19.74-5.104V263.908z"/>
	<path style="fill:#EBF0F3;" d="M235.572,221.349h13.99v82.869h-13.99V221.349z"/>
	<path style="fill:#EBF0F3;" d="M286.549,234.384v22.77h36.75v12.919h-36.75v34.145h-13.99v-82.869h55.246l-0.116,13.035H286.549z"
		/>
</g>
<g>
	<polygon style="fill:#64798A;" points="424.772,331.71 402.732,352.056 402.732,331.71 	"/>
	<polygon style="fill:#64798A;" points="43.521,331.71 65.561,352.056 65.561,331.71 	"/>
</g>
<g>
</g>
<g>
</g>
<g>
</g>
<g>
</g>
<g>
</g>
<g>
</g>
<g>
</g>
<g>
</g>
<g>
</g>
<g>
</g>
<g>
</g>
<g>
</g>
<g>
</g>
<g>
</g>
<g>
</g>
</svg>
