<?xml version="1.0" encoding="iso-8859-1"?>
<!-- Generator: Adobe Illustrator 19.0.0, SVG Export Plug-In . SVG Version: 6.00 Build 0)  -->
<svg version="1.1" id="Capa_1" xmlns="http://www.w3.org/2000/svg" xmlns:xlink="http://www.w3.org/1999/xlink" x="0px" y="0px"
	 viewBox="0 0 468.026 468.026" style="enable-background:new 0 0 468.026 468.026;" xml:space="preserve">
<path style="fill:#EBF0F3;" d="M327.416,44.048V456.41c0,6.415-5.201,11.616-11.616,11.616H17.621
	c-6.415,0-11.616-5.201-11.616-11.616V116.703h84.273V32.432H315.8C322.215,32.432,327.416,37.633,327.416,44.048z"/>
<polygon style="fill:#D5D6DB;" points="90.279,32.432 90.279,116.703 6.006,116.703 "/>
<g>
	<rect x="121.747" y="102.185" style="fill:#27A2DB;" width="174.236" height="14.517"/>
	<rect x="37.455" y="383.866" style="fill:#27A2DB;" width="233.809" height="14.517"/>
	<rect x="37.455" y="313.454" style="fill:#27A2DB;" width="171.389" height="14.517"/>
	<rect x="37.455" y="243.004" style="fill:#27A2DB;" width="200.492" height="14.517"/>
	<rect x="37.455" y="172.635" style="fill:#27A2DB;" width="258.498" height="14.517"/>
</g>
<polygon style="fill:#E1E6E9;" points="90.279,116.703 6.006,153.302 6.006,116.703 "/>
<rect x="180.118" y="173.516" transform="matrix(-0.3827 0.9239 -0.9239 -0.3827 636.5413 -37.6384)" style="fill:#E56353;" width="301.455" height="40.654"/>
<rect x="217.65" y="189.1" transform="matrix(-0.3827 0.9239 -0.9239 -0.3827 702.8345 -50.7661)" style="fill:#D15241;" width="301.455" height="40.654"/>
<path style="fill:#E1E6E9;" d="M329.496,356.475l-31.626,23.234l-23.897,17.557c-3.517,2.584-8.52,0.511-9.18-3.802l-4.483-29.313
	l-5.934-38.792L329.496,356.475z"/>
<path style="fill:#64798A;" d="M297.869,379.709l-23.897,17.557c-3.517,2.584-8.52,0.511-9.18-3.802l-4.483-29.313L297.869,379.709z
	"/>
<path style="fill:#27A2DB;" d="M444.853,77.978l-75.14-31.124l16.213-39.142c2.639-6.372,9.944-9.398,16.316-6.758l52.065,21.566
	c6.372,2.639,9.398,9.944,6.758,16.316L444.853,77.978z"/>
<g>
</g>
<g>
</g>
<g>
</g>
<g>
</g>
<g>
</g>
<g>
</g>
<g>
</g>
<g>
</g>
<g>
</g>
<g>
</g>
<g>
</g>
<g>
</g>
<g>
</g>
<g>
</g>
<g>
</g>
</svg>
