<?xml version="1.0" encoding="iso-8859-1"?>
<!-- Generator: Adobe Illustrator 19.0.0, SVG Export Plug-In . SVG Version: 6.00 Build 0)  -->
<svg version="1.1" id="Capa_1" xmlns="http://www.w3.org/2000/svg" xmlns:xlink="http://www.w3.org/1999/xlink" x="0px" y="0px"
	 viewBox="0 0 468.293 468.293" style="enable-background:new 0 0 468.293 468.293;" xml:space="preserve">
<path style="fill:#EBF0F3;" d="M394.5,267.313H100.972V12.488C100.972,5.591,106.563,0,113.459,0h268.552
	c6.897,0,12.488,5.591,12.488,12.488V267.313z"/>
<path style="fill:#E1E6E9;" d="M367.321,294.491H73.793V39.666c0-6.897,5.591-12.488,12.488-12.488h268.552
	c6.897,0,12.488,5.591,12.488,12.488L367.321,294.491L367.321,294.491z"/>
<path style="fill:#FCD462;" d="M414.87,468.293H53.422c-12.766,0-23.115-10.349-23.115-23.115V154.009
	c0-12.766,10.349-23.115,23.115-23.115h86.848c7.245,0,14.072,3.397,18.441,9.178l25.436,33.654
	c4.369,5.78,11.195,9.178,18.441,9.178H414.87c12.766,0,23.115,10.349,23.115,23.115v239.16
	C437.985,457.944,427.636,468.293,414.87,468.293z"/>
<rect x="30.308" y="233.478" style="fill:#F6C358;" width="407.664" height="34.672"/>
<g>
	<rect x="232.417" y="57.294" style="fill:#D5D6DB;" width="108.713" height="10.871"/>
	<rect x="99.984" y="57.294" style="fill:#D5D6DB;" width="108.713" height="10.871"/>
	<rect x="232.417" y="91.348" style="fill:#D5D6DB;" width="108.713" height="10.871"/>
	<rect x="232.417" y="125.459" style="fill:#D5D6DB;" width="108.713" height="10.871"/>
	<rect x="99.984" y="91.348" style="fill:#D5D6DB;" width="108.713" height="10.871"/>
</g>
<g>
</g>
<g>
</g>
<g>
</g>
<g>
</g>
<g>
</g>
<g>
</g>
<g>
</g>
<g>
</g>
<g>
</g>
<g>
</g>
<g>
</g>
<g>
</g>
<g>
</g>
<g>
</g>
<g>
</g>
</svg>
