<?xml version="1.0" encoding="iso-8859-1"?>
<!-- Generator: Adobe Illustrator 19.0.0, SVG Export Plug-In . SVG Version: 6.00 Build 0)  -->
<svg version="1.1" id="Capa_1" xmlns="http://www.w3.org/2000/svg" xmlns:xlink="http://www.w3.org/1999/xlink" x="0px" y="0px"
	 viewBox="0 0 468.293 468.293" style="enable-background:new 0 0 468.293 468.293;" xml:space="preserve">
<path style="fill:#FCD462;" d="M352.019,93.346v362.459c0,6.897-5.591,12.488-12.488,12.488H27.336
	c-6.897,0-12.488-5.591-12.488-12.488V12.488C14.849,5.591,20.44,0,27.336,0h231.336v93.346H352.019z"/>
<polygon style="fill:#F6C358;" points="352.019,93.346 258.673,93.346 258.673,0 "/>
<circle style="fill:#27A2DB;" cx="87.639" cy="170.153" r="37.463"/>
<path style="fill:#EBF0F3;" d="M111.678,156.495c-1.629-2.306-4.823-2.862-7.129-1.231L78.192,173.87l-6.371-8.194
	c-1.735-2.226-4.95-2.634-7.181-0.895c-2.23,1.735-2.632,4.948-0.897,7.179l9.371,12.047c1.007,1.291,2.514,1.975,4.043,1.975
	c1.021,0,2.053-0.304,2.946-0.935l30.346-21.421C112.758,161.995,113.309,158.801,111.678,156.495z"/>
<circle style="fill:#44C4A1;" cx="87.639" cy="280.788" r="37.463"/>
<path style="fill:#EBF0F3;" d="M111.678,267.16c-1.629-2.306-4.823-2.862-7.129-1.231l-26.357,18.607l-6.371-8.194
	c-1.735-2.226-4.95-2.634-7.181-0.895c-2.23,1.735-2.632,4.948-0.897,7.179l9.371,12.047c1.007,1.291,2.514,1.975,4.043,1.975
	c1.021,0,2.053-0.304,2.946-0.935l30.346-21.421C112.758,272.66,113.309,269.466,111.678,267.16z"/>
<circle style="fill:#E56353;" cx="87.639" cy="391.493" r="37.463"/>
<path style="fill:#EBF0F3;" d="M111.678,377.825c-1.629-2.306-4.823-2.862-7.129-1.231L78.192,395.2l-6.371-8.194
	c-1.735-2.226-4.95-2.634-7.181-0.895c-2.23,1.735-2.632,4.948-0.897,7.179l9.371,12.047c1.007,1.291,2.514,1.975,4.043,1.975
	c1.021,0,2.053-0.304,2.946-0.935l30.346-21.421C112.758,383.325,113.309,380.131,111.678,377.825z"/>
<rect x="154.349" y="162.348" style="fill:#27A2DB;" width="162.341" height="15.61"/>
<rect x="154.349" y="272.983" style="fill:#44C4A1;" width="162.341" height="15.61"/>
<rect x="154.349" y="383.682" style="fill:#E56353;" width="162.341" height="15.61"/>
<rect x="389.713" y="136.585" style="fill:#27A2DB;" width="63.732" height="273.033"/>
<path style="fill:#E1E6E9;" d="M453.443,409.618l-14.85,31.293l-11.258,23.739c-2.303,4.856-9.214,4.856-11.517,0l-11.258-23.739
	l-14.85-31.293H453.443z"/>
<path style="fill:#1C75A1;" d="M438.593,440.911l-11.258,23.739c-2.303,4.856-9.214,4.856-11.517,0l-11.258-23.739H438.593z"/>
<rect x="389.713" y="159.906" style="fill:#E1E6E9;" width="63.732" height="19.119"/>
<path style="fill:#DC8744;" d="M453.443,136.586H389.71v-30.752c0-6.897,5.591-12.488,12.488-12.488h38.757
	c6.897,0,12.488,5.591,12.488,12.488V136.586z"/>
<g>
</g>
<g>
</g>
<g>
</g>
<g>
</g>
<g>
</g>
<g>
</g>
<g>
</g>
<g>
</g>
<g>
</g>
<g>
</g>
<g>
</g>
<g>
</g>
<g>
</g>
<g>
</g>
<g>
</g>
</svg>
