<?xml version="1.0" encoding="iso-8859-1"?>
<!-- Generator: Adobe Illustrator 19.0.0, SVG Export Plug-In . SVG Version: 6.00 Build 0)  -->
<svg version="1.1" id="Capa_1" xmlns="http://www.w3.org/2000/svg" xmlns:xlink="http://www.w3.org/1999/xlink" x="0px" y="0px"
	 viewBox="0 0 468.324 468.324" style="enable-background:new 0 0 468.324 468.324;" xml:space="preserve">
<path style="fill:#44C4A1;" d="M430.527,12.488v405.854c0,28.597-24.102,51.637-53.073,49.889
	c-26.724-1.623-46.892-25.101-46.892-51.825L89.797,368.328V12.488C89.797,5.619,95.355,0,102.285,0h315.755
	C424.908,0,430.527,5.619,430.527,12.488z"/>
<path style="fill:#3EA69B;" d="M331.333,418.333v-37.493c0-6.897-5.591-12.488-12.488-12.488H50.284
	c-6.897,0-12.488,5.591-12.488,12.488v37.494c0,27.603,22.377,49.98,49.981,49.98h0.001h293.537
	C353.71,468.314,331.333,445.937,331.333,418.333z"/>
<g>
	<rect x="135.258" y="123.083" style="fill:#EBF0F3;" width="249.756" height="15.61"/>
	<rect x="135.258" y="179.84" style="fill:#EBF0F3;" width="249.756" height="15.61"/>
	<rect x="135.258" y="236.534" style="fill:#EBF0F3;" width="249.756" height="15.61"/>
	<rect x="135.258" y="293.229" style="fill:#EBF0F3;" width="249.756" height="15.61"/>
</g>
<path style="fill:#3EA69B;" d="M430.527,12.488v51.137H89.797V12.488C89.797,5.619,95.355,0,102.285,0h315.755
	C424.908,0,430.527,5.619,430.527,12.488z"/>
<g>
</g>
<g>
</g>
<g>
</g>
<g>
</g>
<g>
</g>
<g>
</g>
<g>
</g>
<g>
</g>
<g>
</g>
<g>
</g>
<g>
</g>
<g>
</g>
<g>
</g>
<g>
</g>
<g>
</g>
</svg>
