<?xml version="1.0" encoding="iso-8859-1"?>
<!-- Generator: Adobe Illustrator 19.0.0, SVG Export Plug-In . SVG Version: 6.00 Build 0)  -->
<svg version="1.1" id="Capa_1" xmlns="http://www.w3.org/2000/svg" xmlns:xlink="http://www.w3.org/1999/xlink" x="0px" y="0px"
	 viewBox="0 0 468.293 468.293" style="enable-background:new 0 0 468.293 468.293;" xml:space="preserve">
<path style="fill:#E1E6E9;" d="M402.732,12.488v443.317c0,6.897-5.591,12.488-12.488,12.488H78.049
	c-6.897,0-12.488-5.591-12.488-12.488V69.182h69.183V0h255.5C397.141,0,402.732,5.591,402.732,12.488z"/>
<path style="fill:#E56353;" d="M266.655,351.999c28.998-47.663,66.901-116.443,66.901-150.347c0-54.902-44.508-99.41-99.41-99.41
	c-54.903,0-99.41,44.507-99.41,99.41c0,33.903,37.903,102.684,66.901,150.347H266.655z"/>
<path style="fill:#F6C358;" d="M253.97,351.999c17.683-47.663,40.797-116.443,40.797-150.347c0-54.902-27.141-99.41-60.621-99.41
	c-33.48,0-60.621,44.507-60.621,99.41c0,33.903,23.113,102.684,40.797,150.347H253.97z"/>
<path style="fill:#E56353;" d="M240.859,351.999c5.988-47.663,13.815-116.443,13.815-150.347c0-54.902-9.191-99.41-20.528-99.41
	c-11.338,0-20.528,44.507-20.528,99.41c0,33.903,7.827,102.684,13.815,150.347H240.859z"/>
<path style="fill:#64798A;" d="M260.13,434.664h-51.967c-6.897,0-12.488-5.591-12.488-12.488v-38.219h76.942v38.219
	C272.617,429.073,267.026,434.664,260.13,434.664z"/>
<g>
	<rect x="245.81" y="351.994" style="fill:#3A556A;" width="12.488" height="31.963"/>
	<rect x="209.982" y="351.994" style="fill:#3A556A;" width="12.488" height="31.963"/>
</g>
<polygon style="fill:#D5D6DB;" points="134.744,0 134.744,69.182 65.561,69.182 "/>
<g>
</g>
<g>
</g>
<g>
</g>
<g>
</g>
<g>
</g>
<g>
</g>
<g>
</g>
<g>
</g>
<g>
</g>
<g>
</g>
<g>
</g>
<g>
</g>
<g>
</g>
<g>
</g>
<g>
</g>
</svg>
