<?xml version="1.0" encoding="iso-8859-1"?>
<!-- Generator: Adobe Illustrator 19.0.0, SVG Export Plug-In . SVG Version: 6.00 Build 0)  -->
<svg version="1.1" id="Capa_1" xmlns="http://www.w3.org/2000/svg" xmlns:xlink="http://www.w3.org/1999/xlink" x="0px" y="0px"
	 viewBox="0 0 468.293 468.293" style="enable-background:new 0 0 468.293 468.293;" xml:space="preserve">
<path style="fill:#E1E6E9;" d="M405.854,12.488v443.317c0,6.897-5.591,12.488-12.488,12.488H74.927
	c-6.897,0-12.488-5.591-12.488-12.488V83.169h83.168V0h247.758C400.263,0,405.854,5.591,405.854,12.488z"/>
<polygon style="fill:#D5D6DB;" points="145.607,0 145.607,83.169 62.439,83.169 "/>
<path style="fill:#64798A;" d="M281.09,251.651c-4.634-4.634-12.141-4.634-16.776,0L246.01,269.96v-124.1
	c0-6.552-5.312-11.863-11.863-11.863s-11.863,5.312-11.863,11.863v124.102l-18.305-18.305c-4.634-4.634-12.141-4.634-16.776,0
	c-4.634,4.634-4.634,12.141,0,16.776l38.549,38.549c0.547,0.549,1.151,1.043,1.799,1.476c0.158,0.106,0.337,0.174,0.5,0.272
	c0.497,0.3,0.998,0.596,1.538,0.822c0.227,0.094,0.471,0.138,0.702,0.218c0.497,0.172,0.988,0.354,1.51,0.46
	c0.768,0.155,1.552,0.236,2.346,0.236s1.579-0.081,2.346-0.236c0.523-0.106,1.014-0.288,1.51-0.46
	c0.232-0.08,0.475-0.124,0.702-0.218c0.54-0.226,1.041-0.522,1.538-0.822c0.162-0.098,0.342-0.165,0.5-0.272
	c0.647-0.433,1.251-0.927,1.799-1.476l38.549-38.555C285.724,263.793,285.724,256.28,281.09,251.651z"/>
<path style="fill:#DC8744;" d="M300.814,316.627v25.279c0,6.552-5.311,11.863-11.863,11.863H179.342
	c-6.552,0-11.863-5.311-11.863-11.863v-25.279h-51.966v77.112c0,13.104,10.623,23.727,23.727,23.727h189.815
	c13.104,0,23.727-10.623,23.727-23.727v-77.112H300.814z"/>
<g>
</g>
<g>
</g>
<g>
</g>
<g>
</g>
<g>
</g>
<g>
</g>
<g>
</g>
<g>
</g>
<g>
</g>
<g>
</g>
<g>
</g>
<g>
</g>
<g>
</g>
<g>
</g>
<g>
</g>
</svg>
