<?xml version="1.0" encoding="iso-8859-1"?>
<!-- Generator: Adobe Illustrator 19.0.0, SVG Export Plug-In . SVG Version: 6.00 Build 0)  -->
<svg version="1.1" id="Capa_1" xmlns="http://www.w3.org/2000/svg" xmlns:xlink="http://www.w3.org/1999/xlink" x="0px" y="0px"
	 viewBox="0 0 468.293 468.293" style="enable-background:new 0 0 468.293 468.293;" xml:space="preserve">
<path style="fill:#EBF0F3;" d="M389.727,373.718H24.976C11.182,373.718,0,362.536,0,348.743V46.197
	c0-13.794,11.182-24.976,24.976-24.976h364.751c13.794,0,24.976,11.182,24.976,24.976v302.546
	C414.703,362.536,403.521,373.718,389.727,373.718z"/>
<path style="fill:#44C4A1;" d="M388.789,66.569v261.782c0,3.175-0.713,6.155-2.074,8.747c-0.583,1.167-1.296,2.269-2.073,3.24
	c-3.563,4.536-9.072,7.453-15.292,7.453H45.364c-6.155,0-11.729-2.916-15.292-7.453c-0.778-1.036-1.491-2.138-2.073-3.305
	c-1.361-2.591-2.074-5.572-2.074-8.682V66.569c0-10.756,8.747-19.439,19.439-19.439H369.35
	C380.106,47.13,388.789,55.813,388.789,66.569z"/>
<circle style="fill:#FCD462;" cx="248.57" cy="128.375" r="32.4"/>
<path style="fill:#F6C358;" d="M230.198,221.231l-60.029,126.59l143.476-0.001l-60.028-126.589
	C248.935,211.355,234.882,211.355,230.198,221.231z"/>
<g>
	<path style="fill:#FCD462;" d="M223.297,347.79H45.364c-6.155,0-11.729-2.916-15.292-7.453c-0.778-1.036-1.491-2.138-2.073-3.305
		l83.41-175.855c4.684-9.875,18.737-9.874,23.419,0.002L223.297,347.79z"/>
	<path style="fill:#FCD462;" d="M386.715,337.098c-0.583,1.167-1.296,2.269-2.073,3.24c-3.563,4.536-9.072,7.453-15.292,7.453
		h-94.54l46.745-98.621c4.681-9.875,18.732-9.879,23.418-0.007L386.715,337.098z"/>
</g>
<path style="fill:#27A2DB;" d="M327.409,335.29l89.856,101.893c10.672,12.101,29.055,13.255,41.156,2.583
	c12.052-10.629,13.255-29.055,2.583-41.156l-89.856-101.893L327.409,335.29z"/>
<g>
	
		<rect x="383.497" y="381.913" transform="matrix(-0.75 0.6614 -0.6614 -0.75 978.6896 405.8129)" style="fill:#E1E6E9;" width="58.318" height="11.882"/>
	
		<rect x="399.229" y="399.791" transform="matrix(-0.75 0.6614 -0.6614 -0.75 1018.0444 426.6947)" style="fill:#E1E6E9;" width="58.318" height="11.882"/>
</g>
<path style="fill:#E56353;" d="M374.285,99.483C315.11,32.381,212.743,25.955,145.643,85.131
	c-67.102,59.175-73.527,161.543-14.353,228.644c59.175,67.102,161.542,73.528,228.642,14.353
	C427.035,268.952,433.46,166.584,374.285,99.483z M342.791,308.689c-56.272,49.626-142.434,44.218-192.059-12.056
	c-49.626-56.272-44.217-142.434,12.055-192.06c56.274-49.626,142.434-44.218,192.06,12.055
	C404.473,172.902,399.065,259.063,342.791,308.689z"/>
<g>
</g>
<g>
</g>
<g>
</g>
<g>
</g>
<g>
</g>
<g>
</g>
<g>
</g>
<g>
</g>
<g>
</g>
<g>
</g>
<g>
</g>
<g>
</g>
<g>
</g>
<g>
</g>
<g>
</g>
</svg>
