<?xml version="1.0" encoding="iso-8859-1"?>
<!-- Generator: Adobe Illustrator 19.0.0, SVG Export Plug-In . SVG Version: 6.00 Build 0)  -->
<svg version="1.1" id="Capa_1" xmlns="http://www.w3.org/2000/svg" xmlns:xlink="http://www.w3.org/1999/xlink" x="0px" y="0px"
	 viewBox="0 0 468.293 468.293" style="enable-background:new 0 0 468.293 468.293;" xml:space="preserve">
<path style="fill:#F6C358;" d="M336.015,256.977H0v-132.6c0-20.69,16.773-37.463,37.463-37.463h298.551V256.977z"/>
<rect x="56.657" y="112.496" style="fill:#EBF0F3;" width="366.192" height="87.046"/>
<path style="fill:#FCD462;" d="M430.829,416.433H37.463C16.773,416.433,0,399.66,0,378.969V176.738
	c0-20.69,16.773-37.463,37.463-37.463h161.679c14.062,0,26.939-7.874,33.347-20.391l20.677-46.632
	c6.408-12.517,19.286-20.391,33.347-20.391l144.315,6.244c20.69,0,37.463,10.529,37.463,31.22v289.646
	C468.293,399.66,451.52,416.433,430.829,416.433z"/>
<path style="fill:#E1E6E9;" d="M212.723,340.411l71.992-13.429l37.927-123.63l-13.994-13.994l-123.63,37.927
	c0,0-6.771,36.297-13.429,71.992L212.723,340.411z"/>
<path style="fill:#27A2DB;" d="M160.791,288.479l62.73,62.73c3.603,3.603,3.603,9.445,0,13.049l-9.484,9.484
	c-3.603,3.603-9.445,3.603-13.049,0l-62.73-62.73c-3.603-3.603-3.603-9.445,0-13.049l9.484-9.484
	C151.346,284.876,157.188,284.876,160.791,288.479z"/>
<rect x="248.57" y="218.749" transform="matrix(-0.7071 0.7071 -0.7071 -0.7071 649.9054 179.0824)" style="fill:#D5D6DB;" width="78.586" height="10.783"/>
<circle style="fill:#64798A;" cx="258.129" cy="253.877" r="9.884"/>
<g>
</g>
<g>
</g>
<g>
</g>
<g>
</g>
<g>
</g>
<g>
</g>
<g>
</g>
<g>
</g>
<g>
</g>
<g>
</g>
<g>
</g>
<g>
</g>
<g>
</g>
<g>
</g>
<g>
</g>
</svg>
