<?xml version="1.0" encoding="iso-8859-1"?>
<!-- Generator: Adobe Illustrator 19.0.0, SVG Export Plug-In . SVG Version: 6.00 Build 0)  -->
<svg version="1.1" id="Capa_1" xmlns="http://www.w3.org/2000/svg" xmlns:xlink="http://www.w3.org/1999/xlink" x="0px" y="0px"
	 viewBox="0 0 468.293 468.293" style="enable-background:new 0 0 468.293 468.293;" xml:space="preserve">
<path style="fill:#E1E6E9;" d="M416.259,241.321v214.484c0,6.897-5.591,12.488-12.488,12.488H85.262v-64.126H21.198V241.321
	c0-6.897,5.591-12.488,12.488-12.488h370.085C410.668,228.833,416.259,234.424,416.259,241.321z"/>
<path style="fill:#DC8744;" d="M334.974,40.618c-16.521,11.199-44.017,21.693-61.085,27.62c-8.072,2.803-16.434,4.692-24.963,5.226
	c-17.871,1.121-37.901,5.829-53.825,10.393c-18.238,5.228-33.612,17.492-42.644,34.177c-6.47,11.953-14.236,26.3-20.748,38.331
	c-8.458,15.626-8.058,34.539,1.044,49.799l14.422,24.179c-0.065,0.19-0.128,0.378-0.189,0.565
	c-4.777,14.546,6.477,29.218,21.783,28.836c29.46-0.735,50.555-11.643,62.455-19.961c8.074-5.643,17.348-9.365,27.133-10.496
	c30.587-3.536,50.019-14.949,60.947-23.912c6.666-5.468,11.189-12.958,13.831-21.165c11.246-34.921,40.934-47.909,58.445-52.621
	c6.346-1.707,9.188-9.064,5.576-14.553l-48.613-73.867C345.556,38.633,339.47,37.57,334.974,40.618z M187.127,213.238
	l-12.944-19.417l20.225-36.406h36.406l16.18,20.226C246.995,177.641,233.241,210.002,187.127,213.238z"/>
<path style="fill:#F6C358;" d="M442.014,112.086l-28.079,17.211c-5.254,3.519-12.367,2.113-15.886-3.142l-61.031-91.12
	c-3.519-5.255-2.113-12.367,3.142-15.887l28.079-17.211c5.255-3.519,12.367-2.113,15.886,3.142l61.031,91.12
	C448.676,101.454,447.269,108.567,442.014,112.086z"/>
<polygon style="fill:#EBF0F3;" points="85.262,404.166 85.262,468.293 21.198,404.166 "/>
<g>
	<rect x="344.414" y="279.852" style="fill:#D5D6DB;" width="18.732" height="137.366"/>
	<rect x="276.892" y="279.852" style="fill:#D5D6DB;" width="18.732" height="137.366"/>
	<rect x="209.358" y="279.852" style="fill:#D5D6DB;" width="18.732" height="137.366"/>
	<rect x="141.861" y="279.852" style="fill:#D5D6DB;" width="18.732" height="137.366"/>
	<rect x="74.309" y="279.852" style="fill:#D5D6DB;" width="18.732" height="94.22"/>
</g>
<g>
</g>
<g>
</g>
<g>
</g>
<g>
</g>
<g>
</g>
<g>
</g>
<g>
</g>
<g>
</g>
<g>
</g>
<g>
</g>
<g>
</g>
<g>
</g>
<g>
</g>
<g>
</g>
<g>
</g>
</svg>
