<?xml version="1.0" encoding="iso-8859-1"?>
<!-- Generator: Adobe Illustrator 19.0.0, SVG Export Plug-In . SVG Version: 6.00 Build 0)  -->
<svg version="1.1" id="Capa_1" xmlns="http://www.w3.org/2000/svg" xmlns:xlink="http://www.w3.org/1999/xlink" x="0px" y="0px"
	 viewBox="0 0 468.293 468.293" style="enable-background:new 0 0 468.293 468.293;" xml:space="preserve">
<path style="fill:#E1E6E9;" d="M399.61,83.98v371.825c0,6.897-5.591,12.488-12.488,12.488H81.171
	c-6.897,0-12.488-5.591-12.488-12.488V12.488C68.683,5.591,74.274,0,81.171,0h234.458v83.98H399.61z"/>
<polygon style="fill:#D5D6DB;" points="399.61,83.98 315.629,83.98 315.629,0 "/>
<rect x="116.574" y="112.359" style="fill:#FCD462;" width="49.951" height="49.951"/>
<rect x="116.574" y="204.925" style="fill:#27A2DB;" width="49.951" height="49.951"/>
<rect x="116.574" y="297.397" style="fill:#44C4A1;" width="49.951" height="49.951"/>
<rect x="116.574" y="389.963" style="fill:#E56353;" width="49.951" height="49.951"/>
<g>
	<rect x="190.876" y="146.7" style="fill:#D5D6DB;" width="160.862" height="15.61"/>
	<rect x="190.876" y="112.359" style="fill:#D5D6DB;" width="160.862" height="15.61"/>
	<rect x="190.876" y="204.925" style="fill:#D5D6DB;" width="160.862" height="15.61"/>
	<rect x="190.876" y="239.235" style="fill:#D5D6DB;" width="160.862" height="15.61"/>
	<rect x="190.876" y="297.397" style="fill:#D5D6DB;" width="160.862" height="15.61"/>
	<rect x="190.876" y="331.77" style="fill:#D5D6DB;" width="160.862" height="15.61"/>
	<rect x="190.876" y="389.963" style="fill:#D5D6DB;" width="160.862" height="15.61"/>
	<rect x="190.876" y="424.273" style="fill:#D5D6DB;" width="160.862" height="15.61"/>
</g>
<g>
</g>
<g>
</g>
<g>
</g>
<g>
</g>
<g>
</g>
<g>
</g>
<g>
</g>
<g>
</g>
<g>
</g>
<g>
</g>
<g>
</g>
<g>
</g>
<g>
</g>
<g>
</g>
<g>
</g>
</svg>
