<?xml version="1.0" encoding="iso-8859-1"?>
<!-- Generator: Adobe Illustrator 19.0.0, SVG Export Plug-In . SVG Version: 6.00 Build 0)  -->
<svg version="1.1" id="Capa_1" xmlns="http://www.w3.org/2000/svg" xmlns:xlink="http://www.w3.org/1999/xlink" x="0px" y="0px"
	 viewBox="0 0 468.293 468.293" style="enable-background:new 0 0 468.293 468.293;" xml:space="preserve">
<path style="fill:#3EA69B;" d="M212.464,99.56V76.367c0-6.426-5.21-11.636-11.636-11.636H68.602c-6.426,0-11.636,5.21-11.636,11.636
	V99.56H27.607c-6.426,0-11.636,5.21-11.636,11.636v23.195h436.35v-23.195c0-6.426-5.21-11.636-11.636-11.636H212.464z"/>
<path style="fill:#44C4A1;" d="M404.108,403.562H64.185c-17.625,0-32.486-13.139-34.645-30.631L0.089,140.179
	c-0.857-6.939,4.556-13.062,11.548-13.062h445.017c6.992,0,12.405,6.122,11.548,13.062l-29.451,232.752
	C436.593,390.423,421.733,403.562,404.108,403.562z"/>
<path style="fill:#EBF0F3;" d="M334.049,265.34c0,20.18-5.956,38.95-16.301,54.663c-17.829,27.233-48.629,45.22-83.582,45.22
	c-34.992,0-65.792-17.986-83.621-45.22c-10.306-15.713-16.301-34.483-16.301-54.663c0-55.173,44.749-99.883,99.922-99.883
	C289.299,165.457,334.049,210.167,334.049,265.34z"/>
<path style="fill:#2D93BA;" d="M317.748,320.003c-17.829,27.233-48.629,45.22-83.582,45.22c-34.992,0-65.792-17.986-83.621-45.22
	c17.829-27.233,48.629-45.22,83.621-45.22C269.119,274.783,299.918,292.769,317.748,320.003z"/>
<circle style="fill:#27A2DB;" cx="234.146" cy="239.522" r="35.266"/>
<g>
</g>
<g>
</g>
<g>
</g>
<g>
</g>
<g>
</g>
<g>
</g>
<g>
</g>
<g>
</g>
<g>
</g>
<g>
</g>
<g>
</g>
<g>
</g>
<g>
</g>
<g>
</g>
<g>
</g>
</svg>
