<?xml version="1.0" encoding="iso-8859-1"?>
<!-- Generator: Adobe Illustrator 19.0.0, SVG Export Plug-In . SVG Version: 6.00 Build 0)  -->
<svg version="1.1" id="Capa_1" xmlns="http://www.w3.org/2000/svg" xmlns:xlink="http://www.w3.org/1999/xlink" x="0px" y="0px"
	 viewBox="0 0 468.35 468.35" style="enable-background:new 0 0 468.35 468.35;" xml:space="preserve">
<path style="fill:#E1E6E9;" d="M344.333,12.488V435.2H37.694c-6.897,0-12.488-5.591-12.488-12.488V74.053h73.991V0h232.648
	C338.742,0,344.333,5.591,344.333,12.488z"/>
<polygon style="fill:#EBF0F3;" points="99.197,0 99.197,74.053 25.206,74.053 "/>
<g>
	<rect x="129.025" y="58.444" style="fill:#D5D6DB;" width="174.361" height="15.61"/>
	<rect x="66.149" y="361.723" style="fill:#D5D6DB;" width="237.268" height="15.61"/>
	<rect x="66.149" y="285.859" style="fill:#D5D6DB;" width="237.268" height="15.61"/>
	<rect x="66.149" y="210.058" style="fill:#D5D6DB;" width="237.268" height="15.61"/>
	<rect x="66.149" y="134.257" style="fill:#D5D6DB;" width="237.268" height="15.61"/>
</g>
<circle style="fill:#27A2DB;" cx="344.321" cy="369.528" r="98.822"/>
<path style="fill:#EBF0F3;" d="M374.241,437.142h-59.844c-10.345,0-18.732-8.386-18.732-18.732v-55.154
	c0-3.448,2.795-6.244,6.244-6.244h84.82c3.448,0,6.244,2.796,6.244,6.244v55.154C392.972,428.756,384.586,437.142,374.241,437.142z"
	/>
<path style="fill:#D5D6DB;" d="M362.913,301.857h-37.189c-10.304,0-18.657,8.354-18.657,18.657v36.497h15.607v-36.495
	c0-1.683,1.366-3.049,3.049-3.049h37.189c1.683,0,3.049,1.366,3.049,3.049v36.495h15.611v-36.497
	C381.571,310.211,373.218,301.857,362.913,301.857z"/>
<path style="fill:#1C75A1;" d="M353.685,398.599c0-5.989-5.621-10.665-11.875-9.04c-3.202,0.832-5.791,3.491-6.572,6.705
	c-1.105,4.549,1.126,8.664,4.709,10.571v11.493c0,2.415,1.957,4.372,4.372,4.372h0c2.415,0,4.372-1.957,4.372-4.372v-11.493
	C351.648,405.26,353.685,402.183,353.685,398.599z"/>
<g>
</g>
<g>
</g>
<g>
</g>
<g>
</g>
<g>
</g>
<g>
</g>
<g>
</g>
<g>
</g>
<g>
</g>
<g>
</g>
<g>
</g>
<g>
</g>
<g>
</g>
<g>
</g>
<g>
</g>
</svg>
