<?xml version="1.0" encoding="iso-8859-1"?>
<!-- Generator: Adobe Illustrator 19.0.0, SVG Export Plug-In . SVG Version: 6.00 Build 0)  -->
<svg version="1.1" id="Capa_1" xmlns="http://www.w3.org/2000/svg" xmlns:xlink="http://www.w3.org/1999/xlink" x="0px" y="0px"
	 viewBox="0 0 468.293 468.293" style="enable-background:new 0 0 468.293 468.293;" xml:space="preserve">
<path style="fill:#E1E6E9;" d="M372.712,18.732v430.829c0,10.345-8.386,18.732-18.732,18.732H54.273
	c-10.345,0-18.732-8.386-18.732-18.732V82.419h82.482V0H353.98C364.325,0,372.712,8.386,372.712,18.732z"/>
<g>
	<polygon style="fill:#D5D6DB;" points="118.024,0 118.024,82.419 35.541,82.419 	"/>
	<rect x="151.708" y="63.688" style="fill:#D5D6DB;" width="187.317" height="18.732"/>
	<rect x="69.226" y="385.873" style="fill:#D5D6DB;" width="194.872" height="18.732"/>
	<rect x="69.226" y="321.436" style="fill:#D5D6DB;" width="269.799" height="18.732"/>
	<rect x="69.226" y="256.999" style="fill:#D5D6DB;" width="194.872" height="18.732"/>
	<rect x="69.226" y="192.562" style="fill:#D5D6DB;" width="269.799" height="18.732"/>
	<rect x="69.226" y="128.125" style="fill:#D5D6DB;" width="194.872" height="18.732"/>
</g>
<path style="fill:#64798A;" d="M385.157,314.295l45.265-42.542c3.107-2.921,3.107-7.856,0-10.777l-45.265-42.542
	c-4.72-4.435-12.458-1.089-12.458,5.389v13.295h-54.126c-4.083,0-7.394,3.311-7.394,7.394v43.704c0,4.083,3.311,7.394,7.394,7.394
	h54.126v13.296C372.699,315.385,380.437,318.732,385.157,314.295z"/>
<g>
</g>
<g>
</g>
<g>
</g>
<g>
</g>
<g>
</g>
<g>
</g>
<g>
</g>
<g>
</g>
<g>
</g>
<g>
</g>
<g>
</g>
<g>
</g>
<g>
</g>
<g>
</g>
<g>
</g>
</svg>
