<?xml version="1.0" encoding="iso-8859-1"?>
<!-- Generator: Adobe Illustrator 19.0.0, SVG Export Plug-In . SVG Version: 6.00 Build 0)  -->
<svg version="1.1" id="Capa_1" xmlns="http://www.w3.org/2000/svg" xmlns:xlink="http://www.w3.org/1999/xlink" x="0px" y="0px"
	 viewBox="0 0 467.639 467.639" style="enable-background:new 0 0 467.639 467.639;" xml:space="preserve">
<path style="fill:#27A2DB;" d="M378.554,467.639H151.019c-23.275,0-42.143-18.868-42.143-42.143V131.942L66.734,68.729h269.677
	c23.275,0,42.143,18.868,42.143,42.143V467.639z"/>
<g>
	<path style="fill:#2D93BA;" d="M108.877,131.943H24.592v-21.071c0-23.275,18.868-42.143,42.143-42.143h0
		c23.275,0,42.143,18.868,42.143,42.143V131.943z"/>
	<path style="fill:#2D93BA;" d="M380.746,383.354H153.943c23.275,0,42.143,18.868,42.143,42.143
		c0,23.274-18.868,42.143-42.143,42.143h226.804c23.275,0,42.143-18.868,42.143-42.143
		C422.89,402.222,404.022,383.354,380.746,383.354z"/>
</g>
<g>
	<rect x="151.381" y="292.138" style="fill:#EBF0F3;" width="112.952" height="15.959"/>
	<rect x="151.381" y="223.517" style="fill:#EBF0F3;" width="67.934" height="15.959"/>
	<rect x="151.381" y="154.884" style="fill:#EBF0F3;" width="112.952" height="15.959"/>
</g>
<polygon style="fill:#FCD462;" points="430.877,58.865 308.434,287.767 288.329,277.027 268.224,266.288 248.118,255.486 
	370.561,26.584 390.666,37.324 410.772,48.063 "/>
<path style="fill:#E1E6E9;" d="M308.473,287.778l-22.828,10.636l-20.587,9.617c-3.281,1.533-8.105-1.01-8.717-4.594l-3.888-22.774
	l-4.329-25.16L308.473,287.778z"/>
<path style="fill:#64798A;" d="M285.644,298.414l-20.587,9.617c-3.281,1.533-8.105-1.01-8.717-4.594l-3.888-22.774L285.644,298.414z
	"/>
<path style="fill:#44C4A1;" d="M430.892,58.84l-60.349-32.276L381.22,6.601c3.253-6.081,10.819-8.375,16.901-5.122l38.326,20.497
	c6.082,3.253,8.375,10.82,5.122,16.902L430.892,58.84z"/>
<rect x="209.668" y="145.808" transform="matrix(-0.4716 0.8818 -0.8818 -0.4716 638.2158 -68.0005)" style="fill:#F6C358;" width="259.627" height="22.815"/>
<rect x="391.278" y="14.143" transform="matrix(-0.4716 0.8818 -0.8818 -0.4716 627.9033 -279.5259)" style="fill:#D5D6DB;" width="12.844" height="68.439"/>
<g>
</g>
<g>
</g>
<g>
</g>
<g>
</g>
<g>
</g>
<g>
</g>
<g>
</g>
<g>
</g>
<g>
</g>
<g>
</g>
<g>
</g>
<g>
</g>
<g>
</g>
<g>
</g>
<g>
</g>
</svg>
