<?xml version="1.0" encoding="iso-8859-1"?>
<!-- Generator: Adobe Illustrator 19.0.0, SVG Export Plug-In . SVG Version: 6.00 Build 0)  -->
<svg version="1.1" id="Capa_1" xmlns="http://www.w3.org/2000/svg" xmlns:xlink="http://www.w3.org/1999/xlink" x="0px" y="0px"
	 viewBox="0 0 468.293 468.293" style="enable-background:new 0 0 468.293 468.293;" xml:space="preserve">
<path style="fill:#FCD462;" d="M109.804,449.487H24.976C11.182,449.487,0,438.305,0,424.511V53.278
	c0-13.794,11.182-24.976,24.976-24.976h84.828c13.794,0,24.976,11.182,24.976,24.976v371.234
	C134.779,438.305,123.597,449.487,109.804,449.487z"/>
<path style="fill:#EBF0F3;" d="M28.079,179.995V68.867c0-6.897,5.591-12.488,12.488-12.488h53.646
	c6.897,0,12.488,5.591,12.488,12.488v111.128c0,6.897-5.591,12.488-12.488,12.488H40.567
	C33.67,192.483,28.079,186.892,28.079,179.995z"/>
<path style="fill:#64798A;" d="M85.161,420.255H49.619c-10.345,0-18.732-8.386-18.732-18.732v-35.542
	c0-10.345,8.386-18.732,18.732-18.732h35.542c10.345,0,18.732,8.386,18.732,18.732v35.542
	C103.892,411.868,95.506,420.255,85.161,420.255z"/>
<path style="fill:#3A556A;" d="M95.515,412.546H56.204c-9.305,0-16.847-7.542-16.847-16.847v-39.311
	c0-2.865,0.782-5.522,2.044-7.884c-6.161,2.506-10.514,8.532-10.514,15.593v39.311c0,9.305,7.543,16.847,16.847,16.847h39.311
	c6.44,0,11.968-3.654,14.803-8.963C99.89,412.088,97.758,412.546,95.515,412.546z"/>
<g>
	<rect x="44.925" y="116.012" style="fill:#64798A;" width="44.925" height="16.846"/>
	<rect x="44.925" y="82.313" style="fill:#64798A;" width="44.925" height="16.846"/>
	<rect x="44.925" y="149.704" style="fill:#64798A;" width="44.925" height="16.846"/>
</g>
<path style="fill:#44C4A1;" d="M443.317,449.487h-84.828c-13.794,0-24.976-11.182-24.976-24.976V53.278
	c0-13.794,11.182-24.976,24.976-24.976h84.828c13.794,0,24.976,11.182,24.976,24.976v371.234
	C468.293,438.305,457.111,449.487,443.317,449.487z"/>
<path style="fill:#EBF0F3;" d="M361.592,179.995V68.867c0-6.897,5.591-12.488,12.488-12.488h53.646
	c6.897,0,12.488,5.591,12.488,12.488v111.128c0,6.897-5.591,12.488-12.488,12.488H374.08
	C367.183,192.483,361.592,186.892,361.592,179.995z"/>
<path style="fill:#64798A;" d="M418.674,420.255h-35.542c-10.345,0-18.732-8.386-18.732-18.732v-35.542
	c0-10.345,8.386-18.732,18.732-18.732h35.542c10.345,0,18.732,8.386,18.732,18.732v35.542
	C437.406,411.868,429.019,420.255,418.674,420.255z"/>
<path style="fill:#3A556A;" d="M429.028,412.546h-39.311c-9.305,0-16.847-7.542-16.847-16.847v-39.311
	c0-2.865,0.782-5.522,2.044-7.884c-6.161,2.506-10.514,8.532-10.514,15.593v39.311c0,9.305,7.543,16.847,16.847,16.847h39.311
	c6.44,0,11.968-3.654,14.803-8.963C433.404,412.088,431.272,412.546,429.028,412.546z"/>
<g>
	<rect x="378.443" y="116.012" style="fill:#64798A;" width="44.925" height="16.846"/>
	<rect x="378.443" y="82.313" style="fill:#64798A;" width="44.925" height="16.846"/>
	<rect x="378.443" y="149.704" style="fill:#64798A;" width="44.925" height="16.846"/>
</g>
<path style="fill:#E56353;" d="M239.359,448.706l-83.539-14.73c-13.584-2.395-22.654-15.349-20.259-28.933l64.464-365.594
	c2.395-13.584,15.349-22.654,28.933-20.259l83.539,14.73c13.584,2.395,22.654,15.349,20.259,28.933l-64.464,365.594
	C265.897,442.031,252.943,451.101,239.359,448.706z"/>
<path style="fill:#EBF0F3;" d="M205.673,169.117l19.297-109.44c1.198-6.792,7.675-11.327,14.467-10.13l52.831,9.315
	c6.792,1.198,11.327,7.675,10.13,14.467l-19.297,109.44c-1.198,6.792-7.675,11.327-14.467,10.13l-52.831-9.315
	C209.01,182.386,204.475,175.909,205.673,169.117z"/>
<path style="fill:#64798A;" d="M220.167,415.638l-35.002-6.172c-10.188-1.796-16.991-11.512-15.194-21.7l6.172-35.002
	c1.796-10.188,11.512-16.991,21.7-15.194l35.002,6.172c10.188,1.796,16.991,11.512,15.194,21.7l-6.172,35.002
	C240.07,410.632,230.355,417.435,220.167,415.638z"/>
<path style="fill:#3A556A;" d="M231.702,409.845l-38.713-6.826c-9.163-1.616-15.282-10.353-13.666-19.517l6.826-38.713
	c0.498-2.822,1.729-5.302,3.382-7.409c-6.502,1.398-11.836,6.577-13.062,13.53l-6.826,38.713
	c-1.616,9.163,4.503,17.901,13.666,19.517l38.713,6.826c6.342,1.118,12.421-1.52,16.135-6.257
	C236.09,410.154,233.911,410.234,231.702,409.845z"/>
<g>
	
		<rect x="245.611" y="98.765" transform="matrix(-0.1736 0.9848 -0.9848 -0.1736 417.5324 -107.8966)" style="fill:#64798A;" width="16.846" height="44.925"/>
	
		<rect x="251.446" y="65.578" transform="matrix(-0.1736 0.9848 -0.9848 -0.1736 391.6978 -152.5924)" style="fill:#64798A;" width="16.846" height="44.925"/>
	
		<rect x="239.764" y="131.943" transform="matrix(-0.1736 0.9848 -0.9848 -0.1736 443.3442 -63.1987)" style="fill:#64798A;" width="16.846" height="44.925"/>
</g>
<g>
</g>
<g>
</g>
<g>
</g>
<g>
</g>
<g>
</g>
<g>
</g>
<g>
</g>
<g>
</g>
<g>
</g>
<g>
</g>
<g>
</g>
<g>
</g>
<g>
</g>
<g>
</g>
<g>
</g>
</svg>
