<?xml version="1.0" encoding="iso-8859-1"?>
<!-- Generator: Adobe Illustrator 19.0.0, SVG Export Plug-In . SVG Version: 6.00 Build 0)  -->
<svg version="1.1" id="Capa_1" xmlns="http://www.w3.org/2000/svg" xmlns:xlink="http://www.w3.org/1999/xlink" x="0px" y="0px"
	 viewBox="0 0 468.293 468.293" style="enable-background:new 0 0 468.293 468.293;" xml:space="preserve">
<path style="fill:#E1E6E9;" d="M337.171,18.732v430.829c0,10.345-8.386,18.732-18.732,18.732H18.732
	C8.386,468.293,0,459.906,0,449.561V77.363h77.299V0h241.14C328.784,0,337.171,8.386,337.171,18.732z"/>
<polygon style="fill:#EBF0F3;" points="77.299,0 77.299,77.363 0,77.363 "/>
<path style="fill:#64798A;" d="M461.742,214.993l-10.916-3.441c-7.032-2.216-12.433-7.682-15.041-14.578
	c-0.793-2.096-1.651-4.161-2.572-6.191c-3.057-6.743-3.122-14.455,0.297-21.022l5.289-10.156c1.888-3.626,1.207-8.059-1.684-10.95
	l-14.452-14.454c-2.891-2.891-7.322-3.573-10.948-1.685l-10.158,5.29c-6.566,3.419-14.279,3.355-21.021,0.297
	c-2.03-0.92-4.094-1.779-6.191-2.571c-6.897-2.609-12.362-8.009-14.578-15.042l-3.441-10.917c-1.229-3.899-4.845-6.551-8.933-6.551
	h-20.443c-4.088,0-7.704,2.652-8.932,6.551l-3.44,10.917c-2.216,7.033-7.681,12.434-14.578,15.042
	c-2.097,0.793-4.162,1.652-6.193,2.573c-6.742,3.057-14.455,3.122-21.021-0.297l-10.158-5.289
	c-3.626-1.888-8.057-1.206-10.947,1.685l-14.454,14.455c-2.89,2.89-3.572,7.321-1.684,10.947l5.29,10.158
	c3.419,6.566,3.355,14.278,0.298,21.021c-0.921,2.03-1.779,4.095-2.572,6.192c-2.608,6.897-8.009,12.362-15.041,14.579
	l-10.917,3.441c-3.899,1.229-6.55,4.844-6.55,8.932v20.44c0,4.088,2.652,7.704,6.551,8.933l10.918,3.441
	c7.032,2.216,12.433,7.682,15.041,14.578c0.793,2.096,1.651,4.16,2.571,6.189c3.057,6.742,3.122,14.455-0.297,21.021l-5.29,10.159
	c-1.888,3.626-1.206,8.058,1.685,10.949l14.453,14.453c2.891,2.891,7.323,3.573,10.949,1.685l10.16-5.29
	c6.566-3.419,14.278-3.354,21.02-0.297c2.03,0.92,4.093,1.778,6.189,2.571c6.897,2.609,12.363,8.01,14.579,15.043l3.44,10.915
	c1.229,3.9,4.845,6.552,8.934,6.552h20.441c4.088,0,7.704-2.652,8.933-6.551l3.44-10.915c2.134-6.771,7.187-12.308,13.846-14.769
	c2.588-0.957,5.129-2.013,7.617-3.163c6.475-2.993,13.992-2.683,20.319,0.611l10.166,5.293c3.626,1.888,8.058,1.206,10.948-1.685
	l14.455-14.455c2.89-2.89,3.572-7.322,1.684-10.947l-5.289-10.158c-3.419-6.566-3.355-14.279-0.297-21.022
	c0.921-2.03,1.779-4.095,2.572-6.191c2.609-6.897,8.009-12.362,15.042-14.579l10.915-3.44c3.899-1.229,6.551-4.845,6.551-8.933
	l0.001-20.44C468.293,219.839,465.641,216.222,461.742,214.993z"/>
<circle style="fill:#EBF0F3;" cx="337.171" cy="234.146" r="76.538"/>
<circle style="fill:#64798A;" cx="337.171" cy="234.146" r="37.463"/>
<g>
	<rect x="43.707" y="390.931" style="fill:#D5D6DB;" width="249.756" height="18.732"/>
	<rect x="43.707" y="307.856" style="fill:#D5D6DB;" width="124.878" height="18.732"/>
	<rect x="43.707" y="224.78" style="fill:#D5D6DB;" width="124.878" height="18.732"/>
	<rect x="43.707" y="141.737" style="fill:#D5D6DB;" width="124.878" height="18.732"/>
	<rect x="126.427" y="58.63" style="fill:#D5D6DB;" width="167.037" height="18.732"/>
</g>
<g>
</g>
<g>
</g>
<g>
</g>
<g>
</g>
<g>
</g>
<g>
</g>
<g>
</g>
<g>
</g>
<g>
</g>
<g>
</g>
<g>
</g>
<g>
</g>
<g>
</g>
<g>
</g>
<g>
</g>
</svg>
