<?xml version="1.0" encoding="iso-8859-1"?>
<!-- Generator: Adobe Illustrator 19.0.0, SVG Export Plug-In . SVG Version: 6.00 Build 0)  -->
<svg version="1.1" id="Capa_1" xmlns="http://www.w3.org/2000/svg" xmlns:xlink="http://www.w3.org/1999/xlink" x="0px" y="0px"
	 viewBox="0 0 468.293 468.293" style="enable-background:new 0 0 468.293 468.293;" xml:space="preserve">
<path style="fill:#EBF0F3;" d="M351.039,12.404v386.14c0,6.851-5.553,12.404-12.404,12.404H78.149
	c-6.851,0-12.404-5.553-12.404-12.404V69.153h69.153V0h203.737C345.486,0,351.039,5.554,351.039,12.404z"/>
<g>
	<polygon style="fill:#E1E6E9;" points="134.898,0 134.898,69.153 65.745,69.153 	"/>
	<path style="fill:#E1E6E9;" d="M402.548,69.749v386.14c0,6.851-5.553,12.404-12.404,12.404H129.658
		c-6.851,0-12.404-5.553-12.404-12.404V126.498h69.153V57.345h203.737C396.994,57.345,402.548,62.898,402.548,69.749z"/>
</g>
<g>
	<polygon style="fill:#D5D6DB;" points="186.407,57.345 186.407,126.498 117.254,126.498 	"/>
	<rect x="148.892" y="168.261" style="fill:#D5D6DB;" width="37.214" height="37.214"/>
	<rect x="148.892" y="241.951" style="fill:#D5D6DB;" width="37.214" height="37.214"/>
	<rect x="148.892" y="315.629" style="fill:#D5D6DB;" width="37.214" height="37.214"/>
	<rect x="148.892" y="389.314" style="fill:#D5D6DB;" width="37.214" height="37.214"/>
	<rect x="217.725" y="179.138" style="fill:#D5D6DB;" width="153.169" height="15.504"/>
	<rect x="217.725" y="110.992" style="fill:#D5D6DB;" width="153.169" height="15.504"/>
	<rect x="217.725" y="252.803" style="fill:#D5D6DB;" width="153.169" height="15.504"/>
	<rect x="217.725" y="326.487" style="fill:#D5D6DB;" width="153.169" height="15.504"/>
	<rect x="217.725" y="400.172" style="fill:#D5D6DB;" width="153.169" height="15.504"/>
</g>
<g>
</g>
<g>
</g>
<g>
</g>
<g>
</g>
<g>
</g>
<g>
</g>
<g>
</g>
<g>
</g>
<g>
</g>
<g>
</g>
<g>
</g>
<g>
</g>
<g>
</g>
<g>
</g>
<g>
</g>
</svg>
