<?xml version="1.0" encoding="iso-8859-1"?>
<!-- Generator: Adobe Illustrator 19.0.0, SVG Export Plug-In . SVG Version: 6.00 Build 0)  -->
<svg version="1.1" id="Capa_1" xmlns="http://www.w3.org/2000/svg" xmlns:xlink="http://www.w3.org/1999/xlink" x="0px" y="0px"
	 viewBox="0 0 468.293 468.293" style="enable-background:new 0 0 468.293 468.293;" xml:space="preserve">
<path style="fill:#FCD462;" d="M449.936,57.544v266.313c0,33.145-12.89,46.035-28.772,46.035H47.129
	c-15.94,0-28.772-12.89-28.772-46.035V5.754C18.357,10.3,28.657,0,41.374,0h100.587c6.502,0,12.717,2.762,17.091,7.595
	l33.145,36.599c4.316,4.833,10.531,7.595,17.033,7.595h217.689C439.635,51.789,449.936,62.089,449.936,57.544z"/>
<path style="fill:#F6C358;" d="M449.936,123.144v200.712c0,33.145-12.89,46.035-28.772,46.035H47.129
	c-15.94,0-28.772-12.89-28.772-46.035V169.179c0-12.717,10.3-23.018,23.018-23.018h150.822c6.157,0,12.027-2.417,16.343-6.79
	l32.11-32.397c4.316-4.373,10.243-6.847,16.342-6.847h169.927C439.635,100.126,449.936,110.427,449.936,123.144z"/>
<circle style="fill:#E56353;" cx="234.146" cy="369.889" r="98.404"/>
<path style="fill:#EBF0F3;" d="M264.068,437.534h-59.844c-10.345,0-18.732-8.386-18.732-18.732v-55.154
	c0-3.448,2.795-6.244,6.244-6.244h84.82c3.448,0,6.244,2.795,6.244,6.244v55.154C282.8,429.147,274.414,437.534,264.068,437.534z"/>
<path style="fill:#D5D6DB;" d="M252.741,302.249h-37.189c-10.304,0-18.657,8.354-18.657,18.657v36.497h15.607v-36.495
	c0-1.683,1.366-3.049,3.049-3.049h37.189c1.683,0,3.049,1.366,3.049,3.049v36.495h15.611v-36.497
	C271.399,310.603,263.045,302.249,252.741,302.249z"/>
<path style="fill:#1C75A1;" d="M243.512,398.99c0-5.989-5.621-10.665-11.875-9.04c-3.202,0.832-5.791,3.491-6.572,6.705
	c-1.105,4.549,1.126,8.664,4.709,10.571v11.492c0,2.415,1.957,4.372,4.372,4.372h0c2.415,0,4.372-1.957,4.372-4.372v-11.492
	C241.476,405.652,243.512,402.575,243.512,398.99z"/>
<g>
</g>
<g>
</g>
<g>
</g>
<g>
</g>
<g>
</g>
<g>
</g>
<g>
</g>
<g>
</g>
<g>
</g>
<g>
</g>
<g>
</g>
<g>
</g>
<g>
</g>
<g>
</g>
<g>
</g>
</svg>
