<?xml version="1.0" encoding="iso-8859-1"?>
<!-- Generator: Adobe Illustrator 19.0.0, SVG Export Plug-In . SVG Version: 6.00 Build 0)  -->
<svg version="1.1" id="Capa_1" xmlns="http://www.w3.org/2000/svg" xmlns:xlink="http://www.w3.org/1999/xlink" x="0px" y="0px"
	 viewBox="0 0 468.293 468.293" style="enable-background:new 0 0 468.293 468.293;" xml:space="preserve">
<path style="fill:#E1E6E9;" d="M402.732,12.488v443.317c0,6.897-5.591,12.488-12.488,12.488H78.049
	c-6.897,0-12.488-5.591-12.488-12.488V73.616h73.678V0h251.005C397.141,0,402.732,5.591,402.732,12.488z"/>
<rect x="198.337" y="73.905" transform="matrix(-0.8818 -0.4716 0.4716 -0.8818 285.7747 524.2108)" style="fill:#FCD462;" width="20.474" height="304.783"/>
<rect x="216.433" y="83.582" transform="matrix(-0.8818 -0.4716 0.4716 -0.8818 315.2637 550.9561)" style="fill:#F6C358;" width="20.474" height="304.783"/>
<rect x="234.47" y="93.23" transform="matrix(-0.8818 -0.4716 0.4716 -0.8818 344.6577 577.6172)" style="fill:#FCD462;" width="20.474" height="304.783"/>
<path style="fill:#E1E6E9;" d="M181.866,384.829l-23.115,14.456l-20.849,13.065c-3.323,2.082-7.657-0.192-7.832-4.109l-1.11-24.888
	l-1.259-27.492L181.866,384.829z"/>
<path style="fill:#64798A;" d="M158.751,399.285l-20.849,13.065c-3.323,2.082-7.657-0.192-7.832-4.109l-1.11-24.888L158.751,399.285
	z"/>
<rect x="264.226" y="100.702" transform="matrix(-0.8818 -0.4716 0.4716 -0.8818 503.9736 342.7835)" style="fill:#27A2DB;" width="61.427" height="15.079"/>
<path style="fill:#E56353;" d="M325.583,116.074l-54.165-28.968l13.559-25.351c3.253-6.081,10.819-8.375,16.901-5.122l32.141,17.189
	c6.082,3.253,8.375,10.82,5.123,16.902L325.583,116.074z"/>
<g>
	<polygon style="fill:#D5D6DB;" points="139.239,0 139.239,73.616 65.561,73.616 	"/>
	<rect x="90.537" y="138.964" style="fill:#D5D6DB;" width="78.392" height="15.61"/>
	<rect x="90.537" y="186.587" style="fill:#D5D6DB;" width="78.392" height="15.61"/>
	<rect x="277.854" y="274.107" style="fill:#D5D6DB;" width="99.902" height="15.61"/>
	<rect x="277.854" y="330.74" style="fill:#D5D6DB;" width="99.902" height="15.61"/>
	<rect x="277.854" y="387.309" style="fill:#D5D6DB;" width="99.902" height="15.61"/>
</g>
<g>
</g>
<g>
</g>
<g>
</g>
<g>
</g>
<g>
</g>
<g>
</g>
<g>
</g>
<g>
</g>
<g>
</g>
<g>
</g>
<g>
</g>
<g>
</g>
<g>
</g>
<g>
</g>
<g>
</g>
</svg>
