<?xml version="1.0" encoding="iso-8859-1"?>
<!-- Generator: Adobe Illustrator 19.0.0, SVG Export Plug-In . SVG Version: 6.00 Build 0)  -->
<svg version="1.1" id="Capa_1" xmlns="http://www.w3.org/2000/svg" xmlns:xlink="http://www.w3.org/1999/xlink" x="0px" y="0px"
	 viewBox="0 0 468.293 468.293" style="enable-background:new 0 0 468.293 468.293;" xml:space="preserve">
<path style="fill:#EBF0F3;" d="M396.488,468.293H71.805c-6.897,0-12.488-5.591-12.488-12.488V12.488C59.317,5.591,64.908,0,71.805,0
	h324.683c6.897,0,12.488,5.591,12.488,12.488v443.317C408.976,462.702,403.385,468.293,396.488,468.293z"/>
<polygon style="fill:#E56353;" points="305.068,187.738 315.317,173.631 305.068,159.524 309.138,142.569 294.271,133.457 
	291.542,116.235 274.32,113.507 265.209,98.639 248.253,102.71 234.146,92.461 220.039,102.71 203.084,98.639 193.972,113.507 
	176.751,116.234 174.024,133.457 159.155,142.568 163.226,159.523 152.976,173.631 163.225,187.737 159.154,204.693 
	174.022,213.804 176.75,231.028 193.973,233.756 203.084,248.624 220.039,244.553 234.146,254.802 248.253,244.553 265.209,248.623 
	274.32,233.756 291.543,231.028 294.271,213.805 309.139,204.694 "/>
<polygon style="fill:#FCD462;" points="224.734,220.956 213.423,223.67 207.338,213.743 195.85,211.926 194.027,200.432 
	184.106,194.353 186.82,183.042 179.99,173.633 186.832,164.219 184.112,152.902 194.027,146.828 195.85,135.335 207.344,133.511 
	213.417,123.597 224.734,126.316 234.149,119.475 243.558,126.316 254.875,123.597 260.948,133.511 272.442,135.335 
	274.259,146.822 284.186,152.908 281.472,164.219 288.308,173.633 281.472,183.036 284.186,194.353 274.259,200.438 
	272.442,211.926 260.954,213.743 254.869,223.67 243.551,220.956 234.149,227.792 "/>
<g>
	<path style="fill:#D5D6DB;" d="M234.146,36.687c-79.188,0-143.61,64.422-143.61,143.61c0,4.265,3.456,7.721,7.721,7.721
		c4.265,0,7.721-3.456,7.721-7.721c0-70.671,57.497-128.168,128.168-128.168s128.168,57.497,128.168,128.168
		c0,4.265,3.456,7.721,7.721,7.721s7.721-3.456,7.721-7.721C377.756,101.109,313.334,36.687,234.146,36.687z"/>
	<rect x="152.976" y="299.395" style="fill:#D5D6DB;" width="224.78" height="15.61"/>
	<rect x="90.537" y="357.688" style="fill:#D5D6DB;" width="287.22" height="15.61"/>
	<rect x="90.537" y="415.969" style="fill:#D5D6DB;" width="224.78" height="15.61"/>
</g>
<g>
</g>
<g>
</g>
<g>
</g>
<g>
</g>
<g>
</g>
<g>
</g>
<g>
</g>
<g>
</g>
<g>
</g>
<g>
</g>
<g>
</g>
<g>
</g>
<g>
</g>
<g>
</g>
<g>
</g>
</svg>
