<?xml version="1.0" encoding="iso-8859-1"?>
<!-- Generator: Adobe Illustrator 19.0.0, SVG Export Plug-In . SVG Version: 6.00 Build 0)  -->
<svg version="1.1" id="Capa_1" xmlns="http://www.w3.org/2000/svg" xmlns:xlink="http://www.w3.org/1999/xlink" x="0px" y="0px"
	 viewBox="0 0 468.293 468.293" style="enable-background:new 0 0 468.293 468.293;" xml:space="preserve">
<path style="fill:#E1E6E9;" d="M342.353,12.488v443.317c0,6.897-5.591,12.488-12.488,12.488H17.671
	c-6.897,0-12.488-5.591-12.488-12.488V79.984h79.985V0h244.698C336.762,0,342.353,5.591,342.353,12.488z"/>
<polygon style="fill:#EBF0F3;" points="85.167,0 85.167,79.984 5.183,79.984 "/>
<rect x="354.18" y="354.435" transform="matrix(-0.7071 0.7071 -0.7071 -0.7071 886.456 374.4741)" style="fill:#64798A;" width="22.984" height="32.787"/>
<path style="fill:#1C75A1;" d="M384.393,371.404l-18.172,18.172c-3.602,3.602-3.602,9.441,0,13.043l62.972,62.972
	c3.602,3.602,9.441,3.602,13.043,0l18.172-18.172c3.602-3.602,3.602-9.441,0-13.043l-62.972-62.972
	C393.834,367.802,387.995,367.802,384.393,371.404z"/>
<ellipse style="fill:#64798A;" cx="273.483" cy="278.662" rx="122.568" ry="122.568"/>
<ellipse style="fill:#EBF0F3;" cx="273.489" cy="278.652" rx="108.426" ry="108.426"/>
<g>
	<rect x="232.891" y="272.421" style="fill:#D5D6DB;" width="81.171" height="12.488"/>
	<rect x="207.429" y="309.885" style="fill:#D5D6DB;" width="55.845" height="12.488"/>
	<rect x="207.429" y="234.958" style="fill:#D5D6DB;" width="55.845" height="12.488"/>
	<rect x="283.679" y="309.885" style="fill:#D5D6DB;" width="55.845" height="12.488"/>
	<rect x="283.679" y="234.958" style="fill:#D5D6DB;" width="55.845" height="12.488"/>
	<rect x="145.077" y="64.375" style="fill:#D5D6DB;" width="137.366" height="15.61"/>
	<rect x="36.402" y="158.982" style="fill:#D5D6DB;" width="124.148" height="15.61"/>
	<rect x="36.402" y="229.401" style="fill:#D5D6DB;" width="89.756" height="15.61"/>
	<rect x="36.402" y="299.832" style="fill:#D5D6DB;" width="89.756" height="15.61"/>
	<rect x="36.402" y="370.245" style="fill:#D5D6DB;" width="124.148" height="15.61"/>
</g>
<g>
</g>
<g>
</g>
<g>
</g>
<g>
</g>
<g>
</g>
<g>
</g>
<g>
</g>
<g>
</g>
<g>
</g>
<g>
</g>
<g>
</g>
<g>
</g>
<g>
</g>
<g>
</g>
<g>
</g>
</svg>
