<?xml version="1.0" encoding="iso-8859-1"?>
<!-- Generator: Adobe Illustrator 19.0.0, SVG Export Plug-In . SVG Version: 6.00 Build 0)  -->
<svg version="1.1" id="Capa_1" xmlns="http://www.w3.org/2000/svg" xmlns:xlink="http://www.w3.org/1999/xlink" x="0px" y="0px"
	 viewBox="0 0 468.293 468.293" style="enable-background:new 0 0 468.293 468.293;" xml:space="preserve">
<path style="fill:#E1E6E9;" d="M309.042,468.293H21.822c-10.345,0-18.732-8.386-18.732-18.732V18.732C3.091,8.386,11.477,0,21.822,0
	h287.22c10.345,0,18.732,8.386,18.732,18.732v430.829C327.773,459.906,319.387,468.293,309.042,468.293z"/>
<g>
	<rect x="71.774" y="43.17" style="fill:#D5D6DB;" width="187.317" height="15.61"/>
	<rect x="71.774" y="104.211" style="fill:#D5D6DB;" width="187.317" height="15.61"/>
	<rect x="71.774" y="165.282" style="fill:#D5D6DB;" width="187.317" height="15.61"/>
	<rect x="71.774" y="226.341" style="fill:#D5D6DB;" width="187.317" height="15.61"/>
	<rect x="71.774" y="287.407" style="fill:#D5D6DB;" width="187.317" height="15.61"/>
	<rect x="71.774" y="348.472" style="fill:#D5D6DB;" width="187.317" height="15.61"/>
	<rect x="71.774" y="409.538" style="fill:#D5D6DB;" width="161.286" height="15.61"/>
</g>
<path style="fill:#1C75A1;" d="M418.607,68.281L410.88,64.3c-6.131-3.159-8.54-10.689-5.382-16.82l14.788-28.707
	c3.158-6.131,10.69-8.541,16.821-5.382l7.727,3.981c6.131,3.159,8.54,10.689,5.382,16.82l-14.788,28.707
	C432.27,69.03,424.739,71.439,418.607,68.281z"/>
<rect x="293.02" y="97.955" transform="matrix(-0.889 -0.458 0.458 -0.889 516.1479 588.7739)" style="fill:#27A2DB;" width="72.86" height="267.72"/>
<polygon style="fill:#EBF0F3;" points="243.826,413.688 300.562,367.493 235.792,334.123 231.116,407.14 "/>
<polygon style="fill:#D5D6DB;" points="240.358,411.902 282.888,358.387 253.466,343.229 234.584,408.927 "/>
<path style="fill:#2D93BA;" d="M423.789,48.736L423.789,48.736c-17.886-9.215-39.856-2.185-49.07,15.702l-16.325,31.689
	l64.77,33.369l16.326-31.692C448.704,79.919,441.674,57.95,423.789,48.736z"/>
<path style="fill:#3A556A;" d="M453.131,97.562l-10.682-5.504l-5.561,10.796l10.682,5.504c4.968,2.56,6.921,8.662,4.361,13.631
	l-40.457,78.535l-19.281,7.856c-2.754,1.122-4.279,4.083-3.594,6.977l2.822,11.92c0.669,2.824,2.538,5.215,5.118,6.544l0.209,0.108
	c4.878,2.513,10.87,0.596,13.384-4.283l52.594-102.096C468.356,116.619,464.061,103.193,453.131,97.562z"/>
<path style="fill:#64798A;" d="M227.975,420.514l3.189-13.349l12.614,6.499l-9.017,10.347
	C231.982,426.628,227.457,424.296,227.975,420.514z"/>
<g>
</g>
<g>
</g>
<g>
</g>
<g>
</g>
<g>
</g>
<g>
</g>
<g>
</g>
<g>
</g>
<g>
</g>
<g>
</g>
<g>
</g>
<g>
</g>
<g>
</g>
<g>
</g>
<g>
</g>
</svg>
