<?xml version="1.0" encoding="iso-8859-1"?>
<!-- Generator: Adobe Illustrator 19.0.0, SVG Export Plug-In . SVG Version: 6.00 Build 0)  -->
<svg version="1.1" id="Capa_1" xmlns="http://www.w3.org/2000/svg" xmlns:xlink="http://www.w3.org/1999/xlink" x="0px" y="0px"
	 viewBox="0 0 468.293 468.293" style="enable-background:new 0 0 468.293 468.293;" xml:space="preserve">
<path style="fill:#FCD462;" d="M442.034,146.74H26.259c-6.468,0-11.712-5.244-11.712-11.712v-76.36
	c0-6.468,5.244-11.712,11.712-11.712h88.584c3.532,0,6.876,1.594,9.1,4.339l26.181,32.314c2.224,2.745,5.568,4.339,9.1,4.339h282.81
	c6.468,0,11.712,5.244,11.712,11.712v35.368C453.746,141.497,448.502,146.74,442.034,146.74z"/>
<path style="fill:#F6C358;" d="M430.829,421.336H37.463C16.773,421.336,0,404.563,0,383.873V147.091
	c0-6.897,5.591-12.488,12.488-12.488h443.317c6.897,0,12.488,5.591,12.488,12.488v236.781
	C468.293,404.563,451.52,421.336,430.829,421.336z"/>
<path style="fill:#EBF0F3;" d="M312.173,277.971c0,43.021-35.002,78.023-78.027,78.024h-0.001
	c-43.021,0-78.024-35.002-78.024-78.024v-0.004c0.004-43.021,35.004-78.02,78.024-78.02h0.001c43.023,0,78.025,35.001,78.027,78.02
	V277.971z"/>
<path style="fill:#E56353;" d="M312.173,277.967v0.003c0,43.021-35.002,78.023-78.027,78.024v28.121
	c58.624,0,106.147-47.523,106.147-106.146v-0.001L312.173,277.967z"/>
<path style="fill:#44C4A1;" d="M312.173,277.967l28.12,0.001c-0.001-58.623-47.524-106.145-106.147-106.145v28.123
	C277.169,199.947,312.171,234.948,312.173,277.967z"/>
<path style="fill:#FCD462;" d="M234.145,355.995c-43.021,0-78.024-35.002-78.024-78.024v-0.004L128,277.964v0.005
	c0,58.623,47.523,106.146,106.146,106.146l0,0L234.145,355.995L234.145,355.995z"/>
<path style="fill:#27A2DB;" d="M234.145,199.947L234.145,199.947l0.001-28.123l0,0c-58.621,0-106.143,47.521-106.146,106.141
	l28.121,0C156.125,234.946,191.126,199.947,234.145,199.947z"/>
<path style="fill:#DC8744;" d="M203.183,239.412l0.001,77.118c0,6.305,6.929,10.153,12.281,6.821l61.928-38.559
	c5.051-3.145,5.051-10.497,0-13.641l-61.929-38.559C210.112,229.259,203.182,233.107,203.183,239.412z"/>
<g>
</g>
<g>
</g>
<g>
</g>
<g>
</g>
<g>
</g>
<g>
</g>
<g>
</g>
<g>
</g>
<g>
</g>
<g>
</g>
<g>
</g>
<g>
</g>
<g>
</g>
<g>
</g>
<g>
</g>
</svg>
