<?xml version="1.0" encoding="iso-8859-1"?>
<!-- Generator: Adobe Illustrator 19.0.0, SVG Export Plug-In . SVG Version: 6.00 Build 0)  -->
<svg version="1.1" id="Capa_1" xmlns="http://www.w3.org/2000/svg" xmlns:xlink="http://www.w3.org/1999/xlink" x="0px" y="0px"
	 viewBox="0 0 467.78 467.78" style="enable-background:new 0 0 467.78 467.78;" xml:space="preserve">
<path style="fill:#E1E6E9;" d="M311.047,29.405v408.97c0,6.362-5.158,11.52-11.52,11.52H84.098v-84.099H0V29.405
	c0-6.362,5.158-11.52,11.52-11.52h288.007C305.889,17.884,311.047,23.042,311.047,29.405z"/>
<polygon style="fill:#D5D6DB;" points="84.098,365.797 84.098,449.895 0,365.797 "/>
<path style="fill:#FCD462;" d="M316.059,344.414l-36.627,24.233l-17.387,11.479c-6.537,4.316-15.252-0.357-15.277-8.191
	l-0.065-20.836l-0.095-43.922L316.059,344.414z"/>
<rect x="308.567" y="60.435" transform="matrix(-0.8813 -0.4725 0.4725 -0.8813 559.435 543.479)" style="fill:#E56353;" width="78.804" height="282.1"/>
<path style="fill:#64798A;" d="M279.431,368.647l-17.387,11.479c-6.537,4.316-15.252-0.357-15.277-8.191l-0.065-20.836
	L279.431,368.647z"/>
<path style="fill:#44C4A1;" d="M449.363,95.721l-69.45-37.236l16.189-30.202c4.888-9.119,16.242-12.548,25.361-7.659l36.433,19.534
	c9.117,4.888,12.546,16.241,7.658,25.358L449.363,95.721z"/>
<g>
	<rect x="40.323" y="59.248" style="fill:#D5D6DB;" width="230.406" height="17.283"/>
	<rect x="40.323" y="158.413" style="fill:#D5D6DB;" width="230.406" height="17.283"/>
	<rect x="40.323" y="257.554" style="fill:#D5D6DB;" width="196.371" height="17.283"/>
	<rect x="40.323" y="108.843" style="fill:#D5D6DB;" width="149.098" height="17.283"/>
	<rect x="40.323" y="207.984" style="fill:#D5D6DB;" width="149.098" height="17.283"/>
	<rect x="40.323" y="307.125" style="fill:#D5D6DB;" width="149.098" height="17.283"/>
</g>
<g>
</g>
<g>
</g>
<g>
</g>
<g>
</g>
<g>
</g>
<g>
</g>
<g>
</g>
<g>
</g>
<g>
</g>
<g>
</g>
<g>
</g>
<g>
</g>
<g>
</g>
<g>
</g>
<g>
</g>
</svg>
