<?xml version="1.0" encoding="iso-8859-1"?>
<!-- Generator: Adobe Illustrator 19.0.0, SVG Export Plug-In . SVG Version: 6.00 Build 0)  -->
<svg version="1.1" id="Capa_1" xmlns="http://www.w3.org/2000/svg" xmlns:xlink="http://www.w3.org/1999/xlink" x="0px" y="0px"
	 viewBox="0 0 486.331 486.331" style="enable-background:new 0 0 486.331 486.331;" xml:space="preserve">
<path style="fill:#1C75A1;" d="M182.392,55.198H12.969C5.806,55.198,0,60.929,0,67.998v343.936c0,10.603,8.71,19.199,19.453,19.199
	h447.425c10.744,0,19.453-8.596,19.453-19.199V98.813H208.329c-7.162,0-12.969-5.731-12.969-12.8V67.998
	C195.36,60.929,189.554,55.198,182.392,55.198z"/>
<path style="fill:#2D93BA;" d="M466.878,431.133H19.453C8.71,431.133,0,422.537,0,411.934V173.562h194.927
	c5.168,0,10.123-2.029,13.773-5.641l33.874-27.117c3.65-3.611,8.605-5.641,13.773-5.641h229.984v276.77
	C486.331,422.537,477.622,431.133,466.878,431.133z"/>
<path style="fill:#FCD462;" d="M338.616,282.792l-14.696,0c-2.037-8.216-5.316-15.929-9.646-22.966l10.397-10.261
	c3.241-3.199,3.241-8.386,0-11.584l-16.285-16.073c-3.241-3.199-8.497-3.199-11.738,0l-10.397,10.261
	c-7.131-4.274-14.945-7.51-23.27-9.52v-14.504c0-4.524-3.716-8.192-8.3-8.192h-23.031c-4.584,0-8.3,3.667-8.3,8.192v14.504
	c-8.323,2.01-16.137,5.245-23.267,9.519l-10.4-10.264c-3.241-3.199-8.497-3.199-11.738,0l-16.285,16.072
	c-3.242,3.199-3.242,8.386,0,11.584l10.399,10.264c-4.33,7.037-7.609,14.75-9.646,22.965l-14.698,0c-4.584,0-8.3,3.668-8.3,8.192
	v22.73c0,4.524,3.715,8.191,8.299,8.192l14.697,0.001c2.037,8.216,5.316,15.929,9.646,22.967L161.66,355.13
	c-3.242,3.199-3.242,8.386,0,11.585l16.285,16.072c3.241,3.199,8.497,3.199,11.738,0l10.397-10.261
	c7.131,4.274,14.946,7.511,23.271,9.521v14.504c0,4.524,3.716,8.192,8.3,8.192h23.031c4.584,0,8.3-3.668,8.3-8.192v-14.504
	c8.324-2.01,16.139-5.246,23.27-9.52l10.397,10.262c3.241,3.199,8.497,3.199,11.738,0l16.285-16.072
	c3.242-3.199,3.242-8.386,0.001-11.585l-10.397-10.262c4.33-7.037,7.609-14.751,9.646-22.966l14.696,0c4.584,0,8.3-3.668,8.3-8.192
	v-22.73C346.916,286.459,343.2,282.792,338.616,282.792z"/>
<ellipse style="fill:#EBF0F3;" cx="243.166" cy="302.358" rx="62.252" ry="61.44"/>
<ellipse style="fill:#D5D6DB;" cx="243.166" cy="302.358" rx="33.199" ry="32.768"/>
<g>
</g>
<g>
</g>
<g>
</g>
<g>
</g>
<g>
</g>
<g>
</g>
<g>
</g>
<g>
</g>
<g>
</g>
<g>
</g>
<g>
</g>
<g>
</g>
<g>
</g>
<g>
</g>
<g>
</g>
</svg>
