<?xml version="1.0" encoding="iso-8859-1"?>
<!-- Generator: Adobe Illustrator 19.0.0, SVG Export Plug-In . SVG Version: 6.00 Build 0)  -->
<svg version="1.1" id="Capa_1" xmlns="http://www.w3.org/2000/svg" xmlns:xlink="http://www.w3.org/1999/xlink" x="0px" y="0px"
	 viewBox="0 0 468.293 468.293" style="enable-background:new 0 0 468.293 468.293;" xml:space="preserve">
<path style="fill:#E1E6E9;" d="M396.488,468.293H71.805c-6.897,0-12.488-5.591-12.488-12.488V12.488C59.317,5.591,64.908,0,71.805,0
	h324.683c6.897,0,12.488,5.591,12.488,12.488v443.317C408.976,462.702,403.385,468.293,396.488,468.293z"/>
<rect x="90.543" y="33.667" style="fill:#27A2DB;" width="287.22" height="92.123"/>
<g>
	<rect x="90.512" y="342.478" style="fill:#FCD462;" width="130.148" height="92.123"/>
	<rect x="247.608" y="342.491" style="fill:#FCD462;" width="130.148" height="92.123"/>
</g>
<g>
	<rect x="90.537" y="156.853" style="fill:#44C4A1;" width="130.148" height="32.943"/>
	<rect x="90.537" y="217.662" style="fill:#44C4A1;" width="130.148" height="32.943"/>
	<rect x="90.537" y="278.478" style="fill:#44C4A1;" width="130.148" height="32.943"/>
	<rect x="247.633" y="156.853" style="fill:#44C4A1;" width="130.148" height="32.943"/>
	<rect x="247.633" y="217.662" style="fill:#44C4A1;" width="130.148" height="32.943"/>
	<rect x="247.633" y="278.478" style="fill:#44C4A1;" width="130.148" height="32.943"/>
</g>
<g>
</g>
<g>
</g>
<g>
</g>
<g>
</g>
<g>
</g>
<g>
</g>
<g>
</g>
<g>
</g>
<g>
</g>
<g>
</g>
<g>
</g>
<g>
</g>
<g>
</g>
<g>
</g>
<g>
</g>
</svg>
