<?xml version="1.0" encoding="iso-8859-1"?>
<!-- Generator: Adobe Illustrator 19.0.0, SVG Export Plug-In . SVG Version: 6.00 Build 0)  -->
<svg version="1.1" id="Capa_1" xmlns="http://www.w3.org/2000/svg" xmlns:xlink="http://www.w3.org/1999/xlink" x="0px" y="0px"
	 viewBox="0 0 468.293 468.293" style="enable-background:new 0 0 468.293 468.293;" xml:space="preserve">
<path style="fill:#FCD462;" d="M463.391,353.002v27.748l-28.595,52.79l-17.205,31.783c-2.133,3.94-7.787,3.94-9.92,0l-17.206-31.783
	l-28.593-52.79v-27.748H463.391z"/>
<polygon style="fill:#DC8744;" points="463.402,380.351 450.713,369.071 438.023,380.773 425.333,369.071 412.643,380.351 
	399.953,369.071 387.264,380.351 374.574,369.071 361.884,380.351 361.884,53.28 463.402,53.28 "/>
<path style="fill:#64798A;" d="M434.796,433.54l-17.205,31.783c-2.133,3.94-7.787,3.94-9.92,0l-17.206-31.783H434.796z"/>
<rect x="361.892" y="53.26" style="fill:#EBF0F3;" width="101.52" height="20.468"/>
<path style="fill:#D5D6DB;" d="M463.402,53.28H361.884V12.488C361.884,5.591,367.475,0,374.372,0h76.543
	c6.897,0,12.488,5.591,12.488,12.488V53.28z"/>
<path style="fill:#E1E6E9;" d="M329.554,18.745v430.816c0,10.345-8.386,18.731-18.731,18.731H23.612
	c-10.345,0-18.731-8.386-18.731-18.731V93.483h93.468V0.014h212.474C321.168,0.014,329.554,8.401,329.554,18.745z"/>
<polygon style="fill:#EBF0F3;" points="98.349,0.014 98.349,93.483 4.881,93.483 "/>
<g>
	<rect x="42.342" y="137.784" style="fill:#D5D6DB;" width="249.75" height="15.61"/>
	<rect x="135.613" y="77.874" style="fill:#D5D6DB;" width="156.472" height="15.61"/>
	<rect x="42.342" y="197.682" style="fill:#D5D6DB;" width="160.924" height="15.61"/>
	<rect x="42.342" y="257.605" style="fill:#D5D6DB;" width="249.75" height="15.61"/>
	<rect x="42.342" y="317.502" style="fill:#D5D6DB;" width="160.924" height="15.61"/>
	<rect x="42.342" y="377.431" style="fill:#D5D6DB;" width="249.75" height="15.61"/>
</g>
<g>
</g>
<g>
</g>
<g>
</g>
<g>
</g>
<g>
</g>
<g>
</g>
<g>
</g>
<g>
</g>
<g>
</g>
<g>
</g>
<g>
</g>
<g>
</g>
<g>
</g>
<g>
</g>
<g>
</g>
</svg>
