<?xml version="1.0" encoding="iso-8859-1"?>
<!-- Generator: Adobe Illustrator 19.0.0, SVG Export Plug-In . SVG Version: 6.00 Build 0)  -->
<svg version="1.1" id="Capa_1" xmlns="http://www.w3.org/2000/svg" xmlns:xlink="http://www.w3.org/1999/xlink" x="0px" y="0px"
	 viewBox="0 0 468.293 468.293" style="enable-background:new 0 0 468.293 468.293;" xml:space="preserve">
<path style="fill:#44C4A1;" d="M404.168,72.179v377.382c0,10.345-8.386,18.732-18.732,18.732H82.857
	c-10.345,0-18.732-8.386-18.732-18.732V18.732C64.125,8.386,72.511,0,82.857,0h249.131v72.179H404.168z"/>
<polygon style="fill:#3EA69B;" points="404.168,72.179 331.988,72.179 331.988,0 "/>
<path style="fill:#FCD462;" d="M296.211,193.643c-11.426,6.244-34.029,23.29-32.218,60.379H204.3
	c1.811-37.089-20.792-54.135-32.218-60.379c-3.247-1.81-4.121-6.119-1.936-9.117l58.068-79.61l0.874-1.186
	c2.498-3.372,7.617-3.372,10.115,0l0.874,1.186l58.068,79.61C300.332,187.524,299.458,191.833,296.211,193.643z"/>
<path style="fill:#27A2DB;" d="M204.261,254.016h59.771l19.58,41.741c1.942,4.141-1.079,8.896-5.653,8.896h-87.625
	c-4.574,0-7.595-4.755-5.653-8.896L204.261,254.016z"/>
<g>
	<path style="fill:#64798A;" d="M240.078,104.779v86.647h-11.864v-86.647l0.874-1.142c2.498-3.247,7.617-3.247,10.115,0
		L240.078,104.779z"/>
	<circle style="fill:#64798A;" cx="234.146" cy="198.619" r="13.961"/>
</g>
<g>
	<rect x="104.398" y="57.107" style="fill:#E1E6E9;" width="187.317" height="15.61"/>
	<rect x="104.398" y="395.576" style="fill:#E1E6E9;" width="259.497" height="15.61"/>
	<rect x="104.398" y="333.137" style="fill:#E1E6E9;" width="259.497" height="15.61"/>
</g>
<g>
</g>
<g>
</g>
<g>
</g>
<g>
</g>
<g>
</g>
<g>
</g>
<g>
</g>
<g>
</g>
<g>
</g>
<g>
</g>
<g>
</g>
<g>
</g>
<g>
</g>
<g>
</g>
<g>
</g>
</svg>
