<?xml version="1.0" encoding="iso-8859-1"?>
<!-- Generator: Adobe Illustrator 19.0.0, SVG Export Plug-In . SVG Version: 6.00 Build 0)  -->
<svg version="1.1" id="Capa_1" xmlns="http://www.w3.org/2000/svg" xmlns:xlink="http://www.w3.org/1999/xlink" x="0px" y="0px"
	 viewBox="0 0 468.293 468.293" style="enable-background:new 0 0 468.293 468.293;" xml:space="preserve">
<path style="fill:#E1E6E9;" d="M336.548,12.505v402.342H61.442c-6.906,0-12.505-5.599-12.505-12.505V72.903h72.904V0h202.202
	C330.949,0,336.548,5.599,336.548,12.505z"/>
<path style="fill:#E56353;" d="M331.336,269.915c-8.171,10.37-28.491,29.645-73.425,43.513c-2.637,0.814-4.488,3.235-4.477,5.995
	l0.091,23.436c0.209,53.907,31.83,102.642,80.747,124.87c1.674,0.761,3.637,0.753,5.305-0.021
	c48.744-22.606,79.986-71.585,79.777-125.492l-0.091-23.436c-0.011-2.76-1.88-5.166-4.524-5.96
	c-45.04-13.519-65.508-32.636-73.76-42.943C338.517,266.8,333.776,266.818,331.336,269.915z"/>
<path style="fill:#EBF0F3;" d="M336.851,448.139c-39.249-20.198-64.399-60.937-64.57-105.357l-0.055-14.306
	c32.227-11.168,52.181-25.199,64.02-36.33c11.925,11.039,31.976,24.912,64.295,35.835l0.055,14.306
	C400.768,386.714,375.929,427.648,336.851,448.139z"/>
<g>
	<rect x="86.453" y="114.719" style="fill:#D5D6DB;" width="212.605" height="15.628"/>
	<rect x="164.327" y="57.993" style="fill:#D5D6DB;" width="129.736" height="15.628"/>
	<rect x="86.453" y="171.451" style="fill:#D5D6DB;" width="212.605" height="15.628"/>
	<rect x="86.453" y="228.464" style="fill:#D5D6DB;" width="212.605" height="15.004"/>
	<rect x="86.453" y="285.284" style="fill:#D5D6DB;" width="115.687" height="14.848"/>
	<rect x="86.453" y="342.041" style="fill:#D5D6DB;" width="115.687" height="14.811"/>
</g>
<polygon style="fill:#EBF0F3;" points="121.841,0 121.841,72.903 48.937,72.903 "/>
<g>
</g>
<g>
</g>
<g>
</g>
<g>
</g>
<g>
</g>
<g>
</g>
<g>
</g>
<g>
</g>
<g>
</g>
<g>
</g>
<g>
</g>
<g>
</g>
<g>
</g>
<g>
</g>
<g>
</g>
</svg>
