<?xml version="1.0" encoding="iso-8859-1"?>
<!-- Generator: Adobe Illustrator 19.0.0, SVG Export Plug-In . SVG Version: 6.00 Build 0)  -->
<svg version="1.1" id="Capa_1" xmlns="http://www.w3.org/2000/svg" xmlns:xlink="http://www.w3.org/1999/xlink" x="0px" y="0px"
	 viewBox="0 0 468.318 468.318" style="enable-background:new 0 0 468.318 468.318;" xml:space="preserve">
<path style="fill:#E1E6E9;" d="M117.891,0L38.388,79.503v334.131c0,9.519,7.716,17.235,17.235,17.235h279.432
	c9.518,0,17.235-7.716,17.235-17.235V17.235C352.29,7.716,344.573,0,335.055,0H117.891z"/>
<polygon style="fill:#EBF0F3;" points="117.891,79.503 117.89,0.001 38.389,79.502 "/>
<circle style="fill:#44C4A1;" cx="352.293" cy="390.681" r="77.637"/>
<path style="fill:#EBF0F3;" d="M408.342,363.151c-0.944-5.66-6.31-9.5-11.96-8.546c-19.97,3.325-52.038,32.491-67.307,47.383
	l-15.473-14.516c-4.183-3.927-10.757-3.721-14.696,0.467c-3.924,4.188-3.716,10.767,0.472,14.696l22.808,21.399
	c2.005,1.881,4.559,2.815,7.112,2.815c2.706,0,5.411-1.053,7.447-3.142c18.392-18.879,50.119-46.438,63.048-48.593
	C405.458,374.172,409.286,368.814,408.342,363.151z"/>
<g>
	<rect x="153.924" y="67.016" style="fill:#D5D6DB;" width="162.341" height="12.488"/>
	<rect x="74.414" y="126.957" style="fill:#D5D6DB;" width="241.845" height="12.488"/>
	<rect x="74.414" y="186.899" style="fill:#D5D6DB;" width="241.845" height="12.488"/>
	<rect x="74.414" y="246.821" style="fill:#D5D6DB;" width="241.845" height="12.488"/>
	<rect x="74.414" y="306.782" style="fill:#D5D6DB;" width="204.382" height="12.488"/>
	<rect x="74.414" y="366.704" style="fill:#D5D6DB;" width="160.674" height="12.488"/>
</g>
<g>
</g>
<g>
</g>
<g>
</g>
<g>
</g>
<g>
</g>
<g>
</g>
<g>
</g>
<g>
</g>
<g>
</g>
<g>
</g>
<g>
</g>
<g>
</g>
<g>
</g>
<g>
</g>
<g>
</g>
</svg>
