<?xml version="1.0" encoding="iso-8859-1"?>
<!-- Generator: Adobe Illustrator 19.0.0, SVG Export Plug-In . SVG Version: 6.00 Build 0)  -->
<svg version="1.1" id="Capa_1" xmlns="http://www.w3.org/2000/svg" xmlns:xlink="http://www.w3.org/1999/xlink" x="0px" y="0px"
	 viewBox="0 0 468.293 468.293" style="enable-background:new 0 0 468.293 468.293;" xml:space="preserve">
<path style="fill:#E1E6E9;" d="M354.341,12.488v443.317c0,6.897-5.591,12.488-12.488,12.488H35.902
	c-6.897,0-12.488-5.591-12.488-12.488V83.98h83.918V0h234.521C348.75,0,354.341,5.591,354.341,12.488z"/>
<polygon style="fill:#D5D6DB;" points="107.332,0 107.332,83.98 23.415,83.98 "/>
<path style="fill:#27A2DB;" d="M432.39,143.166H276.293c-6.897,0-12.488-5.591-12.488-12.488V62.998
	c0-6.897,5.591-12.488,12.488-12.488H432.39c6.897,0,12.488,5.591,12.488,12.488v67.679
	C444.878,137.575,439.287,143.166,432.39,143.166z"/>
<g>
	<path style="fill:#EBF0F3;" d="M324.101,77.82H293.07v-8.505h43.945v7.242l-31.974,38.985v0.237h32.448v8.581h-45.439v-7.165
		l32.051-39.139V77.82z"/>
	<path style="fill:#EBF0F3;" d="M349.141,69.315h9.293v55.045h-9.293V69.315z"/>
	<path style="fill:#EBF0F3;" d="M410.883,74.116c3.832,3.204,5.749,8.139,5.749,14.804c0,6.672-1.955,11.555-5.87,14.651
		c-3.909,3.095-9.908,4.646-17.99,4.646h-9.767v16.144h-9.293V69.315h18.9C400.962,69.315,407.051,70.918,410.883,74.116z
		 M404.308,96.835c1.865-1.968,2.794-4.851,2.794-8.658c0-3.807-1.179-6.499-3.544-8.075c-2.365-1.577-6.063-2.358-11.106-2.358
		h-9.447v22.046h10.786C398.937,99.789,402.443,98.809,404.308,96.835z"/>
</g>
<g>
	<rect x="151.415" y="98.616" style="fill:#64798A;" width="37.463" height="37.463"/>
	<rect x="188.878" y="136.08" style="fill:#64798A;" width="37.463" height="37.463"/>
	<rect x="151.415" y="173.518" style="fill:#64798A;" width="37.463" height="37.463"/>
	<rect x="188.878" y="210.981" style="fill:#64798A;" width="37.463" height="37.463"/>
	<rect x="151.415" y="248.445" style="fill:#64798A;" width="37.463" height="37.463"/>
	<rect x="188.878" y="285.908" style="fill:#64798A;" width="37.463" height="37.463"/>
	<path style="fill:#64798A;" d="M188.878,420.186L188.878,420.186c-20.691,0-37.463-16.773-37.463-37.463V345.26h74.927v37.463
		C226.341,403.413,209.569,420.186,188.878,420.186z"/>
</g>
<path style="fill:#E1E6E9;" d="M167.022,373.363v9.36c0,12.052,9.802,21.854,21.854,21.854s21.854-9.802,21.854-21.854v-9.36
	H167.022z"/>
<g>
</g>
<g>
</g>
<g>
</g>
<g>
</g>
<g>
</g>
<g>
</g>
<g>
</g>
<g>
</g>
<g>
</g>
<g>
</g>
<g>
</g>
<g>
</g>
<g>
</g>
<g>
</g>
<g>
</g>
</svg>
