<?xml version="1.0" encoding="iso-8859-1"?>
<!-- Generator: Adobe Illustrator 19.0.0, SVG Export Plug-In . SVG Version: 6.00 Build 0)  -->
<svg version="1.1" id="Capa_1" xmlns="http://www.w3.org/2000/svg" xmlns:xlink="http://www.w3.org/1999/xlink" x="0px" y="0px"
	 viewBox="0 0 468.293 468.293" style="enable-background:new 0 0 468.293 468.293;" xml:space="preserve">
<path style="fill:#44C4A1;" d="M378.035,77.837H177.486V55.49c0-2.86-2.318-5.179-5.179-5.179H44.823
	c-2.86,0-5.179,2.319-5.179,5.179v22.348H10.357C4.637,77.837,0,82.475,0,88.194v241.478c0,5.72,4.637,10.357,10.357,10.357h367.678
	c5.72,0,10.357-4.637,10.357-10.357V88.194C388.392,82.475,383.755,77.837,378.035,77.837z"/>
<path style="fill:#27A2DB;" d="M465.661,389.212l-26.138,26.138c-4.452,4.452-11.956,3.052-14.563-2.671l-5.119-11.352
	l-68.398-68.398l31.798-31.798l68.398,68.398l11.352,5.119C468.714,377.256,470.113,384.76,465.661,389.212z"/>
<ellipse style="fill:#DC8744;" cx="291.718" cy="241.379" rx="119.196" ry="119.196"/>
<ellipse style="fill:#FCD462;" cx="291.706" cy="241.343" rx="105.073" ry="105.073"/>
<path style="fill:#EBF0F3;" d="M221.644,250.139c-4.834,0-8.756-3.922-8.756-8.756c0-43.455,35.348-78.803,78.803-78.803
	c4.834,0,8.756,3.922,8.756,8.756s-3.922,8.756-8.756,8.756c-33.798,0-61.291,27.493-61.291,61.291
	C230.4,246.217,226.478,250.139,221.644,250.139z"/>
<rect x="400.197" y="365.642" transform="matrix(-0.7071 0.7071 -0.7071 -0.7071 984.8818 336.8264)" style="fill:#E1E6E9;" width="44.969" height="13.493"/>
<g>
</g>
<g>
</g>
<g>
</g>
<g>
</g>
<g>
</g>
<g>
</g>
<g>
</g>
<g>
</g>
<g>
</g>
<g>
</g>
<g>
</g>
<g>
</g>
<g>
</g>
<g>
</g>
<g>
</g>
</svg>
