<?xml version="1.0" encoding="iso-8859-1"?>
<!-- Generator: Adobe Illustrator 19.0.0, SVG Export Plug-In . SVG Version: 6.00 Build 0)  -->
<svg version="1.1" id="Capa_1" xmlns="http://www.w3.org/2000/svg" xmlns:xlink="http://www.w3.org/1999/xlink" x="0px" y="0px"
	 viewBox="0 0 468.293 468.293" style="enable-background:new 0 0 468.293 468.293;" xml:space="preserve">
<path style="fill:#E1E6E9;" d="M364.453,12.488v443.317c0,6.897-5.591,12.488-12.488,12.488H39.77
	c-6.897,0-12.488-5.591-12.488-12.488V87.165h87.165V0h237.518C358.862,0,364.453,5.591,364.453,12.488z"/>
<polygon style="fill:#EBF0F3;" points="114.448,0 114.448,87.165 27.282,87.165 "/>
<polygon style="fill:#D5D6DB;" points="114.448,87.165 27.282,124.761 27.282,87.165 "/>
<polygon style="fill:#E56353;" points="195.868,164.84 78.098,164.84 100.07,402.594 195.868,428.082 291.666,402.594 
	313.638,164.84 "/>
<path style="fill:#EBF0F3;" d="M238.266,219.686v23.209h-63.979v37.311c6.363-3.477,13.59-5.207,21.691-5.207
	c14.164,0,26.377,4.271,36.649,12.796c10.263,8.525,15.399,20.103,15.399,34.699s-5.348,26.703-16.052,36.322
	c-10.695,9.619-23.853,14.419-39.473,14.419c-20.385,0-36.649-6.795-48.792-20.385l13.661-18.655
	c1.156,1.165,2.709,2.542,4.659,4.13c1.959,1.588,5.965,3.724,12.037,6.389c6.08,2.683,12.725,4.024,19.953,4.024
	c7.236,0,13.811-2.171,19.741-6.513c5.921-4.342,8.886-10.66,8.886-18.973s-3.142-14.755-9.434-19.308
	c-6.283-4.554-14.243-6.83-23.853-6.83c-9.619,0-18.761,2.383-27.436,7.166l-10.846-11.719v-72.874H238.266z"/>
<path style="fill:#27A2DB;" d="M428.522,117.752H300.384c-6.897,0-12.488-5.591-12.488-12.488V55.313
	c0-6.897,5.591-12.488,12.488-12.488h128.138c6.897,0,12.488,5.591,12.488,12.488v49.951
	C441.01,112.161,435.419,117.752,428.522,117.752z"/>
<g>
	<path style="fill:#EBF0F3;" d="M302.014,95.87V64.707h5.261v13.508h15.471V64.707h5.261V95.87h-5.261v-12.75h-15.471v12.75H302.014
		z"/>
	<path style="fill:#EBF0F3;" d="M348.425,69.522V95.87h-5.261V69.522h-9.452v-4.815h24.164v4.815H348.425z"/>
	<path style="fill:#EBF0F3;" d="M368.844,95.87h-5.261V64.707h8.203l9.406,19.571l9.408-19.571h8.158V95.87h-5.261V71.528
		l-10.877,21.621h-2.942l-10.834-21.621V95.87z"/>
	<path style="fill:#EBF0F3;" d="M407.409,95.87V64.707h5.261v26.17h14.223v4.992H407.409z"/>
</g>
<g>
</g>
<g>
</g>
<g>
</g>
<g>
</g>
<g>
</g>
<g>
</g>
<g>
</g>
<g>
</g>
<g>
</g>
<g>
</g>
<g>
</g>
<g>
</g>
<g>
</g>
<g>
</g>
<g>
</g>
</svg>
