<?xml version="1.0" encoding="iso-8859-1"?>
<!-- Generator: Adobe Illustrator 19.0.0, SVG Export Plug-In . SVG Version: 6.00 Build 0)  -->
<svg version="1.1" id="Capa_1" xmlns="http://www.w3.org/2000/svg" xmlns:xlink="http://www.w3.org/1999/xlink" x="0px" y="0px"
	 viewBox="0 0 468.293 468.293" style="enable-background:new 0 0 468.293 468.293;" xml:space="preserve">
<path style="fill:#E1E6E9;" d="M395.426,12.488v443.317c0,6.897-5.591,12.488-12.488,12.488H85.354
	c-6.897,0-12.488-5.591-12.488-12.488V92.597h92.597V0h217.475C389.835,0,395.426,5.591,395.426,12.488z"/>
<polygon style="fill:#D5D6DB;" points="165.463,0 165.463,92.597 72.866,92.597 "/>
<path style="fill:#64798A;" d="M237.68,177.823l-97.482,193.768h194.963L237.68,177.823z M237.68,219.506l67.091,133.354H170.588
	L237.68,219.506z"/>
<circle style="fill:#27A2DB;" cx="234.146" cy="198.681" r="36.346"/>
<path style="fill:#2D93BA;" d="M197.799,198.663c0,20.073,16.273,36.348,36.348,36.348s36.348-16.274,36.348-36.348H197.799z"/>
<circle style="fill:#44C4A1;" cx="151.858" cy="362.209" r="36.346"/>
<path style="fill:#3EA69B;" d="M115.512,362.226c0,20.074,16.273,36.348,36.348,36.348c20.074,0,36.348-16.274,36.348-36.348
	H115.512z"/>
<circle style="fill:#E56353;" cx="316.441" cy="362.209" r="36.346"/>
<path style="fill:#D15241;" d="M280.085,362.226c0,20.074,16.274,36.348,36.348,36.348c20.074,0,36.348-16.274,36.348-36.348
	H280.085z"/>
<g>
</g>
<g>
</g>
<g>
</g>
<g>
</g>
<g>
</g>
<g>
</g>
<g>
</g>
<g>
</g>
<g>
</g>
<g>
</g>
<g>
</g>
<g>
</g>
<g>
</g>
<g>
</g>
<g>
</g>
</svg>
