<?xml version="1.0" encoding="iso-8859-1"?>
<!-- Generator: Adobe Illustrator 19.0.0, SVG Export Plug-In . SVG Version: 6.00 Build 0)  -->
<svg version="1.1" id="Capa_1" xmlns="http://www.w3.org/2000/svg" xmlns:xlink="http://www.w3.org/1999/xlink" x="0px" y="0px"
	 viewBox="0 0 468.293 468.293" style="enable-background:new 0 0 468.293 468.293;" xml:space="preserve">
<polygon style="fill:#44C4A1;" points="199.805,0 199.805,277.507 0,277.507 0,60.941 60.996,60.941 60.996,0 "/>
<polygon style="fill:#3EA69B;" points="60.996,0 60.996,60.941 0,60.941 "/>
<polygon style="fill:#FCD462;" points="468.293,190.786 468.293,468.293 268.488,468.293 268.488,251.727 329.484,251.727 
	329.484,190.786 "/>
<polygon style="fill:#F6C358;" points="329.484,190.786 329.484,251.727 268.488,251.727 "/>
<g>
	<path style="fill:#D5D6DB;" d="M368.39,31.22h-77.29l15.232-15.232c3.659-3.659,3.659-9.585,0-13.244s-9.585-3.659-13.244,0
		l-31.217,31.214c-0.434,0.434-0.824,0.91-1.167,1.421c-0.072,0.108-0.118,0.231-0.186,0.342c-0.249,0.408-0.49,0.82-0.676,1.266
		c-0.071,0.171-0.104,0.355-0.165,0.529c-0.139,0.4-0.286,0.796-0.37,1.219c-0.122,0.604-0.186,1.224-0.186,1.85
		s0.064,1.245,0.186,1.85c0.084,0.42,0.23,0.815,0.368,1.213c0.062,0.177,0.095,0.363,0.167,0.535
		c0.183,0.439,0.421,0.846,0.666,1.248c0.071,0.117,0.12,0.247,0.196,0.361c0.343,0.511,0.732,0.988,1.166,1.421l31.214,31.214
		c1.829,1.829,4.226,2.744,6.622,2.744c2.396,0,4.793-0.915,6.622-2.744c3.659-3.659,3.659-9.585,0-13.244l-15.23-15.232h67.925
		v73.244c0,5.171,4.192,9.366,9.366,9.366c5.174,0,9.366-4.195,9.366-9.366v-82.61C377.756,35.415,373.564,31.22,368.39,31.22z"/>
	<path style="fill:#D5D6DB;" d="M101.503,437.073h77.29l-15.232,15.232c-3.659,3.659-3.659,9.585,0,13.244
		c3.659,3.659,9.585,3.659,13.244,0l31.217-31.214c0.434-0.434,0.824-0.91,1.167-1.422c0.072-0.108,0.118-0.231,0.186-0.342
		c0.249-0.408,0.49-0.82,0.676-1.266c0.071-0.171,0.104-0.355,0.165-0.529c0.139-0.4,0.286-0.797,0.37-1.219
		c0.122-0.604,0.186-1.224,0.186-1.85s-0.064-1.245-0.186-1.85c-0.084-0.42-0.23-0.815-0.369-1.213
		c-0.062-0.177-0.095-0.363-0.167-0.535c-0.183-0.439-0.421-0.846-0.666-1.248c-0.071-0.117-0.12-0.247-0.196-0.361
		c-0.343-0.511-0.732-0.988-1.166-1.421l-31.214-31.214c-1.829-1.829-4.226-2.744-6.622-2.744c-2.396,0-4.793,0.915-6.622,2.744
		c-3.659,3.659-3.659,9.585,0,13.244l15.23,15.232h-67.925v-73.244c0-5.171-4.192-9.366-9.366-9.366
		c-5.174,0-9.366,4.195-9.366,9.366v82.61C92.137,432.878,96.329,437.073,101.503,437.073z"/>
</g>
<g>
</g>
<g>
</g>
<g>
</g>
<g>
</g>
<g>
</g>
<g>
</g>
<g>
</g>
<g>
</g>
<g>
</g>
<g>
</g>
<g>
</g>
<g>
</g>
<g>
</g>
<g>
</g>
<g>
</g>
</svg>
