<?xml version="1.0" encoding="iso-8859-1"?>
<!-- Generator: Adobe Illustrator 19.0.0, SVG Export Plug-In . SVG Version: 6.00 Build 0)  -->
<svg version="1.1" id="Capa_1" xmlns="http://www.w3.org/2000/svg" xmlns:xlink="http://www.w3.org/1999/xlink" x="0px" y="0px"
	 viewBox="0 0 468.293 468.293" style="enable-background:new 0 0 468.293 468.293;" xml:space="preserve">
<path style="fill:#2D93BA;" d="M78.718,449.561V52.181c0-10.345,8.386-18.732,18.732-18.732h273.394
	c10.345,0,18.732,8.386,18.732,18.732v397.38c0,10.345-8.387,18.732-18.732,18.732H97.449
	C87.104,468.293,78.718,459.906,78.718,449.561z"/>
<rect x="99.902" y="54.191" style="fill:#EBF0F3;" width="268.488" height="393.366"/>
<g>
	<path style="fill:#E56353;" d="M146.405,33.449h175.482v30.669c0,13.794-11.182,24.976-24.976,24.976H171.381
		c-13.794,0-24.976-11.182-24.976-24.976V33.449z"/>
	<circle style="fill:#E56353;" cx="234.146" cy="33.449" r="33.449"/>
</g>
<circle style="fill:#FCD462;" cx="234.146" cy="33.449" r="19.512"/>
<path style="fill:#44C4A1;" d="M295.679,374.472H172.614c-6.897,0-12.488-5.591-12.488-12.488V255.869
	c0-6.897,5.591-12.488,12.488-12.488h123.066c6.897,0,12.488,5.591,12.488,12.488v106.115
	C308.167,368.881,302.576,374.472,295.679,374.472z"/>
<path style="fill:#D5D6DB;" d="M249.791,162.179h-31.29c-23.721,0-42.95,19.23-42.95,42.95v38.252h21.187V205.13
	c0-12.001,9.762-21.764,21.764-21.764h31.29c11.997,0,21.76,9.763,21.76,21.764v38.251h21.19v-38.252
	C292.742,181.409,273.512,162.179,249.791,162.179z"/>
<path style="fill:#3A556A;" d="M251.097,305.049c0-10.685-9.887-19.062-21.013-16.479c-6.009,1.395-10.901,6.231-12.367,12.223
	c-1.959,8.005,1.793,15.271,7.953,18.856v24.537c0,2.815,2.282,5.096,5.096,5.096h6.758c2.815,0,5.096-2.282,5.096-5.096v-24.537
	C247.667,316.713,251.097,311.307,251.097,305.049z"/>
<g>
	<rect x="128" y="114.707" style="fill:#D5D6DB;" width="212.293" height="15.61"/>
	<rect x="128" y="406.353" style="fill:#D5D6DB;" width="212.293" height="15.61"/>
</g>
<g>
</g>
<g>
</g>
<g>
</g>
<g>
</g>
<g>
</g>
<g>
</g>
<g>
</g>
<g>
</g>
<g>
</g>
<g>
</g>
<g>
</g>
<g>
</g>
<g>
</g>
<g>
</g>
<g>
</g>
</svg>
