<?xml version="1.0" encoding="iso-8859-1"?>
<!-- Generator: Adobe Illustrator 19.0.0, SVG Export Plug-In . SVG Version: 6.00 Build 0)  -->
<svg version="1.1" id="Capa_1" xmlns="http://www.w3.org/2000/svg" xmlns:xlink="http://www.w3.org/1999/xlink" x="0px" y="0px"
	 viewBox="0 0 468.293 468.293" style="enable-background:new 0 0 468.293 468.293;" xml:space="preserve">
<path style="fill:#D5D6DB;" d="M172.812,36.023l-79.154,79.154v340.628c0,6.897,5.591,12.488,12.488,12.488h292.022
	c6.897,0,12.488-5.591,12.488-12.488V48.511c0-6.897-5.591-12.488-12.488-12.488H172.812z"/>
<path style="fill:#E1E6E9;" d="M136.79,0L57.636,79.154v340.628c0,6.897,5.591,12.488,12.488,12.488h292.022
	c6.897,0,12.488-5.591,12.488-12.488V12.488C374.634,5.591,369.043,0,362.146,0H136.79z"/>
<polygon style="fill:#EBF0F3;" points="136.791,79.154 136.79,0 57.638,79.154 "/>
<circle style="fill:#27A2DB;" cx="115.069" cy="146.794" r="23.814"/>
<path style="fill:#2D93BA;" d="M91.257,146.809c0,13.152,10.662,23.813,23.813,23.813s23.813-10.662,23.813-23.813H91.257z"/>
<rect x="162.416" y="137.878" style="fill:#D5D6DB;" width="178.601" height="17.858"/>
<circle style="fill:#FCD462;" cx="115.069" cy="219.411" r="23.814"/>
<path style="fill:#F6C358;" d="M91.257,219.411c0,13.152,10.662,23.813,23.813,23.813s23.813-10.661,23.813-23.813H91.257z"/>
<rect x="162.416" y="210.482" style="fill:#D5D6DB;" width="178.601" height="17.858"/>
<circle style="fill:#E56353;" cx="115.069" cy="292.027" r="23.814"/>
<path style="fill:#D15241;" d="M91.257,292.013c0,13.152,10.662,23.813,23.813,23.813s23.813-10.662,23.813-23.813H91.257z"/>
<rect x="162.416" y="283.086" style="fill:#D5D6DB;" width="178.601" height="17.858"/>
<circle style="fill:#44C4A1;" cx="115.069" cy="364.613" r="23.814"/>
<path style="fill:#3EA69B;" d="M91.257,364.615c0,13.152,10.662,23.813,23.813,23.813s23.813-10.662,23.813-23.813H91.257z"/>
<rect x="162.416" y="355.715" style="fill:#D5D6DB;" width="178.601" height="17.858"/>
<g>
</g>
<g>
</g>
<g>
</g>
<g>
</g>
<g>
</g>
<g>
</g>
<g>
</g>
<g>
</g>
<g>
</g>
<g>
</g>
<g>
</g>
<g>
</g>
<g>
</g>
<g>
</g>
<g>
</g>
</svg>
