<?xml version="1.0" encoding="iso-8859-1"?>
<!-- Generator: Adobe Illustrator 19.0.0, SVG Export Plug-In . SVG Version: 6.00 Build 0)  -->
<svg version="1.1" id="Capa_1" xmlns="http://www.w3.org/2000/svg" xmlns:xlink="http://www.w3.org/1999/xlink" x="0px" y="0px"
	 viewBox="0 0 468.293 468.293" style="enable-background:new 0 0 468.293 468.293;" xml:space="preserve">
<path style="fill:#D5D6DB;" d="M449.561,387.805H48c-10.345,0-18.732-8.386-18.732-18.732V69.951
	c0-10.345,8.387-18.732,18.732-18.732h401.561c10.345,0,18.732,8.386,18.732,18.732v299.122
	C468.293,379.418,459.906,387.805,449.561,387.805z"/>
<path style="fill:#E1E6E9;" d="M420.293,417.073H18.732C8.386,417.073,0,408.687,0,398.341V99.22
	c0-10.345,8.386-18.732,18.732-18.732h401.561c10.345,0,18.732,8.386,18.732,18.732v299.122
	C439.024,408.687,430.638,417.073,420.293,417.073z"/>
<path style="fill:#44C4A1;" d="M0,301.886l103.661-132.92c2.924-3.749,8.591-3.758,11.526-0.018l104.325,132.938l91.553-87.158
	c2.977-2.834,7.703-2.661,10.465,0.384l65.281,71.97l52.213-61.065v169.104c0,12.123-9.828,21.951-21.951,21.951H21.951
	C9.828,417.073,0,407.245,0,395.122V301.886z"/>
<circle style="fill:#FCD462;" cx="231.711" cy="157.634" r="43.707"/>
<g>
</g>
<g>
</g>
<g>
</g>
<g>
</g>
<g>
</g>
<g>
</g>
<g>
</g>
<g>
</g>
<g>
</g>
<g>
</g>
<g>
</g>
<g>
</g>
<g>
</g>
<g>
</g>
<g>
</g>
</svg>
