<?xml version="1.0" encoding="iso-8859-1"?>
<!-- Generator: Adobe Illustrator 19.0.0, SVG Export Plug-In . SVG Version: 6.00 Build 0)  -->
<svg version="1.1" id="Capa_1" xmlns="http://www.w3.org/2000/svg" xmlns:xlink="http://www.w3.org/1999/xlink" x="0px" y="0px"
	 viewBox="0 0 468.293 468.293" style="enable-background:new 0 0 468.293 468.293;" xml:space="preserve">
<path style="fill:#E1E6E9;" d="M402.732,12.488v443.317c0,6.897-5.591,12.488-12.488,12.488H78.049
	c-6.897,0-12.488-5.591-12.488-12.488V102.026h102.025V0h222.658C397.141,0,402.732,5.591,402.732,12.488z"/>
<polygon style="fill:#D5D6DB;" points="167.586,0 167.586,102.026 65.561,102.026 "/>
<path style="fill:#EBF0F3;" d="M85.791,287.75l-13.489,0l-41.378-21.371l-28.19-14.558c-3.645-1.883-3.645-7.095,0-8.978
	l28.19-14.558l41.378-21.371h13.489L85.791,287.75z"/>
<polygon style="fill:#FCD462;" points="72.313,287.751 80.253,277.647 72.313,267.542 80.253,257.438 72.313,247.333 
	80.253,237.229 72.314,227.124 80.253,217.02 72.314,206.915 417.838,206.915 417.837,287.751 "/>
<path style="fill:#1C75A1;" d="M30.924,266.379l-28.19-14.558c-3.645-1.883-3.645-7.095,0-8.978l28.19-14.558L30.924,266.379z"/>
<rect x="401.096" y="206.935" style="fill:#E1E6E9;" width="16.727" height="80.834"/>
<path style="fill:#27A2DB;" d="M417.837,287.751l0.001-80.836l37.967,0c6.897,0,12.488,5.591,12.488,12.488l0,55.861
	c0,6.897-5.591,12.488-12.488,12.488L417.837,287.751z"/>
<rect x="203.988" y="83.294" style="fill:#D5D6DB;" width="162.341" height="18.732"/>
<g>
	<rect x="111.091" y="392.617" style="fill:#64798A;" width="31.22" height="31.22"/>
	<rect x="182.722" y="392.617" style="fill:#64798A;" width="31.22" height="31.22"/>
	<rect x="254.377" y="392.617" style="fill:#64798A;" width="31.22" height="31.22"/>
	<rect x="325.982" y="392.617" style="fill:#64798A;" width="31.22" height="31.22"/>
</g>
<g>
	<rect x="111.091" y="330.49" style="fill:#D5D6DB;" width="246.135" height="19.444"/>
	<rect x="111.091" y="144.746" style="fill:#D5D6DB;" width="246.135" height="19.444"/>
</g>
<g>
</g>
<g>
</g>
<g>
</g>
<g>
</g>
<g>
</g>
<g>
</g>
<g>
</g>
<g>
</g>
<g>
</g>
<g>
</g>
<g>
</g>
<g>
</g>
<g>
</g>
<g>
</g>
<g>
</g>
</svg>
