<?xml version="1.0" encoding="iso-8859-1"?>
<!-- Generator: Adobe Illustrator 19.0.0, SVG Export Plug-In . SVG Version: 6.00 Build 0)  -->
<svg version="1.1" id="Capa_1" xmlns="http://www.w3.org/2000/svg" xmlns:xlink="http://www.w3.org/1999/xlink" x="0px" y="0px"
	 viewBox="0 0 468.293 468.293" style="enable-background:new 0 0 468.293 468.293;" xml:space="preserve">
<rect x="21.285" y="39.614" style="fill:#DC8744;" width="425.709" height="395.177"/>
<g>
	<rect x="21.285" y="39.614" style="fill:#FCD462;" width="425.709" height="118.547"/>
	<rect x="21.285" y="177.922" style="fill:#FCD462;" width="425.709" height="118.547"/>
	<rect x="21.285" y="316.194" style="fill:#FCD462;" width="425.709" height="118.547"/>
</g>
<path style="fill:#DC8744;" d="M462.049,39.617H6.244C2.795,39.617,0,36.821,0,33.373V14.889c0-3.448,2.795-6.244,6.244-6.244
	h455.805c3.448,0,6.244,2.795,6.244,6.244v18.484C468.293,36.821,465.497,39.617,462.049,39.617z"/>
<g>
	<rect x="48.721" y="434.765" style="fill:#64798A;" width="35.515" height="24.882"/>
	<rect x="384.062" y="434.765" style="fill:#64798A;" width="35.515" height="24.882"/>
</g>
<g>
	<circle style="fill:#DC8744;" cx="234.146" cy="98.887" r="24.976"/>
	<circle style="fill:#DC8744;" cx="234.146" cy="237.196" r="24.976"/>
	<circle style="fill:#DC8744;" cx="234.146" cy="375.511" r="24.976"/>
</g>
<g>
</g>
<g>
</g>
<g>
</g>
<g>
</g>
<g>
</g>
<g>
</g>
<g>
</g>
<g>
</g>
<g>
</g>
<g>
</g>
<g>
</g>
<g>
</g>
<g>
</g>
<g>
</g>
<g>
</g>
</svg>
