<?xml version="1.0" encoding="iso-8859-1"?>
<!-- Generator: Adobe Illustrator 19.0.0, SVG Export Plug-In . SVG Version: 6.00 Build 0)  -->
<svg version="1.1" id="Capa_1" xmlns="http://www.w3.org/2000/svg" xmlns:xlink="http://www.w3.org/1999/xlink" x="0px" y="0px"
	 viewBox="0 0 468.293 468.293" style="enable-background:new 0 0 468.293 468.293;" xml:space="preserve">
<path style="fill:#E1E6E9;" d="M407.789,12.488v443.317c0,6.897-5.591,12.488-12.488,12.488H72.991
	c-6.897,0-12.488-5.591-12.488-12.488V72.054h72.054V0h262.744C402.198,0,407.789,5.591,407.789,12.488z"/>
<polygon style="fill:#D5D6DB;" points="132.558,0 132.558,72.054 60.503,72.054 "/>
<path style="fill:#27A2DB;" d="M163.505,137.021l70.641,70.642l70.642-70.642C265.774,98.007,202.519,98.007,163.505,137.021z"/>
<path style="fill:#44C4A1;" d="M163.505,159.018c-39.014,39.014-39.014,102.269,0,141.284c19.508,19.507,45.075,29.26,70.642,29.26
	V229.66L163.505,159.018z"/>
<path style="fill:#E56353;" d="M304.788,159.018l-70.641,70.642v99.902c25.567,0,51.134-9.753,70.641-29.261
	C343.802,261.287,343.802,198.032,304.788,159.018z"/>
<rect x="166.088" y="47.079" style="fill:#27A2DB;" width="24.976" height="24.976"/>
<rect x="227.153" y="47.079" style="fill:#44C4A1;" width="24.976" height="24.976"/>
<rect x="288.219" y="47.079" style="fill:#FCD462;" width="24.976" height="24.976"/>
<rect x="349.284" y="47.079" style="fill:#E56353;" width="24.976" height="24.976"/>
<g>
	<rect x="90.537" y="365.268" style="fill:#D5D6DB;" width="287.22" height="15.61"/>
	<rect x="90.537" y="415.219" style="fill:#D5D6DB;" width="287.22" height="15.61"/>
</g>
<g>
</g>
<g>
</g>
<g>
</g>
<g>
</g>
<g>
</g>
<g>
</g>
<g>
</g>
<g>
</g>
<g>
</g>
<g>
</g>
<g>
</g>
<g>
</g>
<g>
</g>
<g>
</g>
<g>
</g>
</svg>
