<?xml version="1.0" encoding="iso-8859-1"?>
<!-- Generator: Adobe Illustrator 19.0.0, SVG Export Plug-In . SVG Version: 6.00 Build 0)  -->
<svg version="1.1" id="Capa_1" xmlns="http://www.w3.org/2000/svg" xmlns:xlink="http://www.w3.org/1999/xlink" x="0px" y="0px"
	 viewBox="0 0 468.268 468.268" style="enable-background:new 0 0 468.268 468.268;" xml:space="preserve">
<path style="fill:#FCD462;" d="M427.36,181.343H40.908V11.212C40.908,5.02,45.928,0,52.12,0h86.886c3.399,0,6.614,1.542,8.742,4.192
	l22.23,27.684c2.128,2.65,5.344,4.192,8.742,4.192h237.427c6.192,0,11.212,5.02,11.212,11.212V181.343z"/>
<path style="fill:#F6C358;" d="M399.514,323.971H68.754c-11.462,0-21.078-8.643-22.297-20.04L24.571,99.266
	c-0.354-3.313,2.242-6.202,5.574-6.202h407.977c3.332,0,5.929,2.889,5.574,6.202l-21.886,204.665
	C420.592,315.328,410.975,323.971,399.514,323.971z"/>
<g>
	<rect x="223.582" y="323.996" style="fill:#64798A;" width="21.129" height="105.584"/>
	<path style="fill:#64798A;" d="M75.544,420.191l0-2.397c0-5.172,4.193-9.366,9.366-9.366l298.444,0
		c5.173,0,9.366,4.193,9.366,9.366l0,2.397c0,5.173-4.193,9.366-9.366,9.366l-298.444,0
		C79.737,429.557,75.544,425.364,75.544,420.191z"/>
</g>
<circle style="fill:#E56353;" cx="234.134" cy="418.966" r="49.302"/>
<circle style="fill:#FFFFFF;" cx="234.134" cy="418.966" r="24.651"/>
<g>
</g>
<g>
</g>
<g>
</g>
<g>
</g>
<g>
</g>
<g>
</g>
<g>
</g>
<g>
</g>
<g>
</g>
<g>
</g>
<g>
</g>
<g>
</g>
<g>
</g>
<g>
</g>
<g>
</g>
</svg>
