<?xml version="1.0" encoding="iso-8859-1"?>
<!-- Generator: Adobe Illustrator 19.0.0, SVG Export Plug-In . SVG Version: 6.00 Build 0)  -->
<svg version="1.1" id="Capa_1" xmlns="http://www.w3.org/2000/svg" xmlns:xlink="http://www.w3.org/1999/xlink" x="0px" y="0px"
	 viewBox="0 0 468.456 468.456" style="enable-background:new 0 0 468.456 468.456;" xml:space="preserve">
<path style="fill:#D5D6DB;" d="M437.002,350.793l-225,116.267c-6.127,3.166-13.661,0.766-16.827-5.361L26.093,134.49
	c-3.166-6.127-0.766-13.661,5.361-16.827l225-116.267c6.127-3.166,13.661-0.766,16.827,5.361l169.082,327.209
	C445.53,340.093,443.129,347.627,437.002,350.793z"/>
<path style="fill:#E1E6E9;" d="M360.861,430.873H107.596c-6.897,0-12.488-5.591-12.488-12.488V50.072
	c0-6.897,5.591-12.488,12.488-12.488h253.265c6.897,0,12.488,5.591,12.488,12.488v368.313
	C373.349,425.282,367.758,430.873,360.861,430.873z"/>
<g>
	<rect x="170.609" y="365.238" style="fill:#D5D6DB;" width="127.232" height="15.31"/>
	<rect x="138.803" y="309.779" style="fill:#D5D6DB;" width="190.851" height="15.31"/>
	<rect x="170.609" y="254.334" style="fill:#D5D6DB;" width="127.232" height="15.31"/>
	<rect x="138.803" y="198.825" style="fill:#D5D6DB;" width="190.851" height="15.31"/>
	<rect x="170.609" y="143.373" style="fill:#D5D6DB;" width="127.232" height="15.31"/>
	<rect x="138.803" y="87.909" style="fill:#D5D6DB;" width="190.851" height="15.31"/>
</g>
<g>
</g>
<g>
</g>
<g>
</g>
<g>
</g>
<g>
</g>
<g>
</g>
<g>
</g>
<g>
</g>
<g>
</g>
<g>
</g>
<g>
</g>
<g>
</g>
<g>
</g>
<g>
</g>
<g>
</g>
</svg>
