<?xml version="1.0" encoding="iso-8859-1"?>
<!-- Generator: Adobe Illustrator 19.0.0, SVG Export Plug-In . SVG Version: 6.00 Build 0)  -->
<svg version="1.1" id="Capa_1" xmlns="http://www.w3.org/2000/svg" xmlns:xlink="http://www.w3.org/1999/xlink" x="0px" y="0px"
	 viewBox="0 0 468.293 468.293" style="enable-background:new 0 0 468.293 468.293;" xml:space="preserve">
<path style="fill:#FCD462;" d="M192.403,79.736v-27.93c0-3.039-2.464-5.503-5.503-5.503H83.666c-3.039,0-5.503,2.464-5.503,5.503
	v27.93H38.784c-6.079,0-11.006,4.928-11.006,11.006v247.535h412.738V90.742c0-6.079-4.928-11.006-11.006-11.006H192.403z"/>
<rect x="66.248" y="110.642" style="fill:#D5D6DB;" width="335.772" height="105.566"/>
<rect x="99.453" y="135.243" style="fill:#EBF0F3;" width="269.362" height="80.921"/>
<path style="fill:#F6C358;" d="M397.716,421.99H70.576c-15.476,0-28.705-11.141-31.339-26.391L0.094,168.908
	c-0.671-3.888,2.322-7.443,6.268-7.443h455.568c3.945,0,6.939,3.555,6.268,7.443l-39.143,226.69
	C426.422,410.849,413.193,421.99,397.716,421.99z"/>
<g>
</g>
<g>
</g>
<g>
</g>
<g>
</g>
<g>
</g>
<g>
</g>
<g>
</g>
<g>
</g>
<g>
</g>
<g>
</g>
<g>
</g>
<g>
</g>
<g>
</g>
<g>
</g>
<g>
</g>
</svg>
