<?xml version="1.0" encoding="iso-8859-1"?>
<!-- Generator: Adobe Illustrator 19.0.0, SVG Export Plug-In . SVG Version: 6.00 Build 0)  -->
<svg version="1.1" id="Capa_1" xmlns="http://www.w3.org/2000/svg" xmlns:xlink="http://www.w3.org/1999/xlink" x="0px" y="0px"
	 viewBox="0 0 468.293 468.293" style="enable-background:new 0 0 468.293 468.293;" xml:space="preserve">
<path style="fill:#64798A;" d="M45.006,455.805V62.104c0-6.897,5.591-12.488,12.488-12.488h266.448
	c6.897,0,12.488,5.591,12.488,12.488v393.701c0,6.897-5.591,12.488-12.488,12.488H57.494
	C50.597,468.293,45.006,462.702,45.006,455.805z"/>
<rect x="60.51" y="65.124" style="fill:#EBF0F3;" width="260.408" height="387.684"/>
<rect x="312.566" y="330.93" transform="matrix(-0.7071 0.7071 -0.7071 -0.7071 799.0675 355.4449)" style="fill:#64798A;" width="26.705" height="24.57"/>
<g>
	<path style="fill:#44C4A1;" d="M354.285,343.17l-28.401,28.401c-1.515,1.515-3.972,1.515-5.487,0l0,0
		c-1.515-1.515-1.515-3.972,0-5.487l28.401-28.401c1.515-1.515,3.972-1.515,5.487,0l0,0C355.8,339.199,355.8,341.655,354.285,343.17
		z"/>
	<path style="fill:#44C4A1;" d="M422.151,411.036l-28.401,28.401c-1.515,1.515-3.971,1.515-5.487,0l0,0
		c-1.515-1.515-1.515-3.971,0-5.487l28.401-28.401c1.515-1.515,3.972-1.515,5.487,0h0
		C423.666,407.064,423.666,409.521,422.151,411.036z"/>
</g>
<rect x="350.696" y="344.453" transform="matrix(-0.7071 0.7071 -0.7071 -0.7071 908.5399 400.8033)" style="fill:#3EA69B;" width="41.129" height="88.227"/>
<circle style="fill:#27A2DB;" cx="249.132" cy="266.427" r="106.833"/>
<circle style="fill:#E1E6E9;" cx="249.132" cy="266.427" r="91.879"/>
<path style="fill:#EBF0F3;" d="M249.141,193.304c-19.506,0.006-37.86,7.628-51.695,21.463
	c-13.829,13.829-21.451,32.183-21.457,51.689c0,3.445,2.793,6.244,6.244,6.244c3.445,0,6.244-2.793,6.244-6.244
	c0.006-16.165,6.329-31.384,17.799-42.86c11.476-11.476,26.701-17.799,42.866-17.805c3.451,0,6.244-2.799,6.244-6.244
	C255.385,196.097,252.586,193.304,249.141,193.304z"/>
<path style="fill:#E56353;" d="M248.205,32.025h-23.849C223.465,14.194,208.769,0,190.717,0s-32.748,14.194-33.639,32.025h-23.849
	c-4.601,0-8.534,3.311-9.319,7.844l-5.416,31.29c-1.001,5.782,3.451,11.07,9.319,11.07h125.808c5.868,0,10.32-5.288,9.319-11.07
	l-5.416-31.29C256.739,35.336,252.806,32.025,248.205,32.025z"/>
<path style="fill:#EBF0F3;" d="M190.718,53.263c-10.778,0-19.542-8.765-19.542-19.538s8.765-19.538,19.542-19.538
	c10.773,0,19.538,8.765,19.538,19.538S201.492,53.263,190.718,53.263z"/>
<g>
	<rect x="84.542" y="118.228" style="fill:#D5D6DB;" width="55.864" height="18.732"/>
	<rect x="162.785" y="118.228" style="fill:#D5D6DB;" width="55.864" height="18.732"/>
	<rect x="241.015" y="118.228" style="fill:#D5D6DB;" width="55.864" height="18.732"/>
	<rect x="84.542" y="188.185" style="fill:#D5D6DB;" width="55.864" height="18.732"/>
	<rect x="84.542" y="258.142" style="fill:#D5D6DB;" width="36.564" height="18.732"/>
	<rect x="84.542" y="328.117" style="fill:#D5D6DB;" width="55.864" height="18.732"/>
	<rect x="84.542" y="398.049" style="fill:#D5D6DB;" width="55.864" height="18.732"/>
	<rect x="162.785" y="398.049" style="fill:#D5D6DB;" width="55.864" height="18.732"/>
	<rect x="241.015" y="398.049" style="fill:#D5D6DB;" width="55.864" height="18.732"/>
</g>
<g>
</g>
<g>
</g>
<g>
</g>
<g>
</g>
<g>
</g>
<g>
</g>
<g>
</g>
<g>
</g>
<g>
</g>
<g>
</g>
<g>
</g>
<g>
</g>
<g>
</g>
<g>
</g>
<g>
</g>
</svg>
