<?xml version="1.0" encoding="iso-8859-1"?>
<!-- Generator: Adobe Illustrator 19.0.0, SVG Export Plug-In . SVG Version: 6.00 Build 0)  -->
<svg version="1.1" id="Capa_1" xmlns="http://www.w3.org/2000/svg" xmlns:xlink="http://www.w3.org/1999/xlink" x="0px" y="0px"
	 viewBox="0 0 468.293 468.293" style="enable-background:new 0 0 468.293 468.293;" xml:space="preserve">
<path style="fill:#44C4A1;" d="M317.345,0H74.927C68.03,0,62.439,5.591,62.439,12.488v443.317c0,6.897,5.591,12.488,12.488,12.488
	h318.439c6.897,0,12.488-5.591,12.488-12.488V88.509L317.345,0z"/>
<polygon style="fill:#3EA69B;" points="317.344,88.509 405.854,88.509 317.345,0 "/>
<g>
	<path style="fill:#EBF0F3;" d="M170.271,137.308c-2.11-2.448-5.796-2.726-8.237-0.616l-41.987,36.129l-13.322-13.318
		c-2.281-2.281-5.98-2.281-8.258,0c-2.281,2.281-2.281,5.976,0,8.258l17.152,17.15c1.135,1.137,2.631,1.711,4.131,1.711
		c1.352,0,2.709-0.468,3.808-1.414l46.095-39.665C172.098,143.441,172.374,139.753,170.271,137.308z"/>
	<path style="fill:#EBF0F3;" d="M170.271,216.188c-2.11-2.448-5.796-2.726-8.237-0.616l-41.987,36.129l-13.322-13.318
		c-2.281-2.281-5.98-2.281-8.258,0c-2.281,2.281-2.281,5.976,0,8.258l17.152,17.15c1.135,1.137,2.631,1.711,4.131,1.711
		c1.352,0,2.709-0.468,3.808-1.414l46.095-39.665C172.098,222.32,172.374,218.633,170.271,216.188z"/>
	<path style="fill:#EBF0F3;" d="M168.393,296.299c-2-2.321-5.494-2.584-7.807-0.584l-39.8,34.246l-12.627-12.624
		c-2.162-2.162-5.669-2.162-7.827,0c-2.162,2.162-2.162,5.665,0,7.827l16.258,16.256c1.076,1.078,2.494,1.622,3.915,1.622
		c1.281,0,2.568-0.443,3.609-1.341l43.693-37.598C170.124,302.112,170.386,298.617,168.393,296.299z"/>
	<path style="fill:#EBF0F3;" d="M167.837,375.543c-1.968-2.283-5.405-2.542-7.681-0.574l-39.152,33.689l-12.422-12.419
		c-2.127-2.127-5.576-2.127-7.7,0c-2.127,2.127-2.127,5.573,0,7.7l15.994,15.992c1.058,1.06,2.453,1.595,3.852,1.595
		c1.26,0,2.526-0.436,3.55-1.319l42.983-36.986C169.541,381.262,169.798,377.823,167.837,375.543z"/>
	<rect x="196.683" y="140.675" style="fill:#EBF0F3;" width="174.829" height="15.61"/>
	<rect x="196.683" y="219.536" style="fill:#EBF0F3;" width="174.829" height="15.61"/>
	<rect x="196.683" y="298.396" style="fill:#EBF0F3;" width="174.829" height="15.61"/>
	<rect x="196.683" y="377.294" style="fill:#EBF0F3;" width="174.829" height="15.61"/>
</g>
<g>
</g>
<g>
</g>
<g>
</g>
<g>
</g>
<g>
</g>
<g>
</g>
<g>
</g>
<g>
</g>
<g>
</g>
<g>
</g>
<g>
</g>
<g>
</g>
<g>
</g>
<g>
</g>
<g>
</g>
</svg>
