<?xml version="1.0" encoding="iso-8859-1"?>
<!-- Generator: Adobe Illustrator 19.0.0, SVG Export Plug-In . SVG Version: 6.00 Build 0)  -->
<svg version="1.1" id="Capa_1" xmlns="http://www.w3.org/2000/svg" xmlns:xlink="http://www.w3.org/1999/xlink" x="0px" y="0px"
	 viewBox="0 0 468.293 468.293" style="enable-background:new 0 0 468.293 468.293;" xml:space="preserve">
<path style="fill:#E1E6E9;" d="M405.916,12.488v443.317c0,6.897-5.591,12.488-12.488,12.488H74.864
	c-6.897,0-12.488-5.591-12.488-12.488V82.545h82.482V0h248.569C400.325,0,405.916,5.591,405.916,12.488z"/>
<polygon style="fill:#D5D6DB;" points="144.859,0 144.859,82.545 62.377,82.545 "/>
<circle style="fill:#FCD462;" cx="229.463" cy="305.951" r="118.634"/>
<path style="fill:#E56353;" d="M322.223,296.767l-126.971-74.795c-8.183-4.82-18.114,2.801-15.482,11.926
	c5.33,18.481,11.089,44.488,11.096,70.622c0,0.478-0.034,0.954-0.037,1.432h136.567
	C327.432,302.396,325.717,298.826,322.223,296.767z"/>
<path style="fill:#D15241;" d="M190.828,305.952c-0.197,26.615-6.002,53.223-11.304,72.007c-2.587,9.164,7.271,16.803,15.473,11.967
	l127.229-75.011c3.419-2.016,5.134-5.482,5.169-8.963H190.828z"/>
<path style="fill:#27A2DB;" d="M281.186,61.538v71.564c-2.21-0.612-4.611-0.959-7.132-0.959c-10.73,0-19.428,6.089-19.428,13.6
	s8.698,13.6,19.428,13.6c10.73,0,19.428-6.089,19.428-13.6v-69.94l51.704-14.265v57.299c-2.21-0.612-4.611-0.959-7.132-0.959
	c-10.73,0-19.428,6.089-19.428,13.6c0,7.511,8.698,13.6,19.428,13.6c10.73,0,19.428-6.089,19.428-13.6V43.707L281.186,61.538z"/>
<g>
</g>
<g>
</g>
<g>
</g>
<g>
</g>
<g>
</g>
<g>
</g>
<g>
</g>
<g>
</g>
<g>
</g>
<g>
</g>
<g>
</g>
<g>
</g>
<g>
</g>
<g>
</g>
<g>
</g>
</svg>
