<?xml version="1.0" encoding="iso-8859-1"?>
<!-- Generator: Adobe Illustrator 19.0.0, SVG Export Plug-In . SVG Version: 6.00 Build 0)  -->
<svg version="1.1" id="Capa_1" xmlns="http://www.w3.org/2000/svg" xmlns:xlink="http://www.w3.org/1999/xlink" x="0px" y="0px"
	 viewBox="0 0 468.293 468.293" style="enable-background:new 0 0 468.293 468.293;" xml:space="preserve">
<path style="fill:#64798A;" d="M17.655,455.805V60.484c0-6.897,5.591-12.488,12.488-12.488h288.678
	c6.897,0,12.488,5.591,12.488,12.488v395.32c0,6.897-5.591,12.488-12.488,12.488H30.143
	C23.246,468.293,17.655,462.702,17.655,455.805z"/>
<rect x="36.477" y="66.816" style="fill:#EBF0F3;" width="276.043" height="382.689"/>
<path style="fill:#27A2DB;" d="M231.587,30.265L217.035,3.294C215.94,1.265,213.82,0,211.514,0h-74.064
	c-2.306,0-4.426,1.265-5.521,3.294l-14.554,26.971c-1.095,2.029-3.215,3.294-5.521,3.294H100.21c-3.465,0-6.273,2.809-6.273,6.273
	v37.638c0,3.465,2.809,6.273,6.273,6.273h148.543c3.465,0,6.273-2.809,6.273-6.273V39.832c0-3.465-2.809-6.273-6.273-6.273h-11.645
	C234.802,33.559,232.682,32.294,231.587,30.265z"/>
<rect x="271.918" y="97.695" transform="matrix(-0.7071 -0.7071 0.7071 -0.7071 324.8123 589.7955)" style="fill:#FCD462;" width="25.275" height="259.864"/>
<rect x="289.815" y="115.546" transform="matrix(-0.7071 -0.7071 0.7071 -0.7071 342.7418 632.9233)" style="fill:#F6C358;" width="25.275" height="259.864"/>
<rect x="307.677" y="133.44" transform="matrix(-0.7071 -0.7071 0.7071 -0.7071 360.5819 676.0999)" style="fill:#FCD462;" width="25.275" height="259.864"/>
<path style="fill:#D5D6DB;" d="M237.172,363.93l-3.815,3.815l-32.47,8.073l-28.466,7.067c-4.591,1.14-8.744-3.019-7.598-7.608
	l7.098-28.425l8.073-32.47l3.815-3.815L237.172,363.93z"/>
<path style="fill:#1C75A1;" d="M200.888,375.818l-28.466,7.067c-4.591,1.14-8.744-3.019-7.598-7.608l7.098-28.425L200.888,375.818z"
	/>
<path style="fill:#E56353;" d="M421.136,180.429l-53.612-53.611l25.844-25.844c4.877-4.877,12.784-4.877,17.66,0l35.951,35.951
	c4.877,4.877,4.877,12.784,0,17.66L421.136,180.429z"/>
<g>
</g>
<g>
</g>
<g>
</g>
<g>
</g>
<g>
</g>
<g>
</g>
<g>
</g>
<g>
</g>
<g>
</g>
<g>
</g>
<g>
</g>
<g>
</g>
<g>
</g>
<g>
</g>
<g>
</g>
</svg>
