<?xml version="1.0" encoding="iso-8859-1"?>
<!-- Generator: Adobe Illustrator 19.0.0, SVG Export Plug-In . SVG Version: 6.00 Build 0)  -->
<svg version="1.1" id="Capa_1" xmlns="http://www.w3.org/2000/svg" xmlns:xlink="http://www.w3.org/1999/xlink" x="0px" y="0px"
	 viewBox="0 0 468.293 468.293" style="enable-background:new 0 0 468.293 468.293;" xml:space="preserve">
<path style="fill:#E1E6E9;" d="M405.854,87.04v362.521c0,10.345-8.386,18.732-18.732,18.732H81.171
	c-10.345,0-18.732-8.386-18.732-18.732V18.732C62.439,8.386,70.825,0,81.171,0h237.643v87.04H405.854z"/>
<polygon style="fill:#D5D6DB;" points="405.854,87.04 318.814,87.04 318.814,0 "/>
<rect x="96.78" y="292.652" style="fill:#44C4A1;" width="274.732" height="20.605"/>
<rect x="123.885" y="138.771" style="fill:#27A2DB;" width="35.172" height="153.875"/>
<rect x="185.694" y="104.716" style="fill:#E56353;" width="35.172" height="187.941"/>
<rect x="247.446" y="167.024" style="fill:#27A2DB;" width="35.172" height="125.627"/>
<rect x="309.26" y="220.322" style="fill:#E56353;" width="35.172" height="72.317"/>
<g>
	<rect x="96.968" y="43.333" style="fill:#D5D6DB;" width="187.317" height="18.732"/>
	<rect x="90.537" y="412.098" style="fill:#D5D6DB;" width="287.22" height="18.732"/>
	<rect x="90.537" y="355.902" style="fill:#D5D6DB;" width="287.22" height="18.732"/>
</g>
<g>
</g>
<g>
</g>
<g>
</g>
<g>
</g>
<g>
</g>
<g>
</g>
<g>
</g>
<g>
</g>
<g>
</g>
<g>
</g>
<g>
</g>
<g>
</g>
<g>
</g>
<g>
</g>
<g>
</g>
</svg>
