<?xml version="1.0" encoding="iso-8859-1"?>
<!-- Generator: Adobe Illustrator 19.0.0, SVG Export Plug-In . SVG Version: 6.00 Build 0)  -->
<svg version="1.1" id="Capa_1" xmlns="http://www.w3.org/2000/svg" xmlns:xlink="http://www.w3.org/1999/xlink" x="0px" y="0px"
	 viewBox="0 0 468.293 468.293" style="enable-background:new 0 0 468.293 468.293;" xml:space="preserve">
<path style="fill:#E1E6E9;" d="M96.31,0L9.366,86.944v368.861c0,6.897,5.591,12.488,12.488,12.488h318.439
	c6.897,0,12.488-5.591,12.488-12.488V12.488C352.781,5.591,347.19,0,340.293,0H96.31z"/>
<polygon style="fill:#EBF0F3;" points="96.311,86.944 96.313,0 9.366,86.944 "/>
<path style="fill:#FCD462;" d="M458.927,223.296v137.041c0,0-3.366,85.031-106.115,107.956
	C250,445.368,246.634,360.337,246.634,360.337V223.296c66.044-25.973,106.178-61.662,106.178-61.662
	S392.882,197.323,458.927,223.296z"/>
<path style="fill:#27A2DB;" d="M458.927,223.296v91.699H352.812V161.634C352.812,161.634,392.882,197.323,458.927,223.296z"/>
<path style="fill:#44C4A1;" d="M352.812,313.154v155.139C250,445.368,246.634,360.337,246.634,360.337v-47.183H352.812z"/>
<g>
	<rect x="124.647" y="50.463" style="fill:#D5D6DB;" width="199.805" height="15.61"/>
	<rect x="52.842" y="120.813" style="fill:#D5D6DB;" width="212.293" height="15.61"/>
	<rect x="52.842" y="261.495" style="fill:#D5D6DB;" width="133.27" height="15.61"/>
	<rect x="52.842" y="331.87" style="fill:#D5D6DB;" width="149.023" height="15.61"/>
	<rect x="52.842" y="191.188" style="fill:#D5D6DB;" width="149.023" height="15.61"/>
	<rect x="52.842" y="402.22" style="fill:#D5D6DB;" width="175.703" height="15.61"/>
</g>
<g>
</g>
<g>
</g>
<g>
</g>
<g>
</g>
<g>
</g>
<g>
</g>
<g>
</g>
<g>
</g>
<g>
</g>
<g>
</g>
<g>
</g>
<g>
</g>
<g>
</g>
<g>
</g>
<g>
</g>
</svg>
