<?xml version="1.0" encoding="iso-8859-1"?>
<!-- Generator: Adobe Illustrator 19.0.0, SVG Export Plug-In . SVG Version: 6.00 Build 0)  -->
<svg version="1.1" id="Capa_1" xmlns="http://www.w3.org/2000/svg" xmlns:xlink="http://www.w3.org/1999/xlink" x="0px" y="0px"
	 viewBox="0 0 468.328 468.328" style="enable-background:new 0 0 468.328 468.328;" xml:space="preserve">
<path style="fill:#FCD462;" d="M419.372,36.017H214.671V13.785C214.671,6.171,208.5,0,200.886,0H70.767
	c-7.613,0-13.785,6.171-13.785,13.785v22.232H22.808c-7.613,0-13.785,6.172-13.785,13.785v283.58
	c0,7.613,6.172,13.785,13.785,13.785h396.564c7.613,0,13.785-6.171,13.785-13.785V49.802
	C433.156,42.189,426.985,36.017,419.372,36.017z"/>
<rect x="309.655" y="320.259" transform="matrix(-0.7071 0.7071 -0.7071 -0.7071 800.7583 344.4287)" style="fill:#27A2DB;" width="38.781" height="35.597"/>
<rect x="358.109" y="329.977" transform="matrix(-0.7071 0.7071 -0.7071 -0.7071 944.5178 404.0403)" style="fill:#44C4A1;" width="60.941" height="135.318"/>
<circle style="fill:#64798A;" cx="231.848" cy="240.845" r="136.267"/>
<circle style="fill:#EBF0F3;" cx="231.848" cy="240.845" r="119.633"/>
<g>
	<path style="fill:#2D93BA;" d="M319.698,370.816l42.095-42.095c2.438-2.438,6.392-2.438,8.83,0l0.92,0.92
		c2.438,2.438,2.438,6.392,0,8.83l-42.095,42.095c-2.438,2.438-6.392,2.438-8.83,0l-0.92-0.92
		C317.26,377.208,317.26,373.254,319.698,370.816z"/>
	<path style="fill:#2D93BA;" d="M405.631,456.749l42.095-42.095c2.438-2.438,6.392-2.438,8.83,0l0.92,0.92
		c2.438,2.438,2.438,6.392,0,8.83l-42.095,42.095c-2.438,2.438-6.392,2.438-8.83,0l-0.92-0.92
		C403.193,463.141,403.193,459.188,405.631,456.749z"/>
</g>
<polygon style="fill:#F6C358;" points="273.845,166.356 264.189,212.213 199.476,212.213 189.819,166.356 "/>
<polygon style="fill:#27A2DB;" points="319.706,212.185 231.854,327.511 144.002,212.185 189.833,166.355 273.875,166.355 "/>
<g>
	<polygon style="fill:#2D93BA;" points="319.702,212.213 264.189,212.213 273.845,166.356 	"/>
	<polygon style="fill:#2D93BA;" points="199.476,212.213 144.008,212.213 189.819,166.356 	"/>
</g>
<polygon style="fill:#1C75A1;" points="231.836,166.358 199.476,212.195 264.197,212.196 "/>
<polygon style="fill:#2D93BA;" points="231.837,327.501 264.197,212.213 199.476,212.213 "/>
<g>
</g>
<g>
</g>
<g>
</g>
<g>
</g>
<g>
</g>
<g>
</g>
<g>
</g>
<g>
</g>
<g>
</g>
<g>
</g>
<g>
</g>
<g>
</g>
<g>
</g>
<g>
</g>
<g>
</g>
</svg>
