<?xml version="1.0" encoding="iso-8859-1"?>
<!-- Generator: Adobe Illustrator 19.0.0, SVG Export Plug-In . SVG Version: 6.00 Build 0)  -->
<svg version="1.1" id="Capa_1" xmlns="http://www.w3.org/2000/svg" xmlns:xlink="http://www.w3.org/1999/xlink" x="0px" y="0px"
	 viewBox="0 0 468.318 468.318" style="enable-background:new 0 0 468.318 468.318;" xml:space="preserve">
<path style="fill:#E1E6E9;" d="M108.726,0L38.45,70.277v330.899c0,9.232,7.484,16.716,16.716,16.716h256.307
	c9.232,0,16.716-7.484,16.716-16.716V16.716C328.188,7.484,320.705,0,311.473,0H108.726z"/>
<polygon style="fill:#EBF0F3;" points="108.726,70.277 108.726,0 38.45,70.277 "/>
<g>
	<rect x="142.186" y="57.569" style="fill:#D5D6DB;" width="152.52" height="12.713"/>
	<rect x="71.942" y="115.575" style="fill:#D5D6DB;" width="222.795" height="12.713"/>
	<rect x="71.942" y="173.58" style="fill:#D5D6DB;" width="222.795" height="12.713"/>
	<rect x="71.942" y="231.593" style="fill:#D5D6DB;" width="222.795" height="12.713"/>
	<rect x="71.942" y="289.605" style="fill:#D5D6DB;" width="229.145" height="12.713"/>
	<rect x="71.942" y="347.598" style="fill:#D5D6DB;" width="229.145" height="12.713"/>
</g>
<circle style="fill:#27A2DB;" cx="328.191" cy="366.642" r="101.676"/>
<polygon style="fill:#EBF0F3;" points="392.803,348.979 345.828,348.979 345.828,302.001 310.554,302.001 310.554,348.979 
	263.574,348.979 263.574,384.253 310.554,384.253 310.554,431.228 345.828,431.228 345.828,384.253 392.803,384.253 "/>
<g>
</g>
<g>
</g>
<g>
</g>
<g>
</g>
<g>
</g>
<g>
</g>
<g>
</g>
<g>
</g>
<g>
</g>
<g>
</g>
<g>
</g>
<g>
</g>
<g>
</g>
<g>
</g>
<g>
</g>
</svg>
