<?xml version="1.0" encoding="iso-8859-1"?>
<!-- Generator: Adobe Illustrator 19.0.0, SVG Export Plug-In . SVG Version: 6.00 Build 0)  -->
<svg version="1.1" id="Capa_1" xmlns="http://www.w3.org/2000/svg" xmlns:xlink="http://www.w3.org/1999/xlink" x="0px" y="0px"
	 viewBox="0 0 468.293 468.293" style="enable-background:new 0 0 468.293 468.293;" xml:space="preserve">
<polygon style="fill:#E1E6E9;" points="101.47,0 21.854,79.617 21.854,468.293 346.537,468.293 346.537,0 "/>
<polygon style="fill:#EBF0F3;" points="101.469,79.617 101.469,0 21.854,79.617 "/>
<path style="fill:#27A2DB;" d="M95.521,369.51v-83.688H83.587v83.688l-10.72,23.669c-0.477,1.053,0.293,2.248,1.449,2.248h30.474
	c1.156,0,1.926-1.194,1.449-2.248L95.521,369.51z"/>
<path style="fill:#2D93BA;" d="M253.16,350.894c0,20.921-137.929,20.921-137.929,0l0-65.071h137.93L253.16,350.894z"/>
<path style="fill:#27A2DB;" d="M182.01,238.007L71.331,269.63c-7.694,2.198-7.694,13.101,0,15.3l110.679,31.623
	c1.429,0.408,2.943,0.408,4.371,0l110.678-31.623c7.694-2.198,7.694-13.101,0-15.3l-110.678-31.623
	C184.953,237.599,183.439,237.599,182.01,238.007z"/>
<path style="fill:#44C4A1;" d="M440.195,164.835H252.878c-3.448,0-6.244-2.796-6.244-6.244V71.177c0-3.448,2.795-6.244,6.244-6.244
	h187.317c3.448,0,6.244,2.795,6.244,6.244v87.415C446.439,162.04,443.644,164.835,440.195,164.835z"/>
<g style="enable-background:new    ;">
	<path style="fill:#EBF0F3;" d="M302.957,89.521c3.933,2.171,7.018,5.159,9.256,8.97c2.244,3.817,3.36,8.079,3.36,12.799
		s-1.134,8.988-3.396,12.799c-2.262,3.811-5.372,6.805-9.329,8.976c-3.957,2.165-8.39,3.25-13.299,3.25H269.39V86.265h20.372
		C294.628,86.265,299.024,87.351,302.957,89.521z M299.384,127.662c2.829-1.616,5.073-3.86,6.72-6.72
		c1.64-2.86,2.463-6.055,2.463-9.579c0-3.573-0.835-6.793-2.5-9.652c-1.671-2.86-3.945-5.11-6.829-6.756
		c-2.884-1.646-6.091-2.47-9.616-2.47H276.25v37.61h13.659C293.384,130.095,296.543,129.284,299.384,127.662z"/>
	<path style="fill:#EBF0F3;" d="M358.939,89.198c4.024,2.244,7.207,5.305,9.543,9.189c2.335,3.884,3.506,8.159,3.506,12.829
		c0,4.677-1.171,8.976-3.506,12.909c-2.335,3.933-5.518,7.03-9.543,9.293c-4.03,2.262-8.451,3.396-13.262,3.396
		c-4.817,0-9.238-1.134-13.262-3.396c-4.03-2.262-7.213-5.36-9.549-9.293s-3.5-8.232-3.5-12.909c0-4.671,1.165-8.945,3.5-12.829
		s5.506-6.945,9.512-9.189c4-2.238,8.433-3.36,13.299-3.36C350.488,85.838,354.909,86.96,358.939,89.198z M336.061,94.558
		c-2.982,1.72-5.354,4.043-7.116,6.976c-1.762,2.927-2.646,6.159-2.646,9.683c0,3.53,0.884,6.768,2.646,9.726
		c1.762,2.957,4.134,5.305,7.116,7.043c2.976,1.738,6.207,2.61,9.683,2.61c3.482,0,6.689-0.872,9.616-2.61
		c2.933-1.738,5.268-4.085,7.012-7.043c1.738-2.957,2.61-6.195,2.61-9.726c0-3.524-0.872-6.756-2.61-9.683
		c-1.744-2.933-4.079-5.256-7.012-6.976c-2.927-1.713-6.134-2.573-9.616-2.573C342.268,91.985,339.037,92.845,336.061,94.558z"/>
	<path style="fill:#EBF0F3;" d="M409.878,93.595c-2.524-1.116-5.122-1.677-7.793-1.677c-3.53,0-6.768,0.854-9.726,2.573
		c-2.951,1.713-5.287,4.037-7.006,6.97c-1.713,2.933-2.573,6.159-2.573,9.689c0,3.476,0.86,6.695,2.573,9.652
		c1.719,2.951,4.055,5.287,7.006,7.006c2.957,1.713,6.195,2.573,9.726,2.573c2.622,0,5.195-0.537,7.72-1.61
		c2.53-1.073,4.768-2.537,6.72-4.396l4.152,4.506c-2.53,2.476-5.463,4.421-8.799,5.823c-3.335,1.409-6.72,2.11-10.152,2.11
		c-4.762,0-9.128-1.134-13.079-3.396c-3.957-2.262-7.079-5.348-9.366-9.256c-2.293-3.909-3.433-8.226-3.433-12.945
		c0-4.671,1.152-8.945,3.463-12.829c2.317-3.884,5.47-6.945,9.476-9.189c4.006-2.238,8.415-3.36,13.226-3.36
		c3.482,0,6.854,0.659,10.116,1.963c3.268,1.317,6.091,3.159,8.476,5.543l-4.079,4.933
		C414.622,96.277,412.402,94.716,409.878,93.595z"/>
</g>
<g>
</g>
<g>
</g>
<g>
</g>
<g>
</g>
<g>
</g>
<g>
</g>
<g>
</g>
<g>
</g>
<g>
</g>
<g>
</g>
<g>
</g>
<g>
</g>
<g>
</g>
<g>
</g>
<g>
</g>
</svg>
