<?xml version="1.0" encoding="iso-8859-1"?>
<!-- Generator: Adobe Illustrator 19.0.0, SVG Export Plug-In . SVG Version: 6.00 Build 0)  -->
<svg version="1.1" id="Capa_1" xmlns="http://www.w3.org/2000/svg" xmlns:xlink="http://www.w3.org/1999/xlink" x="0px" y="0px"
	 viewBox="0 0 468.293 468.293" style="enable-background:new 0 0 468.293 468.293;" xml:space="preserve">
<g>
	<path style="fill:#64798A;" d="M234.147,339.948c4.956,0,8.972-4.016,8.972-8.972v-41.167c0-4.956-4.016-8.972-8.972-8.972
		s-8.972,4.016-8.972,8.972v41.167C225.176,335.932,229.191,339.948,234.147,339.948z"/>
	<path style="fill:#64798A;" d="M386.417,416.427H81.878c-4.956,0-8.972,4.016-8.972,8.972c0,4.956,4.016,8.972,8.972,8.972h304.539
		c4.956,0,8.972-4.016,8.972-8.972C395.389,420.443,391.373,416.427,386.417,416.427z"/>
</g>
<path style="fill:#FCD462;" d="M183.994,32.466V10.367C183.994,4.642,179.352,0,173.627,0H93.602
	c-5.726,0-10.367,4.642-10.367,10.367v22.098H50.125c-5.726,0-10.367,4.642-10.367,10.367v236.608
	c0,5.726,4.642,10.367,10.367,10.367h378.41V42.833c0-5.726-4.642-10.367-10.367-10.367H183.994z"/>
<path style="fill:#F6C358;" d="M428.535,289.808H87.675V105.668c0-10.345,8.386-18.732,18.732-18.732h322.128V289.808z"/>
<path style="fill:#E56353;" d="M260.807,468.293h-53.321c-15.006,0-27.17-12.165-27.17-27.17v-52.376
	c0-3.448,2.796-6.244,6.244-6.244h95.174c3.448,0,6.244,2.795,6.244,6.244v52.376C287.977,456.128,275.813,468.293,260.807,468.293z
	"/>
<path style="fill:#D5D6DB;" d="M251.036,325.064h-33.78c-14.27,0-25.839,11.568-25.839,25.839v31.6h17.225v-31.6
	c0-4.75,3.863-8.613,8.613-8.613h33.781c4.75,0,8.613,3.863,8.613,8.613v31.6h17.225v-31.6
	C276.875,336.632,265.307,325.064,251.036,325.064z"/>
<path style="fill:#3A556A;" d="M243.118,427.729c0-5.588-5.109-9.983-10.911-8.768c-3.255,0.682-5.97,3.293-6.758,6.524
	c-1.034,4.241,0.96,8.089,4.229,9.982v11.763c0,2.468,2.001,4.469,4.469,4.469l0,0c2.468,0,4.469-2.001,4.469-4.469v-11.763
	C241.295,433.915,243.118,431.049,243.118,427.729z"/>
<g>
</g>
<g>
</g>
<g>
</g>
<g>
</g>
<g>
</g>
<g>
</g>
<g>
</g>
<g>
</g>
<g>
</g>
<g>
</g>
<g>
</g>
<g>
</g>
<g>
</g>
<g>
</g>
<g>
</g>
</svg>
