<?xml version="1.0" encoding="iso-8859-1"?>
<!-- Generator: Adobe Illustrator 19.0.0, SVG Export Plug-In . SVG Version: 6.00 Build 0)  -->
<svg version="1.1" id="Capa_1" xmlns="http://www.w3.org/2000/svg" xmlns:xlink="http://www.w3.org/1999/xlink" x="0px" y="0px"
	 viewBox="0 0 468.293 468.293" style="enable-background:new 0 0 468.293 468.293;" xml:space="preserve">
<path style="fill:#E1E6E9;" d="M144.815,0L67.445,77.369v234.958h337.254V14.663C404.699,6.565,398.134,0,390.036,0H144.815z"/>
<polygon style="fill:#EBF0F3;" points="144.815,77.369 144.815,0 67.446,77.369 "/>
<path style="fill:#FCD462;" d="M417.522,468.293H50.774c-10.077,0-18.245-8.169-18.245-18.245V157.442
	c0-10.077,8.169-18.245,18.245-18.245h108.547c3.995,0,7.88,1.311,11.057,3.732l51.566,39.288c3.178,2.421,7.062,3.732,11.057,3.732
	h184.52c10.077,0,18.245,8.169,18.245,18.245v245.853C435.767,460.124,427.598,468.293,417.522,468.293z"/>
<rect x="32.526" y="246.697" style="fill:#F6C358;" width="403.231" height="36.489"/>
<g>
	<rect x="183.528" y="37.838" style="fill:#D5D6DB;" width="182.447" height="15.204"/>
	<rect x="183.528" y="88.189" style="fill:#D5D6DB;" width="182.447" height="15.204"/>
</g>
<g>
</g>
<g>
</g>
<g>
</g>
<g>
</g>
<g>
</g>
<g>
</g>
<g>
</g>
<g>
</g>
<g>
</g>
<g>
</g>
<g>
</g>
<g>
</g>
<g>
</g>
<g>
</g>
<g>
</g>
</svg>
