<?xml version="1.0" encoding="iso-8859-1"?>
<!-- Generator: Adobe Illustrator 19.0.0, SVG Export Plug-In . SVG Version: 6.00 Build 0)  -->
<svg version="1.1" id="Capa_1" xmlns="http://www.w3.org/2000/svg" xmlns:xlink="http://www.w3.org/1999/xlink" x="0px" y="0px"
	 viewBox="0 0 468.293 468.293" style="enable-background:new 0 0 468.293 468.293;" xml:space="preserve">
<path style="fill:#E1E6E9;" d="M322.466,0h-224C88.121,0,79.735,8.386,79.735,18.732v430.829c0,10.345,8.386,18.732,18.732,18.732
	h299.707c10.345,0,18.732-8.386,18.732-18.732V94.439L322.466,0z"/>
<polygon style="fill:#EBF0F3;" points="322.466,94.439 416.905,94.439 322.466,0 "/>
<rect x="51.387" y="243.325" style="fill:#27A2DB;" width="212.293" height="117.829"/>
<g>
	<path style="fill:#EBF0F3;" d="M112.442,277.74c4.133,3.452,6.199,8.773,6.199,15.963c0,7.19-2.108,12.453-6.33,15.794
		c-4.215,3.341-10.684,5.01-19.398,5.01H82.381v17.408h-10.02v-59.358H92.74C101.745,272.557,108.31,274.285,112.442,277.74z
		 M105.352,302.238c2.011-2.125,3.013-5.238,3.013-9.343c0-4.101-1.272-7.004-3.822-8.704c-2.55-1.697-6.537-2.547-11.976-2.547
		H82.381v23.776h11.63C99.561,305.42,103.341,304.36,105.352,302.238z"/>
	<path style="fill:#EBF0F3;" d="M130.444,331.915v-59.358h10.02v25.732h29.467v-25.732h10.02v59.358h-10.02v-24.287h-29.467v24.287
		H130.444z"/>
	<path style="fill:#EBF0F3;" d="M236.508,277.74c4.133,3.452,6.199,8.773,6.199,15.963c0,7.19-2.108,12.453-6.33,15.794
		c-4.215,3.341-10.684,5.01-19.398,5.01h-10.532v17.408h-10.02v-59.358h20.379C225.81,272.557,232.375,274.285,236.508,277.74z
		 M229.417,302.238c2.011-2.125,3.013-5.238,3.013-9.343c0-4.101-1.272-7.004-3.822-8.704c-2.55-1.697-6.537-2.547-11.976-2.547
		h-10.186v23.776h11.63C223.626,305.42,227.406,304.36,229.417,302.238z"/>
</g>
<polygon style="fill:#1C75A1;" points="51.387,361.149 79.693,371.231 79.693,361.149 "/>
<polygon style="fill:#D5D6DB;" points="352.85,94.439 416.905,163.86 416.905,94.439 "/>
<g>
</g>
<g>
</g>
<g>
</g>
<g>
</g>
<g>
</g>
<g>
</g>
<g>
</g>
<g>
</g>
<g>
</g>
<g>
</g>
<g>
</g>
<g>
</g>
<g>
</g>
<g>
</g>
<g>
</g>
</svg>
