<?xml version="1.0" encoding="iso-8859-1"?>
<!-- Generator: Adobe Illustrator 19.0.0, SVG Export Plug-In . SVG Version: 6.00 Build 0)  -->
<svg version="1.1" id="Capa_1" xmlns="http://www.w3.org/2000/svg" xmlns:xlink="http://www.w3.org/1999/xlink" x="0px" y="0px"
	 viewBox="0 0 468.293 468.293" style="enable-background:new 0 0 468.293 468.293;" xml:space="preserve">
<path style="fill:#E1E6E9;" d="M121.022,0L45.314,75.708v272.808c0,6.897,5.591,12.488,12.488,12.488h257.062V12.488
	C314.864,5.591,309.273,0,302.376,0H121.022z"/>
<polygon style="fill:#EBF0F3;" points="121.022,75.708 121.023,0 45.314,75.708 "/>
<rect x="306.848" y="344.301" transform="matrix(-0.7071 0.7071 -0.7071 -0.7071 805.6735 397.7959)" style="fill:#64798A;" width="27.205" height="42.915"/>
<path style="fill:#E56353;" d="M420.868,437.819l-28.362,28.362c-3.625,3.625-9.769,2.409-11.74-2.323l-3.135-7.526l-57.017-57.017
	c-2.812-2.812-2.812-7.372,0-10.184l23.203-23.203c2.812-2.812,7.372-2.812,10.184,0l57.017,57.017l7.526,3.135
	C423.276,428.05,424.492,434.194,420.868,437.819z"/>
<ellipse style="fill:#2D93BA;" cx="238.909" cy="284.198" rx="110.711" ry="110.711"/>
<ellipse style="fill:#27A2DB;" cx="238.909" cy="284.198" rx="93.846" ry="93.846"/>
<path style="fill:#E1E6E9;" d="M194.658,338.675c-2.819,2.819-7.391,2.82-10.211,0c-30.027-30.027-30.027-78.887,0-108.915
	c2.819-2.819,7.39-2.82,10.211,0c2.82,2.82,2.819,7.392,0,10.211c-24.397,24.397-24.398,64.095,0,88.493
	C197.478,331.285,197.476,335.857,194.658,338.675z"/>
<g>
	<rect x="149.641" y="38.244" style="fill:#D5D6DB;" width="24.976" height="24.976"/>
	<rect x="205.456" y="38.244" style="fill:#D5D6DB;" width="24.976" height="24.976"/>
	<rect x="261.245" y="38.244" style="fill:#D5D6DB;" width="24.976" height="24.976"/>
</g>
<g>
</g>
<g>
</g>
<g>
</g>
<g>
</g>
<g>
</g>
<g>
</g>
<g>
</g>
<g>
</g>
<g>
</g>
<g>
</g>
<g>
</g>
<g>
</g>
<g>
</g>
<g>
</g>
<g>
</g>
</svg>
