<?xml version="1.0" encoding="iso-8859-1"?>
<!-- Generator: Adobe Illustrator 19.0.0, SVG Export Plug-In . SVG Version: 6.00 Build 0)  -->
<svg version="1.1" id="Capa_1" xmlns="http://www.w3.org/2000/svg" xmlns:xlink="http://www.w3.org/1999/xlink" x="0px" y="0px"
	 viewBox="0 0 468.293 468.293" style="enable-background:new 0 0 468.293 468.293;" xml:space="preserve">
<path style="fill:#E1E6E9;" d="M368.145,0H137.996c-6.897,0-12.488,5.591-12.488,12.488v443.317c0,6.897,5.591,12.488,12.488,12.488
	h312.195c6.897,0,12.488-5.591,12.488-12.488V94.534L368.145,0z"/>
<polygon style="fill:#D5D6DB;" points="368.145,94.534 462.679,94.534 368.145,0 "/>
<path style="fill:#27A2DB;" d="M238.749,262.062l11.442-1.984c2.992-0.519,5.177-3.115,5.177-6.152l0-17.698
	c0-3.037-2.185-5.633-5.178-6.152l-11.44-1.983c-6.976-1.209-12.532-6.298-14.688-13.042c-1.652-5.164-3.717-10.143-6.16-14.896
	c-3.242-6.307-2.927-13.835,1.157-19.633l6.678-9.48c1.749-2.483,1.458-5.864-0.689-8.011l-12.514-12.514
	c-2.147-2.147-5.529-2.438-8.011-0.689l-9.479,6.678c-5.798,4.085-13.326,4.4-19.633,1.158c-4.753-2.443-9.731-4.508-14.895-6.159
	c-6.744-2.157-11.833-7.712-13.042-14.688l-1.983-11.441c-0.519-2.992-3.115-5.178-6.152-5.178H121.64
	c-3.037,0-5.633,2.185-6.152,5.177l-1.983,11.442c-1.209,6.976-6.298,12.531-13.041,14.688c-5.166,1.652-10.145,3.718-14.899,6.162
	c-6.308,3.242-13.836,2.928-19.634-1.157l-9.477-6.677c-2.483-1.749-5.864-1.458-8.011,0.689l-12.514,12.514
	c-2.147,2.148-2.438,5.529-0.689,8.011l6.679,9.479c4.085,5.797,4.4,13.325,1.158,19.632c-2.442,4.752-4.507,9.73-6.158,14.894
	c-2.156,6.744-7.712,11.833-14.688,13.043l-11.44,1.983c-2.992,0.519-5.177,3.115-5.177,6.152l0,17.698
	c0,3.037,2.185,5.633,5.178,6.152l11.442,1.983c6.976,1.209,12.531,6.298,14.688,13.041c1.651,5.163,3.716,10.14,6.159,14.891
	c3.242,6.307,2.927,13.836-1.157,19.633l-6.679,9.481c-1.749,2.483-1.458,5.864,0.689,8.011l12.514,12.514
	c2.147,2.147,5.529,2.438,8.011,0.689l9.482-6.68c5.798-4.085,13.326-4.4,19.633-1.158c4.751,2.442,9.728,4.506,14.89,6.157
	c6.744,2.157,11.832,7.712,13.042,14.688l1.983,11.442c0.519,2.992,3.115,5.177,6.152,5.177h17.698c3.037,0,5.633-2.185,6.152-5.178
	l1.983-11.441c1.209-6.976,6.298-12.532,13.042-14.688c5.163-1.651,10.141-3.716,14.893-6.158
	c6.307-3.242,13.835-2.927,19.632,1.158l9.485,6.682c2.483,1.749,5.864,1.458,8.011-0.689l12.514-12.515
	c2.147-2.148,2.438-5.529,0.689-8.011l-6.68-9.481c-4.085-5.798-4.4-13.326-1.158-19.634c2.443-4.753,4.508-9.731,6.16-14.895
	C226.218,268.36,231.773,263.272,238.749,262.062z"/>
<circle style="fill:#EBF0F3;" cx="130.491" cy="245.079" r="68.683"/>
<circle style="fill:#D5D6DB;" cx="130.491" cy="245.079" r="37.463"/>
<g>
	<rect x="176.852" y="395.62" style="fill:#64798A;" width="31.219" height="31.22"/>
	<rect x="244.605" y="395.62" style="fill:#64798A;" width="31.22" height="31.22"/>
	<rect x="312.382" y="395.62" style="fill:#64798A;" width="31.22" height="31.22"/>
	<rect x="380.129" y="395.62" style="fill:#64798A;" width="31.22" height="31.22"/>
</g>
<g>
	<rect x="286.47" y="149.566" style="fill:#D5D6DB;" width="124.878" height="18.732"/>
	<rect x="192.93" y="75.801" style="fill:#D5D6DB;" width="124.878" height="18.732"/>
	<rect x="286.47" y="206.998" style="fill:#D5D6DB;" width="124.878" height="18.732"/>
	<rect x="286.47" y="264.423" style="fill:#D5D6DB;" width="124.878" height="18.732"/>
	<rect x="286.47" y="321.873" style="fill:#D5D6DB;" width="124.878" height="18.732"/>
</g>
<g>
</g>
<g>
</g>
<g>
</g>
<g>
</g>
<g>
</g>
<g>
</g>
<g>
</g>
<g>
</g>
<g>
</g>
<g>
</g>
<g>
</g>
<g>
</g>
<g>
</g>
<g>
</g>
<g>
</g>
</svg>
