<?xml version="1.0" encoding="iso-8859-1"?>
<!-- Generator: Adobe Illustrator 19.0.0, SVG Export Plug-In . SVG Version: 6.00 Build 0)  -->
<svg version="1.1" id="Capa_1" xmlns="http://www.w3.org/2000/svg" xmlns:xlink="http://www.w3.org/1999/xlink" x="0px" y="0px"
	 viewBox="0 0 468.293 468.293" style="enable-background:new 0 0 468.293 468.293;" xml:space="preserve">
<path style="fill:#F6C358;" d="M262.014,180.516H0v-67.44c0-17.242,13.977-31.22,31.22-31.22h230.794V180.516z"/>
<path style="fill:#FCD462;" d="M381.648,366.407H27.261C12.205,366.407,0,354.202,0,339.147V153.775
	c0-15.056,12.205-27.261,27.261-27.261h129.252c10.777,0,20.543-6.349,24.916-16.199l24.345-54.836
	c4.373-9.85,14.138-16.199,24.916-16.199h150.96c15.056,0,27.261,12.205,27.261,27.261v272.606
	C408.909,354.202,396.704,366.407,381.648,366.407z"/>
<circle style="fill:#E56353;" cx="364.969" cy="325.688" r="103.324"/>
<path style="fill:#EBF0F3;" d="M419.549,311.585h-40.485v-40.481c0-7.788-6.313-14.101-14.101-14.101h0
	c-7.788,0-14.101,6.313-14.101,14.101v40.481h-40.478c-7.788,0-14.101,6.313-14.101,14.101v0c0,7.788,6.313,14.101,14.101,14.101
	h40.478v40.481c0,7.788,6.313,14.101,14.101,14.101h0c7.788,0,14.101-6.313,14.101-14.101v-40.481h40.485
	c7.788,0,14.101-6.313,14.101-14.101v0C433.649,317.899,427.336,311.585,419.549,311.585z"/>
<g>
</g>
<g>
</g>
<g>
</g>
<g>
</g>
<g>
</g>
<g>
</g>
<g>
</g>
<g>
</g>
<g>
</g>
<g>
</g>
<g>
</g>
<g>
</g>
<g>
</g>
<g>
</g>
<g>
</g>
</svg>
