<?xml version="1.0" encoding="iso-8859-1"?>
<!-- Generator: Adobe Illustrator 19.0.0, SVG Export Plug-In . SVG Version: 6.00 Build 0)  -->
<svg version="1.1" id="Capa_1" xmlns="http://www.w3.org/2000/svg" xmlns:xlink="http://www.w3.org/1999/xlink" x="0px" y="0px"
	 viewBox="0 0 468.293 468.293" style="enable-background:new 0 0 468.293 468.293;" xml:space="preserve">
<path style="fill:#FCD462;" d="M443.317,443.168H24.976C11.182,443.168,0,431.986,0,418.193V56.344
	c0-17.242,13.977-31.22,31.22-31.22h83.491c10.557,0,20.399,5.335,26.161,14.182l30.325,40.319
	c5.761,8.846,15.603,14.182,26.161,14.182h239.716c17.242,0,31.22,13.977,31.22,31.22v293.166
	C468.293,431.986,457.111,443.168,443.317,443.168z"/>
<rect x="53.073" y="133.226" style="fill:#E1E6E9;" width="362.146" height="134.331"/>
<rect x="21.854" y="164.315" style="fill:#EBF0F3;" width="424.585" height="103.243"/>
<path style="fill:#F6C358;" d="M443.317,443.168H24.976C11.182,443.168,0,431.986,0,418.193V195.637h468.293v222.556
	C468.293,431.986,457.111,443.168,443.317,443.168z"/>
<rect x="40.585" y="375.571" style="fill:#44C4A1;" width="104.061" height="31.22"/>
<rect x="167.337" y="375.571" style="fill:#27A2DB;" width="40.685" height="31.22"/>
<g>
</g>
<g>
</g>
<g>
</g>
<g>
</g>
<g>
</g>
<g>
</g>
<g>
</g>
<g>
</g>
<g>
</g>
<g>
</g>
<g>
</g>
<g>
</g>
<g>
</g>
<g>
</g>
<g>
</g>
</svg>
