<?xml version="1.0" encoding="iso-8859-1"?>
<!-- Generator: Adobe Illustrator 19.0.0, SVG Export Plug-In . SVG Version: 6.00 Build 0)  -->
<svg version="1.1" id="Capa_1" xmlns="http://www.w3.org/2000/svg" xmlns:xlink="http://www.w3.org/1999/xlink" x="0px" y="0px"
	 viewBox="0 0 468.293 468.293" style="enable-background:new 0 0 468.293 468.293;" xml:space="preserve">
<rect x="95.906" y="10.882" style="fill:#D5D6DB;" width="326.431" height="275.481"/>
<rect x="70.931" y="35.858" style="fill:#E1E6E9;" width="326.431" height="275.481"/>
<rect x="45.955" y="60.833" style="fill:#EBF0F3;" width="326.431" height="275.481"/>
<path style="fill:#DC8744;" d="M331.166,270.093v23.739c0,13.794-11.182,24.976-24.976,24.976H162.102
	c-13.794,0-24.976-11.182-24.976-24.976v-23.739c0-6.897-5.591-12.488-12.488-12.488H12.488C5.591,257.606,0,263.197,0,270.093
	v122.888c0,35.583,28.846,64.429,64.429,64.429h339.433c35.584,0,64.43-28.846,64.43-64.43V270.093
	c0-6.897-5.591-12.488-12.488-12.488H343.654C336.757,257.606,331.166,263.197,331.166,270.093z"/>
<rect x="177.951" y="375.632" style="fill:#F6C358;" width="112.39" height="24.976"/>
<rect x="84.293" y="203.238" style="fill:#E56353;" width="249.756" height="18.732"/>
<rect x="84.293" y="149.853" style="fill:#44C4A1;" width="249.756" height="18.732"/>
<rect x="84.293" y="96.442" style="fill:#27A2DB;" width="249.756" height="18.732"/>
<g>
</g>
<g>
</g>
<g>
</g>
<g>
</g>
<g>
</g>
<g>
</g>
<g>
</g>
<g>
</g>
<g>
</g>
<g>
</g>
<g>
</g>
<g>
</g>
<g>
</g>
<g>
</g>
<g>
</g>
</svg>
