<?xml version="1.0" encoding="iso-8859-1"?>
<!-- Generator: Adobe Illustrator 19.0.0, SVG Export Plug-In . SVG Version: 6.00 Build 0)  -->
<svg version="1.1" id="Capa_1" xmlns="http://www.w3.org/2000/svg" xmlns:xlink="http://www.w3.org/1999/xlink" x="0px" y="0px"
	 viewBox="0 0 468.2 468.2" style="enable-background:new 0 0 468.2 468.2;" xml:space="preserve">
<path style="fill:#E1E6E9;" d="M368.1,0H33.3C27.1,0,22,5.1,22,11.3v260.1c0,6.2,5.1,11.3,11.3,11.3h401.5c6.2,0,11.3-5.1,11.3-11.3
	V78L368.1,0z"/>
<polygon style="fill:#EBF0F3;" points="368.1,78 446.2,78 368.1,0 "/>
<g>
	<rect x="227.1" y="282.7" style="fill:#2D93BA;" width="14" height="78.6"/>
	<path style="fill:#2D93BA;" d="M389.1,413c-3.9,0-7-3.1-7-7v-37.7h-296V406c0,3.9-3.1,7-7,7s-7-3.1-7-7v-44.7c0-3.9,3.1-7,7-7h310
		c3.9,0,7,3.1,7,7V406C396.1,409.9,393,413,389.1,413z"/>
</g>
<rect x="203" y="330.2" style="fill:#44C4A1;" width="62.2" height="62.2"/>
<rect x="48" y="406" style="fill:#FCD462;" width="62.2" height="62.2"/>
<rect x="358" y="406" style="fill:#E56353;" width="62.2" height="62.2"/>
<g>
	<rect x="78" y="189.7" style="fill:#D5D6DB;" width="312.2" height="18.7"/>
	<rect x="78" y="132" style="fill:#D5D6DB;" width="312.2" height="18.7"/>
	<rect x="78" y="74.2" style="fill:#D5D6DB;" width="231" height="18.7"/>
</g>
<g>
</g>
<g>
</g>
<g>
</g>
<g>
</g>
<g>
</g>
<g>
</g>
<g>
</g>
<g>
</g>
<g>
</g>
<g>
</g>
<g>
</g>
<g>
</g>
<g>
</g>
<g>
</g>
<g>
</g>
</svg>
