<?xml version="1.0" encoding="iso-8859-1"?>
<!-- Generator: Adobe Illustrator 19.0.0, SVG Export Plug-In . SVG Version: 6.00 Build 0)  -->
<svg version="1.1" id="Capa_1" xmlns="http://www.w3.org/2000/svg" xmlns:xlink="http://www.w3.org/1999/xlink" x="0px" y="0px"
	 viewBox="0 0 468.293 468.293" style="enable-background:new 0 0 468.293 468.293;" xml:space="preserve">
<rect style="fill:#27A2DB;" width="156.098" height="468.293"/>
<rect x="156.098" style="fill:#44C4A1;" width="156.098" height="468.293"/>
<rect x="312.195" style="fill:#E56353;" width="156.098" height="468.293"/>
<rect x="28.098" y="39.168" style="fill:#EBF0F3;" width="99.902" height="265.054"/>
<circle style="fill:#3A556A;" cx="78.049" cy="385.436" r="43.707"/>
<rect x="184.195" y="39.168" style="fill:#EBF0F3;" width="99.902" height="265.054"/>
<circle style="fill:#3A556A;" cx="234.146" cy="385.436" r="43.707"/>
<rect x="340.293" y="39.168" style="fill:#EBF0F3;" width="99.902" height="265.054"/>
<circle style="fill:#3A556A;" cx="390.244" cy="385.436" r="43.707"/>
<g>
	<rect x="46.829" y="162.341" style="fill:#D5D6DB;" width="62.439" height="18.732"/>
	<rect x="46.829" y="224.78" style="fill:#D5D6DB;" width="62.439" height="18.732"/>
	<rect x="46.829" y="99.902" style="fill:#D5D6DB;" width="62.439" height="18.732"/>
	<rect x="202.927" y="162.341" style="fill:#D5D6DB;" width="62.439" height="18.732"/>
	<rect x="202.927" y="224.78" style="fill:#D5D6DB;" width="62.439" height="18.732"/>
	<rect x="202.927" y="99.902" style="fill:#D5D6DB;" width="62.439" height="18.732"/>
	<rect x="359.024" y="162.341" style="fill:#D5D6DB;" width="62.439" height="18.732"/>
	<rect x="359.024" y="224.78" style="fill:#D5D6DB;" width="62.439" height="18.732"/>
	<rect x="359.024" y="99.902" style="fill:#D5D6DB;" width="62.439" height="18.732"/>
</g>
<g>
</g>
<g>
</g>
<g>
</g>
<g>
</g>
<g>
</g>
<g>
</g>
<g>
</g>
<g>
</g>
<g>
</g>
<g>
</g>
<g>
</g>
<g>
</g>
<g>
</g>
<g>
</g>
<g>
</g>
</svg>
