<?xml version="1.0" encoding="iso-8859-1"?>
<!-- Generator: Adobe Illustrator 19.0.0, SVG Export Plug-In . SVG Version: 6.00 Build 0)  -->
<svg version="1.1" id="Capa_1" xmlns="http://www.w3.org/2000/svg" xmlns:xlink="http://www.w3.org/1999/xlink" x="0px" y="0px"
	 viewBox="0 0 468.293 468.293" style="enable-background:new 0 0 468.293 468.293;" xml:space="preserve">
<path style="fill:#FCD462;" d="M449.561,446.439H18.732C8.386,446.439,0,438.053,0,427.707V40.585
	C0,30.24,8.386,21.854,18.732,21.854h99.288c5.621,0,10.944,2.524,14.502,6.876l39.804,48.688c3.558,4.352,8.881,6.876,14.502,6.876
	h262.733c10.345,0,18.732,8.386,18.732,18.732v324.683C468.293,438.053,459.906,446.439,449.561,446.439z"/>
<rect y="150.21" style="fill:#F6C358;" width="468.293" height="37.463"/>
<path style="fill:#64798A;" d="M357.315,272.571H241.949v-46.183c0-4.311-3.494-7.805-7.805-7.805s-7.805,3.494-7.805,7.805v46.183
	H110.98c-4.311,0-7.805,3.494-7.805,7.805v72.713c0,4.311,3.494,7.805,7.805,7.805c4.311,0,7.805-3.494,7.805-7.805V288.18h107.555
	v64.909c0,4.311,3.494,7.805,7.805,7.805s7.805-3.494,7.805-7.805V288.18H349.51v64.909c0,4.311,3.494,7.805,7.805,7.805
	s7.805-3.494,7.805-7.805v-72.713C365.12,276.064,361.626,272.571,357.315,272.571z"/>
<rect x="202.927" y="249.132" style="fill:#E56353;" width="62.439" height="62.439"/>
<rect x="79.76" y="353.093" style="fill:#27A2DB;" width="62.439" height="62.439"/>
<rect x="202.927" y="353.093" style="fill:#44C4A1;" width="62.439" height="62.439"/>
<rect x="326.094" y="353.093" style="fill:#DC8744;" width="62.439" height="62.439"/>
<g>
</g>
<g>
</g>
<g>
</g>
<g>
</g>
<g>
</g>
<g>
</g>
<g>
</g>
<g>
</g>
<g>
</g>
<g>
</g>
<g>
</g>
<g>
</g>
<g>
</g>
<g>
</g>
<g>
</g>
</svg>
