<?xml version="1.0" encoding="iso-8859-1"?>
<!-- Generator: Adobe Illustrator 19.0.0, SVG Export Plug-In . SVG Version: 6.00 Build 0)  -->
<svg version="1.1" id="Capa_1" xmlns="http://www.w3.org/2000/svg" xmlns:xlink="http://www.w3.org/1999/xlink" x="0px" y="0px"
	 viewBox="0 0 468.293 468.293" style="enable-background:new 0 0 468.293 468.293;" xml:space="preserve">
<path style="fill:#E1E6E9;" d="M94.058,0L15.611,78.447v371.114c0,10.345,8.386,18.732,18.732,18.732h305.951
	c10.345,0,18.732-8.386,18.732-18.732V18.732C359.026,8.386,350.639,0,340.294,0H94.058z"/>
<polygon style="fill:#D5D6DB;" points="94.056,78.447 94.057,0 15.608,78.447 "/>
<path style="fill:#FCD462;" d="M440.196,166.967H277.855c-6.897,0-12.488-5.591-12.488-12.488V75.064
	c0-6.897,5.591-12.488,12.488-12.488h162.341c6.897,0,12.488,5.591,12.488,12.488v79.415
	C452.684,161.376,447.093,166.967,440.196,166.967z"/>
<g>
	<path style="fill:#64798A;" d="M293.161,137.219h-7.579V92.324H297.4l13.553,28.196L324.5,92.324h11.755v44.895h-7.579v-35.066
		l-15.67,31.149h-4.239l-15.607-31.149V137.219z"/>
	<path style="fill:#64798A;" d="M348.716,92.324h7.579v21.903l20.552-21.903h9.633l-18.048,19.655l18.304,25.24h-8.99
		l-14.901-19.653l-6.549,7.064v12.589h-7.579V92.324z"/>
	<path style="fill:#64798A;" d="M414.421,137.219h-8.478l-18.048-44.895h8.478l13.809,33.527l13.809-33.527h8.478L414.421,137.219z"
		/>
</g>
<path style="fill:#2D93BA;" d="M145.46,281.464H80.065v-17.935c0-9.122,7.422-16.541,16.541-16.541h32.318
	c9.119,0,16.536,7.419,16.536,16.541V281.464z M91.572,273.202h42.381v-9.673c0-2.776-2.253-5.034-5.029-5.034H96.606
	c-2.776,0-5.034,2.259-5.034,5.034V273.202z"/>
<path style="fill:#27A2DB;" d="M239.326,388.271H68.684c-6.897,0-12.488-5.591-12.488-12.488V285.69
	c0-6.897,5.591-12.488,12.488-12.488h170.642c6.897,0,12.488,5.591,12.488,12.488v90.093
	C251.814,382.68,246.223,388.271,239.326,388.271z"/>
<path style="fill:#2D93BA;" d="M302.211,380.967l-50.397-22.681v-55.101l50.397-22.681c7.615-3.427,16.229,2.143,16.229,10.493
	v79.475C318.44,378.824,309.826,384.394,302.211,380.967z"/>
<circle style="fill:#FCD462;" cx="85.822" cy="298.708" r="11.508"/>
<circle style="fill:#44C4A1;" cx="120.339" cy="298.708" r="11.508"/>
<rect x="144.521" y="291.528" style="fill:#2D93BA;" width="86.303" height="14.386"/>
<g>
</g>
<g>
</g>
<g>
</g>
<g>
</g>
<g>
</g>
<g>
</g>
<g>
</g>
<g>
</g>
<g>
</g>
<g>
</g>
<g>
</g>
<g>
</g>
<g>
</g>
<g>
</g>
<g>
</g>
</svg>
