<?xml version="1.0" encoding="iso-8859-1"?>
<!-- Generator: Adobe Illustrator 19.0.0, SVG Export Plug-In . SVG Version: 6.00 Build 0)  -->
<svg version="1.1" id="Capa_1" xmlns="http://www.w3.org/2000/svg" xmlns:xlink="http://www.w3.org/1999/xlink" x="0px" y="0px"
	 viewBox="0 0 468.293 468.293" style="enable-background:new 0 0 468.293 468.293;" xml:space="preserve">
<path style="fill:#44C4A1;" d="M444.7,300.059H23.593V71.955c0-12.404,10.055-22.459,22.459-22.459h68.123
	c6.636,0,12.932,2.935,17.199,8.016l28.971,34.5c4.267,5.082,10.563,8.016,17.199,8.016h244.696
	c12.404,0,22.459,10.055,22.459,22.459V300.059z"/>
<path style="fill:#3EA69B;" d="M414.318,418.796H53.975c-11.205,0-20.695-8.258-22.244-19.356L0.11,172.793
	c-0.942-6.753,4.303-12.781,11.122-12.781h445.83c6.819,0,12.064,6.028,11.122,12.781l-31.621,226.647
	C435.013,410.538,425.523,418.796,414.318,418.796z"/>
<path style="fill:#FCD462;" d="M274.72,389.307h-81.147c-17.242,0-31.22-13.977-31.22-31.22v-82.114h143.586v82.114
	C305.939,375.329,291.962,389.307,274.72,389.307z"/>
<path style="fill:#E1E6E9;" d="M234.147,189.502L234.147,189.502c-32.403,0-58.672,26.268-58.672,58.671v27.8h21.611v-27.801
	c0-20.435,16.624-37.062,37.06-37.062s37.064,16.626,37.064,37.062v27.801h21.609v-27.8
	C292.818,215.77,266.55,189.502,234.147,189.502z"/>
<path style="fill:#3A556A;" d="M248.192,338.371c0-7.757-6.289-14.046-14.046-14.046c-7.757,0-14.045,6.289-14.045,14.046
	c0,5.155,2.807,9.613,6.946,12.056v15.96c0,3.921,3.179,7.099,7.099,7.099c3.921,0,7.099-3.178,7.099-7.099v-15.96
	C245.384,347.984,248.192,343.526,248.192,338.371z"/>
<g>
</g>
<g>
</g>
<g>
</g>
<g>
</g>
<g>
</g>
<g>
</g>
<g>
</g>
<g>
</g>
<g>
</g>
<g>
</g>
<g>
</g>
<g>
</g>
<g>
</g>
<g>
</g>
<g>
</g>
</svg>
